G04 #@! TF.FileFunction,Soldermask,Bot*
%FSLAX46Y46*%
G04 Gerber Fmt 4.6, Leading zero omitted, Abs format (unit mm)*
G04 Created by KiCad (PCBNEW 4.0.5+dfsg1-4) date Sun May 14 19:10:16 2017*
%MOMM*%
%LPD*%
G01*
G04 APERTURE LIST*
%ADD10C,0.100000*%
%ADD11C,3.500000*%
%ADD12R,3.000000X2.000000*%
%ADD13C,0.800000*%
%ADD14C,5.500000*%
%ADD15C,30.000000*%
%ADD16R,2.000000X2.000000*%
%ADD17C,2.000000*%
%ADD18O,2.500000X4.000000*%
G04 APERTURE END LIST*
D10*
D11*
X85000000Y-216500000D03*
X185000000Y-215000000D03*
X290000000Y-140000000D03*
X210000000Y-135000000D03*
X180000000Y-105000000D03*
X75000000Y-105000000D03*
D12*
X133636000Y-173558200D03*
X137636000Y-173558200D03*
D13*
X100863400Y-217093800D03*
X166192200Y-169265600D03*
X154152600Y-179781200D03*
X237591600Y-184861200D03*
X110464600Y-203682600D03*
X217195400Y-213461600D03*
D14*
X249500000Y-174000000D03*
X246000000Y-185000000D03*
X280500000Y-196000000D03*
D15*
X265000000Y-185000000D03*
D14*
X249500000Y-196000000D03*
X280500000Y-174000000D03*
X247980600Y-209219800D03*
X228980600Y-209219800D03*
X294995600Y-214579200D03*
X212344000Y-158317800D03*
X212344000Y-177317800D03*
X85827600Y-107848400D03*
X101827600Y-107848400D03*
X110388400Y-131516600D03*
X110388400Y-145516600D03*
X264998200Y-166482600D03*
X264998200Y-203682600D03*
X104203500Y-164380500D03*
X104203500Y-210580500D03*
D16*
X253314200Y-146862800D03*
D17*
X253314200Y-154482800D03*
D18*
X229768400Y-154432000D03*
X234848400Y-154432000D03*
X247548400Y-154432000D03*
X247548400Y-146812000D03*
X234848400Y-146812000D03*
X229768400Y-146812000D03*
X239928400Y-146812000D03*
X239928400Y-154432000D03*
D14*
X181737000Y-146532600D03*
X191287400Y-146532600D03*
X163195000Y-135077200D03*
X143560800Y-107442000D03*
X243723400Y-162560000D03*
X257723400Y-162560000D03*
X108123200Y-155092400D03*
X122123200Y-155092400D03*
X264983200Y-158673800D03*
X278983200Y-158673800D03*
X239725200Y-177990500D03*
X239725200Y-191990500D03*
X226237800Y-192140600D03*
X226237800Y-178140600D03*
X240878600Y-204470000D03*
X254878600Y-204470000D03*
X207797400Y-192263000D03*
X207797400Y-206263000D03*
X206146400Y-153121600D03*
X206146400Y-167121600D03*
X161594800Y-178125600D03*
X161594800Y-192125600D03*
X147650200Y-200548000D03*
X147650200Y-186548000D03*
X159751000Y-204292200D03*
X173751000Y-204292200D03*
X127812800Y-192466200D03*
X127812800Y-206466200D03*
X112583200Y-164312600D03*
X126583200Y-164312600D03*
X140182600Y-183580800D03*
X140182600Y-169580800D03*
X76936600Y-169870600D03*
X76936600Y-183870600D03*
X294411400Y-184378600D03*
X288315400Y-157530800D03*
X288315400Y-176530800D03*
X232092500Y-172510400D03*
X232092500Y-197510400D03*
X218694000Y-182409700D03*
X218694000Y-201409700D03*
X155194000Y-172589800D03*
X155194000Y-197589800D03*
X166751000Y-209092800D03*
X147751000Y-209092800D03*
X133578600Y-158698800D03*
X133578600Y-177698800D03*
X93751800Y-215366600D03*
X74751800Y-215366600D03*
X92633800Y-117657200D03*
X92633800Y-163857200D03*
X132156200Y-185684400D03*
X132156200Y-199684400D03*
X81483200Y-209956400D03*
X81483200Y-195956400D03*
X137922000Y-191475600D03*
X137922000Y-205475600D03*
X82143600Y-163611800D03*
X82143600Y-177611800D03*
X72999600Y-190876400D03*
X72999600Y-204876400D03*
X77114400Y-132130800D03*
X77114400Y-116130800D03*
X169500000Y-174000000D03*
X166000000Y-185000000D03*
X200500000Y-196000000D03*
D15*
X185000000Y-185000000D03*
D14*
X169500000Y-196000000D03*
X200500000Y-174000000D03*
X204000000Y-185000000D03*
X89500000Y-174000000D03*
X86000000Y-185000000D03*
X120500000Y-196000000D03*
D15*
X105000000Y-185000000D03*
D14*
X89500000Y-196000000D03*
X120500000Y-174000000D03*
X124000000Y-185000000D03*
X287096200Y-188366400D03*
X287096200Y-213366400D03*
X273252800Y-150164800D03*
X292252800Y-150164800D03*
X185006000Y-162775200D03*
X185006000Y-206975200D03*
X296443400Y-176428800D03*
X296443400Y-157428800D03*
D16*
X169341800Y-150012400D03*
D17*
X169341800Y-157632400D03*
D18*
X145643600Y-157556200D03*
X150723600Y-157556200D03*
X163423600Y-157556200D03*
X163423600Y-149936200D03*
X150723600Y-149936200D03*
X145643600Y-149936200D03*
X155803600Y-149936200D03*
X155803600Y-157556200D03*
D14*
X145745200Y-163550600D03*
X158318200Y-141681200D03*
X133324600Y-146710400D03*
X167894000Y-141757400D03*
X130000000Y-106000000D03*
X116500000Y-138500000D03*
X143500000Y-138500000D03*
D15*
X130000000Y-125000000D03*
M02*
