M48
;DRILL file {KiCad 4.0.5+dfsg1-4} date Sun May 14 18:56:40 2017
;FORMAT={-:-/ absolute / metric / decimal}
FMAT,2
METRIC,TZ
T1C0.600
T2C0.800
T3C1.200
T4C2.800
T5C3.200
%
G90
G05
M71
T1
X85.852Y-205.74
X93.599Y-205.74
X100.863Y-217.094
X110.465Y-203.683
X154.153Y-179.781
X166.192Y-169.266
X176.53Y-153.873
X206.197Y-159.995
X212.344Y-166.141
X217.195Y-213.462
X231.089Y-190.792
X236.601Y-167.157
X237.592Y-184.861
T2
X169.342Y-150.012
X169.342Y-157.632
X253.314Y-146.863
X253.314Y-154.483
T3
X145.644Y-149.936
X145.644Y-157.556
X150.724Y-149.936
X150.724Y-157.556
X155.804Y-149.936
X155.804Y-157.556
X163.424Y-149.936
X163.424Y-157.556
X229.768Y-146.812
X229.768Y-154.432
X234.848Y-146.812
X234.848Y-154.432
X239.928Y-146.812
X239.928Y-154.432
X247.548Y-146.812
X247.548Y-154.432
T4
X73.Y-190.876
X73.Y-204.876
X74.752Y-215.367
X76.937Y-169.871
X76.937Y-183.871
X77.114Y-116.131
X77.114Y-132.131
X81.483Y-195.956
X81.483Y-209.956
X82.144Y-163.612
X82.144Y-177.612
X85.828Y-107.848
X86.Y-185.
X89.5Y-174.
X89.5Y-196.
X92.634Y-117.657
X92.634Y-163.857
X93.752Y-215.367
X101.828Y-107.848
X104.203Y-164.38
X104.203Y-210.581
X108.123Y-155.092
X110.388Y-131.517
X110.388Y-145.517
X112.583Y-164.313
X116.5Y-138.5
X120.5Y-174.
X120.5Y-196.
X122.123Y-155.092
X124.Y-185.
X126.583Y-164.313
X127.813Y-192.466
X127.813Y-206.466
X130.Y-106.
X132.156Y-185.684
X132.156Y-199.684
X133.325Y-146.71
X133.579Y-158.699
X133.579Y-177.699
X137.922Y-191.476
X137.922Y-205.476
X140.183Y-169.581
X140.183Y-183.581
X143.5Y-138.5
X143.561Y-107.442
X145.745Y-163.551
X147.65Y-186.548
X147.65Y-200.548
X147.751Y-209.093
X155.194Y-172.59
X155.194Y-197.59
X158.318Y-141.681
X159.751Y-204.292
X161.595Y-178.126
X161.595Y-192.126
X163.195Y-135.077
X166.Y-185.
X166.751Y-209.093
X167.894Y-141.757
X169.5Y-174.
X169.5Y-196.
X173.751Y-204.292
X181.737Y-146.533
X185.006Y-162.775
X185.006Y-206.975
X191.287Y-146.533
X200.5Y-174.
X200.5Y-196.
X204.Y-185.
X206.146Y-153.122
X206.146Y-167.122
X207.797Y-192.263
X207.797Y-206.263
X212.344Y-158.318
X212.344Y-177.318
X218.694Y-182.41
X218.694Y-201.41
X226.238Y-178.141
X226.238Y-192.141
X228.981Y-209.22
X232.093Y-172.51
X232.093Y-197.51
X239.725Y-177.99
X239.725Y-191.99
X240.879Y-204.47
X243.723Y-162.56
X246.Y-185.
X247.981Y-209.22
X249.5Y-174.
X249.5Y-196.
X254.879Y-204.47
X257.723Y-162.56
X264.983Y-158.674
X264.998Y-166.483
X264.998Y-203.683
X273.253Y-150.165
X278.983Y-158.674
X280.5Y-174.
X280.5Y-196.
X287.096Y-188.366
X287.096Y-213.366
X288.315Y-157.531
X288.315Y-176.531
X292.253Y-150.165
X294.411Y-184.379
X296.443Y-157.429
X296.443Y-176.429
T5
X294.996Y-214.579
T0
M30
