M48
;DRILL file {KiCad 4.0.4+dfsg1-stable} date Tue Sep 27 18:50:17 2016
;FORMAT={-:-/ absolute / metric / decimal}
FMAT,2
METRIC,TZ
T1C0.600
T2C0.800
T3C1.200
T4C2.800
T5C3.200
%
G90
G05
M71
T1
X81.031Y-195.612
X85.983Y-111.063
X130.302Y-143.51
X144.526Y-143.51
T2
X243.586Y-118.872
X251.206Y-118.872
T3
X243.586Y-124.46
X243.586Y-132.08
X243.586Y-137.16
X243.586Y-142.24
X251.206Y-124.46
X251.206Y-132.08
X251.206Y-137.16
X251.206Y-142.24
T4
X75.692Y-175.793
X75.692Y-194.793
X75.692Y-204.978
X75.819Y-117.475
X75.819Y-146.05
X75.819Y-161.163
X84.694Y-204.216
X86.Y-185.
X88.519Y-161.133
X88.519Y-175.133
X89.5Y-196.
X95.631Y-168.275
X96.316Y-213.36
X96.647Y-109.855
X96.647Y-119.532
X96.647Y-138.532
X98.694Y-204.216
X99.593Y-159.004
X106.299Y-124.445
X106.299Y-138.445
X108.062Y-205.359
X111.491Y-165.989
X115.316Y-213.36
X116.5Y-138.5
X118.593Y-159.004
X120.5Y-174.
X120.5Y-196.
X122.062Y-205.359
X124.Y-185.
X125.491Y-165.989
X130.Y-106.
X131.445Y-190.739
X131.445Y-204.739
X134.366Y-162.839
X134.366Y-181.839
X137.399Y-212.344
X140.589Y-174.864
X140.589Y-188.864
X143.5Y-138.5
X146.685Y-167.849
X146.685Y-181.849
X146.685Y-181.849
X146.685Y-195.849
X151.399Y-212.344
X151.766Y-159.385
X152.781Y-188.834
X152.781Y-202.834
X159.5Y-174.
X159.5Y-196.
X160.401Y-112.903
X163.18Y-138.43
X163.214Y-216.662
X167.766Y-159.385
X170.18Y-112.928
X170.18Y-131.928
X175.743Y-164.465
X175.743Y-210.665
X177.18Y-138.43
X186.5Y-138.5
X188.214Y-216.662
X190.5Y-174.
X190.5Y-196.
X194.Y-185.
X199.898Y-158.212
X199.898Y-172.212
X200.Y-106.
X202.184Y-190.144
X202.184Y-209.144
X205.359Y-180.111
X205.359Y-199.111
X209.154Y-154.432
X211.709Y-192.009
X211.709Y-206.009
X213.5Y-138.5
X218.313Y-185.024
X218.313Y-199.024
X223.154Y-154.432
X224.663Y-164.054
X224.663Y-178.039
X224.663Y-178.054
X224.663Y-192.039
X231.Y-185.
X231.394Y-108.966
X231.394Y-118.872
X234.5Y-174.
X234.5Y-196.
X234.569Y-142.24
X240.563Y-160.02
X250.063Y-166.525
X250.063Y-212.725
X259.563Y-160.02
X259.969Y-123.24
X259.969Y-142.24
X262.836Y-212.598
X265.5Y-174.
X265.5Y-196.
X269.Y-185.
X269.494Y-123.19
X273.177Y-154.544
X273.177Y-168.544
X280.909Y-205.994
X281.432Y-173.126
X281.432Y-192.126
X287.836Y-212.598
X287.909Y-185.136
X287.909Y-199.136
X291.211Y-151.242
X291.211Y-165.242
X294.513Y-178.024
X294.513Y-192.024
X294.909Y-205.994
X297.8Y-158.369
X301.Y-185.
X304.5Y-174.
X304.5Y-196.
X310.866Y-214.249
X311.8Y-158.369
X320.04Y-166.381
X320.04Y-203.581
X321.407Y-156.972
X324.866Y-214.249
X335.407Y-156.972
X335.5Y-174.
X335.5Y-196.
X343.916Y-189.249
X343.916Y-214.249
X344.17Y-160.807
X344.17Y-179.807
T5
X334.391Y-214.249
T0
M30
