G04 #@! TF.FileFunction,Copper,L1,Top,Signal*
%FSLAX46Y46*%
G04 Gerber Fmt 4.6, Leading zero omitted, Abs format (unit mm)*
G04 Created by KiCad (PCBNEW 4.0.4+dfsg1-stable) date Tue Sep 27 18:50:27 2016*
%MOMM*%
%LPD*%
G01*
G04 APERTURE LIST*
%ADD10C,0.100000*%
%ADD11C,5.500000*%
%ADD12R,2.000000X2.000000*%
%ADD13C,2.000000*%
%ADD14O,4.000000X2.500000*%
%ADD15R,1.600200X1.168400*%
%ADD16C,0.800000*%
%ADD17C,1.200000*%
%ADD18C,0.800000*%
%ADD19C,2.000000*%
%ADD20C,0.500000*%
G04 APERTURE END LIST*
D10*
D11*
X146685000Y-181849000D03*
X146685000Y-195849000D03*
X259969000Y-142240000D03*
X259969000Y-123240000D03*
X343916000Y-189249000D03*
X343916000Y-214249000D03*
X287836000Y-212598000D03*
X262836000Y-212598000D03*
X163214000Y-216662000D03*
X188214000Y-216662000D03*
X202184000Y-190144000D03*
X202184000Y-209144000D03*
X259563000Y-160020000D03*
X240563000Y-160020000D03*
X118593000Y-159004000D03*
X99593000Y-159004000D03*
X281432000Y-192126000D03*
X281432000Y-173126000D03*
X170180000Y-131928000D03*
X170180000Y-112928000D03*
X96647000Y-119532000D03*
X96647000Y-138532000D03*
X75692000Y-175793000D03*
X75692000Y-194793000D03*
X96316000Y-213360000D03*
X115316000Y-213360000D03*
X134366000Y-162839000D03*
X134366000Y-181839000D03*
X334391000Y-214249000D03*
X344170000Y-179807000D03*
X344170000Y-160807000D03*
X205359000Y-199111000D03*
X205359000Y-180111000D03*
X151766000Y-159385000D03*
X167766000Y-159385000D03*
X86000000Y-185000000D03*
X120500000Y-196000000D03*
X89500000Y-196000000D03*
X120500000Y-174000000D03*
X124000000Y-185000000D03*
X177180000Y-138430000D03*
X163180000Y-138430000D03*
X159500000Y-174000000D03*
X190500000Y-196000000D03*
X159500000Y-196000000D03*
X190500000Y-174000000D03*
X194000000Y-185000000D03*
X304500000Y-174000000D03*
X301000000Y-185000000D03*
X335500000Y-196000000D03*
X304500000Y-196000000D03*
X335500000Y-174000000D03*
X320040000Y-166381000D03*
X320040000Y-203581000D03*
X250063000Y-166525000D03*
X250063000Y-212725000D03*
X175742600Y-164465000D03*
X175742600Y-210665000D03*
D12*
X243586000Y-118872000D03*
D13*
X251206000Y-118872000D03*
D14*
X251206000Y-142240000D03*
X251206000Y-137160000D03*
X251206000Y-124460000D03*
X243586000Y-124460000D03*
X243586000Y-137160000D03*
X243586000Y-142240000D03*
X243586000Y-132080000D03*
X251206000Y-132080000D03*
D11*
X231394000Y-118872000D03*
X231394000Y-108966000D03*
X75819000Y-161163000D03*
X234569000Y-142240000D03*
X95631000Y-168275000D03*
X96647000Y-109855000D03*
X75819000Y-146050000D03*
X75819000Y-117475000D03*
X160401000Y-112903000D03*
X297800000Y-158369000D03*
X311800000Y-158369000D03*
X209154000Y-154432000D03*
X223154000Y-154432000D03*
X321407000Y-156972000D03*
X335407000Y-156972000D03*
X324866000Y-214249000D03*
X310866000Y-214249000D03*
X291211000Y-151242000D03*
X291211000Y-165242000D03*
X273177000Y-154544000D03*
X273177000Y-168544000D03*
X224663000Y-164054000D03*
X224663000Y-178054000D03*
X224663000Y-178039000D03*
X224663000Y-192039000D03*
X211709000Y-192009000D03*
X211709000Y-206009000D03*
X287909000Y-185136000D03*
X287909000Y-199136000D03*
X218313000Y-185024000D03*
X218313000Y-199024000D03*
X294513000Y-178024000D03*
X294513000Y-192024000D03*
X280909000Y-205994000D03*
X294909000Y-205994000D03*
X199898000Y-158212000D03*
X199898000Y-172212000D03*
X152781000Y-188834000D03*
X152781000Y-202834000D03*
X146685000Y-167849000D03*
X146685000Y-181849000D03*
X140589000Y-174864000D03*
X140589000Y-188864000D03*
X131445000Y-204739000D03*
X131445000Y-190739000D03*
X111491000Y-165989000D03*
X125491000Y-165989000D03*
X108062000Y-205359000D03*
X122062000Y-205359000D03*
X137399000Y-212344000D03*
X151399000Y-212344000D03*
X88519000Y-161133000D03*
X88519000Y-175133000D03*
X84694000Y-204216000D03*
X98694000Y-204216000D03*
X106299000Y-138445000D03*
X106299000Y-124445000D03*
X234500000Y-174000000D03*
X231000000Y-185000000D03*
X265500000Y-196000000D03*
X234500000Y-196000000D03*
X265500000Y-174000000D03*
X269000000Y-185000000D03*
X130000000Y-106000000D03*
X116500000Y-138500000D03*
X143500000Y-138500000D03*
X200000000Y-106000000D03*
X186500000Y-138500000D03*
X213500000Y-138500000D03*
X269494000Y-123190000D03*
X75692000Y-204978000D03*
D15*
X334391000Y-208788000D03*
X334391000Y-210312000D03*
D16*
X85982792Y-111062659D03*
X81031361Y-195612400D03*
D17*
X130302000Y-143510000D03*
X144526000Y-143510000D03*
D18*
X320040000Y-166381000D02*
X317914872Y-168506128D01*
X317914872Y-168506128D02*
X300141785Y-168506128D01*
X300141785Y-168506128D02*
X294513000Y-174134913D01*
X294513000Y-174134913D02*
X294513000Y-178024000D01*
X311800000Y-158369000D02*
X319812000Y-166381000D01*
X319812000Y-166381000D02*
X320040000Y-166381000D01*
X320040000Y-166381000D02*
X320040000Y-158339000D01*
X320040000Y-158339000D02*
X321407000Y-156972000D01*
X323342000Y-206883000D02*
X332486000Y-206883000D01*
X332486000Y-206883000D02*
X334130799Y-208527799D01*
X320040000Y-203581000D02*
X323342000Y-206883000D01*
D19*
X146685000Y-195849000D02*
X146685000Y-207630000D01*
X146685000Y-207630000D02*
X151399000Y-212344000D01*
X291211000Y-165242000D02*
X299475272Y-165242000D01*
X299475272Y-165242000D02*
X304474615Y-160242657D01*
X304474615Y-160242657D02*
X304474615Y-155255238D01*
X304474615Y-155255238D02*
X292856377Y-143637000D01*
X292856377Y-143637000D02*
X276352000Y-143637000D01*
X276352000Y-143637000D02*
X269356304Y-136641304D01*
X269356304Y-136641304D02*
X269356304Y-123442701D01*
X269356304Y-123442701D02*
X269476022Y-123322983D01*
X86382791Y-110662660D02*
X85982792Y-111062659D01*
X93795450Y-103250001D02*
X86382791Y-110662660D01*
X127250001Y-103250001D02*
X93795450Y-103250001D01*
X130000000Y-106000000D02*
X127250001Y-103250001D01*
X79756000Y-206012002D02*
X79756000Y-199308742D01*
X79756000Y-199308742D02*
X81031361Y-198033381D01*
X81031361Y-198033381D02*
X81031361Y-195612400D01*
X75692000Y-204978000D02*
X79581087Y-204978000D01*
X79581087Y-204978000D02*
X79756000Y-205152913D01*
X79756000Y-205152913D02*
X79756000Y-206012002D01*
X202184000Y-209144000D02*
X199434001Y-206394001D01*
X199434001Y-206394001D02*
X180013599Y-206394001D01*
X180013599Y-206394001D02*
X175742600Y-210665000D01*
X188214000Y-216662000D02*
X181739600Y-216662000D01*
X181739600Y-216662000D02*
X175742600Y-210665000D01*
X192885000Y-210665000D02*
X199263000Y-217043000D01*
X199263000Y-217043000D02*
X245745000Y-217043000D01*
X175742600Y-210665000D02*
X192885000Y-210665000D01*
X151399000Y-212344000D02*
X152210935Y-211532065D01*
X152210935Y-211532065D02*
X152210935Y-211480959D01*
X152210935Y-211480959D02*
X153026894Y-210665000D01*
X153026894Y-210665000D02*
X175742600Y-210665000D01*
X152781000Y-202834000D02*
X167911600Y-202834000D01*
X167911600Y-202834000D02*
X175742600Y-210665000D01*
X320040000Y-203581000D02*
X333248000Y-203581000D01*
X333248000Y-203581000D02*
X343916000Y-214249000D01*
X310866000Y-214249000D02*
X316103000Y-214249000D01*
X316103000Y-214249000D02*
X320040000Y-210312000D01*
X320040000Y-210312000D02*
X320040000Y-203581000D01*
X304927000Y-207264000D02*
X316357000Y-207264000D01*
X316357000Y-207264000D02*
X320040000Y-203581000D01*
X295021000Y-217170000D02*
X304927000Y-207264000D01*
X254508000Y-217170000D02*
X295021000Y-217170000D01*
X287909000Y-199136000D02*
X296766087Y-199136000D01*
X296766087Y-199136000D02*
X301211087Y-203581000D01*
X294909000Y-205994000D02*
X298798087Y-205994000D01*
X298798087Y-205994000D02*
X301211087Y-203581000D01*
X301211087Y-203581000D02*
X312928000Y-203581000D01*
X145832999Y-217910001D02*
X115316000Y-217910001D01*
X115316000Y-217910001D02*
X91653999Y-217910001D01*
X115316000Y-213360000D02*
X115316000Y-217249087D01*
X115316000Y-217249087D02*
X115316000Y-217910001D01*
X91653999Y-217910001D02*
X79756000Y-206012002D01*
X151399000Y-212344000D02*
X145832999Y-217910001D01*
X320152000Y-203693000D02*
X320040000Y-203581000D01*
X291211000Y-165242000D02*
X291211000Y-170081002D01*
X291211000Y-170081002D02*
X275881999Y-185410003D01*
X275881999Y-185410003D02*
X275881999Y-194790001D01*
X275881999Y-194790001D02*
X280227998Y-199136000D01*
X280227998Y-199136000D02*
X284019913Y-199136000D01*
X284019913Y-199136000D02*
X287909000Y-199136000D01*
X320040000Y-203581000D02*
X312928000Y-203581000D01*
X130000000Y-106000000D02*
X200000000Y-106000000D01*
X250063000Y-212725000D02*
X245745000Y-217043000D01*
X250063000Y-212725000D02*
X262775000Y-212725000D01*
X241459913Y-212725000D02*
X218425000Y-212725000D01*
X218425000Y-212725000D02*
X211709000Y-206009000D01*
X250063000Y-212725000D02*
X241459913Y-212725000D01*
X241459913Y-212725000D02*
X224663000Y-195928087D01*
X224663000Y-195928087D02*
X224663000Y-192039000D01*
X254508000Y-217170000D02*
X250063000Y-212725000D01*
D18*
X278003000Y-148717000D02*
X287655000Y-158369000D01*
X287655000Y-158369000D02*
X297800000Y-158369000D01*
X256794000Y-148717000D02*
X278003000Y-148717000D01*
X250063000Y-155448000D02*
X256794000Y-148717000D01*
X250063000Y-166525000D02*
X250063000Y-155448000D01*
X244221000Y-154432000D02*
X250063000Y-160274000D01*
X250063000Y-160274000D02*
X250063000Y-166525000D01*
X223154000Y-154432000D02*
X244221000Y-154432000D01*
X218313000Y-185024000D02*
X218313000Y-171118931D01*
X218313000Y-171118931D02*
X220427930Y-169004001D01*
X240539997Y-169004001D02*
X243018998Y-166525000D01*
X220427930Y-169004001D02*
X240539997Y-169004001D01*
X243018998Y-166525000D02*
X246173913Y-166525000D01*
X246173913Y-166525000D02*
X250063000Y-166525000D01*
X250063000Y-166525000D02*
X261196000Y-166525000D01*
X261196000Y-166525000D02*
X273177000Y-154544000D01*
X175742600Y-164465000D02*
X170662600Y-159385000D01*
X170662600Y-159385000D02*
X167766000Y-159385000D01*
X175742600Y-164465000D02*
X159838767Y-164465000D01*
X159838767Y-164465000D02*
X153966146Y-170337621D01*
X153966146Y-170337621D02*
X153966146Y-177433054D01*
X158952126Y-194408128D02*
X158952126Y-195452126D01*
X153966146Y-177433054D02*
X157799999Y-181266907D01*
X157799999Y-181266907D02*
X157799999Y-193256001D01*
X157799999Y-193256001D02*
X158952126Y-194408128D01*
X158952126Y-195452126D02*
X159500000Y-196000000D01*
X209154000Y-154432000D02*
X185775600Y-154432000D01*
X185775600Y-154432000D02*
X175742600Y-164465000D01*
X175742600Y-164465000D02*
X193645000Y-164465000D01*
X193645000Y-164465000D02*
X199898000Y-158212000D01*
X89500000Y-196000000D02*
X75692000Y-182192000D01*
X75692000Y-182192000D02*
X75692000Y-179682087D01*
X75692000Y-179682087D02*
X75692000Y-175793000D01*
X88519000Y-175133000D02*
X76352000Y-175133000D01*
X76352000Y-175133000D02*
X75692000Y-175793000D01*
X243586000Y-124460000D02*
X243586000Y-118872000D01*
X231394000Y-118872000D02*
X243586000Y-118872000D01*
X251206000Y-124460000D02*
X251206000Y-118872000D01*
X231394000Y-108966000D02*
X241300000Y-108966000D01*
X241300000Y-108966000D02*
X251206000Y-118872000D01*
X111491000Y-165989000D02*
X109431441Y-163929441D01*
X90233500Y-156972000D02*
X86127957Y-156972000D01*
X109431441Y-163929441D02*
X97192439Y-163929441D01*
X97192439Y-163929441D02*
X94642999Y-161380001D01*
X86127957Y-156972000D02*
X81936957Y-161163000D01*
X94642999Y-161380001D02*
X94641501Y-161380001D01*
X94641501Y-161380001D02*
X90233500Y-156972000D01*
X81936957Y-161163000D02*
X75819000Y-161163000D01*
X151766000Y-159385000D02*
X146175036Y-153794036D01*
X146175036Y-153794036D02*
X83187964Y-153794036D01*
X83187964Y-153794036D02*
X78568999Y-158413001D01*
X78568999Y-158413001D02*
X75819000Y-161163000D01*
X75819000Y-161163000D02*
X88489000Y-161163000D01*
X88489000Y-161163000D02*
X88519000Y-161133000D01*
X135950000Y-146050000D02*
X205950000Y-146050000D01*
X205950000Y-146050000D02*
X213500000Y-138500000D01*
X75819000Y-146050000D02*
X135950000Y-146050000D01*
X135950000Y-146050000D02*
X143500000Y-138500000D01*
X158100000Y-143510000D02*
X163180000Y-138430000D01*
X144526000Y-143510000D02*
X158100000Y-143510000D01*
X82789000Y-134474141D02*
X82789000Y-124445000D01*
X130302000Y-143510000D02*
X91824859Y-143510000D01*
X91824859Y-143510000D02*
X82789000Y-134474141D01*
X75819000Y-117475000D02*
X82789000Y-124445000D01*
X82789000Y-124445000D02*
X106299000Y-124445000D01*
X120500000Y-196000000D02*
X111141000Y-205359000D01*
X111141000Y-205359000D02*
X108062000Y-205359000D01*
X334391000Y-214249000D02*
X334391000Y-210572201D01*
D20*
G36*
X272181475Y-101737109D02*
X270769172Y-101150670D01*
X269237547Y-101149333D01*
X267821999Y-101734226D01*
X266738032Y-102816303D01*
X266150670Y-104230828D01*
X266149333Y-105762453D01*
X266734226Y-107178001D01*
X267816303Y-108261968D01*
X269230828Y-108849330D01*
X270762453Y-108850667D01*
X272178001Y-108265774D01*
X273261968Y-107183697D01*
X273849330Y-105769172D01*
X273850667Y-104237547D01*
X273265774Y-102821999D01*
X272927736Y-102483370D01*
X273900000Y-103455635D01*
X273900000Y-130000000D01*
X273983733Y-130420952D01*
X274005584Y-130453654D01*
X274222183Y-130777817D01*
X284222183Y-140777818D01*
X284579049Y-141016268D01*
X285000000Y-141100000D01*
X294544366Y-141100000D01*
X301222183Y-147777818D01*
X301436108Y-147920758D01*
X301579048Y-148016267D01*
X302000000Y-148100000D01*
X346544366Y-148100000D01*
X347181475Y-148737109D01*
X345769172Y-148150670D01*
X344237547Y-148149333D01*
X342821999Y-148734226D01*
X341738032Y-149816303D01*
X341150670Y-151230828D01*
X341149333Y-152762453D01*
X341734226Y-154178001D01*
X342816303Y-155261968D01*
X344230828Y-155849330D01*
X345762453Y-155850667D01*
X347178001Y-155265774D01*
X348261968Y-154183697D01*
X348849330Y-152769172D01*
X348850667Y-151237547D01*
X348265774Y-149821999D01*
X347927736Y-149483370D01*
X348900000Y-150455635D01*
X348900000Y-178684983D01*
X348241615Y-177091570D01*
X346892532Y-175740130D01*
X345128968Y-175007835D01*
X343219410Y-175006168D01*
X341454570Y-175735385D01*
X340103130Y-177084468D01*
X339370835Y-178848032D01*
X339369168Y-180757590D01*
X340098385Y-182522430D01*
X341447468Y-183873870D01*
X343211032Y-184606165D01*
X345120590Y-184607832D01*
X346885430Y-183878615D01*
X348236870Y-182529532D01*
X348900000Y-180932536D01*
X348900000Y-216544365D01*
X346544366Y-218900000D01*
X296050874Y-218900000D01*
X296470569Y-218619569D01*
X305776138Y-209314000D01*
X316357000Y-209314000D01*
X317141501Y-209157953D01*
X317806569Y-208713569D01*
X317990000Y-208530138D01*
X317990000Y-209462862D01*
X315253862Y-212199000D01*
X314130562Y-212199000D01*
X314089361Y-212099285D01*
X313021337Y-211029396D01*
X311625183Y-210449661D01*
X310113449Y-210448342D01*
X308716285Y-211025639D01*
X307646396Y-212093663D01*
X307066661Y-213489817D01*
X307065342Y-215001551D01*
X307642639Y-216398715D01*
X308710663Y-217468604D01*
X310106817Y-218048339D01*
X311618551Y-218049658D01*
X313015715Y-217472361D01*
X314085604Y-216404337D01*
X314129344Y-216299000D01*
X316103000Y-216299000D01*
X316887501Y-216142953D01*
X317552569Y-215698569D01*
X318249587Y-215001551D01*
X321065342Y-215001551D01*
X321642639Y-216398715D01*
X322710663Y-217468604D01*
X324106817Y-218048339D01*
X325618551Y-218049658D01*
X327015715Y-217472361D01*
X328085604Y-216404337D01*
X328665339Y-215008183D01*
X328666658Y-213496449D01*
X328089361Y-212099285D01*
X327021337Y-211029396D01*
X325625183Y-210449661D01*
X324113449Y-210448342D01*
X322716285Y-211025639D01*
X321646396Y-212093663D01*
X321066661Y-213489817D01*
X321065342Y-215001551D01*
X318249587Y-215001551D01*
X321489569Y-211761569D01*
X321933953Y-211096501D01*
X322090000Y-210312000D01*
X322090000Y-207681610D01*
X322316695Y-207908305D01*
X322787109Y-208222625D01*
X323342000Y-208333000D01*
X331885390Y-208333000D01*
X332520330Y-208967940D01*
X332520330Y-209372200D01*
X332593545Y-209761307D01*
X332823507Y-210118677D01*
X333174388Y-210358424D01*
X333590900Y-210442770D01*
X335191100Y-210442770D01*
X335580207Y-210369555D01*
X335937577Y-210139593D01*
X336177324Y-209788712D01*
X336241191Y-209473329D01*
X340158036Y-213390174D01*
X340116661Y-213489817D01*
X340115342Y-215001551D01*
X340692639Y-216398715D01*
X341760663Y-217468604D01*
X343156817Y-218048339D01*
X344668551Y-218049658D01*
X346065715Y-217472361D01*
X347135604Y-216404337D01*
X347715339Y-215008183D01*
X347716658Y-213496449D01*
X347139361Y-212099285D01*
X346071337Y-211029396D01*
X344675183Y-210449661D01*
X343163449Y-210448342D01*
X343058036Y-210491898D01*
X334697569Y-202131431D01*
X334032501Y-201687047D01*
X333248000Y-201531000D01*
X323304562Y-201531000D01*
X323263361Y-201431285D01*
X322885260Y-201052524D01*
X323178536Y-201052780D01*
X329079717Y-198614462D01*
X331700000Y-195998749D01*
X331699342Y-196752551D01*
X332276639Y-198149715D01*
X333344663Y-199219604D01*
X334740817Y-199799339D01*
X336252551Y-199800658D01*
X337649715Y-199223361D01*
X338719604Y-198155337D01*
X339299339Y-196759183D01*
X339300658Y-195247449D01*
X338723361Y-193850285D01*
X337655337Y-192780396D01*
X336259183Y-192200661D01*
X334747449Y-192199342D01*
X334315071Y-192377997D01*
X335301857Y-190001551D01*
X340115342Y-190001551D01*
X340692639Y-191398715D01*
X341760663Y-192468604D01*
X343156817Y-193048339D01*
X344668551Y-193049658D01*
X346065715Y-192472361D01*
X347135604Y-191404337D01*
X347715339Y-190008183D01*
X347716658Y-188496449D01*
X347139361Y-187099285D01*
X346071337Y-186029396D01*
X344675183Y-185449661D01*
X343163449Y-185448342D01*
X341766285Y-186025639D01*
X340696396Y-187093663D01*
X340116661Y-188489817D01*
X340115342Y-190001551D01*
X335301857Y-190001551D01*
X336047208Y-188206549D01*
X336052780Y-181821464D01*
X334804087Y-178799395D01*
X336450590Y-178800832D01*
X338215430Y-178071615D01*
X339566870Y-176722532D01*
X340299165Y-174958968D01*
X340300832Y-173049410D01*
X339571615Y-171284570D01*
X338222532Y-169933130D01*
X336458968Y-169200835D01*
X334549410Y-169199168D01*
X332784570Y-169928385D01*
X331433130Y-171277468D01*
X330712408Y-173013160D01*
X329103465Y-171401406D01*
X323949030Y-169261097D01*
X324106870Y-169103532D01*
X324839165Y-167339968D01*
X324840832Y-165430410D01*
X324111615Y-163665570D01*
X322762532Y-162314130D01*
X322490000Y-162200965D01*
X322490000Y-161718121D01*
X324122430Y-161043615D01*
X325473870Y-159694532D01*
X326206165Y-157930968D01*
X326206172Y-157922590D01*
X330606168Y-157922590D01*
X331335385Y-159687430D01*
X332684468Y-161038870D01*
X334448032Y-161771165D01*
X336357590Y-161772832D01*
X336873769Y-161559551D01*
X340369342Y-161559551D01*
X340946639Y-162956715D01*
X342014663Y-164026604D01*
X343410817Y-164606339D01*
X344922551Y-164607658D01*
X346319715Y-164030361D01*
X347389604Y-162962337D01*
X347969339Y-161566183D01*
X347970658Y-160054449D01*
X347393361Y-158657285D01*
X346325337Y-157587396D01*
X344929183Y-157007661D01*
X343417449Y-157006342D01*
X342020285Y-157583639D01*
X340950396Y-158651663D01*
X340370661Y-160047817D01*
X340369342Y-161559551D01*
X336873769Y-161559551D01*
X338122430Y-161043615D01*
X339473870Y-159694532D01*
X340206165Y-157930968D01*
X340207832Y-156021410D01*
X339478615Y-154256570D01*
X338129532Y-152905130D01*
X336365968Y-152172835D01*
X334456410Y-152171168D01*
X332691570Y-152900385D01*
X331340130Y-154249468D01*
X330607835Y-156013032D01*
X330606168Y-157922590D01*
X326206172Y-157922590D01*
X326207832Y-156021410D01*
X325478615Y-154256570D01*
X324129532Y-152905130D01*
X322365968Y-152172835D01*
X320456410Y-152171168D01*
X318691570Y-152900385D01*
X317340130Y-154249468D01*
X316607835Y-156013032D01*
X316606168Y-157922590D01*
X317335385Y-159687430D01*
X317590000Y-159942490D01*
X317590000Y-160694176D01*
X316489029Y-159593205D01*
X316599165Y-159327968D01*
X316600832Y-157418410D01*
X315871615Y-155653570D01*
X314522532Y-154302130D01*
X312758968Y-153569835D01*
X310849410Y-153568168D01*
X309084570Y-154297385D01*
X307733130Y-155646468D01*
X307000835Y-157410032D01*
X306999168Y-159319590D01*
X307728385Y-161084430D01*
X309077468Y-162435870D01*
X310841032Y-163168165D01*
X312750590Y-163169832D01*
X313023319Y-163057143D01*
X315284075Y-165317899D01*
X315240835Y-165422032D01*
X315240281Y-166056128D01*
X301560282Y-166056128D01*
X305924184Y-161692226D01*
X306368568Y-161027158D01*
X306524615Y-160242657D01*
X306524615Y-155255238D01*
X306368568Y-154470737D01*
X305924184Y-153805669D01*
X294305946Y-142187431D01*
X293640878Y-141743047D01*
X292856377Y-141587000D01*
X277201138Y-141587000D01*
X271406304Y-135792166D01*
X271406304Y-126511457D01*
X271643715Y-126413361D01*
X272713604Y-125345337D01*
X273293339Y-123949183D01*
X273294658Y-122437449D01*
X272717361Y-121040285D01*
X271649337Y-119970396D01*
X270253183Y-119390661D01*
X268741449Y-119389342D01*
X267344285Y-119966639D01*
X266274396Y-121034663D01*
X265694661Y-122430817D01*
X265693342Y-123942551D01*
X266270639Y-125339715D01*
X267306304Y-126377188D01*
X267306304Y-136641304D01*
X267462351Y-137425805D01*
X267906735Y-138090873D01*
X274902431Y-145086569D01*
X275567499Y-145530953D01*
X276352000Y-145687000D01*
X292007239Y-145687000D01*
X302424615Y-156104376D01*
X302424615Y-156991932D01*
X301871615Y-155653570D01*
X300522532Y-154302130D01*
X298758968Y-153569835D01*
X296849410Y-153568168D01*
X295084570Y-154297385D01*
X293733130Y-155646468D01*
X293619965Y-155919000D01*
X288669823Y-155919000D01*
X284745375Y-151994551D01*
X287410342Y-151994551D01*
X287987639Y-153391715D01*
X289055663Y-154461604D01*
X290451817Y-155041339D01*
X291963551Y-155042658D01*
X293360715Y-154465361D01*
X294430604Y-153397337D01*
X295010339Y-152001183D01*
X295011658Y-150489449D01*
X294434361Y-149092285D01*
X293366337Y-148022396D01*
X291970183Y-147442661D01*
X290458449Y-147441342D01*
X289061285Y-148018639D01*
X287991396Y-149086663D01*
X287411661Y-150482817D01*
X287410342Y-151994551D01*
X284745375Y-151994551D01*
X279735412Y-146984588D01*
X278940575Y-146453495D01*
X278003000Y-146266999D01*
X278002995Y-146267000D01*
X256794000Y-146267000D01*
X255856426Y-146453495D01*
X255061588Y-146984588D01*
X255061586Y-146984591D01*
X248330588Y-153715588D01*
X247799495Y-154510425D01*
X247793647Y-154539824D01*
X245953412Y-152699588D01*
X245158575Y-152168495D01*
X244221000Y-151981999D01*
X244220995Y-151982000D01*
X227335288Y-151982000D01*
X227225615Y-151716570D01*
X225876532Y-150365130D01*
X224112968Y-149632835D01*
X222203410Y-149631168D01*
X220438570Y-150360385D01*
X219087130Y-151709468D01*
X218354835Y-153473032D01*
X218353168Y-155382590D01*
X219082385Y-157147430D01*
X220431468Y-158498870D01*
X222195032Y-159231165D01*
X224104590Y-159232832D01*
X225869430Y-158503615D01*
X227220870Y-157154532D01*
X227334035Y-156882000D01*
X238327775Y-156882000D01*
X237343396Y-157864663D01*
X236763661Y-159260817D01*
X236762342Y-160772551D01*
X237339639Y-162169715D01*
X238407663Y-163239604D01*
X239803817Y-163819339D01*
X241315551Y-163820658D01*
X242712715Y-163243361D01*
X243782604Y-162175337D01*
X244362339Y-160779183D01*
X244363658Y-159267449D01*
X243786361Y-157870285D01*
X242799799Y-156882000D01*
X243206176Y-156882000D01*
X247613000Y-161288823D01*
X247613000Y-162343712D01*
X247347570Y-162453385D01*
X245996130Y-163802468D01*
X245882965Y-164075000D01*
X243019003Y-164075000D01*
X243018998Y-164074999D01*
X242081423Y-164261495D01*
X241788083Y-164457499D01*
X241286586Y-164792588D01*
X241286584Y-164792591D01*
X239525173Y-166554001D01*
X227537338Y-166554001D01*
X227882604Y-166209337D01*
X228462339Y-164813183D01*
X228463658Y-163301449D01*
X227886361Y-161904285D01*
X226818337Y-160834396D01*
X225422183Y-160254661D01*
X223910449Y-160253342D01*
X222513285Y-160830639D01*
X221443396Y-161898663D01*
X220863661Y-163294817D01*
X220862342Y-164806551D01*
X221439639Y-166203715D01*
X221789314Y-166554001D01*
X220427935Y-166554001D01*
X220427930Y-166554000D01*
X219490355Y-166740496D01*
X219192390Y-166939590D01*
X218695518Y-167271589D01*
X218695516Y-167271592D01*
X216580588Y-169386519D01*
X216049495Y-170181356D01*
X215862999Y-171118931D01*
X215863000Y-171118936D01*
X215863000Y-180842712D01*
X215597570Y-180952385D01*
X214246130Y-182301468D01*
X213513835Y-184065032D01*
X213512168Y-185974590D01*
X214241385Y-187739430D01*
X215590468Y-189090870D01*
X217354032Y-189823165D01*
X219263590Y-189824832D01*
X221028430Y-189095615D01*
X222379870Y-187746532D01*
X223112165Y-185982968D01*
X223113832Y-184073410D01*
X222384615Y-182308570D01*
X221035532Y-180957130D01*
X220763000Y-180843965D01*
X220763000Y-178791551D01*
X220862342Y-178791551D01*
X220862355Y-178791583D01*
X220862342Y-178806551D01*
X221439639Y-180203715D01*
X222507663Y-181273604D01*
X223903817Y-181853339D01*
X225415551Y-181854658D01*
X226812715Y-181277361D01*
X227882604Y-180209337D01*
X228462339Y-178813183D01*
X228463658Y-177301449D01*
X228463645Y-177301417D01*
X228463658Y-177286449D01*
X227886361Y-175889285D01*
X226818337Y-174819396D01*
X225422183Y-174239661D01*
X223910449Y-174238342D01*
X222513285Y-174815639D01*
X221443396Y-175883663D01*
X220863661Y-177279817D01*
X220862342Y-178791551D01*
X220763000Y-178791551D01*
X220763000Y-172133755D01*
X221442753Y-171454001D01*
X231671740Y-171454001D01*
X231280396Y-171844663D01*
X230700661Y-173240817D01*
X230699342Y-174752551D01*
X231276639Y-176149715D01*
X232344663Y-177219604D01*
X233740817Y-177799339D01*
X235252551Y-177800658D01*
X235684929Y-177622003D01*
X233952792Y-181793451D01*
X233952107Y-182578557D01*
X233155337Y-181780396D01*
X231759183Y-181200661D01*
X230247449Y-181199342D01*
X228850285Y-181776639D01*
X227780396Y-182844663D01*
X227200661Y-184240817D01*
X227199342Y-185752551D01*
X227776639Y-187149715D01*
X228844663Y-188219604D01*
X230240817Y-188799339D01*
X231752551Y-188800658D01*
X233149715Y-188223361D01*
X233947876Y-187426591D01*
X233947220Y-188178536D01*
X235195913Y-191200605D01*
X233549410Y-191199168D01*
X231784570Y-191928385D01*
X230433130Y-193277468D01*
X229700835Y-195041032D01*
X229699168Y-196950590D01*
X230428385Y-198715430D01*
X231777468Y-200066870D01*
X233541032Y-200799165D01*
X235450590Y-200800832D01*
X237215430Y-200071615D01*
X238566870Y-198722532D01*
X239287592Y-196986840D01*
X240896535Y-198598594D01*
X246793451Y-201047208D01*
X253178536Y-201052780D01*
X259079717Y-198614462D01*
X261700000Y-195998749D01*
X261699342Y-196752551D01*
X262276639Y-198149715D01*
X263344663Y-199219604D01*
X264740817Y-199799339D01*
X266252551Y-199800658D01*
X267649715Y-199223361D01*
X268719604Y-198155337D01*
X269299339Y-196759183D01*
X269300658Y-195247449D01*
X268723361Y-193850285D01*
X267655337Y-192780396D01*
X266259183Y-192200661D01*
X264747449Y-192199342D01*
X264315071Y-192377997D01*
X266047208Y-188206549D01*
X266047893Y-187421443D01*
X266844663Y-188219604D01*
X268240817Y-188799339D01*
X269752551Y-188800658D01*
X271149715Y-188223361D01*
X272219604Y-187155337D01*
X272799339Y-185759183D01*
X272800658Y-184247449D01*
X272223361Y-182850285D01*
X271155337Y-181780396D01*
X269759183Y-181200661D01*
X268247449Y-181199342D01*
X266850285Y-181776639D01*
X266052124Y-182573409D01*
X266052780Y-181821464D01*
X264804087Y-178799395D01*
X266450590Y-178800832D01*
X268215430Y-178071615D01*
X269566870Y-176722532D01*
X270299165Y-174958968D01*
X270300832Y-173049410D01*
X269883158Y-172038562D01*
X270454468Y-172610870D01*
X272218032Y-173343165D01*
X274127590Y-173344832D01*
X275892430Y-172615615D01*
X277243870Y-171266532D01*
X277976165Y-169502968D01*
X277977832Y-167593410D01*
X277248615Y-165828570D01*
X275899532Y-164477130D01*
X274135968Y-163744835D01*
X272226410Y-163743168D01*
X270461570Y-164472385D01*
X269110130Y-165821468D01*
X268377835Y-167585032D01*
X268376168Y-169494590D01*
X268793842Y-170505438D01*
X268222532Y-169933130D01*
X266458968Y-169200835D01*
X264549410Y-169199168D01*
X262784570Y-169928385D01*
X261433130Y-171277468D01*
X260712408Y-173013160D01*
X259103465Y-171401406D01*
X254067148Y-169310144D01*
X254129870Y-169247532D01*
X254243035Y-168975000D01*
X261195995Y-168975000D01*
X261196000Y-168975001D01*
X262133575Y-168788505D01*
X262928412Y-168257412D01*
X271952794Y-159233029D01*
X272218032Y-159343165D01*
X274127590Y-159344832D01*
X275892430Y-158615615D01*
X277243870Y-157266532D01*
X277976165Y-155502968D01*
X277977832Y-153593410D01*
X277248615Y-151828570D01*
X276588199Y-151167000D01*
X276988176Y-151167000D01*
X285922586Y-160101409D01*
X285922588Y-160101412D01*
X286717426Y-160632505D01*
X287655000Y-160819000D01*
X293618712Y-160819000D01*
X293728385Y-161084430D01*
X295077468Y-162435870D01*
X296841032Y-163168165D01*
X298648391Y-163169743D01*
X298626134Y-163192000D01*
X294475562Y-163192000D01*
X294434361Y-163092285D01*
X293366337Y-162022396D01*
X291970183Y-161442661D01*
X290458449Y-161441342D01*
X289061285Y-162018639D01*
X287991396Y-163086663D01*
X287411661Y-164482817D01*
X287410342Y-165994551D01*
X287987639Y-167391715D01*
X289055663Y-168461604D01*
X289161000Y-168505344D01*
X289161000Y-169231864D01*
X285231971Y-173160893D01*
X285232658Y-172373449D01*
X284655361Y-170976285D01*
X283587337Y-169906396D01*
X282191183Y-169326661D01*
X280679449Y-169325342D01*
X279282285Y-169902639D01*
X278212396Y-170970663D01*
X277632661Y-172366817D01*
X277631342Y-173878551D01*
X278208639Y-175275715D01*
X279276663Y-176345604D01*
X280672817Y-176925339D01*
X281466832Y-176926032D01*
X274432430Y-183960434D01*
X273988046Y-184625502D01*
X273831999Y-185410003D01*
X273831999Y-194790001D01*
X273988046Y-195574502D01*
X274432430Y-196239570D01*
X278778429Y-200585569D01*
X279443497Y-201029953D01*
X280227998Y-201186000D01*
X284644438Y-201186000D01*
X284685639Y-201285715D01*
X285753663Y-202355604D01*
X287149817Y-202935339D01*
X288661551Y-202936658D01*
X290058715Y-202359361D01*
X291128604Y-201291337D01*
X291172344Y-201186000D01*
X295916949Y-201186000D01*
X298311949Y-203581000D01*
X298090549Y-203802400D01*
X297064337Y-202774396D01*
X295668183Y-202194661D01*
X294156449Y-202193342D01*
X292759285Y-202770639D01*
X291689396Y-203838663D01*
X291109661Y-205234817D01*
X291108342Y-206746551D01*
X291685639Y-208143715D01*
X292753663Y-209213604D01*
X294149817Y-209793339D01*
X295661551Y-209794658D01*
X297058715Y-209217361D01*
X298128604Y-208149337D01*
X298172344Y-208044000D01*
X298798087Y-208044000D01*
X299582588Y-207887953D01*
X300247656Y-207443569D01*
X302060225Y-205631000D01*
X303751955Y-205631000D01*
X303477431Y-205814431D01*
X294171862Y-215120000D01*
X290688301Y-215120000D01*
X291055604Y-214753337D01*
X291635339Y-213357183D01*
X291636658Y-211845449D01*
X291059361Y-210448285D01*
X289991337Y-209378396D01*
X288595183Y-208798661D01*
X287083449Y-208797342D01*
X285686285Y-209374639D01*
X284616396Y-210442663D01*
X284036661Y-211838817D01*
X284035342Y-213350551D01*
X284612639Y-214747715D01*
X284984275Y-215120000D01*
X265688301Y-215120000D01*
X266055604Y-214753337D01*
X266635339Y-213357183D01*
X266636658Y-211845449D01*
X266059361Y-210448285D01*
X264991337Y-209378396D01*
X263595183Y-208798661D01*
X262083449Y-208797342D01*
X260686285Y-209374639D01*
X259616396Y-210442663D01*
X259519921Y-210675000D01*
X253327562Y-210675000D01*
X253286361Y-210575285D01*
X252218337Y-209505396D01*
X250822183Y-208925661D01*
X249310449Y-208924342D01*
X247913285Y-209501639D01*
X246843396Y-210569663D01*
X246799656Y-210675000D01*
X242309051Y-210675000D01*
X238380602Y-206746551D01*
X277108342Y-206746551D01*
X277685639Y-208143715D01*
X278753663Y-209213604D01*
X280149817Y-209793339D01*
X281661551Y-209794658D01*
X283058715Y-209217361D01*
X284128604Y-208149337D01*
X284708339Y-206753183D01*
X284709658Y-205241449D01*
X284132361Y-203844285D01*
X283064337Y-202774396D01*
X281668183Y-202194661D01*
X280156449Y-202193342D01*
X278759285Y-202770639D01*
X277689396Y-203838663D01*
X277109661Y-205234817D01*
X277108342Y-206746551D01*
X238380602Y-206746551D01*
X226854600Y-195220549D01*
X227882604Y-194194337D01*
X228462339Y-192798183D01*
X228463658Y-191286449D01*
X227886361Y-189889285D01*
X226818337Y-188819396D01*
X225422183Y-188239661D01*
X223910449Y-188238342D01*
X222513285Y-188815639D01*
X221443396Y-189883663D01*
X220863661Y-191279817D01*
X220862342Y-192791551D01*
X221439639Y-194188715D01*
X222507663Y-195258604D01*
X222613000Y-195302344D01*
X222613000Y-195928087D01*
X222769047Y-196712588D01*
X223213431Y-197377656D01*
X236510775Y-210675000D01*
X219274138Y-210675000D01*
X215466964Y-206867826D01*
X215508339Y-206768183D01*
X215509658Y-205256449D01*
X214932361Y-203859285D01*
X213864337Y-202789396D01*
X212468183Y-202209661D01*
X210956449Y-202208342D01*
X209559285Y-202785639D01*
X208489396Y-203853663D01*
X207909661Y-205249817D01*
X207908342Y-206761551D01*
X208485639Y-208158715D01*
X209553663Y-209228604D01*
X210949817Y-209808339D01*
X212461551Y-209809658D01*
X212566964Y-209766102D01*
X216975431Y-214174569D01*
X217640499Y-214618953D01*
X218425000Y-214775000D01*
X245113862Y-214775000D01*
X244895862Y-214993000D01*
X200112138Y-214993000D01*
X194334569Y-209215431D01*
X193669501Y-208771047D01*
X192885000Y-208615000D01*
X180691738Y-208615000D01*
X180862737Y-208444001D01*
X198384609Y-208444001D01*
X198383342Y-209896551D01*
X198960639Y-211293715D01*
X200028663Y-212363604D01*
X201424817Y-212943339D01*
X202936551Y-212944658D01*
X204333715Y-212367361D01*
X205403604Y-211299337D01*
X205983339Y-209903183D01*
X205984658Y-208391449D01*
X205407361Y-206994285D01*
X204339337Y-205924396D01*
X202943183Y-205344661D01*
X201431449Y-205343342D01*
X201326036Y-205386898D01*
X200883570Y-204944432D01*
X200218502Y-204500048D01*
X199434001Y-204344001D01*
X180013599Y-204344001D01*
X179229098Y-204500048D01*
X178564030Y-204944432D01*
X176601426Y-206907036D01*
X176501783Y-206865661D01*
X174990049Y-206864342D01*
X174884636Y-206907898D01*
X169361169Y-201384431D01*
X168696101Y-200940047D01*
X167911600Y-200784000D01*
X160491327Y-200784000D01*
X162215430Y-200071615D01*
X163566870Y-198722532D01*
X164287592Y-196986840D01*
X165896535Y-198598594D01*
X171793451Y-201047208D01*
X178178536Y-201052780D01*
X181056690Y-199863551D01*
X201558342Y-199863551D01*
X202135639Y-201260715D01*
X203203663Y-202330604D01*
X204599817Y-202910339D01*
X206111551Y-202911658D01*
X207508715Y-202334361D01*
X208578604Y-201266337D01*
X209114985Y-199974590D01*
X213512168Y-199974590D01*
X214241385Y-201739430D01*
X215590468Y-203090870D01*
X217354032Y-203823165D01*
X219263590Y-203824832D01*
X221028430Y-203095615D01*
X222379870Y-201746532D01*
X223112165Y-199982968D01*
X223113832Y-198073410D01*
X222384615Y-196308570D01*
X221035532Y-194957130D01*
X219271968Y-194224835D01*
X217362410Y-194223168D01*
X215597570Y-194952385D01*
X214246130Y-196301468D01*
X213513835Y-198065032D01*
X213512168Y-199974590D01*
X209114985Y-199974590D01*
X209158339Y-199870183D01*
X209159658Y-198358449D01*
X208582361Y-196961285D01*
X207514337Y-195891396D01*
X206118183Y-195311661D01*
X204606449Y-195310342D01*
X203209285Y-195887639D01*
X202139396Y-196955663D01*
X201559661Y-198351817D01*
X201558342Y-199863551D01*
X181056690Y-199863551D01*
X184079717Y-198614462D01*
X186700000Y-195998749D01*
X186699342Y-196752551D01*
X187276639Y-198149715D01*
X188344663Y-199219604D01*
X189740817Y-199799339D01*
X191252551Y-199800658D01*
X192649715Y-199223361D01*
X193719604Y-198155337D01*
X194299339Y-196759183D01*
X194300658Y-195247449D01*
X193723361Y-193850285D01*
X192655337Y-192780396D01*
X191259183Y-192200661D01*
X189747449Y-192199342D01*
X189315071Y-192377997D01*
X189930221Y-190896551D01*
X198383342Y-190896551D01*
X198960639Y-192293715D01*
X200028663Y-193363604D01*
X201424817Y-193943339D01*
X202936551Y-193944658D01*
X204333715Y-193367361D01*
X204940582Y-192761551D01*
X207908342Y-192761551D01*
X208485639Y-194158715D01*
X209553663Y-195228604D01*
X210949817Y-195808339D01*
X212461551Y-195809658D01*
X213858715Y-195232361D01*
X214928604Y-194164337D01*
X215508339Y-192768183D01*
X215509658Y-191256449D01*
X214932361Y-189859285D01*
X213864337Y-188789396D01*
X212468183Y-188209661D01*
X210956449Y-188208342D01*
X209559285Y-188785639D01*
X208489396Y-189853663D01*
X207909661Y-191249817D01*
X207908342Y-192761551D01*
X204940582Y-192761551D01*
X205403604Y-192299337D01*
X205983339Y-190903183D01*
X205984658Y-189391449D01*
X205407361Y-187994285D01*
X204339337Y-186924396D01*
X202943183Y-186344661D01*
X201431449Y-186343342D01*
X200034285Y-186920639D01*
X198964396Y-187988663D01*
X198384661Y-189384817D01*
X198383342Y-190896551D01*
X189930221Y-190896551D01*
X191047208Y-188206549D01*
X191047893Y-187421443D01*
X191844663Y-188219604D01*
X193240817Y-188799339D01*
X194752551Y-188800658D01*
X196149715Y-188223361D01*
X197219604Y-187155337D01*
X197799339Y-185759183D01*
X197800658Y-184247449D01*
X197223361Y-182850285D01*
X196155337Y-181780396D01*
X194759183Y-181200661D01*
X193247449Y-181199342D01*
X191850285Y-181776639D01*
X191052124Y-182573409D01*
X191052780Y-181821464D01*
X190656979Y-180863551D01*
X201558342Y-180863551D01*
X202135639Y-182260715D01*
X203203663Y-183330604D01*
X204599817Y-183910339D01*
X206111551Y-183911658D01*
X207508715Y-183334361D01*
X208578604Y-182266337D01*
X209158339Y-180870183D01*
X209159658Y-179358449D01*
X208582361Y-177961285D01*
X207514337Y-176891396D01*
X206118183Y-176311661D01*
X204606449Y-176310342D01*
X203209285Y-176887639D01*
X202139396Y-177955663D01*
X201559661Y-179351817D01*
X201558342Y-180863551D01*
X190656979Y-180863551D01*
X189804087Y-178799395D01*
X191450590Y-178800832D01*
X193215430Y-178071615D01*
X194566870Y-176722532D01*
X195299165Y-174958968D01*
X195300304Y-173654217D01*
X195826385Y-174927430D01*
X197175468Y-176278870D01*
X198939032Y-177011165D01*
X200848590Y-177012832D01*
X202613430Y-176283615D01*
X203964870Y-174934532D01*
X204697165Y-173170968D01*
X204698832Y-171261410D01*
X203969615Y-169496570D01*
X202620532Y-168145130D01*
X200856968Y-167412835D01*
X198947410Y-167411168D01*
X197182570Y-168140385D01*
X195831130Y-169489468D01*
X195098835Y-171253032D01*
X195097696Y-172557783D01*
X194571615Y-171284570D01*
X193222532Y-169933130D01*
X191458968Y-169200835D01*
X189549410Y-169199168D01*
X187784570Y-169928385D01*
X186433130Y-171277468D01*
X185712408Y-173013160D01*
X184103465Y-171401406D01*
X178206549Y-168952792D01*
X177452397Y-168952134D01*
X178458030Y-168536615D01*
X179809470Y-167187532D01*
X179922635Y-166915000D01*
X193644995Y-166915000D01*
X193645000Y-166915001D01*
X194582575Y-166728505D01*
X195377412Y-166197412D01*
X195812371Y-165762453D01*
X206149333Y-165762453D01*
X206734226Y-167178001D01*
X207816303Y-168261968D01*
X209230828Y-168849330D01*
X210762453Y-168850667D01*
X212178001Y-168265774D01*
X213261968Y-167183697D01*
X213849330Y-165769172D01*
X213850667Y-164237547D01*
X213265774Y-162821999D01*
X212183697Y-161738032D01*
X210769172Y-161150670D01*
X209237547Y-161149333D01*
X207821999Y-161734226D01*
X206738032Y-162816303D01*
X206150670Y-164230828D01*
X206149333Y-165762453D01*
X195812371Y-165762453D01*
X198673795Y-162901029D01*
X198939032Y-163011165D01*
X200848590Y-163012832D01*
X202613430Y-162283615D01*
X203964870Y-160934532D01*
X204697165Y-159170968D01*
X204698832Y-157261410D01*
X204542063Y-156882000D01*
X204972712Y-156882000D01*
X205082385Y-157147430D01*
X206431468Y-158498870D01*
X208195032Y-159231165D01*
X210104590Y-159232832D01*
X211869430Y-158503615D01*
X213220870Y-157154532D01*
X213953165Y-155390968D01*
X213954832Y-153481410D01*
X213225615Y-151716570D01*
X211876532Y-150365130D01*
X210112968Y-149632835D01*
X208203410Y-149631168D01*
X206438570Y-150360385D01*
X205087130Y-151709468D01*
X204973965Y-151982000D01*
X185775605Y-151982000D01*
X185775600Y-151981999D01*
X184838025Y-152168495D01*
X184440607Y-152434041D01*
X184043188Y-152699588D01*
X184043186Y-152699591D01*
X176966805Y-159775971D01*
X176701568Y-159665835D01*
X174792010Y-159664168D01*
X174519281Y-159776857D01*
X172395012Y-157652588D01*
X172186117Y-157513009D01*
X171837615Y-156669570D01*
X170488532Y-155318130D01*
X168724968Y-154585835D01*
X166815410Y-154584168D01*
X165050570Y-155313385D01*
X163699130Y-156662468D01*
X162966835Y-158426032D01*
X162965168Y-160335590D01*
X163659086Y-162015000D01*
X159838767Y-162015000D01*
X158901193Y-162201495D01*
X158106355Y-162732588D01*
X158106353Y-162732591D01*
X152233734Y-168605209D01*
X151702641Y-169400046D01*
X151516145Y-170337621D01*
X151516146Y-170337626D01*
X151516146Y-177433049D01*
X151516145Y-177433054D01*
X151702641Y-178370629D01*
X152233734Y-179165466D01*
X155349999Y-182281731D01*
X155349999Y-184703378D01*
X153739968Y-184034835D01*
X151830410Y-184033168D01*
X150065570Y-184762385D01*
X148714130Y-186111468D01*
X147981835Y-187875032D01*
X147980168Y-189784590D01*
X148709385Y-191549430D01*
X150058468Y-192900870D01*
X151822032Y-193633165D01*
X153731590Y-193634832D01*
X155349999Y-192966119D01*
X155349999Y-193255996D01*
X155349998Y-193256001D01*
X155379810Y-193405876D01*
X154700835Y-195041032D01*
X154699168Y-196950590D01*
X155428385Y-198715430D01*
X156777468Y-200066870D01*
X158504511Y-200784000D01*
X156045562Y-200784000D01*
X156004361Y-200684285D01*
X154936337Y-199614396D01*
X153540183Y-199034661D01*
X152028449Y-199033342D01*
X150631285Y-199610639D01*
X149561396Y-200678663D01*
X148981661Y-202074817D01*
X148980342Y-203586551D01*
X149557639Y-204983715D01*
X150625663Y-206053604D01*
X152021817Y-206633339D01*
X153533551Y-206634658D01*
X154930715Y-206057361D01*
X156000604Y-204989337D01*
X156044344Y-204884000D01*
X167062462Y-204884000D01*
X170793462Y-208615000D01*
X153026894Y-208615000D01*
X152554074Y-208709050D01*
X152158183Y-208544661D01*
X150646449Y-208543342D01*
X150541036Y-208586898D01*
X148735000Y-206780862D01*
X148735000Y-199113562D01*
X148834715Y-199072361D01*
X149904604Y-198004337D01*
X150484339Y-196608183D01*
X150485658Y-195096449D01*
X149908361Y-193699285D01*
X148840337Y-192629396D01*
X147444183Y-192049661D01*
X145932449Y-192048342D01*
X144535285Y-192625639D01*
X143465396Y-193693663D01*
X142885661Y-195089817D01*
X142884342Y-196601551D01*
X143461639Y-197998715D01*
X144529663Y-199068604D01*
X144635000Y-199112344D01*
X144635000Y-207630000D01*
X144791047Y-208414501D01*
X145235431Y-209079569D01*
X147641036Y-211485174D01*
X147599661Y-211584817D01*
X147598342Y-213096551D01*
X147641898Y-213201964D01*
X144983861Y-215860001D01*
X138840473Y-215860001D01*
X139548715Y-215567361D01*
X140618604Y-214499337D01*
X141198339Y-213103183D01*
X141199658Y-211591449D01*
X140622361Y-210194285D01*
X139554337Y-209124396D01*
X138158183Y-208544661D01*
X136646449Y-208543342D01*
X135249285Y-209120639D01*
X134179396Y-210188663D01*
X133599661Y-211584817D01*
X133598342Y-213096551D01*
X134175639Y-214493715D01*
X135243663Y-215563604D01*
X135957465Y-215860001D01*
X118190338Y-215860001D01*
X118535604Y-215515337D01*
X119115339Y-214119183D01*
X119116658Y-212607449D01*
X118539361Y-211210285D01*
X117471337Y-210140396D01*
X116075183Y-209560661D01*
X114563449Y-209559342D01*
X113166285Y-210136639D01*
X112096396Y-211204663D01*
X111516661Y-212600817D01*
X111515342Y-214112551D01*
X112092639Y-215509715D01*
X112442314Y-215860001D01*
X99190338Y-215860001D01*
X99535604Y-215515337D01*
X100115339Y-214119183D01*
X100116658Y-212607449D01*
X99539361Y-211210285D01*
X98471337Y-210140396D01*
X97075183Y-209560661D01*
X95563449Y-209559342D01*
X94166285Y-210136639D01*
X93096396Y-211204663D01*
X92516661Y-212600817D01*
X92515342Y-214112551D01*
X93092639Y-215509715D01*
X93442314Y-215860001D01*
X92503137Y-215860001D01*
X84659107Y-208015971D01*
X85446551Y-208016658D01*
X86843715Y-207439361D01*
X87913604Y-206371337D01*
X88493339Y-204975183D01*
X88493344Y-204968551D01*
X94893342Y-204968551D01*
X95470639Y-206365715D01*
X96538663Y-207435604D01*
X97934817Y-208015339D01*
X99446551Y-208016658D01*
X100843715Y-207439361D01*
X101913604Y-206371337D01*
X102493339Y-204975183D01*
X102494658Y-203463449D01*
X101917361Y-202066285D01*
X100849337Y-200996396D01*
X99453183Y-200416661D01*
X97941449Y-200415342D01*
X96544285Y-200992639D01*
X95474396Y-202060663D01*
X94894661Y-203456817D01*
X94893342Y-204968551D01*
X88493344Y-204968551D01*
X88494658Y-203463449D01*
X87917361Y-202066285D01*
X86849337Y-200996396D01*
X85453183Y-200416661D01*
X83941449Y-200415342D01*
X82544285Y-200992639D01*
X81806000Y-201729637D01*
X81806000Y-200157880D01*
X82480930Y-199482950D01*
X82925314Y-198817882D01*
X83081361Y-198033381D01*
X83081361Y-195612400D01*
X82925314Y-194827899D01*
X82480930Y-194162831D01*
X81815862Y-193718447D01*
X81031361Y-193562400D01*
X80246860Y-193718447D01*
X79581792Y-194162831D01*
X79492435Y-194296564D01*
X79492658Y-194040449D01*
X78915361Y-192643285D01*
X77847337Y-191573396D01*
X76451183Y-190993661D01*
X74939449Y-190992342D01*
X73542285Y-191569639D01*
X72472396Y-192637663D01*
X71892661Y-194033817D01*
X71891342Y-195545551D01*
X72468639Y-196942715D01*
X73536663Y-198012604D01*
X74932817Y-198592339D01*
X76444551Y-198593658D01*
X77841715Y-198016361D01*
X78911604Y-196948337D01*
X78981361Y-196780344D01*
X78981361Y-197184243D01*
X78306431Y-197859173D01*
X77862047Y-198524241D01*
X77706000Y-199308742D01*
X77706000Y-201699708D01*
X76451183Y-201178661D01*
X74939449Y-201177342D01*
X73542285Y-201754639D01*
X72472396Y-202822663D01*
X71892661Y-204218817D01*
X71891342Y-205730551D01*
X72468639Y-207127715D01*
X73536663Y-208197604D01*
X74932817Y-208777339D01*
X76444551Y-208778658D01*
X77841715Y-208201361D01*
X78444493Y-207599633D01*
X89744860Y-218900000D01*
X73455635Y-218900000D01*
X72818526Y-218262891D01*
X74230828Y-218849330D01*
X75762453Y-218850667D01*
X77178001Y-218265774D01*
X78261968Y-217183697D01*
X78849330Y-215769172D01*
X78850667Y-214237547D01*
X78265774Y-212821999D01*
X77183697Y-211738032D01*
X75769172Y-211150670D01*
X74237547Y-211149333D01*
X72821999Y-211734226D01*
X71738032Y-212816303D01*
X71150670Y-214230828D01*
X71149333Y-215762453D01*
X71734226Y-217178001D01*
X72072343Y-217516708D01*
X71100000Y-216544366D01*
X71100000Y-177249002D01*
X71620385Y-178508430D01*
X72969468Y-179859870D01*
X73242000Y-179973035D01*
X73242000Y-182191995D01*
X73241999Y-182192000D01*
X73428495Y-183129575D01*
X73959588Y-183924412D01*
X84810971Y-194775795D01*
X84700835Y-195041032D01*
X84699168Y-196950590D01*
X85428385Y-198715430D01*
X86777468Y-200066870D01*
X88541032Y-200799165D01*
X90450590Y-200800832D01*
X92215430Y-200071615D01*
X93566870Y-198722532D01*
X94287592Y-196986840D01*
X95896535Y-198598594D01*
X101793451Y-201047208D01*
X108178536Y-201052780D01*
X114079717Y-198614462D01*
X116700000Y-195998749D01*
X116699342Y-196752551D01*
X116990992Y-197458398D01*
X111262753Y-203186637D01*
X110217337Y-202139396D01*
X108821183Y-201559661D01*
X107309449Y-201558342D01*
X105912285Y-202135639D01*
X104842396Y-203203663D01*
X104262661Y-204599817D01*
X104261342Y-206111551D01*
X104838639Y-207508715D01*
X105906663Y-208578604D01*
X107302817Y-209158339D01*
X108814551Y-209159658D01*
X110211715Y-208582361D01*
X111281604Y-207514337D01*
X111613514Y-206715011D01*
X111695891Y-206698625D01*
X112166305Y-206384305D01*
X112439059Y-206111551D01*
X118261342Y-206111551D01*
X118838639Y-207508715D01*
X119906663Y-208578604D01*
X121302817Y-209158339D01*
X122814551Y-209159658D01*
X124211715Y-208582361D01*
X125281604Y-207514337D01*
X125861339Y-206118183D01*
X125861885Y-205491551D01*
X127644342Y-205491551D01*
X128221639Y-206888715D01*
X129289663Y-207958604D01*
X130685817Y-208538339D01*
X132197551Y-208539658D01*
X133594715Y-207962361D01*
X134664604Y-206894337D01*
X135244339Y-205498183D01*
X135245658Y-203986449D01*
X134668361Y-202589285D01*
X133600337Y-201519396D01*
X132204183Y-200939661D01*
X130692449Y-200938342D01*
X129295285Y-201515639D01*
X128225396Y-202583663D01*
X127645661Y-203979817D01*
X127644342Y-205491551D01*
X125861885Y-205491551D01*
X125862658Y-204606449D01*
X125285361Y-203209285D01*
X124217337Y-202139396D01*
X122821183Y-201559661D01*
X121309449Y-201558342D01*
X119912285Y-202135639D01*
X118842396Y-203203663D01*
X118262661Y-204599817D01*
X118261342Y-206111551D01*
X112439059Y-206111551D01*
X119041608Y-199509002D01*
X119740817Y-199799339D01*
X121252551Y-199800658D01*
X122649715Y-199223361D01*
X123719604Y-198155337D01*
X124299339Y-196759183D01*
X124300658Y-195247449D01*
X123723361Y-193850285D01*
X122655337Y-192780396D01*
X121259183Y-192200661D01*
X119747449Y-192199342D01*
X119315071Y-192377997D01*
X119683155Y-191491551D01*
X127644342Y-191491551D01*
X128221639Y-192888715D01*
X129289663Y-193958604D01*
X130685817Y-194538339D01*
X132197551Y-194539658D01*
X133594715Y-193962361D01*
X134664604Y-192894337D01*
X135244339Y-191498183D01*
X135245658Y-189986449D01*
X135092820Y-189616551D01*
X136788342Y-189616551D01*
X137365639Y-191013715D01*
X138433663Y-192083604D01*
X139829817Y-192663339D01*
X141341551Y-192664658D01*
X142738715Y-192087361D01*
X143808604Y-191019337D01*
X144388339Y-189623183D01*
X144389658Y-188111449D01*
X143812361Y-186714285D01*
X142744337Y-185644396D01*
X141348183Y-185064661D01*
X139836449Y-185063342D01*
X138439285Y-185640639D01*
X137369396Y-186708663D01*
X136789661Y-188104817D01*
X136788342Y-189616551D01*
X135092820Y-189616551D01*
X134668361Y-188589285D01*
X133600337Y-187519396D01*
X132204183Y-186939661D01*
X130692449Y-186938342D01*
X129295285Y-187515639D01*
X128225396Y-188583663D01*
X127645661Y-189979817D01*
X127644342Y-191491551D01*
X119683155Y-191491551D01*
X121047208Y-188206549D01*
X121047893Y-187421443D01*
X121844663Y-188219604D01*
X123240817Y-188799339D01*
X124752551Y-188800658D01*
X126149715Y-188223361D01*
X127219604Y-187155337D01*
X127799339Y-185759183D01*
X127800658Y-184247449D01*
X127223361Y-182850285D01*
X126965079Y-182591551D01*
X130565342Y-182591551D01*
X131142639Y-183988715D01*
X132210663Y-185058604D01*
X133606817Y-185638339D01*
X135118551Y-185639658D01*
X136515715Y-185062361D01*
X137585604Y-183994337D01*
X138163940Y-182601551D01*
X142884342Y-182601551D01*
X143461639Y-183998715D01*
X144529663Y-185068604D01*
X145925817Y-185648339D01*
X147437551Y-185649658D01*
X148834715Y-185072361D01*
X149904604Y-184004337D01*
X150484339Y-182608183D01*
X150485658Y-181096449D01*
X149908361Y-179699285D01*
X148840337Y-178629396D01*
X147444183Y-178049661D01*
X145932449Y-178048342D01*
X144535285Y-178625639D01*
X143465396Y-179693663D01*
X142885661Y-181089817D01*
X142884342Y-182601551D01*
X138163940Y-182601551D01*
X138165339Y-182598183D01*
X138166658Y-181086449D01*
X137589361Y-179689285D01*
X136521337Y-178619396D01*
X135125183Y-178039661D01*
X133613449Y-178038342D01*
X132216285Y-178615639D01*
X131146396Y-179683663D01*
X130566661Y-181079817D01*
X130565342Y-182591551D01*
X126965079Y-182591551D01*
X126155337Y-181780396D01*
X124759183Y-181200661D01*
X123247449Y-181199342D01*
X121850285Y-181776639D01*
X121052124Y-182573409D01*
X121052780Y-181821464D01*
X119804087Y-178799395D01*
X121450590Y-178800832D01*
X123215430Y-178071615D01*
X124566870Y-176722532D01*
X125026112Y-175616551D01*
X136788342Y-175616551D01*
X137365639Y-177013715D01*
X138433663Y-178083604D01*
X139829817Y-178663339D01*
X141341551Y-178664658D01*
X142738715Y-178087361D01*
X143808604Y-177019337D01*
X144388339Y-175623183D01*
X144389658Y-174111449D01*
X143812361Y-172714285D01*
X142744337Y-171644396D01*
X141348183Y-171064661D01*
X139836449Y-171063342D01*
X138439285Y-171640639D01*
X137369396Y-172708663D01*
X136789661Y-174104817D01*
X136788342Y-175616551D01*
X125026112Y-175616551D01*
X125299165Y-174958968D01*
X125300832Y-173049410D01*
X124571615Y-171284570D01*
X123753270Y-170464795D01*
X124532032Y-170788165D01*
X126441590Y-170789832D01*
X128206430Y-170060615D01*
X129557870Y-168711532D01*
X129603538Y-168601551D01*
X142884342Y-168601551D01*
X143461639Y-169998715D01*
X144529663Y-171068604D01*
X145925817Y-171648339D01*
X147437551Y-171649658D01*
X148834715Y-171072361D01*
X149904604Y-170004337D01*
X150484339Y-168608183D01*
X150485658Y-167096449D01*
X149908361Y-165699285D01*
X148840337Y-164629396D01*
X147444183Y-164049661D01*
X145932449Y-164048342D01*
X144535285Y-164625639D01*
X143465396Y-165693663D01*
X142885661Y-167089817D01*
X142884342Y-168601551D01*
X129603538Y-168601551D01*
X130290165Y-166947968D01*
X130291832Y-165038410D01*
X129694003Y-163591551D01*
X130565342Y-163591551D01*
X131142639Y-164988715D01*
X132210663Y-166058604D01*
X133606817Y-166638339D01*
X135118551Y-166639658D01*
X136515715Y-166062361D01*
X137585604Y-164994337D01*
X138165339Y-163598183D01*
X138166658Y-162086449D01*
X137589361Y-160689285D01*
X136521337Y-159619396D01*
X135125183Y-159039661D01*
X133613449Y-159038342D01*
X132216285Y-159615639D01*
X131146396Y-160683663D01*
X130566661Y-162079817D01*
X130565342Y-163591551D01*
X129694003Y-163591551D01*
X129562615Y-163273570D01*
X128213532Y-161922130D01*
X126449968Y-161189835D01*
X124540410Y-161188168D01*
X122775570Y-161917385D01*
X121424130Y-163266468D01*
X120691835Y-165030032D01*
X120690168Y-166939590D01*
X121419385Y-168704430D01*
X122237730Y-169524205D01*
X121458968Y-169200835D01*
X119549410Y-169199168D01*
X117784570Y-169928385D01*
X116433130Y-171277468D01*
X115712408Y-173013160D01*
X114103465Y-171401406D01*
X112536344Y-170750680D01*
X114206430Y-170060615D01*
X115557870Y-168711532D01*
X116290165Y-166947968D01*
X116291832Y-165038410D01*
X115562615Y-163273570D01*
X114213532Y-161922130D01*
X112449968Y-161189835D01*
X110540410Y-161188168D01*
X109704180Y-161533691D01*
X109431441Y-161479440D01*
X109431436Y-161479441D01*
X102491941Y-161479441D01*
X102812604Y-161159337D01*
X103392339Y-159763183D01*
X103393658Y-158251449D01*
X102816361Y-156854285D01*
X102207176Y-156244036D01*
X114563627Y-156244036D01*
X114526130Y-156281468D01*
X113793835Y-158045032D01*
X113792168Y-159954590D01*
X114521385Y-161719430D01*
X115870468Y-163070870D01*
X117634032Y-163803165D01*
X119543590Y-163804832D01*
X121308430Y-163075615D01*
X122659870Y-161726532D01*
X123392165Y-159962968D01*
X123393832Y-158053410D01*
X122664615Y-156288570D01*
X122620159Y-156244036D01*
X145160212Y-156244036D01*
X147076971Y-158160795D01*
X146966835Y-158426032D01*
X146965168Y-160335590D01*
X147694385Y-162100430D01*
X149043468Y-163451870D01*
X150807032Y-164184165D01*
X152716590Y-164185832D01*
X154481430Y-163456615D01*
X155832870Y-162107532D01*
X156565165Y-160343968D01*
X156566832Y-158434410D01*
X155837615Y-156669570D01*
X154488532Y-155318130D01*
X152724968Y-154585835D01*
X150815410Y-154584168D01*
X150542681Y-154696857D01*
X147907448Y-152061624D01*
X147112611Y-151530531D01*
X146175036Y-151344035D01*
X146175031Y-151344036D01*
X83187969Y-151344036D01*
X83187964Y-151344035D01*
X82250389Y-151530531D01*
X81455552Y-152061624D01*
X77043205Y-156473971D01*
X76777968Y-156363835D01*
X74868410Y-156362168D01*
X73103570Y-157091385D01*
X71752130Y-158440468D01*
X71100000Y-160010973D01*
X71100000Y-147198639D01*
X71747385Y-148765430D01*
X73096468Y-150116870D01*
X74860032Y-150849165D01*
X76769590Y-150850832D01*
X78534430Y-150121615D01*
X79885870Y-148772532D01*
X79999035Y-148500000D01*
X135949995Y-148500000D01*
X135950000Y-148500001D01*
X135950005Y-148500000D01*
X205949995Y-148500000D01*
X205950000Y-148500001D01*
X206887575Y-148313505D01*
X207682412Y-147782412D01*
X212275795Y-143189029D01*
X212541032Y-143299165D01*
X214450590Y-143300832D01*
X215196687Y-142992551D01*
X230768342Y-142992551D01*
X231345639Y-144389715D01*
X232413663Y-145459604D01*
X233809817Y-146039339D01*
X235321551Y-146040658D01*
X236718715Y-145463361D01*
X237788604Y-144395337D01*
X238368339Y-142999183D01*
X238369001Y-142240000D01*
X240476247Y-142240000D01*
X240651324Y-143120172D01*
X241149901Y-143866346D01*
X241896075Y-144364923D01*
X242776247Y-144540000D01*
X244395753Y-144540000D01*
X245275925Y-144364923D01*
X246022099Y-143866346D01*
X246520676Y-143120172D01*
X246695753Y-142240000D01*
X248096247Y-142240000D01*
X248271324Y-143120172D01*
X248769901Y-143866346D01*
X249516075Y-144364923D01*
X250396247Y-144540000D01*
X252015753Y-144540000D01*
X252895925Y-144364923D01*
X253642099Y-143866346D01*
X254140676Y-143120172D01*
X254166061Y-142992551D01*
X256168342Y-142992551D01*
X256745639Y-144389715D01*
X257813663Y-145459604D01*
X259209817Y-146039339D01*
X260721551Y-146040658D01*
X262118715Y-145463361D01*
X263188604Y-144395337D01*
X263768339Y-142999183D01*
X263769658Y-141487449D01*
X263192361Y-140090285D01*
X262124337Y-139020396D01*
X260728183Y-138440661D01*
X259216449Y-138439342D01*
X257819285Y-139016639D01*
X256749396Y-140084663D01*
X256169661Y-141480817D01*
X256168342Y-142992551D01*
X254166061Y-142992551D01*
X254315753Y-142240000D01*
X254140676Y-141359828D01*
X253642099Y-140613654D01*
X252895925Y-140115077D01*
X252015753Y-139940000D01*
X250396247Y-139940000D01*
X249516075Y-140115077D01*
X248769901Y-140613654D01*
X248271324Y-141359828D01*
X248096247Y-142240000D01*
X246695753Y-142240000D01*
X246520676Y-141359828D01*
X246022099Y-140613654D01*
X245275925Y-140115077D01*
X244395753Y-139940000D01*
X242776247Y-139940000D01*
X241896075Y-140115077D01*
X241149901Y-140613654D01*
X240651324Y-141359828D01*
X240476247Y-142240000D01*
X238369001Y-142240000D01*
X238369658Y-141487449D01*
X237792361Y-140090285D01*
X236724337Y-139020396D01*
X235328183Y-138440661D01*
X233816449Y-138439342D01*
X232419285Y-139016639D01*
X231349396Y-140084663D01*
X230769661Y-141480817D01*
X230768342Y-142992551D01*
X215196687Y-142992551D01*
X216215430Y-142571615D01*
X217566870Y-141222532D01*
X218299165Y-139458968D01*
X218300832Y-137549410D01*
X218139932Y-137160000D01*
X240476247Y-137160000D01*
X240651324Y-138040172D01*
X241149901Y-138786346D01*
X241896075Y-139284923D01*
X242776247Y-139460000D01*
X244395753Y-139460000D01*
X245275925Y-139284923D01*
X246022099Y-138786346D01*
X246520676Y-138040172D01*
X246695753Y-137160000D01*
X248096247Y-137160000D01*
X248271324Y-138040172D01*
X248769901Y-138786346D01*
X249516075Y-139284923D01*
X250396247Y-139460000D01*
X252015753Y-139460000D01*
X252895925Y-139284923D01*
X253642099Y-138786346D01*
X254140676Y-138040172D01*
X254315753Y-137160000D01*
X254140676Y-136279828D01*
X253642099Y-135533654D01*
X252895925Y-135035077D01*
X252015753Y-134860000D01*
X250396247Y-134860000D01*
X249516075Y-135035077D01*
X248769901Y-135533654D01*
X248271324Y-136279828D01*
X248096247Y-137160000D01*
X246695753Y-137160000D01*
X246520676Y-136279828D01*
X246022099Y-135533654D01*
X245275925Y-135035077D01*
X244395753Y-134860000D01*
X242776247Y-134860000D01*
X241896075Y-135035077D01*
X241149901Y-135533654D01*
X240651324Y-136279828D01*
X240476247Y-137160000D01*
X218139932Y-137160000D01*
X217571615Y-135784570D01*
X216222532Y-134433130D01*
X214458968Y-133700835D01*
X213766032Y-133700230D01*
X214438810Y-132080000D01*
X240476247Y-132080000D01*
X240651324Y-132960172D01*
X241149901Y-133706346D01*
X241896075Y-134204923D01*
X242776247Y-134380000D01*
X244395753Y-134380000D01*
X245275925Y-134204923D01*
X246022099Y-133706346D01*
X246520676Y-132960172D01*
X246695753Y-132080000D01*
X248096247Y-132080000D01*
X248271324Y-132960172D01*
X248769901Y-133706346D01*
X249516075Y-134204923D01*
X250396247Y-134380000D01*
X252015753Y-134380000D01*
X252895925Y-134204923D01*
X253642099Y-133706346D01*
X254140676Y-132960172D01*
X254315753Y-132080000D01*
X254140676Y-131199828D01*
X253642099Y-130453654D01*
X252895925Y-129955077D01*
X252015753Y-129780000D01*
X250396247Y-129780000D01*
X249516075Y-129955077D01*
X248769901Y-130453654D01*
X248271324Y-131199828D01*
X248096247Y-132080000D01*
X246695753Y-132080000D01*
X246520676Y-131199828D01*
X246022099Y-130453654D01*
X245275925Y-129955077D01*
X244395753Y-129780000D01*
X242776247Y-129780000D01*
X241896075Y-129955077D01*
X241149901Y-130453654D01*
X240651324Y-131199828D01*
X240476247Y-132080000D01*
X214438810Y-132080000D01*
X216047208Y-128206549D01*
X216052780Y-121821464D01*
X215145035Y-119624551D01*
X227593342Y-119624551D01*
X228170639Y-121021715D01*
X229238663Y-122091604D01*
X230634817Y-122671339D01*
X232146551Y-122672658D01*
X233543715Y-122095361D01*
X234613604Y-121027337D01*
X234906486Y-120322000D01*
X241627829Y-120322000D01*
X241818607Y-120618477D01*
X242136000Y-120835343D01*
X242136000Y-122287353D01*
X241896075Y-122335077D01*
X241149901Y-122833654D01*
X240651324Y-123579828D01*
X240476247Y-124460000D01*
X240651324Y-125340172D01*
X241149901Y-126086346D01*
X241896075Y-126584923D01*
X242776247Y-126760000D01*
X244395753Y-126760000D01*
X245275925Y-126584923D01*
X246022099Y-126086346D01*
X246520676Y-125340172D01*
X246695753Y-124460000D01*
X246520676Y-123579828D01*
X246022099Y-122833654D01*
X245275925Y-122335077D01*
X245036000Y-122287353D01*
X245036000Y-120830171D01*
X245332477Y-120639393D01*
X245572224Y-120288512D01*
X245656570Y-119872000D01*
X245656570Y-117872000D01*
X245583355Y-117482893D01*
X245353393Y-117125523D01*
X245002512Y-116885776D01*
X244586000Y-116801430D01*
X242586000Y-116801430D01*
X242196893Y-116874645D01*
X241839523Y-117104607D01*
X241622657Y-117422000D01*
X234906478Y-117422000D01*
X234617361Y-116722285D01*
X233549337Y-115652396D01*
X232153183Y-115072661D01*
X230641449Y-115071342D01*
X229244285Y-115648639D01*
X228174396Y-116716663D01*
X227594661Y-118112817D01*
X227593342Y-119624551D01*
X215145035Y-119624551D01*
X213614462Y-115920283D01*
X209103465Y-111401406D01*
X205050702Y-109718551D01*
X227593342Y-109718551D01*
X228170639Y-111115715D01*
X229238663Y-112185604D01*
X230634817Y-112765339D01*
X232146551Y-112766658D01*
X233543715Y-112189361D01*
X234613604Y-111121337D01*
X234906486Y-110416000D01*
X240699390Y-110416000D01*
X249155999Y-118872609D01*
X249155645Y-119277981D01*
X249467081Y-120031715D01*
X249756000Y-120321138D01*
X249756000Y-122287353D01*
X249516075Y-122335077D01*
X248769901Y-122833654D01*
X248271324Y-123579828D01*
X248096247Y-124460000D01*
X248271324Y-125340172D01*
X248769901Y-126086346D01*
X249516075Y-126584923D01*
X250396247Y-126760000D01*
X252015753Y-126760000D01*
X252895925Y-126584923D01*
X253642099Y-126086346D01*
X254140676Y-125340172D01*
X254315753Y-124460000D01*
X254222772Y-123992551D01*
X256168342Y-123992551D01*
X256745639Y-125389715D01*
X257813663Y-126459604D01*
X259209817Y-127039339D01*
X260721551Y-127040658D01*
X262118715Y-126463361D01*
X263188604Y-125395337D01*
X263768339Y-123999183D01*
X263769658Y-122487449D01*
X263192361Y-121090285D01*
X262124337Y-120020396D01*
X260728183Y-119440661D01*
X259216449Y-119439342D01*
X257819285Y-120016639D01*
X256749396Y-121084663D01*
X256169661Y-122480817D01*
X256168342Y-123992551D01*
X254222772Y-123992551D01*
X254140676Y-123579828D01*
X253642099Y-122833654D01*
X252895925Y-122335077D01*
X252656000Y-122287353D01*
X252656000Y-120321140D01*
X252942892Y-120034748D01*
X253255643Y-119281559D01*
X253256355Y-118466019D01*
X252944919Y-117712285D01*
X252368748Y-117135108D01*
X251615559Y-116822357D01*
X251206610Y-116822000D01*
X242325305Y-107940695D01*
X241854891Y-107626375D01*
X241300000Y-107516000D01*
X234906478Y-107516000D01*
X234617361Y-106816285D01*
X233549337Y-105746396D01*
X232153183Y-105166661D01*
X230641449Y-105165342D01*
X229244285Y-105742639D01*
X228174396Y-106810663D01*
X227594661Y-108206817D01*
X227593342Y-109718551D01*
X205050702Y-109718551D01*
X203206549Y-108952792D01*
X202421443Y-108952107D01*
X203219604Y-108155337D01*
X203799339Y-106759183D01*
X203800658Y-105247449D01*
X203223361Y-103850285D01*
X202155337Y-102780396D01*
X200759183Y-102200661D01*
X199247449Y-102199342D01*
X197850285Y-102776639D01*
X196780396Y-103844663D01*
X196736656Y-103950000D01*
X133264562Y-103950000D01*
X133223361Y-103850285D01*
X132155337Y-102780396D01*
X130759183Y-102200661D01*
X129247449Y-102199342D01*
X129142036Y-102242898D01*
X128699570Y-101800432D01*
X128034502Y-101356048D01*
X127250001Y-101200001D01*
X93795450Y-101200001D01*
X93010949Y-101356048D01*
X92345881Y-101800432D01*
X84533223Y-109613090D01*
X84088839Y-110278158D01*
X83932792Y-111062659D01*
X84088839Y-111847160D01*
X84533223Y-112512228D01*
X85198291Y-112956612D01*
X85982792Y-113112659D01*
X86767293Y-112956612D01*
X87432361Y-112512228D01*
X89337038Y-110607551D01*
X92846342Y-110607551D01*
X93423639Y-112004715D01*
X94491663Y-113074604D01*
X95887817Y-113654339D01*
X97399551Y-113655658D01*
X98796715Y-113078361D01*
X99866604Y-112010337D01*
X100446339Y-110614183D01*
X100447658Y-109102449D01*
X99870361Y-107705285D01*
X98802337Y-106635396D01*
X97406183Y-106055661D01*
X95894449Y-106054342D01*
X94497285Y-106631639D01*
X93427396Y-107699663D01*
X92847661Y-109095817D01*
X92846342Y-110607551D01*
X89337038Y-110607551D01*
X94644588Y-105300001D01*
X126200609Y-105300001D01*
X126199342Y-106752551D01*
X126776639Y-108149715D01*
X127573409Y-108947876D01*
X126821464Y-108947220D01*
X120920283Y-111385538D01*
X116401406Y-115896535D01*
X113952792Y-121793451D01*
X113947220Y-128178536D01*
X116385538Y-134079717D01*
X117005178Y-134700439D01*
X115747449Y-134699342D01*
X114350285Y-135276639D01*
X113280396Y-136344663D01*
X112700661Y-137740817D01*
X112699342Y-139252551D01*
X113276639Y-140649715D01*
X114344663Y-141719604D01*
X115164426Y-142060000D01*
X107500877Y-142060000D01*
X108448715Y-141668361D01*
X109518604Y-140600337D01*
X110098339Y-139204183D01*
X110099658Y-137692449D01*
X109522361Y-136295285D01*
X108454337Y-135225396D01*
X107058183Y-134645661D01*
X105546449Y-134644342D01*
X104149285Y-135221639D01*
X103079396Y-136289663D01*
X102499661Y-137685817D01*
X102498342Y-139197551D01*
X103075639Y-140594715D01*
X104143663Y-141664604D01*
X105095880Y-142060000D01*
X98059433Y-142060000D01*
X98796715Y-141755361D01*
X99866604Y-140687337D01*
X100446339Y-139291183D01*
X100447658Y-137779449D01*
X99870361Y-136382285D01*
X98802337Y-135312396D01*
X97406183Y-134732661D01*
X95894449Y-134731342D01*
X94497285Y-135308639D01*
X93427396Y-136376663D01*
X92847661Y-137772817D01*
X92846342Y-139284551D01*
X93423639Y-140681715D01*
X94491663Y-141751604D01*
X95234361Y-142060000D01*
X92425469Y-142060000D01*
X84239000Y-133873531D01*
X84239000Y-125895000D01*
X102786522Y-125895000D01*
X103075639Y-126594715D01*
X104143663Y-127664604D01*
X105539817Y-128244339D01*
X107051551Y-128245658D01*
X108448715Y-127668361D01*
X109518604Y-126600337D01*
X110098339Y-125204183D01*
X110099658Y-123692449D01*
X109522361Y-122295285D01*
X108454337Y-121225396D01*
X107058183Y-120645661D01*
X105546449Y-120644342D01*
X104149285Y-121221639D01*
X103079396Y-122289663D01*
X102786514Y-122995000D01*
X98216745Y-122995000D01*
X98796715Y-122755361D01*
X99866604Y-121687337D01*
X100446339Y-120291183D01*
X100447658Y-118779449D01*
X99870361Y-117382285D01*
X98802337Y-116312396D01*
X97406183Y-115732661D01*
X95894449Y-115731342D01*
X94497285Y-116308639D01*
X93427396Y-117376663D01*
X92847661Y-118772817D01*
X92846342Y-120284551D01*
X93423639Y-121681715D01*
X94491663Y-122751604D01*
X95077824Y-122995000D01*
X83389610Y-122995000D01*
X79328002Y-118933392D01*
X79618339Y-118234183D01*
X79619658Y-116722449D01*
X79042361Y-115325285D01*
X77974337Y-114255396D01*
X76578183Y-113675661D01*
X75066449Y-113674342D01*
X73669285Y-114251639D01*
X72599396Y-115319663D01*
X72019661Y-116715817D01*
X72018342Y-118227551D01*
X72595639Y-119624715D01*
X73663663Y-120694604D01*
X75059817Y-121274339D01*
X76571551Y-121275658D01*
X77277398Y-120984008D01*
X81339000Y-125045610D01*
X81339000Y-134474141D01*
X81449375Y-135029032D01*
X81763695Y-135499446D01*
X89864249Y-143600000D01*
X80000288Y-143600000D01*
X79890615Y-143334570D01*
X78541532Y-141983130D01*
X76777968Y-141250835D01*
X74868410Y-141249168D01*
X73103570Y-141978385D01*
X71752130Y-143327468D01*
X71100000Y-144897973D01*
X71100000Y-103455634D01*
X71737109Y-102818525D01*
X71150670Y-104230828D01*
X71149333Y-105762453D01*
X71734226Y-107178001D01*
X72816303Y-108261968D01*
X74230828Y-108849330D01*
X75762453Y-108850667D01*
X77178001Y-108265774D01*
X78261968Y-107183697D01*
X78849330Y-105769172D01*
X78850667Y-104237547D01*
X78265774Y-102821999D01*
X77183697Y-101738032D01*
X75769172Y-101150670D01*
X74237547Y-101149333D01*
X72821999Y-101734226D01*
X72483370Y-102072264D01*
X73455635Y-101100000D01*
X271544366Y-101100000D01*
X272181475Y-101737109D01*
X272181475Y-101737109D01*
G37*
X272181475Y-101737109D02*
X270769172Y-101150670D01*
X269237547Y-101149333D01*
X267821999Y-101734226D01*
X266738032Y-102816303D01*
X266150670Y-104230828D01*
X266149333Y-105762453D01*
X266734226Y-107178001D01*
X267816303Y-108261968D01*
X269230828Y-108849330D01*
X270762453Y-108850667D01*
X272178001Y-108265774D01*
X273261968Y-107183697D01*
X273849330Y-105769172D01*
X273850667Y-104237547D01*
X273265774Y-102821999D01*
X272927736Y-102483370D01*
X273900000Y-103455635D01*
X273900000Y-130000000D01*
X273983733Y-130420952D01*
X274005584Y-130453654D01*
X274222183Y-130777817D01*
X284222183Y-140777818D01*
X284579049Y-141016268D01*
X285000000Y-141100000D01*
X294544366Y-141100000D01*
X301222183Y-147777818D01*
X301436108Y-147920758D01*
X301579048Y-148016267D01*
X302000000Y-148100000D01*
X346544366Y-148100000D01*
X347181475Y-148737109D01*
X345769172Y-148150670D01*
X344237547Y-148149333D01*
X342821999Y-148734226D01*
X341738032Y-149816303D01*
X341150670Y-151230828D01*
X341149333Y-152762453D01*
X341734226Y-154178001D01*
X342816303Y-155261968D01*
X344230828Y-155849330D01*
X345762453Y-155850667D01*
X347178001Y-155265774D01*
X348261968Y-154183697D01*
X348849330Y-152769172D01*
X348850667Y-151237547D01*
X348265774Y-149821999D01*
X347927736Y-149483370D01*
X348900000Y-150455635D01*
X348900000Y-178684983D01*
X348241615Y-177091570D01*
X346892532Y-175740130D01*
X345128968Y-175007835D01*
X343219410Y-175006168D01*
X341454570Y-175735385D01*
X340103130Y-177084468D01*
X339370835Y-178848032D01*
X339369168Y-180757590D01*
X340098385Y-182522430D01*
X341447468Y-183873870D01*
X343211032Y-184606165D01*
X345120590Y-184607832D01*
X346885430Y-183878615D01*
X348236870Y-182529532D01*
X348900000Y-180932536D01*
X348900000Y-216544365D01*
X346544366Y-218900000D01*
X296050874Y-218900000D01*
X296470569Y-218619569D01*
X305776138Y-209314000D01*
X316357000Y-209314000D01*
X317141501Y-209157953D01*
X317806569Y-208713569D01*
X317990000Y-208530138D01*
X317990000Y-209462862D01*
X315253862Y-212199000D01*
X314130562Y-212199000D01*
X314089361Y-212099285D01*
X313021337Y-211029396D01*
X311625183Y-210449661D01*
X310113449Y-210448342D01*
X308716285Y-211025639D01*
X307646396Y-212093663D01*
X307066661Y-213489817D01*
X307065342Y-215001551D01*
X307642639Y-216398715D01*
X308710663Y-217468604D01*
X310106817Y-218048339D01*
X311618551Y-218049658D01*
X313015715Y-217472361D01*
X314085604Y-216404337D01*
X314129344Y-216299000D01*
X316103000Y-216299000D01*
X316887501Y-216142953D01*
X317552569Y-215698569D01*
X318249587Y-215001551D01*
X321065342Y-215001551D01*
X321642639Y-216398715D01*
X322710663Y-217468604D01*
X324106817Y-218048339D01*
X325618551Y-218049658D01*
X327015715Y-217472361D01*
X328085604Y-216404337D01*
X328665339Y-215008183D01*
X328666658Y-213496449D01*
X328089361Y-212099285D01*
X327021337Y-211029396D01*
X325625183Y-210449661D01*
X324113449Y-210448342D01*
X322716285Y-211025639D01*
X321646396Y-212093663D01*
X321066661Y-213489817D01*
X321065342Y-215001551D01*
X318249587Y-215001551D01*
X321489569Y-211761569D01*
X321933953Y-211096501D01*
X322090000Y-210312000D01*
X322090000Y-207681610D01*
X322316695Y-207908305D01*
X322787109Y-208222625D01*
X323342000Y-208333000D01*
X331885390Y-208333000D01*
X332520330Y-208967940D01*
X332520330Y-209372200D01*
X332593545Y-209761307D01*
X332823507Y-210118677D01*
X333174388Y-210358424D01*
X333590900Y-210442770D01*
X335191100Y-210442770D01*
X335580207Y-210369555D01*
X335937577Y-210139593D01*
X336177324Y-209788712D01*
X336241191Y-209473329D01*
X340158036Y-213390174D01*
X340116661Y-213489817D01*
X340115342Y-215001551D01*
X340692639Y-216398715D01*
X341760663Y-217468604D01*
X343156817Y-218048339D01*
X344668551Y-218049658D01*
X346065715Y-217472361D01*
X347135604Y-216404337D01*
X347715339Y-215008183D01*
X347716658Y-213496449D01*
X347139361Y-212099285D01*
X346071337Y-211029396D01*
X344675183Y-210449661D01*
X343163449Y-210448342D01*
X343058036Y-210491898D01*
X334697569Y-202131431D01*
X334032501Y-201687047D01*
X333248000Y-201531000D01*
X323304562Y-201531000D01*
X323263361Y-201431285D01*
X322885260Y-201052524D01*
X323178536Y-201052780D01*
X329079717Y-198614462D01*
X331700000Y-195998749D01*
X331699342Y-196752551D01*
X332276639Y-198149715D01*
X333344663Y-199219604D01*
X334740817Y-199799339D01*
X336252551Y-199800658D01*
X337649715Y-199223361D01*
X338719604Y-198155337D01*
X339299339Y-196759183D01*
X339300658Y-195247449D01*
X338723361Y-193850285D01*
X337655337Y-192780396D01*
X336259183Y-192200661D01*
X334747449Y-192199342D01*
X334315071Y-192377997D01*
X335301857Y-190001551D01*
X340115342Y-190001551D01*
X340692639Y-191398715D01*
X341760663Y-192468604D01*
X343156817Y-193048339D01*
X344668551Y-193049658D01*
X346065715Y-192472361D01*
X347135604Y-191404337D01*
X347715339Y-190008183D01*
X347716658Y-188496449D01*
X347139361Y-187099285D01*
X346071337Y-186029396D01*
X344675183Y-185449661D01*
X343163449Y-185448342D01*
X341766285Y-186025639D01*
X340696396Y-187093663D01*
X340116661Y-188489817D01*
X340115342Y-190001551D01*
X335301857Y-190001551D01*
X336047208Y-188206549D01*
X336052780Y-181821464D01*
X334804087Y-178799395D01*
X336450590Y-178800832D01*
X338215430Y-178071615D01*
X339566870Y-176722532D01*
X340299165Y-174958968D01*
X340300832Y-173049410D01*
X339571615Y-171284570D01*
X338222532Y-169933130D01*
X336458968Y-169200835D01*
X334549410Y-169199168D01*
X332784570Y-169928385D01*
X331433130Y-171277468D01*
X330712408Y-173013160D01*
X329103465Y-171401406D01*
X323949030Y-169261097D01*
X324106870Y-169103532D01*
X324839165Y-167339968D01*
X324840832Y-165430410D01*
X324111615Y-163665570D01*
X322762532Y-162314130D01*
X322490000Y-162200965D01*
X322490000Y-161718121D01*
X324122430Y-161043615D01*
X325473870Y-159694532D01*
X326206165Y-157930968D01*
X326206172Y-157922590D01*
X330606168Y-157922590D01*
X331335385Y-159687430D01*
X332684468Y-161038870D01*
X334448032Y-161771165D01*
X336357590Y-161772832D01*
X336873769Y-161559551D01*
X340369342Y-161559551D01*
X340946639Y-162956715D01*
X342014663Y-164026604D01*
X343410817Y-164606339D01*
X344922551Y-164607658D01*
X346319715Y-164030361D01*
X347389604Y-162962337D01*
X347969339Y-161566183D01*
X347970658Y-160054449D01*
X347393361Y-158657285D01*
X346325337Y-157587396D01*
X344929183Y-157007661D01*
X343417449Y-157006342D01*
X342020285Y-157583639D01*
X340950396Y-158651663D01*
X340370661Y-160047817D01*
X340369342Y-161559551D01*
X336873769Y-161559551D01*
X338122430Y-161043615D01*
X339473870Y-159694532D01*
X340206165Y-157930968D01*
X340207832Y-156021410D01*
X339478615Y-154256570D01*
X338129532Y-152905130D01*
X336365968Y-152172835D01*
X334456410Y-152171168D01*
X332691570Y-152900385D01*
X331340130Y-154249468D01*
X330607835Y-156013032D01*
X330606168Y-157922590D01*
X326206172Y-157922590D01*
X326207832Y-156021410D01*
X325478615Y-154256570D01*
X324129532Y-152905130D01*
X322365968Y-152172835D01*
X320456410Y-152171168D01*
X318691570Y-152900385D01*
X317340130Y-154249468D01*
X316607835Y-156013032D01*
X316606168Y-157922590D01*
X317335385Y-159687430D01*
X317590000Y-159942490D01*
X317590000Y-160694176D01*
X316489029Y-159593205D01*
X316599165Y-159327968D01*
X316600832Y-157418410D01*
X315871615Y-155653570D01*
X314522532Y-154302130D01*
X312758968Y-153569835D01*
X310849410Y-153568168D01*
X309084570Y-154297385D01*
X307733130Y-155646468D01*
X307000835Y-157410032D01*
X306999168Y-159319590D01*
X307728385Y-161084430D01*
X309077468Y-162435870D01*
X310841032Y-163168165D01*
X312750590Y-163169832D01*
X313023319Y-163057143D01*
X315284075Y-165317899D01*
X315240835Y-165422032D01*
X315240281Y-166056128D01*
X301560282Y-166056128D01*
X305924184Y-161692226D01*
X306368568Y-161027158D01*
X306524615Y-160242657D01*
X306524615Y-155255238D01*
X306368568Y-154470737D01*
X305924184Y-153805669D01*
X294305946Y-142187431D01*
X293640878Y-141743047D01*
X292856377Y-141587000D01*
X277201138Y-141587000D01*
X271406304Y-135792166D01*
X271406304Y-126511457D01*
X271643715Y-126413361D01*
X272713604Y-125345337D01*
X273293339Y-123949183D01*
X273294658Y-122437449D01*
X272717361Y-121040285D01*
X271649337Y-119970396D01*
X270253183Y-119390661D01*
X268741449Y-119389342D01*
X267344285Y-119966639D01*
X266274396Y-121034663D01*
X265694661Y-122430817D01*
X265693342Y-123942551D01*
X266270639Y-125339715D01*
X267306304Y-126377188D01*
X267306304Y-136641304D01*
X267462351Y-137425805D01*
X267906735Y-138090873D01*
X274902431Y-145086569D01*
X275567499Y-145530953D01*
X276352000Y-145687000D01*
X292007239Y-145687000D01*
X302424615Y-156104376D01*
X302424615Y-156991932D01*
X301871615Y-155653570D01*
X300522532Y-154302130D01*
X298758968Y-153569835D01*
X296849410Y-153568168D01*
X295084570Y-154297385D01*
X293733130Y-155646468D01*
X293619965Y-155919000D01*
X288669823Y-155919000D01*
X284745375Y-151994551D01*
X287410342Y-151994551D01*
X287987639Y-153391715D01*
X289055663Y-154461604D01*
X290451817Y-155041339D01*
X291963551Y-155042658D01*
X293360715Y-154465361D01*
X294430604Y-153397337D01*
X295010339Y-152001183D01*
X295011658Y-150489449D01*
X294434361Y-149092285D01*
X293366337Y-148022396D01*
X291970183Y-147442661D01*
X290458449Y-147441342D01*
X289061285Y-148018639D01*
X287991396Y-149086663D01*
X287411661Y-150482817D01*
X287410342Y-151994551D01*
X284745375Y-151994551D01*
X279735412Y-146984588D01*
X278940575Y-146453495D01*
X278003000Y-146266999D01*
X278002995Y-146267000D01*
X256794000Y-146267000D01*
X255856426Y-146453495D01*
X255061588Y-146984588D01*
X255061586Y-146984591D01*
X248330588Y-153715588D01*
X247799495Y-154510425D01*
X247793647Y-154539824D01*
X245953412Y-152699588D01*
X245158575Y-152168495D01*
X244221000Y-151981999D01*
X244220995Y-151982000D01*
X227335288Y-151982000D01*
X227225615Y-151716570D01*
X225876532Y-150365130D01*
X224112968Y-149632835D01*
X222203410Y-149631168D01*
X220438570Y-150360385D01*
X219087130Y-151709468D01*
X218354835Y-153473032D01*
X218353168Y-155382590D01*
X219082385Y-157147430D01*
X220431468Y-158498870D01*
X222195032Y-159231165D01*
X224104590Y-159232832D01*
X225869430Y-158503615D01*
X227220870Y-157154532D01*
X227334035Y-156882000D01*
X238327775Y-156882000D01*
X237343396Y-157864663D01*
X236763661Y-159260817D01*
X236762342Y-160772551D01*
X237339639Y-162169715D01*
X238407663Y-163239604D01*
X239803817Y-163819339D01*
X241315551Y-163820658D01*
X242712715Y-163243361D01*
X243782604Y-162175337D01*
X244362339Y-160779183D01*
X244363658Y-159267449D01*
X243786361Y-157870285D01*
X242799799Y-156882000D01*
X243206176Y-156882000D01*
X247613000Y-161288823D01*
X247613000Y-162343712D01*
X247347570Y-162453385D01*
X245996130Y-163802468D01*
X245882965Y-164075000D01*
X243019003Y-164075000D01*
X243018998Y-164074999D01*
X242081423Y-164261495D01*
X241788083Y-164457499D01*
X241286586Y-164792588D01*
X241286584Y-164792591D01*
X239525173Y-166554001D01*
X227537338Y-166554001D01*
X227882604Y-166209337D01*
X228462339Y-164813183D01*
X228463658Y-163301449D01*
X227886361Y-161904285D01*
X226818337Y-160834396D01*
X225422183Y-160254661D01*
X223910449Y-160253342D01*
X222513285Y-160830639D01*
X221443396Y-161898663D01*
X220863661Y-163294817D01*
X220862342Y-164806551D01*
X221439639Y-166203715D01*
X221789314Y-166554001D01*
X220427935Y-166554001D01*
X220427930Y-166554000D01*
X219490355Y-166740496D01*
X219192390Y-166939590D01*
X218695518Y-167271589D01*
X218695516Y-167271592D01*
X216580588Y-169386519D01*
X216049495Y-170181356D01*
X215862999Y-171118931D01*
X215863000Y-171118936D01*
X215863000Y-180842712D01*
X215597570Y-180952385D01*
X214246130Y-182301468D01*
X213513835Y-184065032D01*
X213512168Y-185974590D01*
X214241385Y-187739430D01*
X215590468Y-189090870D01*
X217354032Y-189823165D01*
X219263590Y-189824832D01*
X221028430Y-189095615D01*
X222379870Y-187746532D01*
X223112165Y-185982968D01*
X223113832Y-184073410D01*
X222384615Y-182308570D01*
X221035532Y-180957130D01*
X220763000Y-180843965D01*
X220763000Y-178791551D01*
X220862342Y-178791551D01*
X220862355Y-178791583D01*
X220862342Y-178806551D01*
X221439639Y-180203715D01*
X222507663Y-181273604D01*
X223903817Y-181853339D01*
X225415551Y-181854658D01*
X226812715Y-181277361D01*
X227882604Y-180209337D01*
X228462339Y-178813183D01*
X228463658Y-177301449D01*
X228463645Y-177301417D01*
X228463658Y-177286449D01*
X227886361Y-175889285D01*
X226818337Y-174819396D01*
X225422183Y-174239661D01*
X223910449Y-174238342D01*
X222513285Y-174815639D01*
X221443396Y-175883663D01*
X220863661Y-177279817D01*
X220862342Y-178791551D01*
X220763000Y-178791551D01*
X220763000Y-172133755D01*
X221442753Y-171454001D01*
X231671740Y-171454001D01*
X231280396Y-171844663D01*
X230700661Y-173240817D01*
X230699342Y-174752551D01*
X231276639Y-176149715D01*
X232344663Y-177219604D01*
X233740817Y-177799339D01*
X235252551Y-177800658D01*
X235684929Y-177622003D01*
X233952792Y-181793451D01*
X233952107Y-182578557D01*
X233155337Y-181780396D01*
X231759183Y-181200661D01*
X230247449Y-181199342D01*
X228850285Y-181776639D01*
X227780396Y-182844663D01*
X227200661Y-184240817D01*
X227199342Y-185752551D01*
X227776639Y-187149715D01*
X228844663Y-188219604D01*
X230240817Y-188799339D01*
X231752551Y-188800658D01*
X233149715Y-188223361D01*
X233947876Y-187426591D01*
X233947220Y-188178536D01*
X235195913Y-191200605D01*
X233549410Y-191199168D01*
X231784570Y-191928385D01*
X230433130Y-193277468D01*
X229700835Y-195041032D01*
X229699168Y-196950590D01*
X230428385Y-198715430D01*
X231777468Y-200066870D01*
X233541032Y-200799165D01*
X235450590Y-200800832D01*
X237215430Y-200071615D01*
X238566870Y-198722532D01*
X239287592Y-196986840D01*
X240896535Y-198598594D01*
X246793451Y-201047208D01*
X253178536Y-201052780D01*
X259079717Y-198614462D01*
X261700000Y-195998749D01*
X261699342Y-196752551D01*
X262276639Y-198149715D01*
X263344663Y-199219604D01*
X264740817Y-199799339D01*
X266252551Y-199800658D01*
X267649715Y-199223361D01*
X268719604Y-198155337D01*
X269299339Y-196759183D01*
X269300658Y-195247449D01*
X268723361Y-193850285D01*
X267655337Y-192780396D01*
X266259183Y-192200661D01*
X264747449Y-192199342D01*
X264315071Y-192377997D01*
X266047208Y-188206549D01*
X266047893Y-187421443D01*
X266844663Y-188219604D01*
X268240817Y-188799339D01*
X269752551Y-188800658D01*
X271149715Y-188223361D01*
X272219604Y-187155337D01*
X272799339Y-185759183D01*
X272800658Y-184247449D01*
X272223361Y-182850285D01*
X271155337Y-181780396D01*
X269759183Y-181200661D01*
X268247449Y-181199342D01*
X266850285Y-181776639D01*
X266052124Y-182573409D01*
X266052780Y-181821464D01*
X264804087Y-178799395D01*
X266450590Y-178800832D01*
X268215430Y-178071615D01*
X269566870Y-176722532D01*
X270299165Y-174958968D01*
X270300832Y-173049410D01*
X269883158Y-172038562D01*
X270454468Y-172610870D01*
X272218032Y-173343165D01*
X274127590Y-173344832D01*
X275892430Y-172615615D01*
X277243870Y-171266532D01*
X277976165Y-169502968D01*
X277977832Y-167593410D01*
X277248615Y-165828570D01*
X275899532Y-164477130D01*
X274135968Y-163744835D01*
X272226410Y-163743168D01*
X270461570Y-164472385D01*
X269110130Y-165821468D01*
X268377835Y-167585032D01*
X268376168Y-169494590D01*
X268793842Y-170505438D01*
X268222532Y-169933130D01*
X266458968Y-169200835D01*
X264549410Y-169199168D01*
X262784570Y-169928385D01*
X261433130Y-171277468D01*
X260712408Y-173013160D01*
X259103465Y-171401406D01*
X254067148Y-169310144D01*
X254129870Y-169247532D01*
X254243035Y-168975000D01*
X261195995Y-168975000D01*
X261196000Y-168975001D01*
X262133575Y-168788505D01*
X262928412Y-168257412D01*
X271952794Y-159233029D01*
X272218032Y-159343165D01*
X274127590Y-159344832D01*
X275892430Y-158615615D01*
X277243870Y-157266532D01*
X277976165Y-155502968D01*
X277977832Y-153593410D01*
X277248615Y-151828570D01*
X276588199Y-151167000D01*
X276988176Y-151167000D01*
X285922586Y-160101409D01*
X285922588Y-160101412D01*
X286717426Y-160632505D01*
X287655000Y-160819000D01*
X293618712Y-160819000D01*
X293728385Y-161084430D01*
X295077468Y-162435870D01*
X296841032Y-163168165D01*
X298648391Y-163169743D01*
X298626134Y-163192000D01*
X294475562Y-163192000D01*
X294434361Y-163092285D01*
X293366337Y-162022396D01*
X291970183Y-161442661D01*
X290458449Y-161441342D01*
X289061285Y-162018639D01*
X287991396Y-163086663D01*
X287411661Y-164482817D01*
X287410342Y-165994551D01*
X287987639Y-167391715D01*
X289055663Y-168461604D01*
X289161000Y-168505344D01*
X289161000Y-169231864D01*
X285231971Y-173160893D01*
X285232658Y-172373449D01*
X284655361Y-170976285D01*
X283587337Y-169906396D01*
X282191183Y-169326661D01*
X280679449Y-169325342D01*
X279282285Y-169902639D01*
X278212396Y-170970663D01*
X277632661Y-172366817D01*
X277631342Y-173878551D01*
X278208639Y-175275715D01*
X279276663Y-176345604D01*
X280672817Y-176925339D01*
X281466832Y-176926032D01*
X274432430Y-183960434D01*
X273988046Y-184625502D01*
X273831999Y-185410003D01*
X273831999Y-194790001D01*
X273988046Y-195574502D01*
X274432430Y-196239570D01*
X278778429Y-200585569D01*
X279443497Y-201029953D01*
X280227998Y-201186000D01*
X284644438Y-201186000D01*
X284685639Y-201285715D01*
X285753663Y-202355604D01*
X287149817Y-202935339D01*
X288661551Y-202936658D01*
X290058715Y-202359361D01*
X291128604Y-201291337D01*
X291172344Y-201186000D01*
X295916949Y-201186000D01*
X298311949Y-203581000D01*
X298090549Y-203802400D01*
X297064337Y-202774396D01*
X295668183Y-202194661D01*
X294156449Y-202193342D01*
X292759285Y-202770639D01*
X291689396Y-203838663D01*
X291109661Y-205234817D01*
X291108342Y-206746551D01*
X291685639Y-208143715D01*
X292753663Y-209213604D01*
X294149817Y-209793339D01*
X295661551Y-209794658D01*
X297058715Y-209217361D01*
X298128604Y-208149337D01*
X298172344Y-208044000D01*
X298798087Y-208044000D01*
X299582588Y-207887953D01*
X300247656Y-207443569D01*
X302060225Y-205631000D01*
X303751955Y-205631000D01*
X303477431Y-205814431D01*
X294171862Y-215120000D01*
X290688301Y-215120000D01*
X291055604Y-214753337D01*
X291635339Y-213357183D01*
X291636658Y-211845449D01*
X291059361Y-210448285D01*
X289991337Y-209378396D01*
X288595183Y-208798661D01*
X287083449Y-208797342D01*
X285686285Y-209374639D01*
X284616396Y-210442663D01*
X284036661Y-211838817D01*
X284035342Y-213350551D01*
X284612639Y-214747715D01*
X284984275Y-215120000D01*
X265688301Y-215120000D01*
X266055604Y-214753337D01*
X266635339Y-213357183D01*
X266636658Y-211845449D01*
X266059361Y-210448285D01*
X264991337Y-209378396D01*
X263595183Y-208798661D01*
X262083449Y-208797342D01*
X260686285Y-209374639D01*
X259616396Y-210442663D01*
X259519921Y-210675000D01*
X253327562Y-210675000D01*
X253286361Y-210575285D01*
X252218337Y-209505396D01*
X250822183Y-208925661D01*
X249310449Y-208924342D01*
X247913285Y-209501639D01*
X246843396Y-210569663D01*
X246799656Y-210675000D01*
X242309051Y-210675000D01*
X238380602Y-206746551D01*
X277108342Y-206746551D01*
X277685639Y-208143715D01*
X278753663Y-209213604D01*
X280149817Y-209793339D01*
X281661551Y-209794658D01*
X283058715Y-209217361D01*
X284128604Y-208149337D01*
X284708339Y-206753183D01*
X284709658Y-205241449D01*
X284132361Y-203844285D01*
X283064337Y-202774396D01*
X281668183Y-202194661D01*
X280156449Y-202193342D01*
X278759285Y-202770639D01*
X277689396Y-203838663D01*
X277109661Y-205234817D01*
X277108342Y-206746551D01*
X238380602Y-206746551D01*
X226854600Y-195220549D01*
X227882604Y-194194337D01*
X228462339Y-192798183D01*
X228463658Y-191286449D01*
X227886361Y-189889285D01*
X226818337Y-188819396D01*
X225422183Y-188239661D01*
X223910449Y-188238342D01*
X222513285Y-188815639D01*
X221443396Y-189883663D01*
X220863661Y-191279817D01*
X220862342Y-192791551D01*
X221439639Y-194188715D01*
X222507663Y-195258604D01*
X222613000Y-195302344D01*
X222613000Y-195928087D01*
X222769047Y-196712588D01*
X223213431Y-197377656D01*
X236510775Y-210675000D01*
X219274138Y-210675000D01*
X215466964Y-206867826D01*
X215508339Y-206768183D01*
X215509658Y-205256449D01*
X214932361Y-203859285D01*
X213864337Y-202789396D01*
X212468183Y-202209661D01*
X210956449Y-202208342D01*
X209559285Y-202785639D01*
X208489396Y-203853663D01*
X207909661Y-205249817D01*
X207908342Y-206761551D01*
X208485639Y-208158715D01*
X209553663Y-209228604D01*
X210949817Y-209808339D01*
X212461551Y-209809658D01*
X212566964Y-209766102D01*
X216975431Y-214174569D01*
X217640499Y-214618953D01*
X218425000Y-214775000D01*
X245113862Y-214775000D01*
X244895862Y-214993000D01*
X200112138Y-214993000D01*
X194334569Y-209215431D01*
X193669501Y-208771047D01*
X192885000Y-208615000D01*
X180691738Y-208615000D01*
X180862737Y-208444001D01*
X198384609Y-208444001D01*
X198383342Y-209896551D01*
X198960639Y-211293715D01*
X200028663Y-212363604D01*
X201424817Y-212943339D01*
X202936551Y-212944658D01*
X204333715Y-212367361D01*
X205403604Y-211299337D01*
X205983339Y-209903183D01*
X205984658Y-208391449D01*
X205407361Y-206994285D01*
X204339337Y-205924396D01*
X202943183Y-205344661D01*
X201431449Y-205343342D01*
X201326036Y-205386898D01*
X200883570Y-204944432D01*
X200218502Y-204500048D01*
X199434001Y-204344001D01*
X180013599Y-204344001D01*
X179229098Y-204500048D01*
X178564030Y-204944432D01*
X176601426Y-206907036D01*
X176501783Y-206865661D01*
X174990049Y-206864342D01*
X174884636Y-206907898D01*
X169361169Y-201384431D01*
X168696101Y-200940047D01*
X167911600Y-200784000D01*
X160491327Y-200784000D01*
X162215430Y-200071615D01*
X163566870Y-198722532D01*
X164287592Y-196986840D01*
X165896535Y-198598594D01*
X171793451Y-201047208D01*
X178178536Y-201052780D01*
X181056690Y-199863551D01*
X201558342Y-199863551D01*
X202135639Y-201260715D01*
X203203663Y-202330604D01*
X204599817Y-202910339D01*
X206111551Y-202911658D01*
X207508715Y-202334361D01*
X208578604Y-201266337D01*
X209114985Y-199974590D01*
X213512168Y-199974590D01*
X214241385Y-201739430D01*
X215590468Y-203090870D01*
X217354032Y-203823165D01*
X219263590Y-203824832D01*
X221028430Y-203095615D01*
X222379870Y-201746532D01*
X223112165Y-199982968D01*
X223113832Y-198073410D01*
X222384615Y-196308570D01*
X221035532Y-194957130D01*
X219271968Y-194224835D01*
X217362410Y-194223168D01*
X215597570Y-194952385D01*
X214246130Y-196301468D01*
X213513835Y-198065032D01*
X213512168Y-199974590D01*
X209114985Y-199974590D01*
X209158339Y-199870183D01*
X209159658Y-198358449D01*
X208582361Y-196961285D01*
X207514337Y-195891396D01*
X206118183Y-195311661D01*
X204606449Y-195310342D01*
X203209285Y-195887639D01*
X202139396Y-196955663D01*
X201559661Y-198351817D01*
X201558342Y-199863551D01*
X181056690Y-199863551D01*
X184079717Y-198614462D01*
X186700000Y-195998749D01*
X186699342Y-196752551D01*
X187276639Y-198149715D01*
X188344663Y-199219604D01*
X189740817Y-199799339D01*
X191252551Y-199800658D01*
X192649715Y-199223361D01*
X193719604Y-198155337D01*
X194299339Y-196759183D01*
X194300658Y-195247449D01*
X193723361Y-193850285D01*
X192655337Y-192780396D01*
X191259183Y-192200661D01*
X189747449Y-192199342D01*
X189315071Y-192377997D01*
X189930221Y-190896551D01*
X198383342Y-190896551D01*
X198960639Y-192293715D01*
X200028663Y-193363604D01*
X201424817Y-193943339D01*
X202936551Y-193944658D01*
X204333715Y-193367361D01*
X204940582Y-192761551D01*
X207908342Y-192761551D01*
X208485639Y-194158715D01*
X209553663Y-195228604D01*
X210949817Y-195808339D01*
X212461551Y-195809658D01*
X213858715Y-195232361D01*
X214928604Y-194164337D01*
X215508339Y-192768183D01*
X215509658Y-191256449D01*
X214932361Y-189859285D01*
X213864337Y-188789396D01*
X212468183Y-188209661D01*
X210956449Y-188208342D01*
X209559285Y-188785639D01*
X208489396Y-189853663D01*
X207909661Y-191249817D01*
X207908342Y-192761551D01*
X204940582Y-192761551D01*
X205403604Y-192299337D01*
X205983339Y-190903183D01*
X205984658Y-189391449D01*
X205407361Y-187994285D01*
X204339337Y-186924396D01*
X202943183Y-186344661D01*
X201431449Y-186343342D01*
X200034285Y-186920639D01*
X198964396Y-187988663D01*
X198384661Y-189384817D01*
X198383342Y-190896551D01*
X189930221Y-190896551D01*
X191047208Y-188206549D01*
X191047893Y-187421443D01*
X191844663Y-188219604D01*
X193240817Y-188799339D01*
X194752551Y-188800658D01*
X196149715Y-188223361D01*
X197219604Y-187155337D01*
X197799339Y-185759183D01*
X197800658Y-184247449D01*
X197223361Y-182850285D01*
X196155337Y-181780396D01*
X194759183Y-181200661D01*
X193247449Y-181199342D01*
X191850285Y-181776639D01*
X191052124Y-182573409D01*
X191052780Y-181821464D01*
X190656979Y-180863551D01*
X201558342Y-180863551D01*
X202135639Y-182260715D01*
X203203663Y-183330604D01*
X204599817Y-183910339D01*
X206111551Y-183911658D01*
X207508715Y-183334361D01*
X208578604Y-182266337D01*
X209158339Y-180870183D01*
X209159658Y-179358449D01*
X208582361Y-177961285D01*
X207514337Y-176891396D01*
X206118183Y-176311661D01*
X204606449Y-176310342D01*
X203209285Y-176887639D01*
X202139396Y-177955663D01*
X201559661Y-179351817D01*
X201558342Y-180863551D01*
X190656979Y-180863551D01*
X189804087Y-178799395D01*
X191450590Y-178800832D01*
X193215430Y-178071615D01*
X194566870Y-176722532D01*
X195299165Y-174958968D01*
X195300304Y-173654217D01*
X195826385Y-174927430D01*
X197175468Y-176278870D01*
X198939032Y-177011165D01*
X200848590Y-177012832D01*
X202613430Y-176283615D01*
X203964870Y-174934532D01*
X204697165Y-173170968D01*
X204698832Y-171261410D01*
X203969615Y-169496570D01*
X202620532Y-168145130D01*
X200856968Y-167412835D01*
X198947410Y-167411168D01*
X197182570Y-168140385D01*
X195831130Y-169489468D01*
X195098835Y-171253032D01*
X195097696Y-172557783D01*
X194571615Y-171284570D01*
X193222532Y-169933130D01*
X191458968Y-169200835D01*
X189549410Y-169199168D01*
X187784570Y-169928385D01*
X186433130Y-171277468D01*
X185712408Y-173013160D01*
X184103465Y-171401406D01*
X178206549Y-168952792D01*
X177452397Y-168952134D01*
X178458030Y-168536615D01*
X179809470Y-167187532D01*
X179922635Y-166915000D01*
X193644995Y-166915000D01*
X193645000Y-166915001D01*
X194582575Y-166728505D01*
X195377412Y-166197412D01*
X195812371Y-165762453D01*
X206149333Y-165762453D01*
X206734226Y-167178001D01*
X207816303Y-168261968D01*
X209230828Y-168849330D01*
X210762453Y-168850667D01*
X212178001Y-168265774D01*
X213261968Y-167183697D01*
X213849330Y-165769172D01*
X213850667Y-164237547D01*
X213265774Y-162821999D01*
X212183697Y-161738032D01*
X210769172Y-161150670D01*
X209237547Y-161149333D01*
X207821999Y-161734226D01*
X206738032Y-162816303D01*
X206150670Y-164230828D01*
X206149333Y-165762453D01*
X195812371Y-165762453D01*
X198673795Y-162901029D01*
X198939032Y-163011165D01*
X200848590Y-163012832D01*
X202613430Y-162283615D01*
X203964870Y-160934532D01*
X204697165Y-159170968D01*
X204698832Y-157261410D01*
X204542063Y-156882000D01*
X204972712Y-156882000D01*
X205082385Y-157147430D01*
X206431468Y-158498870D01*
X208195032Y-159231165D01*
X210104590Y-159232832D01*
X211869430Y-158503615D01*
X213220870Y-157154532D01*
X213953165Y-155390968D01*
X213954832Y-153481410D01*
X213225615Y-151716570D01*
X211876532Y-150365130D01*
X210112968Y-149632835D01*
X208203410Y-149631168D01*
X206438570Y-150360385D01*
X205087130Y-151709468D01*
X204973965Y-151982000D01*
X185775605Y-151982000D01*
X185775600Y-151981999D01*
X184838025Y-152168495D01*
X184440607Y-152434041D01*
X184043188Y-152699588D01*
X184043186Y-152699591D01*
X176966805Y-159775971D01*
X176701568Y-159665835D01*
X174792010Y-159664168D01*
X174519281Y-159776857D01*
X172395012Y-157652588D01*
X172186117Y-157513009D01*
X171837615Y-156669570D01*
X170488532Y-155318130D01*
X168724968Y-154585835D01*
X166815410Y-154584168D01*
X165050570Y-155313385D01*
X163699130Y-156662468D01*
X162966835Y-158426032D01*
X162965168Y-160335590D01*
X163659086Y-162015000D01*
X159838767Y-162015000D01*
X158901193Y-162201495D01*
X158106355Y-162732588D01*
X158106353Y-162732591D01*
X152233734Y-168605209D01*
X151702641Y-169400046D01*
X151516145Y-170337621D01*
X151516146Y-170337626D01*
X151516146Y-177433049D01*
X151516145Y-177433054D01*
X151702641Y-178370629D01*
X152233734Y-179165466D01*
X155349999Y-182281731D01*
X155349999Y-184703378D01*
X153739968Y-184034835D01*
X151830410Y-184033168D01*
X150065570Y-184762385D01*
X148714130Y-186111468D01*
X147981835Y-187875032D01*
X147980168Y-189784590D01*
X148709385Y-191549430D01*
X150058468Y-192900870D01*
X151822032Y-193633165D01*
X153731590Y-193634832D01*
X155349999Y-192966119D01*
X155349999Y-193255996D01*
X155349998Y-193256001D01*
X155379810Y-193405876D01*
X154700835Y-195041032D01*
X154699168Y-196950590D01*
X155428385Y-198715430D01*
X156777468Y-200066870D01*
X158504511Y-200784000D01*
X156045562Y-200784000D01*
X156004361Y-200684285D01*
X154936337Y-199614396D01*
X153540183Y-199034661D01*
X152028449Y-199033342D01*
X150631285Y-199610639D01*
X149561396Y-200678663D01*
X148981661Y-202074817D01*
X148980342Y-203586551D01*
X149557639Y-204983715D01*
X150625663Y-206053604D01*
X152021817Y-206633339D01*
X153533551Y-206634658D01*
X154930715Y-206057361D01*
X156000604Y-204989337D01*
X156044344Y-204884000D01*
X167062462Y-204884000D01*
X170793462Y-208615000D01*
X153026894Y-208615000D01*
X152554074Y-208709050D01*
X152158183Y-208544661D01*
X150646449Y-208543342D01*
X150541036Y-208586898D01*
X148735000Y-206780862D01*
X148735000Y-199113562D01*
X148834715Y-199072361D01*
X149904604Y-198004337D01*
X150484339Y-196608183D01*
X150485658Y-195096449D01*
X149908361Y-193699285D01*
X148840337Y-192629396D01*
X147444183Y-192049661D01*
X145932449Y-192048342D01*
X144535285Y-192625639D01*
X143465396Y-193693663D01*
X142885661Y-195089817D01*
X142884342Y-196601551D01*
X143461639Y-197998715D01*
X144529663Y-199068604D01*
X144635000Y-199112344D01*
X144635000Y-207630000D01*
X144791047Y-208414501D01*
X145235431Y-209079569D01*
X147641036Y-211485174D01*
X147599661Y-211584817D01*
X147598342Y-213096551D01*
X147641898Y-213201964D01*
X144983861Y-215860001D01*
X138840473Y-215860001D01*
X139548715Y-215567361D01*
X140618604Y-214499337D01*
X141198339Y-213103183D01*
X141199658Y-211591449D01*
X140622361Y-210194285D01*
X139554337Y-209124396D01*
X138158183Y-208544661D01*
X136646449Y-208543342D01*
X135249285Y-209120639D01*
X134179396Y-210188663D01*
X133599661Y-211584817D01*
X133598342Y-213096551D01*
X134175639Y-214493715D01*
X135243663Y-215563604D01*
X135957465Y-215860001D01*
X118190338Y-215860001D01*
X118535604Y-215515337D01*
X119115339Y-214119183D01*
X119116658Y-212607449D01*
X118539361Y-211210285D01*
X117471337Y-210140396D01*
X116075183Y-209560661D01*
X114563449Y-209559342D01*
X113166285Y-210136639D01*
X112096396Y-211204663D01*
X111516661Y-212600817D01*
X111515342Y-214112551D01*
X112092639Y-215509715D01*
X112442314Y-215860001D01*
X99190338Y-215860001D01*
X99535604Y-215515337D01*
X100115339Y-214119183D01*
X100116658Y-212607449D01*
X99539361Y-211210285D01*
X98471337Y-210140396D01*
X97075183Y-209560661D01*
X95563449Y-209559342D01*
X94166285Y-210136639D01*
X93096396Y-211204663D01*
X92516661Y-212600817D01*
X92515342Y-214112551D01*
X93092639Y-215509715D01*
X93442314Y-215860001D01*
X92503137Y-215860001D01*
X84659107Y-208015971D01*
X85446551Y-208016658D01*
X86843715Y-207439361D01*
X87913604Y-206371337D01*
X88493339Y-204975183D01*
X88493344Y-204968551D01*
X94893342Y-204968551D01*
X95470639Y-206365715D01*
X96538663Y-207435604D01*
X97934817Y-208015339D01*
X99446551Y-208016658D01*
X100843715Y-207439361D01*
X101913604Y-206371337D01*
X102493339Y-204975183D01*
X102494658Y-203463449D01*
X101917361Y-202066285D01*
X100849337Y-200996396D01*
X99453183Y-200416661D01*
X97941449Y-200415342D01*
X96544285Y-200992639D01*
X95474396Y-202060663D01*
X94894661Y-203456817D01*
X94893342Y-204968551D01*
X88493344Y-204968551D01*
X88494658Y-203463449D01*
X87917361Y-202066285D01*
X86849337Y-200996396D01*
X85453183Y-200416661D01*
X83941449Y-200415342D01*
X82544285Y-200992639D01*
X81806000Y-201729637D01*
X81806000Y-200157880D01*
X82480930Y-199482950D01*
X82925314Y-198817882D01*
X83081361Y-198033381D01*
X83081361Y-195612400D01*
X82925314Y-194827899D01*
X82480930Y-194162831D01*
X81815862Y-193718447D01*
X81031361Y-193562400D01*
X80246860Y-193718447D01*
X79581792Y-194162831D01*
X79492435Y-194296564D01*
X79492658Y-194040449D01*
X78915361Y-192643285D01*
X77847337Y-191573396D01*
X76451183Y-190993661D01*
X74939449Y-190992342D01*
X73542285Y-191569639D01*
X72472396Y-192637663D01*
X71892661Y-194033817D01*
X71891342Y-195545551D01*
X72468639Y-196942715D01*
X73536663Y-198012604D01*
X74932817Y-198592339D01*
X76444551Y-198593658D01*
X77841715Y-198016361D01*
X78911604Y-196948337D01*
X78981361Y-196780344D01*
X78981361Y-197184243D01*
X78306431Y-197859173D01*
X77862047Y-198524241D01*
X77706000Y-199308742D01*
X77706000Y-201699708D01*
X76451183Y-201178661D01*
X74939449Y-201177342D01*
X73542285Y-201754639D01*
X72472396Y-202822663D01*
X71892661Y-204218817D01*
X71891342Y-205730551D01*
X72468639Y-207127715D01*
X73536663Y-208197604D01*
X74932817Y-208777339D01*
X76444551Y-208778658D01*
X77841715Y-208201361D01*
X78444493Y-207599633D01*
X89744860Y-218900000D01*
X73455635Y-218900000D01*
X72818526Y-218262891D01*
X74230828Y-218849330D01*
X75762453Y-218850667D01*
X77178001Y-218265774D01*
X78261968Y-217183697D01*
X78849330Y-215769172D01*
X78850667Y-214237547D01*
X78265774Y-212821999D01*
X77183697Y-211738032D01*
X75769172Y-211150670D01*
X74237547Y-211149333D01*
X72821999Y-211734226D01*
X71738032Y-212816303D01*
X71150670Y-214230828D01*
X71149333Y-215762453D01*
X71734226Y-217178001D01*
X72072343Y-217516708D01*
X71100000Y-216544366D01*
X71100000Y-177249002D01*
X71620385Y-178508430D01*
X72969468Y-179859870D01*
X73242000Y-179973035D01*
X73242000Y-182191995D01*
X73241999Y-182192000D01*
X73428495Y-183129575D01*
X73959588Y-183924412D01*
X84810971Y-194775795D01*
X84700835Y-195041032D01*
X84699168Y-196950590D01*
X85428385Y-198715430D01*
X86777468Y-200066870D01*
X88541032Y-200799165D01*
X90450590Y-200800832D01*
X92215430Y-200071615D01*
X93566870Y-198722532D01*
X94287592Y-196986840D01*
X95896535Y-198598594D01*
X101793451Y-201047208D01*
X108178536Y-201052780D01*
X114079717Y-198614462D01*
X116700000Y-195998749D01*
X116699342Y-196752551D01*
X116990992Y-197458398D01*
X111262753Y-203186637D01*
X110217337Y-202139396D01*
X108821183Y-201559661D01*
X107309449Y-201558342D01*
X105912285Y-202135639D01*
X104842396Y-203203663D01*
X104262661Y-204599817D01*
X104261342Y-206111551D01*
X104838639Y-207508715D01*
X105906663Y-208578604D01*
X107302817Y-209158339D01*
X108814551Y-209159658D01*
X110211715Y-208582361D01*
X111281604Y-207514337D01*
X111613514Y-206715011D01*
X111695891Y-206698625D01*
X112166305Y-206384305D01*
X112439059Y-206111551D01*
X118261342Y-206111551D01*
X118838639Y-207508715D01*
X119906663Y-208578604D01*
X121302817Y-209158339D01*
X122814551Y-209159658D01*
X124211715Y-208582361D01*
X125281604Y-207514337D01*
X125861339Y-206118183D01*
X125861885Y-205491551D01*
X127644342Y-205491551D01*
X128221639Y-206888715D01*
X129289663Y-207958604D01*
X130685817Y-208538339D01*
X132197551Y-208539658D01*
X133594715Y-207962361D01*
X134664604Y-206894337D01*
X135244339Y-205498183D01*
X135245658Y-203986449D01*
X134668361Y-202589285D01*
X133600337Y-201519396D01*
X132204183Y-200939661D01*
X130692449Y-200938342D01*
X129295285Y-201515639D01*
X128225396Y-202583663D01*
X127645661Y-203979817D01*
X127644342Y-205491551D01*
X125861885Y-205491551D01*
X125862658Y-204606449D01*
X125285361Y-203209285D01*
X124217337Y-202139396D01*
X122821183Y-201559661D01*
X121309449Y-201558342D01*
X119912285Y-202135639D01*
X118842396Y-203203663D01*
X118262661Y-204599817D01*
X118261342Y-206111551D01*
X112439059Y-206111551D01*
X119041608Y-199509002D01*
X119740817Y-199799339D01*
X121252551Y-199800658D01*
X122649715Y-199223361D01*
X123719604Y-198155337D01*
X124299339Y-196759183D01*
X124300658Y-195247449D01*
X123723361Y-193850285D01*
X122655337Y-192780396D01*
X121259183Y-192200661D01*
X119747449Y-192199342D01*
X119315071Y-192377997D01*
X119683155Y-191491551D01*
X127644342Y-191491551D01*
X128221639Y-192888715D01*
X129289663Y-193958604D01*
X130685817Y-194538339D01*
X132197551Y-194539658D01*
X133594715Y-193962361D01*
X134664604Y-192894337D01*
X135244339Y-191498183D01*
X135245658Y-189986449D01*
X135092820Y-189616551D01*
X136788342Y-189616551D01*
X137365639Y-191013715D01*
X138433663Y-192083604D01*
X139829817Y-192663339D01*
X141341551Y-192664658D01*
X142738715Y-192087361D01*
X143808604Y-191019337D01*
X144388339Y-189623183D01*
X144389658Y-188111449D01*
X143812361Y-186714285D01*
X142744337Y-185644396D01*
X141348183Y-185064661D01*
X139836449Y-185063342D01*
X138439285Y-185640639D01*
X137369396Y-186708663D01*
X136789661Y-188104817D01*
X136788342Y-189616551D01*
X135092820Y-189616551D01*
X134668361Y-188589285D01*
X133600337Y-187519396D01*
X132204183Y-186939661D01*
X130692449Y-186938342D01*
X129295285Y-187515639D01*
X128225396Y-188583663D01*
X127645661Y-189979817D01*
X127644342Y-191491551D01*
X119683155Y-191491551D01*
X121047208Y-188206549D01*
X121047893Y-187421443D01*
X121844663Y-188219604D01*
X123240817Y-188799339D01*
X124752551Y-188800658D01*
X126149715Y-188223361D01*
X127219604Y-187155337D01*
X127799339Y-185759183D01*
X127800658Y-184247449D01*
X127223361Y-182850285D01*
X126965079Y-182591551D01*
X130565342Y-182591551D01*
X131142639Y-183988715D01*
X132210663Y-185058604D01*
X133606817Y-185638339D01*
X135118551Y-185639658D01*
X136515715Y-185062361D01*
X137585604Y-183994337D01*
X138163940Y-182601551D01*
X142884342Y-182601551D01*
X143461639Y-183998715D01*
X144529663Y-185068604D01*
X145925817Y-185648339D01*
X147437551Y-185649658D01*
X148834715Y-185072361D01*
X149904604Y-184004337D01*
X150484339Y-182608183D01*
X150485658Y-181096449D01*
X149908361Y-179699285D01*
X148840337Y-178629396D01*
X147444183Y-178049661D01*
X145932449Y-178048342D01*
X144535285Y-178625639D01*
X143465396Y-179693663D01*
X142885661Y-181089817D01*
X142884342Y-182601551D01*
X138163940Y-182601551D01*
X138165339Y-182598183D01*
X138166658Y-181086449D01*
X137589361Y-179689285D01*
X136521337Y-178619396D01*
X135125183Y-178039661D01*
X133613449Y-178038342D01*
X132216285Y-178615639D01*
X131146396Y-179683663D01*
X130566661Y-181079817D01*
X130565342Y-182591551D01*
X126965079Y-182591551D01*
X126155337Y-181780396D01*
X124759183Y-181200661D01*
X123247449Y-181199342D01*
X121850285Y-181776639D01*
X121052124Y-182573409D01*
X121052780Y-181821464D01*
X119804087Y-178799395D01*
X121450590Y-178800832D01*
X123215430Y-178071615D01*
X124566870Y-176722532D01*
X125026112Y-175616551D01*
X136788342Y-175616551D01*
X137365639Y-177013715D01*
X138433663Y-178083604D01*
X139829817Y-178663339D01*
X141341551Y-178664658D01*
X142738715Y-178087361D01*
X143808604Y-177019337D01*
X144388339Y-175623183D01*
X144389658Y-174111449D01*
X143812361Y-172714285D01*
X142744337Y-171644396D01*
X141348183Y-171064661D01*
X139836449Y-171063342D01*
X138439285Y-171640639D01*
X137369396Y-172708663D01*
X136789661Y-174104817D01*
X136788342Y-175616551D01*
X125026112Y-175616551D01*
X125299165Y-174958968D01*
X125300832Y-173049410D01*
X124571615Y-171284570D01*
X123753270Y-170464795D01*
X124532032Y-170788165D01*
X126441590Y-170789832D01*
X128206430Y-170060615D01*
X129557870Y-168711532D01*
X129603538Y-168601551D01*
X142884342Y-168601551D01*
X143461639Y-169998715D01*
X144529663Y-171068604D01*
X145925817Y-171648339D01*
X147437551Y-171649658D01*
X148834715Y-171072361D01*
X149904604Y-170004337D01*
X150484339Y-168608183D01*
X150485658Y-167096449D01*
X149908361Y-165699285D01*
X148840337Y-164629396D01*
X147444183Y-164049661D01*
X145932449Y-164048342D01*
X144535285Y-164625639D01*
X143465396Y-165693663D01*
X142885661Y-167089817D01*
X142884342Y-168601551D01*
X129603538Y-168601551D01*
X130290165Y-166947968D01*
X130291832Y-165038410D01*
X129694003Y-163591551D01*
X130565342Y-163591551D01*
X131142639Y-164988715D01*
X132210663Y-166058604D01*
X133606817Y-166638339D01*
X135118551Y-166639658D01*
X136515715Y-166062361D01*
X137585604Y-164994337D01*
X138165339Y-163598183D01*
X138166658Y-162086449D01*
X137589361Y-160689285D01*
X136521337Y-159619396D01*
X135125183Y-159039661D01*
X133613449Y-159038342D01*
X132216285Y-159615639D01*
X131146396Y-160683663D01*
X130566661Y-162079817D01*
X130565342Y-163591551D01*
X129694003Y-163591551D01*
X129562615Y-163273570D01*
X128213532Y-161922130D01*
X126449968Y-161189835D01*
X124540410Y-161188168D01*
X122775570Y-161917385D01*
X121424130Y-163266468D01*
X120691835Y-165030032D01*
X120690168Y-166939590D01*
X121419385Y-168704430D01*
X122237730Y-169524205D01*
X121458968Y-169200835D01*
X119549410Y-169199168D01*
X117784570Y-169928385D01*
X116433130Y-171277468D01*
X115712408Y-173013160D01*
X114103465Y-171401406D01*
X112536344Y-170750680D01*
X114206430Y-170060615D01*
X115557870Y-168711532D01*
X116290165Y-166947968D01*
X116291832Y-165038410D01*
X115562615Y-163273570D01*
X114213532Y-161922130D01*
X112449968Y-161189835D01*
X110540410Y-161188168D01*
X109704180Y-161533691D01*
X109431441Y-161479440D01*
X109431436Y-161479441D01*
X102491941Y-161479441D01*
X102812604Y-161159337D01*
X103392339Y-159763183D01*
X103393658Y-158251449D01*
X102816361Y-156854285D01*
X102207176Y-156244036D01*
X114563627Y-156244036D01*
X114526130Y-156281468D01*
X113793835Y-158045032D01*
X113792168Y-159954590D01*
X114521385Y-161719430D01*
X115870468Y-163070870D01*
X117634032Y-163803165D01*
X119543590Y-163804832D01*
X121308430Y-163075615D01*
X122659870Y-161726532D01*
X123392165Y-159962968D01*
X123393832Y-158053410D01*
X122664615Y-156288570D01*
X122620159Y-156244036D01*
X145160212Y-156244036D01*
X147076971Y-158160795D01*
X146966835Y-158426032D01*
X146965168Y-160335590D01*
X147694385Y-162100430D01*
X149043468Y-163451870D01*
X150807032Y-164184165D01*
X152716590Y-164185832D01*
X154481430Y-163456615D01*
X155832870Y-162107532D01*
X156565165Y-160343968D01*
X156566832Y-158434410D01*
X155837615Y-156669570D01*
X154488532Y-155318130D01*
X152724968Y-154585835D01*
X150815410Y-154584168D01*
X150542681Y-154696857D01*
X147907448Y-152061624D01*
X147112611Y-151530531D01*
X146175036Y-151344035D01*
X146175031Y-151344036D01*
X83187969Y-151344036D01*
X83187964Y-151344035D01*
X82250389Y-151530531D01*
X81455552Y-152061624D01*
X77043205Y-156473971D01*
X76777968Y-156363835D01*
X74868410Y-156362168D01*
X73103570Y-157091385D01*
X71752130Y-158440468D01*
X71100000Y-160010973D01*
X71100000Y-147198639D01*
X71747385Y-148765430D01*
X73096468Y-150116870D01*
X74860032Y-150849165D01*
X76769590Y-150850832D01*
X78534430Y-150121615D01*
X79885870Y-148772532D01*
X79999035Y-148500000D01*
X135949995Y-148500000D01*
X135950000Y-148500001D01*
X135950005Y-148500000D01*
X205949995Y-148500000D01*
X205950000Y-148500001D01*
X206887575Y-148313505D01*
X207682412Y-147782412D01*
X212275795Y-143189029D01*
X212541032Y-143299165D01*
X214450590Y-143300832D01*
X215196687Y-142992551D01*
X230768342Y-142992551D01*
X231345639Y-144389715D01*
X232413663Y-145459604D01*
X233809817Y-146039339D01*
X235321551Y-146040658D01*
X236718715Y-145463361D01*
X237788604Y-144395337D01*
X238368339Y-142999183D01*
X238369001Y-142240000D01*
X240476247Y-142240000D01*
X240651324Y-143120172D01*
X241149901Y-143866346D01*
X241896075Y-144364923D01*
X242776247Y-144540000D01*
X244395753Y-144540000D01*
X245275925Y-144364923D01*
X246022099Y-143866346D01*
X246520676Y-143120172D01*
X246695753Y-142240000D01*
X248096247Y-142240000D01*
X248271324Y-143120172D01*
X248769901Y-143866346D01*
X249516075Y-144364923D01*
X250396247Y-144540000D01*
X252015753Y-144540000D01*
X252895925Y-144364923D01*
X253642099Y-143866346D01*
X254140676Y-143120172D01*
X254166061Y-142992551D01*
X256168342Y-142992551D01*
X256745639Y-144389715D01*
X257813663Y-145459604D01*
X259209817Y-146039339D01*
X260721551Y-146040658D01*
X262118715Y-145463361D01*
X263188604Y-144395337D01*
X263768339Y-142999183D01*
X263769658Y-141487449D01*
X263192361Y-140090285D01*
X262124337Y-139020396D01*
X260728183Y-138440661D01*
X259216449Y-138439342D01*
X257819285Y-139016639D01*
X256749396Y-140084663D01*
X256169661Y-141480817D01*
X256168342Y-142992551D01*
X254166061Y-142992551D01*
X254315753Y-142240000D01*
X254140676Y-141359828D01*
X253642099Y-140613654D01*
X252895925Y-140115077D01*
X252015753Y-139940000D01*
X250396247Y-139940000D01*
X249516075Y-140115077D01*
X248769901Y-140613654D01*
X248271324Y-141359828D01*
X248096247Y-142240000D01*
X246695753Y-142240000D01*
X246520676Y-141359828D01*
X246022099Y-140613654D01*
X245275925Y-140115077D01*
X244395753Y-139940000D01*
X242776247Y-139940000D01*
X241896075Y-140115077D01*
X241149901Y-140613654D01*
X240651324Y-141359828D01*
X240476247Y-142240000D01*
X238369001Y-142240000D01*
X238369658Y-141487449D01*
X237792361Y-140090285D01*
X236724337Y-139020396D01*
X235328183Y-138440661D01*
X233816449Y-138439342D01*
X232419285Y-139016639D01*
X231349396Y-140084663D01*
X230769661Y-141480817D01*
X230768342Y-142992551D01*
X215196687Y-142992551D01*
X216215430Y-142571615D01*
X217566870Y-141222532D01*
X218299165Y-139458968D01*
X218300832Y-137549410D01*
X218139932Y-137160000D01*
X240476247Y-137160000D01*
X240651324Y-138040172D01*
X241149901Y-138786346D01*
X241896075Y-139284923D01*
X242776247Y-139460000D01*
X244395753Y-139460000D01*
X245275925Y-139284923D01*
X246022099Y-138786346D01*
X246520676Y-138040172D01*
X246695753Y-137160000D01*
X248096247Y-137160000D01*
X248271324Y-138040172D01*
X248769901Y-138786346D01*
X249516075Y-139284923D01*
X250396247Y-139460000D01*
X252015753Y-139460000D01*
X252895925Y-139284923D01*
X253642099Y-138786346D01*
X254140676Y-138040172D01*
X254315753Y-137160000D01*
X254140676Y-136279828D01*
X253642099Y-135533654D01*
X252895925Y-135035077D01*
X252015753Y-134860000D01*
X250396247Y-134860000D01*
X249516075Y-135035077D01*
X248769901Y-135533654D01*
X248271324Y-136279828D01*
X248096247Y-137160000D01*
X246695753Y-137160000D01*
X246520676Y-136279828D01*
X246022099Y-135533654D01*
X245275925Y-135035077D01*
X244395753Y-134860000D01*
X242776247Y-134860000D01*
X241896075Y-135035077D01*
X241149901Y-135533654D01*
X240651324Y-136279828D01*
X240476247Y-137160000D01*
X218139932Y-137160000D01*
X217571615Y-135784570D01*
X216222532Y-134433130D01*
X214458968Y-133700835D01*
X213766032Y-133700230D01*
X214438810Y-132080000D01*
X240476247Y-132080000D01*
X240651324Y-132960172D01*
X241149901Y-133706346D01*
X241896075Y-134204923D01*
X242776247Y-134380000D01*
X244395753Y-134380000D01*
X245275925Y-134204923D01*
X246022099Y-133706346D01*
X246520676Y-132960172D01*
X246695753Y-132080000D01*
X248096247Y-132080000D01*
X248271324Y-132960172D01*
X248769901Y-133706346D01*
X249516075Y-134204923D01*
X250396247Y-134380000D01*
X252015753Y-134380000D01*
X252895925Y-134204923D01*
X253642099Y-133706346D01*
X254140676Y-132960172D01*
X254315753Y-132080000D01*
X254140676Y-131199828D01*
X253642099Y-130453654D01*
X252895925Y-129955077D01*
X252015753Y-129780000D01*
X250396247Y-129780000D01*
X249516075Y-129955077D01*
X248769901Y-130453654D01*
X248271324Y-131199828D01*
X248096247Y-132080000D01*
X246695753Y-132080000D01*
X246520676Y-131199828D01*
X246022099Y-130453654D01*
X245275925Y-129955077D01*
X244395753Y-129780000D01*
X242776247Y-129780000D01*
X241896075Y-129955077D01*
X241149901Y-130453654D01*
X240651324Y-131199828D01*
X240476247Y-132080000D01*
X214438810Y-132080000D01*
X216047208Y-128206549D01*
X216052780Y-121821464D01*
X215145035Y-119624551D01*
X227593342Y-119624551D01*
X228170639Y-121021715D01*
X229238663Y-122091604D01*
X230634817Y-122671339D01*
X232146551Y-122672658D01*
X233543715Y-122095361D01*
X234613604Y-121027337D01*
X234906486Y-120322000D01*
X241627829Y-120322000D01*
X241818607Y-120618477D01*
X242136000Y-120835343D01*
X242136000Y-122287353D01*
X241896075Y-122335077D01*
X241149901Y-122833654D01*
X240651324Y-123579828D01*
X240476247Y-124460000D01*
X240651324Y-125340172D01*
X241149901Y-126086346D01*
X241896075Y-126584923D01*
X242776247Y-126760000D01*
X244395753Y-126760000D01*
X245275925Y-126584923D01*
X246022099Y-126086346D01*
X246520676Y-125340172D01*
X246695753Y-124460000D01*
X246520676Y-123579828D01*
X246022099Y-122833654D01*
X245275925Y-122335077D01*
X245036000Y-122287353D01*
X245036000Y-120830171D01*
X245332477Y-120639393D01*
X245572224Y-120288512D01*
X245656570Y-119872000D01*
X245656570Y-117872000D01*
X245583355Y-117482893D01*
X245353393Y-117125523D01*
X245002512Y-116885776D01*
X244586000Y-116801430D01*
X242586000Y-116801430D01*
X242196893Y-116874645D01*
X241839523Y-117104607D01*
X241622657Y-117422000D01*
X234906478Y-117422000D01*
X234617361Y-116722285D01*
X233549337Y-115652396D01*
X232153183Y-115072661D01*
X230641449Y-115071342D01*
X229244285Y-115648639D01*
X228174396Y-116716663D01*
X227594661Y-118112817D01*
X227593342Y-119624551D01*
X215145035Y-119624551D01*
X213614462Y-115920283D01*
X209103465Y-111401406D01*
X205050702Y-109718551D01*
X227593342Y-109718551D01*
X228170639Y-111115715D01*
X229238663Y-112185604D01*
X230634817Y-112765339D01*
X232146551Y-112766658D01*
X233543715Y-112189361D01*
X234613604Y-111121337D01*
X234906486Y-110416000D01*
X240699390Y-110416000D01*
X249155999Y-118872609D01*
X249155645Y-119277981D01*
X249467081Y-120031715D01*
X249756000Y-120321138D01*
X249756000Y-122287353D01*
X249516075Y-122335077D01*
X248769901Y-122833654D01*
X248271324Y-123579828D01*
X248096247Y-124460000D01*
X248271324Y-125340172D01*
X248769901Y-126086346D01*
X249516075Y-126584923D01*
X250396247Y-126760000D01*
X252015753Y-126760000D01*
X252895925Y-126584923D01*
X253642099Y-126086346D01*
X254140676Y-125340172D01*
X254315753Y-124460000D01*
X254222772Y-123992551D01*
X256168342Y-123992551D01*
X256745639Y-125389715D01*
X257813663Y-126459604D01*
X259209817Y-127039339D01*
X260721551Y-127040658D01*
X262118715Y-126463361D01*
X263188604Y-125395337D01*
X263768339Y-123999183D01*
X263769658Y-122487449D01*
X263192361Y-121090285D01*
X262124337Y-120020396D01*
X260728183Y-119440661D01*
X259216449Y-119439342D01*
X257819285Y-120016639D01*
X256749396Y-121084663D01*
X256169661Y-122480817D01*
X256168342Y-123992551D01*
X254222772Y-123992551D01*
X254140676Y-123579828D01*
X253642099Y-122833654D01*
X252895925Y-122335077D01*
X252656000Y-122287353D01*
X252656000Y-120321140D01*
X252942892Y-120034748D01*
X253255643Y-119281559D01*
X253256355Y-118466019D01*
X252944919Y-117712285D01*
X252368748Y-117135108D01*
X251615559Y-116822357D01*
X251206610Y-116822000D01*
X242325305Y-107940695D01*
X241854891Y-107626375D01*
X241300000Y-107516000D01*
X234906478Y-107516000D01*
X234617361Y-106816285D01*
X233549337Y-105746396D01*
X232153183Y-105166661D01*
X230641449Y-105165342D01*
X229244285Y-105742639D01*
X228174396Y-106810663D01*
X227594661Y-108206817D01*
X227593342Y-109718551D01*
X205050702Y-109718551D01*
X203206549Y-108952792D01*
X202421443Y-108952107D01*
X203219604Y-108155337D01*
X203799339Y-106759183D01*
X203800658Y-105247449D01*
X203223361Y-103850285D01*
X202155337Y-102780396D01*
X200759183Y-102200661D01*
X199247449Y-102199342D01*
X197850285Y-102776639D01*
X196780396Y-103844663D01*
X196736656Y-103950000D01*
X133264562Y-103950000D01*
X133223361Y-103850285D01*
X132155337Y-102780396D01*
X130759183Y-102200661D01*
X129247449Y-102199342D01*
X129142036Y-102242898D01*
X128699570Y-101800432D01*
X128034502Y-101356048D01*
X127250001Y-101200001D01*
X93795450Y-101200001D01*
X93010949Y-101356048D01*
X92345881Y-101800432D01*
X84533223Y-109613090D01*
X84088839Y-110278158D01*
X83932792Y-111062659D01*
X84088839Y-111847160D01*
X84533223Y-112512228D01*
X85198291Y-112956612D01*
X85982792Y-113112659D01*
X86767293Y-112956612D01*
X87432361Y-112512228D01*
X89337038Y-110607551D01*
X92846342Y-110607551D01*
X93423639Y-112004715D01*
X94491663Y-113074604D01*
X95887817Y-113654339D01*
X97399551Y-113655658D01*
X98796715Y-113078361D01*
X99866604Y-112010337D01*
X100446339Y-110614183D01*
X100447658Y-109102449D01*
X99870361Y-107705285D01*
X98802337Y-106635396D01*
X97406183Y-106055661D01*
X95894449Y-106054342D01*
X94497285Y-106631639D01*
X93427396Y-107699663D01*
X92847661Y-109095817D01*
X92846342Y-110607551D01*
X89337038Y-110607551D01*
X94644588Y-105300001D01*
X126200609Y-105300001D01*
X126199342Y-106752551D01*
X126776639Y-108149715D01*
X127573409Y-108947876D01*
X126821464Y-108947220D01*
X120920283Y-111385538D01*
X116401406Y-115896535D01*
X113952792Y-121793451D01*
X113947220Y-128178536D01*
X116385538Y-134079717D01*
X117005178Y-134700439D01*
X115747449Y-134699342D01*
X114350285Y-135276639D01*
X113280396Y-136344663D01*
X112700661Y-137740817D01*
X112699342Y-139252551D01*
X113276639Y-140649715D01*
X114344663Y-141719604D01*
X115164426Y-142060000D01*
X107500877Y-142060000D01*
X108448715Y-141668361D01*
X109518604Y-140600337D01*
X110098339Y-139204183D01*
X110099658Y-137692449D01*
X109522361Y-136295285D01*
X108454337Y-135225396D01*
X107058183Y-134645661D01*
X105546449Y-134644342D01*
X104149285Y-135221639D01*
X103079396Y-136289663D01*
X102499661Y-137685817D01*
X102498342Y-139197551D01*
X103075639Y-140594715D01*
X104143663Y-141664604D01*
X105095880Y-142060000D01*
X98059433Y-142060000D01*
X98796715Y-141755361D01*
X99866604Y-140687337D01*
X100446339Y-139291183D01*
X100447658Y-137779449D01*
X99870361Y-136382285D01*
X98802337Y-135312396D01*
X97406183Y-134732661D01*
X95894449Y-134731342D01*
X94497285Y-135308639D01*
X93427396Y-136376663D01*
X92847661Y-137772817D01*
X92846342Y-139284551D01*
X93423639Y-140681715D01*
X94491663Y-141751604D01*
X95234361Y-142060000D01*
X92425469Y-142060000D01*
X84239000Y-133873531D01*
X84239000Y-125895000D01*
X102786522Y-125895000D01*
X103075639Y-126594715D01*
X104143663Y-127664604D01*
X105539817Y-128244339D01*
X107051551Y-128245658D01*
X108448715Y-127668361D01*
X109518604Y-126600337D01*
X110098339Y-125204183D01*
X110099658Y-123692449D01*
X109522361Y-122295285D01*
X108454337Y-121225396D01*
X107058183Y-120645661D01*
X105546449Y-120644342D01*
X104149285Y-121221639D01*
X103079396Y-122289663D01*
X102786514Y-122995000D01*
X98216745Y-122995000D01*
X98796715Y-122755361D01*
X99866604Y-121687337D01*
X100446339Y-120291183D01*
X100447658Y-118779449D01*
X99870361Y-117382285D01*
X98802337Y-116312396D01*
X97406183Y-115732661D01*
X95894449Y-115731342D01*
X94497285Y-116308639D01*
X93427396Y-117376663D01*
X92847661Y-118772817D01*
X92846342Y-120284551D01*
X93423639Y-121681715D01*
X94491663Y-122751604D01*
X95077824Y-122995000D01*
X83389610Y-122995000D01*
X79328002Y-118933392D01*
X79618339Y-118234183D01*
X79619658Y-116722449D01*
X79042361Y-115325285D01*
X77974337Y-114255396D01*
X76578183Y-113675661D01*
X75066449Y-113674342D01*
X73669285Y-114251639D01*
X72599396Y-115319663D01*
X72019661Y-116715817D01*
X72018342Y-118227551D01*
X72595639Y-119624715D01*
X73663663Y-120694604D01*
X75059817Y-121274339D01*
X76571551Y-121275658D01*
X77277398Y-120984008D01*
X81339000Y-125045610D01*
X81339000Y-134474141D01*
X81449375Y-135029032D01*
X81763695Y-135499446D01*
X89864249Y-143600000D01*
X80000288Y-143600000D01*
X79890615Y-143334570D01*
X78541532Y-141983130D01*
X76777968Y-141250835D01*
X74868410Y-141249168D01*
X73103570Y-141978385D01*
X71752130Y-143327468D01*
X71100000Y-144897973D01*
X71100000Y-103455634D01*
X71737109Y-102818525D01*
X71150670Y-104230828D01*
X71149333Y-105762453D01*
X71734226Y-107178001D01*
X72816303Y-108261968D01*
X74230828Y-108849330D01*
X75762453Y-108850667D01*
X77178001Y-108265774D01*
X78261968Y-107183697D01*
X78849330Y-105769172D01*
X78850667Y-104237547D01*
X78265774Y-102821999D01*
X77183697Y-101738032D01*
X75769172Y-101150670D01*
X74237547Y-101149333D01*
X72821999Y-101734226D01*
X72483370Y-102072264D01*
X73455635Y-101100000D01*
X271544366Y-101100000D01*
X272181475Y-101737109D01*
M02*
