M48
; DRILL file {KiCad 9.0.0+dfsg-1} date 2025-03-09T18:31:28+0100
; FORMAT={-:-/ absolute / metric / decimal}
; #@! TF.CreationDate,2025-03-09T18:31:28+01:00
; #@! TF.GenerationSoftware,Kicad,Pcbnew,9.0.0+dfsg-1
; #@! TF.FileFunction,Plated,1,2,PTH
FMAT,2
METRIC
; #@! TA.AperFunction,Plated,PTH,ViaDrill
T1C0.600
; #@! TA.AperFunction,Plated,PTH,ComponentDrill
T2C0.800
; #@! TA.AperFunction,Plated,PTH,ComponentDrill
T3C1.100
; #@! TA.AperFunction,Plated,PTH,ComponentDrill
T4C2.000
; #@! TA.AperFunction,Plated,PTH,ComponentDrill
T5C2.800
; #@! TA.AperFunction,Plated,PTH,ComponentDrill
T6C3.200
%
G90
G05
T1
X255.75Y-111.75
T2
X184.75Y-86.687
X184.75Y-94.307
X184.75Y-99.387
X184.75Y-104.467
X192.37Y-86.687
X192.37Y-94.307
X192.37Y-99.387
X192.37Y-104.467
X225.262Y-86.672
X225.262Y-94.292
X225.262Y-99.373
X225.262Y-104.453
X232.882Y-86.672
X232.882Y-94.292
X232.882Y-99.373
X232.882Y-104.453
T3
X184.75Y-82.75
X192.37Y-82.75
X225.262Y-82.634
X232.882Y-82.634
T4
X44.61Y-123.469
X54.61Y-123.469
T5
X30.709Y-151.43
X30.709Y-179.43
X31.0Y-81.102
X31.75Y-107.25
X31.75Y-123.25
X40.759Y-141.404
X40.759Y-173.404
X47.668Y-149.678
X47.668Y-163.678
X48.412Y-179.43
X48.711Y-80.351
X48.711Y-94.351
X54.602Y-142.951
X54.602Y-156.951
X56.331Y-71.554
X56.331Y-103.554
X57.465Y-167.411
X57.668Y-176.835
X61.0Y-150.0
X64.5Y-161.0
X66.5Y-103.5
X71.324Y-119.075
X71.465Y-167.411
X71.668Y-176.835
X72.654Y-128.321
X80.0Y-71.0
X81.621Y-176.2
X86.654Y-128.321
X87.324Y-119.075
X88.504Y-167.183
X93.5Y-103.5
X95.5Y-139.0
X95.5Y-161.0
X95.621Y-176.2
X99.0Y-150.0
X102.504Y-167.183
X107.104Y-130.043
X107.104Y-158.043
X111.047Y-80.274
X111.047Y-94.274
X117.653Y-129.62
X117.653Y-158.62
X117.653Y-158.633
X117.653Y-172.633
X118.769Y-71.528
X118.769Y-103.528
X128.135Y-153.96
X128.135Y-167.96
X128.25Y-103.5
X134.5Y-139.0
X134.5Y-161.0
X141.75Y-71.0
X142.947Y-121.437
X150.0Y-127.5
X150.0Y-173.7
X155.25Y-103.5
X156.947Y-121.437
X165.5Y-139.0
X165.5Y-161.0
X169.0Y-150.0
X169.987Y-115.341
X175.5Y-87.0
X175.5Y-101.5
X176.25Y-156.75
X176.25Y-181.75
X176.708Y-131.938
X176.708Y-145.938
X183.337Y-74.117
X183.987Y-115.341
X186.435Y-129.769
X186.882Y-142.802
X186.882Y-171.802
X189.966Y-181.153
X193.435Y-136.053
X193.435Y-150.053
X194.818Y-74.346
X199.658Y-143.038
X199.658Y-157.033
X199.658Y-157.038
X199.658Y-171.033
X200.435Y-129.769
X206.0Y-150.0
X208.966Y-181.153
X209.5Y-139.0
X209.5Y-161.0
X210.736Y-120.015
X218.51Y-181.102
X218.963Y-99.373
X225.0Y-127.5
X225.0Y-173.7
X239.736Y-120.015
X240.5Y-139.0
X240.5Y-161.0
X243.51Y-181.102
X244.0Y-150.0
X246.318Y-113.117
X246.318Y-127.117
X252.824Y-142.675
X252.824Y-171.675
X258.09Y-179.883
X261.587Y-139.011
X261.587Y-164.011
X266.304Y-111.963
X268.14Y-131.963
X268.14Y-145.963
X274.09Y-179.883
X274.5Y-139.0
X274.5Y-161.0
X280.304Y-111.963
X283.867Y-181.026
X290.0Y-127.5
X290.0Y-173.7
X297.665Y-121.717
X305.5Y-139.0
X305.5Y-161.0
X308.867Y-181.026
X311.665Y-121.717
X313.759Y-131.116
X313.759Y-147.116
X314.071Y-156.591
T6
X320.0Y-180.5
M30
