G04 #@! TF.FileFunction,Legend,Top*
%FSLAX46Y46*%
G04 Gerber Fmt 4.6, Leading zero omitted, Abs format (unit mm)*
G04 Created by KiCad (PCBNEW 4.0.7-e2-6376~58~ubuntu17.04.1) date Wed Oct 25 13:58:48 2017*
%MOMM*%
%LPD*%
G01*
G04 APERTURE LIST*
%ADD10C,0.100000*%
%ADD11C,0.250000*%
%ADD12C,0.200000*%
%ADD13C,0.400000*%
%ADD14C,0.304800*%
%ADD15C,0.203200*%
%ADD16C,0.152400*%
%ADD17C,0.254000*%
%ADD18C,0.088900*%
%ADD19C,0.120000*%
G04 APERTURE END LIST*
D10*
D11*
X223848896Y-189123581D02*
X223372705Y-189123581D01*
X223372705Y-188123581D01*
X224182229Y-189123581D02*
X224182229Y-188123581D01*
X224420324Y-188123581D01*
X224563182Y-188171200D01*
X224658420Y-188266438D01*
X224706039Y-188361676D01*
X224753658Y-188552152D01*
X224753658Y-188695010D01*
X224706039Y-188885486D01*
X224658420Y-188980724D01*
X224563182Y-189075962D01*
X224420324Y-189123581D01*
X224182229Y-189123581D01*
X226467944Y-188171200D02*
X226372706Y-188123581D01*
X226229849Y-188123581D01*
X226086991Y-188171200D01*
X225991753Y-188266438D01*
X225944134Y-188361676D01*
X225896515Y-188552152D01*
X225896515Y-188695010D01*
X225944134Y-188885486D01*
X225991753Y-188980724D01*
X226086991Y-189075962D01*
X226229849Y-189123581D01*
X226325087Y-189123581D01*
X226467944Y-189075962D01*
X226515563Y-189028343D01*
X226515563Y-188695010D01*
X226325087Y-188695010D01*
X226896515Y-188837867D02*
X227372706Y-188837867D01*
X226801277Y-189123581D02*
X227134610Y-188123581D01*
X227467944Y-189123581D01*
X227801277Y-189123581D02*
X227801277Y-188123581D01*
X228277467Y-189123581D02*
X228277467Y-188123581D01*
X228848896Y-189123581D01*
X228848896Y-188123581D01*
X167527552Y-109240581D02*
X167527552Y-108240581D01*
X167765647Y-108240581D01*
X167908505Y-108288200D01*
X168003743Y-108383438D01*
X168051362Y-108478676D01*
X168098981Y-108669152D01*
X168098981Y-108812010D01*
X168051362Y-109002486D01*
X168003743Y-109097724D01*
X167908505Y-109192962D01*
X167765647Y-109240581D01*
X167527552Y-109240581D01*
X168527552Y-108716771D02*
X168860886Y-108716771D01*
X169003743Y-109240581D02*
X168527552Y-109240581D01*
X168527552Y-108240581D01*
X169003743Y-108240581D01*
X169432314Y-109240581D02*
X169432314Y-108240581D01*
X169813267Y-108240581D01*
X169908505Y-108288200D01*
X169956124Y-108335819D01*
X170003743Y-108431057D01*
X170003743Y-108573914D01*
X169956124Y-108669152D01*
X169908505Y-108716771D01*
X169813267Y-108764390D01*
X169432314Y-108764390D01*
X170289457Y-108240581D02*
X170860886Y-108240581D01*
X170575171Y-109240581D02*
X170575171Y-108240581D01*
X171194219Y-109240581D02*
X171194219Y-108240581D01*
X171194219Y-108716771D02*
X171765648Y-108716771D01*
X171765648Y-109240581D02*
X171765648Y-108240581D01*
D12*
X146347571Y-189361199D02*
X145633286Y-189861199D01*
X146347571Y-190218342D02*
X144847571Y-190218342D01*
X144847571Y-189646914D01*
X144919000Y-189504056D01*
X144990429Y-189432628D01*
X145133286Y-189361199D01*
X145347571Y-189361199D01*
X145490429Y-189432628D01*
X145561857Y-189504056D01*
X145633286Y-189646914D01*
X145633286Y-190218342D01*
X144990429Y-188789771D02*
X144919000Y-188718342D01*
X144847571Y-188575485D01*
X144847571Y-188218342D01*
X144919000Y-188075485D01*
X144990429Y-188004056D01*
X145133286Y-187932628D01*
X145276143Y-187932628D01*
X145490429Y-188004056D01*
X146347571Y-188861199D01*
X146347571Y-187932628D01*
X144847571Y-187432628D02*
X144847571Y-186504057D01*
X145419000Y-187004057D01*
X145419000Y-186789771D01*
X145490429Y-186646914D01*
X145561857Y-186575485D01*
X145704714Y-186504057D01*
X146061857Y-186504057D01*
X146204714Y-186575485D01*
X146276143Y-186646914D01*
X146347571Y-186789771D01*
X146347571Y-187218343D01*
X146276143Y-187361200D01*
X146204714Y-187432628D01*
X146347571Y-182789772D02*
X146347571Y-183646915D01*
X146347571Y-183218343D02*
X144847571Y-183218343D01*
X145061857Y-183361200D01*
X145204714Y-183504058D01*
X145276143Y-183646915D01*
X146204714Y-182146915D02*
X146276143Y-182075487D01*
X146347571Y-182146915D01*
X146276143Y-182218344D01*
X146204714Y-182146915D01*
X146347571Y-182146915D01*
X145490429Y-181218343D02*
X145419000Y-181361201D01*
X145347571Y-181432629D01*
X145204714Y-181504058D01*
X145133286Y-181504058D01*
X144990429Y-181432629D01*
X144919000Y-181361201D01*
X144847571Y-181218343D01*
X144847571Y-180932629D01*
X144919000Y-180789772D01*
X144990429Y-180718343D01*
X145133286Y-180646915D01*
X145204714Y-180646915D01*
X145347571Y-180718343D01*
X145419000Y-180789772D01*
X145490429Y-180932629D01*
X145490429Y-181218343D01*
X145561857Y-181361201D01*
X145633286Y-181432629D01*
X145776143Y-181504058D01*
X146061857Y-181504058D01*
X146204714Y-181432629D01*
X146276143Y-181361201D01*
X146347571Y-181218343D01*
X146347571Y-180932629D01*
X146276143Y-180789772D01*
X146204714Y-180718343D01*
X146061857Y-180646915D01*
X145776143Y-180646915D01*
X145633286Y-180718343D01*
X145561857Y-180789772D01*
X145490429Y-180932629D01*
X146347571Y-180004058D02*
X144847571Y-180004058D01*
X145776143Y-179861201D02*
X146347571Y-179432630D01*
X145347571Y-179432630D02*
X145919000Y-180004058D01*
X205783571Y-195865070D02*
X205069286Y-196365070D01*
X205783571Y-196722213D02*
X204283571Y-196722213D01*
X204283571Y-196150785D01*
X204355000Y-196007927D01*
X204426429Y-195936499D01*
X204569286Y-195865070D01*
X204783571Y-195865070D01*
X204926429Y-195936499D01*
X204997857Y-196007927D01*
X205069286Y-196150785D01*
X205069286Y-196722213D01*
X204426429Y-195293642D02*
X204355000Y-195222213D01*
X204283571Y-195079356D01*
X204283571Y-194722213D01*
X204355000Y-194579356D01*
X204426429Y-194507927D01*
X204569286Y-194436499D01*
X204712143Y-194436499D01*
X204926429Y-194507927D01*
X205783571Y-195365070D01*
X205783571Y-194436499D01*
X204283571Y-193507928D02*
X204283571Y-193365071D01*
X204355000Y-193222214D01*
X204426429Y-193150785D01*
X204569286Y-193079356D01*
X204855000Y-193007928D01*
X205212143Y-193007928D01*
X205497857Y-193079356D01*
X205640714Y-193150785D01*
X205712143Y-193222214D01*
X205783571Y-193365071D01*
X205783571Y-193507928D01*
X205712143Y-193650785D01*
X205640714Y-193722214D01*
X205497857Y-193793642D01*
X205212143Y-193865071D01*
X204855000Y-193865071D01*
X204569286Y-193793642D01*
X204426429Y-193722214D01*
X204355000Y-193650785D01*
X204283571Y-193507928D01*
X204283571Y-189079357D02*
X204283571Y-188150786D01*
X204855000Y-188650786D01*
X204855000Y-188436500D01*
X204926429Y-188293643D01*
X204997857Y-188222214D01*
X205140714Y-188150786D01*
X205497857Y-188150786D01*
X205640714Y-188222214D01*
X205712143Y-188293643D01*
X205783571Y-188436500D01*
X205783571Y-188865072D01*
X205712143Y-189007929D01*
X205640714Y-189079357D01*
X204283571Y-187650786D02*
X204283571Y-186722215D01*
X204855000Y-187222215D01*
X204855000Y-187007929D01*
X204926429Y-186865072D01*
X204997857Y-186793643D01*
X205140714Y-186722215D01*
X205497857Y-186722215D01*
X205640714Y-186793643D01*
X205712143Y-186865072D01*
X205783571Y-187007929D01*
X205783571Y-187436501D01*
X205712143Y-187579358D01*
X205640714Y-187650786D01*
X204283571Y-185793644D02*
X204283571Y-185650787D01*
X204355000Y-185507930D01*
X204426429Y-185436501D01*
X204569286Y-185365072D01*
X204855000Y-185293644D01*
X205212143Y-185293644D01*
X205497857Y-185365072D01*
X205640714Y-185436501D01*
X205712143Y-185507930D01*
X205783571Y-185650787D01*
X205783571Y-185793644D01*
X205712143Y-185936501D01*
X205640714Y-186007930D01*
X205497857Y-186079358D01*
X205212143Y-186150787D01*
X204855000Y-186150787D01*
X204569286Y-186079358D01*
X204426429Y-186007930D01*
X204355000Y-185936501D01*
X204283571Y-185793644D01*
X205783571Y-184650787D02*
X204283571Y-184650787D01*
X205212143Y-184507930D02*
X205783571Y-184079359D01*
X204783571Y-184079359D02*
X205355000Y-184650787D01*
X217467571Y-190173927D02*
X216753286Y-190673927D01*
X217467571Y-191031070D02*
X215967571Y-191031070D01*
X215967571Y-190459642D01*
X216039000Y-190316784D01*
X216110429Y-190245356D01*
X216253286Y-190173927D01*
X216467571Y-190173927D01*
X216610429Y-190245356D01*
X216681857Y-190316784D01*
X216753286Y-190459642D01*
X216753286Y-191031070D01*
X217467571Y-188745356D02*
X217467571Y-189602499D01*
X217467571Y-189173927D02*
X215967571Y-189173927D01*
X216181857Y-189316784D01*
X216324714Y-189459642D01*
X216396143Y-189602499D01*
X216110429Y-188173928D02*
X216039000Y-188102499D01*
X215967571Y-187959642D01*
X215967571Y-187602499D01*
X216039000Y-187459642D01*
X216110429Y-187388213D01*
X216253286Y-187316785D01*
X216396143Y-187316785D01*
X216610429Y-187388213D01*
X217467571Y-188245356D01*
X217467571Y-187316785D01*
X217467571Y-182459643D02*
X217467571Y-183316786D01*
X217467571Y-182888214D02*
X215967571Y-182888214D01*
X216181857Y-183031071D01*
X216324714Y-183173929D01*
X216396143Y-183316786D01*
X217324714Y-181816786D02*
X217396143Y-181745358D01*
X217467571Y-181816786D01*
X217396143Y-181888215D01*
X217324714Y-181816786D01*
X217467571Y-181816786D01*
X216610429Y-180888214D02*
X216539000Y-181031072D01*
X216467571Y-181102500D01*
X216324714Y-181173929D01*
X216253286Y-181173929D01*
X216110429Y-181102500D01*
X216039000Y-181031072D01*
X215967571Y-180888214D01*
X215967571Y-180602500D01*
X216039000Y-180459643D01*
X216110429Y-180388214D01*
X216253286Y-180316786D01*
X216324714Y-180316786D01*
X216467571Y-180388214D01*
X216539000Y-180459643D01*
X216610429Y-180602500D01*
X216610429Y-180888214D01*
X216681857Y-181031072D01*
X216753286Y-181102500D01*
X216896143Y-181173929D01*
X217181857Y-181173929D01*
X217324714Y-181102500D01*
X217396143Y-181031072D01*
X217467571Y-180888214D01*
X217467571Y-180602500D01*
X217396143Y-180459643D01*
X217324714Y-180388214D01*
X217181857Y-180316786D01*
X216896143Y-180316786D01*
X216753286Y-180388214D01*
X216681857Y-180459643D01*
X216610429Y-180602500D01*
X217467571Y-179673929D02*
X215967571Y-179673929D01*
X216896143Y-179531072D02*
X217467571Y-179102501D01*
X216467571Y-179102501D02*
X217039000Y-179673929D01*
X346626571Y-208192213D02*
X345912286Y-208692213D01*
X346626571Y-209049356D02*
X345126571Y-209049356D01*
X345126571Y-208477928D01*
X345198000Y-208335070D01*
X345269429Y-208263642D01*
X345412286Y-208192213D01*
X345626571Y-208192213D01*
X345769429Y-208263642D01*
X345840857Y-208335070D01*
X345912286Y-208477928D01*
X345912286Y-209049356D01*
X346626571Y-206763642D02*
X346626571Y-207620785D01*
X346626571Y-207192213D02*
X345126571Y-207192213D01*
X345340857Y-207335070D01*
X345483714Y-207477928D01*
X345555143Y-207620785D01*
X346626571Y-203049357D02*
X346626571Y-203906500D01*
X346626571Y-203477928D02*
X345126571Y-203477928D01*
X345340857Y-203620785D01*
X345483714Y-203763643D01*
X345555143Y-203906500D01*
X346483714Y-202406500D02*
X346555143Y-202335072D01*
X346626571Y-202406500D01*
X346555143Y-202477929D01*
X346483714Y-202406500D01*
X346626571Y-202406500D01*
X345126571Y-200977928D02*
X345126571Y-201692214D01*
X345840857Y-201763643D01*
X345769429Y-201692214D01*
X345698000Y-201549357D01*
X345698000Y-201192214D01*
X345769429Y-201049357D01*
X345840857Y-200977928D01*
X345983714Y-200906500D01*
X346340857Y-200906500D01*
X346483714Y-200977928D01*
X346555143Y-201049357D01*
X346626571Y-201192214D01*
X346626571Y-201549357D01*
X346555143Y-201692214D01*
X346483714Y-201763643D01*
X346626571Y-200263643D02*
X345126571Y-200263643D01*
X346055143Y-200120786D02*
X346626571Y-199692215D01*
X345626571Y-199692215D02*
X346198000Y-200263643D01*
X282174071Y-179466284D02*
X281459786Y-179966284D01*
X282174071Y-180323427D02*
X280674071Y-180323427D01*
X280674071Y-179751999D01*
X280745500Y-179609141D01*
X280816929Y-179537713D01*
X280959786Y-179466284D01*
X281174071Y-179466284D01*
X281316929Y-179537713D01*
X281388357Y-179609141D01*
X281459786Y-179751999D01*
X281459786Y-180323427D01*
X282174071Y-178751999D02*
X282174071Y-178466284D01*
X282102643Y-178323427D01*
X282031214Y-178251999D01*
X281816929Y-178109141D01*
X281531214Y-178037713D01*
X280959786Y-178037713D01*
X280816929Y-178109141D01*
X280745500Y-178180570D01*
X280674071Y-178323427D01*
X280674071Y-178609141D01*
X280745500Y-178751999D01*
X280816929Y-178823427D01*
X280959786Y-178894856D01*
X281316929Y-178894856D01*
X281459786Y-178823427D01*
X281531214Y-178751999D01*
X281602643Y-178609141D01*
X281602643Y-178323427D01*
X281531214Y-178180570D01*
X281459786Y-178109141D01*
X281316929Y-178037713D01*
X281174071Y-173323428D02*
X282174071Y-173323428D01*
X280602643Y-173680571D02*
X281674071Y-174037714D01*
X281674071Y-173109142D01*
X280674071Y-172680571D02*
X280674071Y-171680571D01*
X282174071Y-172323428D01*
X280674071Y-170823429D02*
X280674071Y-170680572D01*
X280745500Y-170537715D01*
X280816929Y-170466286D01*
X280959786Y-170394857D01*
X281245500Y-170323429D01*
X281602643Y-170323429D01*
X281888357Y-170394857D01*
X282031214Y-170466286D01*
X282102643Y-170537715D01*
X282174071Y-170680572D01*
X282174071Y-170823429D01*
X282102643Y-170966286D01*
X282031214Y-171037715D01*
X281888357Y-171109143D01*
X281602643Y-171180572D01*
X281245500Y-171180572D01*
X280959786Y-171109143D01*
X280816929Y-171037715D01*
X280745500Y-170966286D01*
X280674071Y-170823429D01*
X282174071Y-169680572D02*
X280674071Y-169680572D01*
X281602643Y-169537715D02*
X282174071Y-169109144D01*
X281174071Y-169109144D02*
X281745500Y-169680572D01*
X270617071Y-201715070D02*
X269902786Y-202215070D01*
X270617071Y-202572213D02*
X269117071Y-202572213D01*
X269117071Y-202000785D01*
X269188500Y-201857927D01*
X269259929Y-201786499D01*
X269402786Y-201715070D01*
X269617071Y-201715070D01*
X269759929Y-201786499D01*
X269831357Y-201857927D01*
X269902786Y-202000785D01*
X269902786Y-202572213D01*
X269117071Y-200357927D02*
X269117071Y-201072213D01*
X269831357Y-201143642D01*
X269759929Y-201072213D01*
X269688500Y-200929356D01*
X269688500Y-200572213D01*
X269759929Y-200429356D01*
X269831357Y-200357927D01*
X269974214Y-200286499D01*
X270331357Y-200286499D01*
X270474214Y-200357927D01*
X270545643Y-200429356D01*
X270617071Y-200572213D01*
X270617071Y-200929356D01*
X270545643Y-201072213D01*
X270474214Y-201143642D01*
X270617071Y-194286500D02*
X270617071Y-195143643D01*
X270617071Y-194715071D02*
X269117071Y-194715071D01*
X269331357Y-194857928D01*
X269474214Y-195000786D01*
X269545643Y-195143643D01*
X270474214Y-193643643D02*
X270545643Y-193572215D01*
X270617071Y-193643643D01*
X270545643Y-193715072D01*
X270474214Y-193643643D01*
X270617071Y-193643643D01*
X269759929Y-192715071D02*
X269688500Y-192857929D01*
X269617071Y-192929357D01*
X269474214Y-193000786D01*
X269402786Y-193000786D01*
X269259929Y-192929357D01*
X269188500Y-192857929D01*
X269117071Y-192715071D01*
X269117071Y-192429357D01*
X269188500Y-192286500D01*
X269259929Y-192215071D01*
X269402786Y-192143643D01*
X269474214Y-192143643D01*
X269617071Y-192215071D01*
X269688500Y-192286500D01*
X269759929Y-192429357D01*
X269759929Y-192715071D01*
X269831357Y-192857929D01*
X269902786Y-192929357D01*
X270045643Y-193000786D01*
X270331357Y-193000786D01*
X270474214Y-192929357D01*
X270545643Y-192857929D01*
X270617071Y-192715071D01*
X270617071Y-192429357D01*
X270545643Y-192286500D01*
X270474214Y-192215071D01*
X270331357Y-192143643D01*
X270045643Y-192143643D01*
X269902786Y-192215071D01*
X269831357Y-192286500D01*
X269759929Y-192429357D01*
X270617071Y-191500786D02*
X269117071Y-191500786D01*
X270045643Y-191357929D02*
X270617071Y-190929358D01*
X269617071Y-190929358D02*
X270188500Y-191500786D01*
D13*
X95694800Y-111741629D02*
X96528133Y-111741629D01*
X96885276Y-113051152D02*
X95694800Y-113051152D01*
X95694800Y-110551152D01*
X96885276Y-110551152D01*
X97718610Y-111384486D02*
X98313848Y-113051152D01*
X98909086Y-111384486D01*
X99861467Y-113051152D02*
X99861467Y-111384486D01*
X99861467Y-110551152D02*
X99742419Y-110670200D01*
X99861467Y-110789248D01*
X99980515Y-110670200D01*
X99861467Y-110551152D01*
X99861467Y-110789248D01*
X101409086Y-113051152D02*
X101170991Y-112932105D01*
X101051943Y-112694010D01*
X101051943Y-110551152D01*
X104266229Y-111741629D02*
X105099562Y-111741629D01*
X105456705Y-113051152D02*
X104266229Y-113051152D01*
X104266229Y-110551152D01*
X105456705Y-110551152D01*
X107599563Y-113051152D02*
X107599563Y-110551152D01*
X107599563Y-112932105D02*
X107361467Y-113051152D01*
X106885277Y-113051152D01*
X106647182Y-112932105D01*
X106528134Y-112813057D01*
X106409086Y-112574962D01*
X106409086Y-111860676D01*
X106528134Y-111622581D01*
X106647182Y-111503533D01*
X106885277Y-111384486D01*
X107361467Y-111384486D01*
X107599563Y-111503533D01*
X109861468Y-113051152D02*
X109861468Y-110551152D01*
X109861468Y-112932105D02*
X109623372Y-113051152D01*
X109147182Y-113051152D01*
X108909087Y-112932105D01*
X108790039Y-112813057D01*
X108670991Y-112574962D01*
X108670991Y-111860676D01*
X108790039Y-111622581D01*
X108909087Y-111503533D01*
X109147182Y-111384486D01*
X109623372Y-111384486D01*
X109861468Y-111503533D01*
X111051944Y-113051152D02*
X111051944Y-111384486D01*
X111051944Y-110551152D02*
X110932896Y-110670200D01*
X111051944Y-110789248D01*
X111170992Y-110670200D01*
X111051944Y-110551152D01*
X111051944Y-110789248D01*
X113194801Y-112932105D02*
X112956706Y-113051152D01*
X112480515Y-113051152D01*
X112242420Y-112932105D01*
X112123372Y-112694010D01*
X112123372Y-111741629D01*
X112242420Y-111503533D01*
X112480515Y-111384486D01*
X112956706Y-111384486D01*
X113194801Y-111503533D01*
X113313849Y-111741629D01*
X113313849Y-111979724D01*
X112123372Y-112217819D01*
X86111467Y-116486867D02*
X87301944Y-116486867D01*
X85873372Y-117201152D02*
X86706706Y-114701152D01*
X87540039Y-117201152D01*
X88373372Y-116248771D02*
X90278134Y-116248771D01*
X91230515Y-115534486D02*
X91706705Y-117201152D01*
X92182896Y-116010676D01*
X92659086Y-117201152D01*
X93135277Y-115534486D01*
X95159087Y-117201152D02*
X95159087Y-115891629D01*
X95040039Y-115653533D01*
X94801944Y-115534486D01*
X94325753Y-115534486D01*
X94087658Y-115653533D01*
X95159087Y-117082105D02*
X94920991Y-117201152D01*
X94325753Y-117201152D01*
X94087658Y-117082105D01*
X93968610Y-116844010D01*
X93968610Y-116605914D01*
X94087658Y-116367819D01*
X94325753Y-116248771D01*
X94920991Y-116248771D01*
X95159087Y-116129724D01*
X96349563Y-117201152D02*
X96349563Y-115534486D01*
X96349563Y-114701152D02*
X96230515Y-114820200D01*
X96349563Y-114939248D01*
X96468611Y-114820200D01*
X96349563Y-114701152D01*
X96349563Y-114939248D01*
X99325753Y-116486867D02*
X100516230Y-116486867D01*
X99087658Y-117201152D02*
X99920992Y-114701152D01*
X100754325Y-117201152D01*
X101587658Y-117201152D02*
X101587658Y-115534486D01*
X101587658Y-115772581D02*
X101706706Y-115653533D01*
X101944801Y-115534486D01*
X102301944Y-115534486D01*
X102540039Y-115653533D01*
X102659087Y-115891629D01*
X102659087Y-117201152D01*
X102659087Y-115891629D02*
X102778134Y-115653533D01*
X103016230Y-115534486D01*
X103373372Y-115534486D01*
X103611468Y-115653533D01*
X103730515Y-115891629D01*
X103730515Y-117201152D01*
X104920991Y-115534486D02*
X104920991Y-118034486D01*
X104920991Y-115653533D02*
X105159086Y-115534486D01*
X105635277Y-115534486D01*
X105873372Y-115653533D01*
X105992420Y-115772581D01*
X106111467Y-116010676D01*
X106111467Y-116724962D01*
X105992420Y-116963057D01*
X105873372Y-117082105D01*
X105635277Y-117201152D01*
X105159086Y-117201152D01*
X104920991Y-117082105D01*
X107540039Y-117201152D02*
X107301944Y-117082105D01*
X107182896Y-116844010D01*
X107182896Y-114701152D01*
X108492420Y-117201152D02*
X108492420Y-115534486D01*
X108492420Y-114701152D02*
X108373372Y-114820200D01*
X108492420Y-114939248D01*
X108611468Y-114820200D01*
X108492420Y-114701152D01*
X108492420Y-114939248D01*
X109325753Y-115534486D02*
X110278134Y-115534486D01*
X109682896Y-117201152D02*
X109682896Y-115058295D01*
X109801944Y-114820200D01*
X110040039Y-114701152D01*
X110278134Y-114701152D01*
X111111467Y-117201152D02*
X111111467Y-115534486D01*
X111111467Y-114701152D02*
X110992419Y-114820200D01*
X111111467Y-114939248D01*
X111230515Y-114820200D01*
X111111467Y-114701152D01*
X111111467Y-114939248D01*
X113373372Y-117082105D02*
X113135276Y-117201152D01*
X112659086Y-117201152D01*
X112420991Y-117082105D01*
X112301943Y-116963057D01*
X112182895Y-116724962D01*
X112182895Y-116010676D01*
X112301943Y-115772581D01*
X112420991Y-115653533D01*
X112659086Y-115534486D01*
X113135276Y-115534486D01*
X113373372Y-115653533D01*
X115516229Y-117201152D02*
X115516229Y-115891629D01*
X115397181Y-115653533D01*
X115159086Y-115534486D01*
X114682895Y-115534486D01*
X114444800Y-115653533D01*
X115516229Y-117082105D02*
X115278133Y-117201152D01*
X114682895Y-117201152D01*
X114444800Y-117082105D01*
X114325752Y-116844010D01*
X114325752Y-116605914D01*
X114444800Y-116367819D01*
X114682895Y-116248771D01*
X115278133Y-116248771D01*
X115516229Y-116129724D01*
X116349562Y-115534486D02*
X117301943Y-115534486D01*
X116706705Y-114701152D02*
X116706705Y-116844010D01*
X116825753Y-117082105D01*
X117063848Y-117201152D01*
X117301943Y-117201152D01*
X118135276Y-117201152D02*
X118135276Y-115534486D01*
X118135276Y-114701152D02*
X118016228Y-114820200D01*
X118135276Y-114939248D01*
X118254324Y-114820200D01*
X118135276Y-114701152D01*
X118135276Y-114939248D01*
X119682895Y-117201152D02*
X119444800Y-117082105D01*
X119325752Y-116963057D01*
X119206704Y-116724962D01*
X119206704Y-116010676D01*
X119325752Y-115772581D01*
X119444800Y-115653533D01*
X119682895Y-115534486D01*
X120040038Y-115534486D01*
X120278133Y-115653533D01*
X120397181Y-115772581D01*
X120516228Y-116010676D01*
X120516228Y-116724962D01*
X120397181Y-116963057D01*
X120278133Y-117082105D01*
X120040038Y-117201152D01*
X119682895Y-117201152D01*
X121587657Y-115534486D02*
X121587657Y-117201152D01*
X121587657Y-115772581D02*
X121706705Y-115653533D01*
X121944800Y-115534486D01*
X122301943Y-115534486D01*
X122540038Y-115653533D01*
X122659086Y-115891629D01*
X122659086Y-117201152D01*
D11*
X161212495Y-103779581D02*
X161212495Y-102779581D01*
X161593448Y-102779581D01*
X161688686Y-102827200D01*
X161736305Y-102874819D01*
X161783924Y-102970057D01*
X161783924Y-103112914D01*
X161736305Y-103208152D01*
X161688686Y-103255771D01*
X161593448Y-103303390D01*
X161212495Y-103303390D01*
X162783924Y-103779581D02*
X162450590Y-103303390D01*
X162212495Y-103779581D02*
X162212495Y-102779581D01*
X162593448Y-102779581D01*
X162688686Y-102827200D01*
X162736305Y-102874819D01*
X162783924Y-102970057D01*
X162783924Y-103112914D01*
X162736305Y-103208152D01*
X162688686Y-103255771D01*
X162593448Y-103303390D01*
X162212495Y-103303390D01*
X163164876Y-103731962D02*
X163307733Y-103779581D01*
X163545829Y-103779581D01*
X163641067Y-103731962D01*
X163688686Y-103684343D01*
X163736305Y-103589105D01*
X163736305Y-103493867D01*
X163688686Y-103398629D01*
X163641067Y-103351010D01*
X163545829Y-103303390D01*
X163355352Y-103255771D01*
X163260114Y-103208152D01*
X163212495Y-103160533D01*
X163164876Y-103065295D01*
X163164876Y-102970057D01*
X163212495Y-102874819D01*
X163260114Y-102827200D01*
X163355352Y-102779581D01*
X163593448Y-102779581D01*
X163736305Y-102827200D01*
X164164876Y-103779581D02*
X164164876Y-102779581D01*
X164736305Y-103779581D01*
X164736305Y-102779581D01*
X165783924Y-103684343D02*
X165736305Y-103731962D01*
X165593448Y-103779581D01*
X165498210Y-103779581D01*
X165355352Y-103731962D01*
X165260114Y-103636724D01*
X165212495Y-103541486D01*
X165164876Y-103351010D01*
X165164876Y-103208152D01*
X165212495Y-103017676D01*
X165260114Y-102922438D01*
X165355352Y-102827200D01*
X165498210Y-102779581D01*
X165593448Y-102779581D01*
X165736305Y-102827200D01*
X165783924Y-102874819D01*
X298632857Y-189333143D02*
X298585238Y-189380762D01*
X298442381Y-189428381D01*
X298347143Y-189428381D01*
X298204285Y-189380762D01*
X298109047Y-189285524D01*
X298061428Y-189190286D01*
X298013809Y-188999810D01*
X298013809Y-188856952D01*
X298061428Y-188666476D01*
X298109047Y-188571238D01*
X298204285Y-188476000D01*
X298347143Y-188428381D01*
X298442381Y-188428381D01*
X298585238Y-188476000D01*
X298632857Y-188523619D01*
X299537619Y-189428381D02*
X299061428Y-189428381D01*
X299061428Y-188428381D01*
X299870952Y-189428381D02*
X299870952Y-188428381D01*
X300442381Y-189428381D01*
X300442381Y-188428381D01*
X301537619Y-188428381D02*
X301870952Y-189428381D01*
X302204286Y-188428381D01*
X302728095Y-188428381D02*
X302918572Y-188428381D01*
X303013810Y-188476000D01*
X303109048Y-188571238D01*
X303156667Y-188761714D01*
X303156667Y-189095048D01*
X303109048Y-189285524D01*
X303013810Y-189380762D01*
X302918572Y-189428381D01*
X302728095Y-189428381D01*
X302632857Y-189380762D01*
X302537619Y-189285524D01*
X302490000Y-189095048D01*
X302490000Y-188761714D01*
X302537619Y-188571238D01*
X302632857Y-188476000D01*
X302728095Y-188428381D01*
X304061429Y-189428381D02*
X303585238Y-189428381D01*
X303585238Y-188428381D01*
X272623352Y-148067781D02*
X273194781Y-148067781D01*
X272909066Y-149067781D02*
X272909066Y-148067781D01*
X273718590Y-148067781D02*
X273909067Y-148067781D01*
X274004305Y-148115400D01*
X274099543Y-148210638D01*
X274147162Y-148401114D01*
X274147162Y-148734448D01*
X274099543Y-148924924D01*
X274004305Y-149020162D01*
X273909067Y-149067781D01*
X273718590Y-149067781D01*
X273623352Y-149020162D01*
X273528114Y-148924924D01*
X273480495Y-148734448D01*
X273480495Y-148401114D01*
X273528114Y-148210638D01*
X273623352Y-148115400D01*
X273718590Y-148067781D01*
X275337638Y-149067781D02*
X275337638Y-148067781D01*
X275670972Y-148782067D01*
X276004305Y-148067781D01*
X276004305Y-149067781D01*
X276432876Y-149020162D02*
X276575733Y-149067781D01*
X276813829Y-149067781D01*
X276909067Y-149020162D01*
X276956686Y-148972543D01*
X277004305Y-148877305D01*
X277004305Y-148782067D01*
X276956686Y-148686829D01*
X276909067Y-148639210D01*
X276813829Y-148591590D01*
X276623352Y-148543971D01*
X276528114Y-148496352D01*
X276480495Y-148448733D01*
X276432876Y-148353495D01*
X276432876Y-148258257D01*
X276480495Y-148163019D01*
X276528114Y-148115400D01*
X276623352Y-148067781D01*
X276861448Y-148067781D01*
X277004305Y-148115400D01*
X277290019Y-148067781D02*
X277861448Y-148067781D01*
X277575733Y-149067781D02*
X277575733Y-148067781D01*
X278766210Y-149067781D02*
X278432876Y-148591590D01*
X278194781Y-149067781D02*
X278194781Y-148067781D01*
X278575734Y-148067781D01*
X278670972Y-148115400D01*
X278718591Y-148163019D01*
X278766210Y-148258257D01*
X278766210Y-148401114D01*
X278718591Y-148496352D01*
X278670972Y-148543971D01*
X278575734Y-148591590D01*
X278194781Y-148591590D01*
X167813077Y-102338143D02*
X167765458Y-102385762D01*
X167622601Y-102433381D01*
X167527363Y-102433381D01*
X167384505Y-102385762D01*
X167289267Y-102290524D01*
X167241648Y-102195286D01*
X167194029Y-102004810D01*
X167194029Y-101861952D01*
X167241648Y-101671476D01*
X167289267Y-101576238D01*
X167384505Y-101481000D01*
X167527363Y-101433381D01*
X167622601Y-101433381D01*
X167765458Y-101481000D01*
X167813077Y-101528619D01*
X168241648Y-102052429D02*
X169003553Y-102052429D01*
X168622601Y-102433381D02*
X168622601Y-101671476D01*
X276185833Y-187793381D02*
X276757262Y-187793381D01*
X276471547Y-188793381D02*
X276471547Y-187793381D01*
X277281071Y-187793381D02*
X277471548Y-187793381D01*
X277566786Y-187841000D01*
X277662024Y-187936238D01*
X277709643Y-188126714D01*
X277709643Y-188460048D01*
X277662024Y-188650524D01*
X277566786Y-188745762D01*
X277471548Y-188793381D01*
X277281071Y-188793381D01*
X277185833Y-188745762D01*
X277090595Y-188650524D01*
X277042976Y-188460048D01*
X277042976Y-188126714D01*
X277090595Y-187936238D01*
X277185833Y-187841000D01*
X277281071Y-187793381D01*
X279376310Y-188793381D02*
X278900119Y-188793381D01*
X278900119Y-187793381D01*
X279709643Y-188793381D02*
X279709643Y-187793381D01*
X279947738Y-187793381D01*
X280090596Y-187841000D01*
X280185834Y-187936238D01*
X280233453Y-188031476D01*
X280281072Y-188221952D01*
X280281072Y-188364810D01*
X280233453Y-188555286D01*
X280185834Y-188650524D01*
X280090596Y-188745762D01*
X279947738Y-188793381D01*
X279709643Y-188793381D01*
X281995358Y-187841000D02*
X281900120Y-187793381D01*
X281757263Y-187793381D01*
X281614405Y-187841000D01*
X281519167Y-187936238D01*
X281471548Y-188031476D01*
X281423929Y-188221952D01*
X281423929Y-188364810D01*
X281471548Y-188555286D01*
X281519167Y-188650524D01*
X281614405Y-188745762D01*
X281757263Y-188793381D01*
X281852501Y-188793381D01*
X281995358Y-188745762D01*
X282042977Y-188698143D01*
X282042977Y-188364810D01*
X281852501Y-188364810D01*
X282423929Y-188507667D02*
X282900120Y-188507667D01*
X282328691Y-188793381D02*
X282662024Y-187793381D01*
X282995358Y-188793381D01*
X283328691Y-188793381D02*
X283328691Y-187793381D01*
X283804881Y-188793381D02*
X283804881Y-187793381D01*
X284376310Y-188793381D01*
X284376310Y-187793381D01*
D14*
X163398200Y-131876800D02*
X163398200Y-128876800D01*
X158998200Y-128876800D02*
X158998200Y-109876800D01*
X158998200Y-109876800D02*
X167798200Y-109876800D01*
X167798200Y-109876800D02*
X167798200Y-128876800D01*
X167798200Y-128876800D02*
X158998200Y-128876800D01*
X163398200Y-109876800D02*
X163398200Y-106876800D01*
X250875800Y-117373400D02*
X250875800Y-119809400D01*
X250875800Y-119809400D02*
X252025800Y-119809400D01*
X252025800Y-119873400D02*
X252025800Y-128873400D01*
X252025800Y-128937400D02*
X249725800Y-128937400D01*
X249725800Y-128873400D02*
X249725800Y-119873400D01*
X249725800Y-119809400D02*
X250875800Y-119809400D01*
X250875800Y-131373400D02*
X250875800Y-128937400D01*
X233147000Y-212534500D02*
X232647000Y-212534500D01*
X232647000Y-215534500D02*
X214647000Y-215534500D01*
X214647000Y-215534500D02*
X214647000Y-209534500D01*
X214647000Y-209534500D02*
X232647000Y-209534500D01*
X232647000Y-209534500D02*
X232647000Y-215534500D01*
X214647000Y-212534500D02*
X214147000Y-212534500D01*
X304800000Y-209423000D02*
X304300000Y-209423000D01*
X304300000Y-213423000D02*
X286300000Y-213423000D01*
X286300000Y-213423000D02*
X286300000Y-205423000D01*
X286300000Y-205423000D02*
X304300000Y-205423000D01*
X304300000Y-205423000D02*
X304300000Y-213423000D01*
X286300000Y-209423000D02*
X285800000Y-209423000D01*
X199034400Y-154888800D02*
X199034400Y-155388800D01*
X202034400Y-155388800D02*
X202034400Y-173388800D01*
X202034400Y-173388800D02*
X196034400Y-173388800D01*
X196034400Y-173388800D02*
X196034400Y-155388800D01*
X196034400Y-155388800D02*
X202034400Y-155388800D01*
X199034400Y-173388800D02*
X199034400Y-173888800D01*
X173687200Y-148183600D02*
X176123200Y-148183600D01*
X176187200Y-145983600D02*
X187187200Y-145983600D01*
X187187200Y-145983600D02*
X187187200Y-150383600D01*
X187187200Y-150383600D02*
X176187200Y-150383600D01*
X176187200Y-150383600D02*
X176187200Y-145983600D01*
X189687200Y-148183600D02*
X187251200Y-148183600D01*
X112090200Y-131165600D02*
X109654200Y-131165600D01*
X109654200Y-131165600D02*
X109654200Y-132315600D01*
X109590200Y-132315600D02*
X100590200Y-132315600D01*
X100526200Y-132315600D02*
X100526200Y-130015600D01*
X100590200Y-130015600D02*
X109590200Y-130015600D01*
X109654200Y-130015600D02*
X109654200Y-131165600D01*
X98090200Y-131165600D02*
X100526200Y-131165600D01*
X253150500Y-169306500D02*
X253150500Y-172876500D01*
X253150500Y-172876500D02*
X252134500Y-172876500D01*
X252134500Y-172876500D02*
X252134500Y-173638500D01*
X252134500Y-173638500D02*
X253150500Y-173638500D01*
X253150500Y-173638500D02*
X253150500Y-200506500D01*
X236942500Y-200506500D02*
X236942500Y-173638500D01*
X236942500Y-173638500D02*
X237958500Y-173638500D01*
X237958500Y-173638500D02*
X237958500Y-172876500D01*
X237958500Y-172876500D02*
X236942500Y-172876500D01*
X236942500Y-172876500D02*
X236942500Y-169306500D01*
X236946500Y-169306500D02*
X253146500Y-169306500D01*
X253146500Y-200506500D02*
X236946500Y-200506500D01*
X236946500Y-199306500D02*
X253146500Y-199306500D01*
X245046500Y-169306500D02*
X245046500Y-166306500D01*
X245046500Y-200506500D02*
X245046500Y-203506500D01*
X245046500Y-198022500D02*
X245046500Y-196244500D01*
X245046500Y-170574500D02*
X245046500Y-172098500D01*
X245808500Y-171336500D02*
X244284500Y-171336500D01*
X184110000Y-164775200D02*
X184110000Y-168345200D01*
X184110000Y-168345200D02*
X183094000Y-168345200D01*
X183094000Y-168345200D02*
X183094000Y-169107200D01*
X183094000Y-169107200D02*
X184110000Y-169107200D01*
X184110000Y-169107200D02*
X184110000Y-204975200D01*
X165902000Y-204975200D02*
X165902000Y-169107200D01*
X165902000Y-169107200D02*
X166918000Y-169107200D01*
X166918000Y-169107200D02*
X166918000Y-168345200D01*
X166918000Y-168345200D02*
X165902000Y-168345200D01*
X165902000Y-168345200D02*
X165902000Y-164775200D01*
X165906000Y-164775200D02*
X184106000Y-164775200D01*
X184106000Y-204975200D02*
X165906000Y-204975200D01*
X165906000Y-203775200D02*
X184106000Y-203775200D01*
X175006000Y-164775200D02*
X175006000Y-161775200D01*
X175006000Y-204975200D02*
X175006000Y-207975200D01*
X175006000Y-202491200D02*
X175006000Y-200713200D01*
X175006000Y-166043200D02*
X175006000Y-167567200D01*
X175768000Y-166805200D02*
X174244000Y-166805200D01*
X113307500Y-167380500D02*
X113307500Y-170950500D01*
X113307500Y-170950500D02*
X112291500Y-170950500D01*
X112291500Y-170950500D02*
X112291500Y-171712500D01*
X112291500Y-171712500D02*
X113307500Y-171712500D01*
X113307500Y-171712500D02*
X113307500Y-207580500D01*
X95099500Y-207580500D02*
X95099500Y-171712500D01*
X95099500Y-171712500D02*
X96115500Y-171712500D01*
X96115500Y-171712500D02*
X96115500Y-170950500D01*
X96115500Y-170950500D02*
X95099500Y-170950500D01*
X95099500Y-170950500D02*
X95099500Y-167380500D01*
X95103500Y-167380500D02*
X113303500Y-167380500D01*
X113303500Y-207580500D02*
X95103500Y-207580500D01*
X95103500Y-206380500D02*
X113303500Y-206380500D01*
X104203500Y-167380500D02*
X104203500Y-164380500D01*
X104203500Y-207580500D02*
X104203500Y-210580500D01*
X104203500Y-205096500D02*
X104203500Y-203318500D01*
X104203500Y-168648500D02*
X104203500Y-170172500D01*
X104965500Y-169410500D02*
X103441500Y-169410500D01*
X260159500Y-112331500D02*
X261421500Y-112331500D01*
X261421500Y-112331500D02*
X261421500Y-113681500D01*
X261421500Y-113681500D02*
X266517500Y-113681500D01*
X266517500Y-113681500D02*
X266517500Y-112331500D01*
X266517500Y-112331500D02*
X267779500Y-112331500D01*
X266517500Y-112331500D02*
X266517500Y-110981500D01*
X266517500Y-110981500D02*
X261421500Y-110981500D01*
X261421500Y-110981500D02*
X261421500Y-112331500D01*
X262429500Y-113681500D02*
X262429500Y-110981500D01*
X262683500Y-110981500D02*
X262683500Y-113681500D01*
D15*
X268787880Y-137937240D02*
X268787880Y-115681760D01*
X259191760Y-115681760D02*
X259191760Y-137937240D01*
X268747240Y-137937240D02*
X259191760Y-137937240D01*
X259191760Y-115681760D02*
X268747240Y-115681760D01*
D14*
X206599000Y-163169600D02*
X209035000Y-163169600D01*
X209035000Y-163169600D02*
X209035000Y-162019600D01*
X209099000Y-162019600D02*
X218099000Y-162019600D01*
X218163000Y-162019600D02*
X218163000Y-164319600D01*
X218099000Y-164319600D02*
X209099000Y-164319600D01*
X209035000Y-164319600D02*
X209035000Y-163169600D01*
X220599000Y-163169600D02*
X218163000Y-163169600D01*
X131821400Y-155448000D02*
X134257400Y-155448000D01*
X134257400Y-155448000D02*
X134257400Y-154298000D01*
X134321400Y-154298000D02*
X143321400Y-154298000D01*
X143385400Y-154298000D02*
X143385400Y-156598000D01*
X143321400Y-156598000D02*
X134321400Y-156598000D01*
X134257400Y-156598000D02*
X134257400Y-155448000D01*
X145821400Y-155448000D02*
X143385400Y-155448000D01*
X253286500Y-165100000D02*
X255722500Y-165100000D01*
X255722500Y-165100000D02*
X255722500Y-163950000D01*
X255786500Y-163950000D02*
X264786500Y-163950000D01*
X264850500Y-163950000D02*
X264850500Y-166250000D01*
X264786500Y-166250000D02*
X255786500Y-166250000D01*
X255722500Y-166250000D02*
X255722500Y-165100000D01*
X267286500Y-165100000D02*
X264850500Y-165100000D01*
X232816400Y-117968000D02*
X232816400Y-120404000D01*
X232816400Y-120404000D02*
X233966400Y-120404000D01*
X233966400Y-120468000D02*
X233966400Y-129468000D01*
X233966400Y-129532000D02*
X231666400Y-129532000D01*
X231666400Y-129468000D02*
X231666400Y-120468000D01*
X231666400Y-120404000D02*
X232816400Y-120404000D01*
X232816400Y-131968000D02*
X232816400Y-129532000D01*
X239826800Y-122139400D02*
X239826800Y-124575400D01*
X239826800Y-124575400D02*
X240976800Y-124575400D01*
X240976800Y-124639400D02*
X240976800Y-133639400D01*
X240976800Y-133703400D02*
X238676800Y-133703400D01*
X238676800Y-133639400D02*
X238676800Y-124639400D01*
X238676800Y-124575400D02*
X239826800Y-124575400D01*
X239826800Y-136139400D02*
X239826800Y-133703400D01*
X221805500Y-177990500D02*
X221805500Y-180426500D01*
X221805500Y-180426500D02*
X222955500Y-180426500D01*
X222955500Y-180490500D02*
X222955500Y-189490500D01*
X222955500Y-189554500D02*
X220655500Y-189554500D01*
X220655500Y-189490500D02*
X220655500Y-180490500D01*
X220655500Y-180426500D02*
X221805500Y-180426500D01*
X221805500Y-191990500D02*
X221805500Y-189554500D01*
X209677000Y-205960500D02*
X209677000Y-203524500D01*
X209677000Y-203524500D02*
X208527000Y-203524500D01*
X208527000Y-203460500D02*
X208527000Y-194460500D01*
X208527000Y-194396500D02*
X210827000Y-194396500D01*
X210827000Y-194460500D02*
X210827000Y-203460500D01*
X210827000Y-203524500D02*
X209677000Y-203524500D01*
X209677000Y-191960500D02*
X209677000Y-194396500D01*
X220012500Y-204597000D02*
X222448500Y-204597000D01*
X222448500Y-204597000D02*
X222448500Y-203447000D01*
X222512500Y-203447000D02*
X231512500Y-203447000D01*
X231576500Y-203447000D02*
X231576500Y-205747000D01*
X231512500Y-205747000D02*
X222512500Y-205747000D01*
X222448500Y-205747000D02*
X222448500Y-204597000D01*
X234012500Y-204597000D02*
X231576500Y-204597000D01*
X197675500Y-192199500D02*
X197675500Y-194635500D01*
X197675500Y-194635500D02*
X198825500Y-194635500D01*
X198825500Y-194699500D02*
X198825500Y-203699500D01*
X198825500Y-203763500D02*
X196525500Y-203763500D01*
X196525500Y-203699500D02*
X196525500Y-194699500D01*
X196525500Y-194635500D02*
X197675500Y-194635500D01*
X197675500Y-206199500D02*
X197675500Y-203763500D01*
X289560000Y-184277000D02*
X289560000Y-186713000D01*
X289560000Y-186713000D02*
X290710000Y-186713000D01*
X290710000Y-186777000D02*
X290710000Y-195777000D01*
X290710000Y-195841000D02*
X288410000Y-195841000D01*
X288410000Y-195777000D02*
X288410000Y-186777000D01*
X288410000Y-186713000D02*
X289560000Y-186713000D01*
X289560000Y-198277000D02*
X289560000Y-195841000D01*
X168016400Y-157073600D02*
X170452400Y-157073600D01*
X170452400Y-157073600D02*
X170452400Y-155923600D01*
X170516400Y-155923600D02*
X179516400Y-155923600D01*
X179580400Y-155923600D02*
X179580400Y-158223600D01*
X179516400Y-158223600D02*
X170516400Y-158223600D01*
X170452400Y-158223600D02*
X170452400Y-157073600D01*
X182016400Y-157073600D02*
X179580400Y-157073600D01*
X294830500Y-177990500D02*
X294830500Y-180426500D01*
X294830500Y-180426500D02*
X295980500Y-180426500D01*
X295980500Y-180490500D02*
X295980500Y-189490500D01*
X295980500Y-189554500D02*
X293680500Y-189554500D01*
X293680500Y-189490500D02*
X293680500Y-180490500D01*
X293680500Y-180426500D02*
X294830500Y-180426500D01*
X294830500Y-191990500D02*
X294830500Y-189554500D01*
X297863500Y-203581000D02*
X300299500Y-203581000D01*
X300299500Y-203581000D02*
X300299500Y-202431000D01*
X300363500Y-202431000D02*
X309363500Y-202431000D01*
X309427500Y-202431000D02*
X309427500Y-204731000D01*
X309363500Y-204731000D02*
X300363500Y-204731000D01*
X300299500Y-204731000D02*
X300299500Y-203581000D01*
X311863500Y-203581000D02*
X309427500Y-203581000D01*
X150622000Y-178074800D02*
X150622000Y-180510800D01*
X150622000Y-180510800D02*
X151772000Y-180510800D01*
X151772000Y-180574800D02*
X151772000Y-189574800D01*
X151772000Y-189638800D02*
X149472000Y-189638800D01*
X149472000Y-189574800D02*
X149472000Y-180574800D01*
X149472000Y-180510800D02*
X150622000Y-180510800D01*
X150622000Y-192074800D02*
X150622000Y-189638800D01*
X136296400Y-207202800D02*
X136296400Y-204766800D01*
X136296400Y-204766800D02*
X135146400Y-204766800D01*
X135146400Y-204702800D02*
X135146400Y-195702800D01*
X135146400Y-195638800D02*
X137446400Y-195638800D01*
X137446400Y-195702800D02*
X137446400Y-204702800D01*
X137446400Y-204766800D02*
X136296400Y-204766800D01*
X136296400Y-193202800D02*
X136296400Y-195638800D01*
X149972000Y-203200000D02*
X152408000Y-203200000D01*
X152408000Y-203200000D02*
X152408000Y-202050000D01*
X152472000Y-202050000D02*
X161472000Y-202050000D01*
X161536000Y-202050000D02*
X161536000Y-204350000D01*
X161472000Y-204350000D02*
X152472000Y-204350000D01*
X152408000Y-204350000D02*
X152408000Y-203200000D01*
X163972000Y-203200000D02*
X161536000Y-203200000D01*
X179806600Y-110906800D02*
X179806600Y-113342800D01*
X179806600Y-113342800D02*
X180956600Y-113342800D01*
X180956600Y-113406800D02*
X180956600Y-122406800D01*
X180956600Y-122470800D02*
X178656600Y-122470800D01*
X178656600Y-122406800D02*
X178656600Y-113406800D01*
X178656600Y-113342800D02*
X179806600Y-113342800D01*
X179806600Y-124906800D02*
X179806600Y-122470800D01*
X175539400Y-118069600D02*
X175539400Y-120505600D01*
X175539400Y-120505600D02*
X176689400Y-120505600D01*
X176689400Y-120569600D02*
X176689400Y-129569600D01*
X176689400Y-129633600D02*
X174389400Y-129633600D01*
X174389400Y-129569600D02*
X174389400Y-120569600D01*
X174389400Y-120505600D02*
X175539400Y-120505600D01*
X175539400Y-132069600D02*
X175539400Y-129633600D01*
X184632600Y-118018800D02*
X184632600Y-120454800D01*
X184632600Y-120454800D02*
X185782600Y-120454800D01*
X185782600Y-120518800D02*
X185782600Y-129518800D01*
X185782600Y-129582800D02*
X183482600Y-129582800D01*
X183482600Y-129518800D02*
X183482600Y-120518800D01*
X183482600Y-120454800D02*
X184632600Y-120454800D01*
X184632600Y-132018800D02*
X184632600Y-129582800D01*
X120548400Y-196047600D02*
X120548400Y-198483600D01*
X120548400Y-198483600D02*
X121698400Y-198483600D01*
X121698400Y-198547600D02*
X121698400Y-207547600D01*
X121698400Y-207611600D02*
X119398400Y-207611600D01*
X119398400Y-207547600D02*
X119398400Y-198547600D01*
X119398400Y-198483600D02*
X120548400Y-198483600D01*
X120548400Y-210047600D02*
X120548400Y-207611600D01*
X112583200Y-164312600D02*
X115019200Y-164312600D01*
X115019200Y-164312600D02*
X115019200Y-163162600D01*
X115083200Y-163162600D02*
X124083200Y-163162600D01*
X124147200Y-163162600D02*
X124147200Y-165462600D01*
X124083200Y-165462600D02*
X115083200Y-165462600D01*
X115019200Y-165462600D02*
X115019200Y-164312600D01*
X126583200Y-164312600D02*
X124147200Y-164312600D01*
X169748200Y-112151400D02*
X169748200Y-114587400D01*
X169748200Y-114587400D02*
X170898200Y-114587400D01*
X170898200Y-114651400D02*
X170898200Y-123651400D01*
X170898200Y-123715400D02*
X168598200Y-123715400D01*
X168598200Y-123651400D02*
X168598200Y-114651400D01*
X168598200Y-114587400D02*
X169748200Y-114587400D01*
X169748200Y-126151400D02*
X169748200Y-123715400D01*
X132562600Y-185496200D02*
X132562600Y-183060200D01*
X132562600Y-183060200D02*
X131412600Y-183060200D01*
X131412600Y-182996200D02*
X131412600Y-173996200D01*
X131412600Y-173932200D02*
X133712600Y-173932200D01*
X133712600Y-173996200D02*
X133712600Y-182996200D01*
X133712600Y-183060200D02*
X132562600Y-183060200D01*
X132562600Y-171496200D02*
X132562600Y-173932200D01*
X76784200Y-187244200D02*
X76784200Y-189680200D01*
X76784200Y-189680200D02*
X77934200Y-189680200D01*
X77934200Y-189744200D02*
X77934200Y-198744200D01*
X77934200Y-198808200D02*
X75634200Y-198808200D01*
X75634200Y-198744200D02*
X75634200Y-189744200D01*
X75634200Y-189680200D02*
X76784200Y-189680200D01*
X76784200Y-201244200D02*
X76784200Y-198808200D01*
D16*
X333375000Y-210947000D02*
X333375000Y-208153000D01*
X335153000Y-211201000D02*
G75*
G03X335407000Y-210947000I0J254000D01*
G01*
X335407000Y-208153000D02*
G75*
G03X335153000Y-207899000I-254000J0D01*
G01*
X333375000Y-208153000D02*
G75*
G02X333629000Y-207899000I254000J0D01*
G01*
X333629000Y-211201000D02*
G75*
G02X333375000Y-210947000I0J254000D01*
G01*
X333629000Y-211201000D02*
X335153000Y-211201000D01*
X333629000Y-207899000D02*
X335153000Y-207899000D01*
X335407000Y-208153000D02*
X335407000Y-210947000D01*
D14*
X280035000Y-165315500D02*
X280035000Y-165815500D01*
X282935000Y-165815500D02*
X282935000Y-183815500D01*
X282935000Y-183815500D02*
X277135000Y-183815500D01*
X277135000Y-183815500D02*
X277135000Y-165815500D01*
X277135000Y-165815500D02*
X282935000Y-165815500D01*
X280035000Y-183815500D02*
X280035000Y-184315500D01*
X215455500Y-172612000D02*
X215455500Y-175612000D01*
X219855500Y-175612000D02*
X219855500Y-194612000D01*
X219855500Y-194612000D02*
X211055500Y-194612000D01*
X211055500Y-194612000D02*
X211055500Y-175612000D01*
X211055500Y-175612000D02*
X219855500Y-175612000D01*
X215455500Y-194612000D02*
X215455500Y-197612000D01*
X203581000Y-180936500D02*
X203581000Y-181436500D01*
X206481000Y-181436500D02*
X206481000Y-199436500D01*
X206481000Y-199436500D02*
X200681000Y-199436500D01*
X200681000Y-199436500D02*
X200681000Y-181436500D01*
X200681000Y-181436500D02*
X206481000Y-181436500D01*
X203581000Y-199436500D02*
X203581000Y-199936500D01*
X144221200Y-172513600D02*
X144221200Y-175513600D01*
X148621200Y-175513600D02*
X148621200Y-194513600D01*
X148621200Y-194513600D02*
X139821200Y-194513600D01*
X139821200Y-194513600D02*
X139821200Y-175513600D01*
X139821200Y-175513600D02*
X148621200Y-175513600D01*
X144221200Y-194513600D02*
X144221200Y-197513600D01*
X348116000Y-199249000D02*
X348116000Y-196449000D01*
X347116000Y-199249000D02*
X348116000Y-199249000D01*
X347116000Y-200249000D02*
X347116000Y-199249000D01*
X348116000Y-200249000D02*
X347116000Y-200249000D01*
X348116000Y-211249000D02*
X348116000Y-200249000D01*
X339716000Y-211249000D02*
X339716000Y-200249000D01*
X339716000Y-199249000D02*
X340716000Y-199249000D01*
X340716000Y-200249000D02*
X340716000Y-199249000D01*
X340716000Y-200249000D02*
X339716000Y-200249000D01*
X339716000Y-199249000D02*
X339716000Y-196449000D01*
X339716000Y-196449000D02*
X348116000Y-196449000D01*
X348116000Y-211249000D02*
X339716000Y-211249000D01*
X339716000Y-210049000D02*
X348116000Y-210049000D01*
X343916000Y-196449000D02*
X343916000Y-193449000D01*
X343916000Y-211249000D02*
X343916000Y-214249000D01*
X343916000Y-208965000D02*
X343916000Y-207187000D01*
X343916000Y-197517000D02*
X343916000Y-199041000D01*
X344678000Y-198279000D02*
X343154000Y-198279000D01*
X263236800Y-152180400D02*
X266036800Y-152180400D01*
X263236800Y-151180400D02*
X263236800Y-152180400D01*
X262236800Y-151180400D02*
X263236800Y-151180400D01*
X262236800Y-152180400D02*
X262236800Y-151180400D01*
X251236800Y-152180400D02*
X262236800Y-152180400D01*
X251236800Y-143780400D02*
X262236800Y-143780400D01*
X263236800Y-143780400D02*
X263236800Y-144780400D01*
X262236800Y-144780400D02*
X263236800Y-144780400D01*
X262236800Y-144780400D02*
X262236800Y-143780400D01*
X263236800Y-143780400D02*
X266036800Y-143780400D01*
X266036800Y-143780400D02*
X266036800Y-152180400D01*
X251236800Y-152180400D02*
X251236800Y-143780400D01*
X252436800Y-143780400D02*
X252436800Y-152180400D01*
X266036800Y-147980400D02*
X269036800Y-147980400D01*
X251236800Y-147980400D02*
X248236800Y-147980400D01*
X253520800Y-147980400D02*
X255298800Y-147980400D01*
X264968800Y-147980400D02*
X263444800Y-147980400D01*
X264206800Y-148742400D02*
X264206800Y-147218400D01*
X162509600Y-211226400D02*
X162009600Y-211226400D01*
X162009600Y-214226400D02*
X144009600Y-214226400D01*
X144009600Y-214226400D02*
X144009600Y-208226400D01*
X144009600Y-208226400D02*
X162009600Y-208226400D01*
X162009600Y-208226400D02*
X162009600Y-214226400D01*
X144009600Y-211226400D02*
X143509600Y-211226400D01*
X119709800Y-159816800D02*
X120209800Y-159816800D01*
X120209800Y-156816800D02*
X138209800Y-156816800D01*
X138209800Y-156816800D02*
X138209800Y-162816800D01*
X138209800Y-162816800D02*
X120209800Y-162816800D01*
X120209800Y-162816800D02*
X120209800Y-156816800D01*
X138209800Y-159816800D02*
X138709800Y-159816800D01*
X160020000Y-144068800D02*
X159520000Y-144068800D01*
X159520000Y-148068800D02*
X141520000Y-148068800D01*
X141520000Y-148068800D02*
X141520000Y-140068800D01*
X141520000Y-140068800D02*
X159520000Y-140068800D01*
X159520000Y-140068800D02*
X159520000Y-148068800D01*
X141520000Y-144068800D02*
X141020000Y-144068800D01*
X93599000Y-212852000D02*
X93099000Y-212852000D01*
X93099000Y-215852000D02*
X75099000Y-215852000D01*
X75099000Y-215852000D02*
X75099000Y-209852000D01*
X75099000Y-209852000D02*
X93099000Y-209852000D01*
X93099000Y-209852000D02*
X93099000Y-215852000D01*
X75099000Y-212852000D02*
X74599000Y-212852000D01*
X92325776Y-152748532D02*
X91825776Y-152748532D01*
X91825776Y-155348532D02*
X73825776Y-155348532D01*
X73825776Y-155348532D02*
X73825776Y-150148532D01*
X73825776Y-150148532D02*
X91825776Y-150148532D01*
X91825776Y-150148532D02*
X91825776Y-155348532D01*
X73825776Y-152748532D02*
X73325776Y-152748532D01*
X328271000Y-169381000D02*
X328271000Y-172951000D01*
X328271000Y-172951000D02*
X327255000Y-172951000D01*
X327255000Y-172951000D02*
X327255000Y-173713000D01*
X327255000Y-173713000D02*
X328271000Y-173713000D01*
X328271000Y-173713000D02*
X328271000Y-200581000D01*
X312063000Y-200581000D02*
X312063000Y-173713000D01*
X312063000Y-173713000D02*
X313079000Y-173713000D01*
X313079000Y-173713000D02*
X313079000Y-172951000D01*
X313079000Y-172951000D02*
X312063000Y-172951000D01*
X312063000Y-172951000D02*
X312063000Y-169381000D01*
X312067000Y-169381000D02*
X328267000Y-169381000D01*
X328267000Y-200581000D02*
X312067000Y-200581000D01*
X312067000Y-199381000D02*
X328267000Y-199381000D01*
X320167000Y-169381000D02*
X320167000Y-166381000D01*
X320167000Y-200581000D02*
X320167000Y-203581000D01*
X320167000Y-198097000D02*
X320167000Y-196319000D01*
X320167000Y-170649000D02*
X320167000Y-172173000D01*
X320929000Y-171411000D02*
X319405000Y-171411000D01*
X219339800Y-106482200D02*
X219339800Y-110052200D01*
X219339800Y-110052200D02*
X218323800Y-110052200D01*
X218323800Y-110052200D02*
X218323800Y-110814200D01*
X218323800Y-110814200D02*
X219339800Y-110814200D01*
X219339800Y-110814200D02*
X219339800Y-146682200D01*
X201131800Y-146682200D02*
X201131800Y-110814200D01*
X201131800Y-110814200D02*
X202147800Y-110814200D01*
X202147800Y-110814200D02*
X202147800Y-110052200D01*
X202147800Y-110052200D02*
X201131800Y-110052200D01*
X201131800Y-110052200D02*
X201131800Y-106482200D01*
X201135800Y-106482200D02*
X219335800Y-106482200D01*
X219335800Y-146682200D02*
X201135800Y-146682200D01*
X201135800Y-145482200D02*
X219335800Y-145482200D01*
X210235800Y-106482200D02*
X210235800Y-103482200D01*
X210235800Y-146682200D02*
X210235800Y-149682200D01*
X210235800Y-144198200D02*
X210235800Y-142420200D01*
X210235800Y-107750200D02*
X210235800Y-109274200D01*
X210997800Y-108512200D02*
X209473800Y-108512200D01*
X329931000Y-165735000D02*
X332367000Y-165735000D01*
X332367000Y-165735000D02*
X332367000Y-164585000D01*
X332431000Y-164585000D02*
X341431000Y-164585000D01*
X341495000Y-164585000D02*
X341495000Y-166885000D01*
X341431000Y-166885000D02*
X332431000Y-166885000D01*
X332367000Y-166885000D02*
X332367000Y-165735000D01*
X343931000Y-165735000D02*
X341495000Y-165735000D01*
X220965000Y-143230600D02*
X223401000Y-143230600D01*
X223401000Y-143230600D02*
X223401000Y-142080600D01*
X223465000Y-142080600D02*
X232465000Y-142080600D01*
X232529000Y-142080600D02*
X232529000Y-144380600D01*
X232465000Y-144380600D02*
X223465000Y-144380600D01*
X223401000Y-144380600D02*
X223401000Y-143230600D01*
X234965000Y-143230600D02*
X232529000Y-143230600D01*
X239826800Y-136139400D02*
X239826800Y-138575400D01*
X239826800Y-138575400D02*
X240976800Y-138575400D01*
X240976800Y-138639400D02*
X240976800Y-147639400D01*
X240976800Y-147703400D02*
X238676800Y-147703400D01*
X238676800Y-147639400D02*
X238676800Y-138639400D01*
X238676800Y-138575400D02*
X239826800Y-138575400D01*
X239826800Y-150139400D02*
X239826800Y-147703400D01*
X81254600Y-208168000D02*
X81254600Y-205732000D01*
X81254600Y-205732000D02*
X80104600Y-205732000D01*
X80104600Y-205668000D02*
X80104600Y-196668000D01*
X80104600Y-196604000D02*
X82404600Y-196604000D01*
X82404600Y-196668000D02*
X82404600Y-205668000D01*
X82404600Y-205732000D02*
X81254600Y-205732000D01*
X81254600Y-194168000D02*
X81254600Y-196604000D01*
X127990600Y-192252600D02*
X127990600Y-194688600D01*
X127990600Y-194688600D02*
X129140600Y-194688600D01*
X129140600Y-194752600D02*
X129140600Y-203752600D01*
X129140600Y-203816600D02*
X126840600Y-203816600D01*
X126840600Y-203752600D02*
X126840600Y-194752600D01*
X126840600Y-194688600D02*
X127990600Y-194688600D01*
X127990600Y-206252600D02*
X127990600Y-203816600D01*
X78587600Y-166075600D02*
X78587600Y-168511600D01*
X78587600Y-168511600D02*
X79737600Y-168511600D01*
X79737600Y-168575600D02*
X79737600Y-177575600D01*
X79737600Y-177639600D02*
X77437600Y-177639600D01*
X77437600Y-177575600D02*
X77437600Y-168575600D01*
X77437600Y-168511600D02*
X78587600Y-168511600D01*
X78587600Y-180075600D02*
X78587600Y-177639600D01*
X112827776Y-147109732D02*
X110391776Y-147109732D01*
X110391776Y-147109732D02*
X110391776Y-148259732D01*
X110327776Y-148259732D02*
X101327776Y-148259732D01*
X101263776Y-148259732D02*
X101263776Y-145959732D01*
X101327776Y-145959732D02*
X110327776Y-145959732D01*
X110391776Y-145959732D02*
X110391776Y-147109732D01*
X98827776Y-147109732D02*
X101263776Y-147109732D01*
X90384576Y-144976132D02*
X87948576Y-144976132D01*
X87948576Y-144976132D02*
X87948576Y-146126132D01*
X87884576Y-146126132D02*
X78884576Y-146126132D01*
X78820576Y-146126132D02*
X78820576Y-143826132D01*
X78884576Y-143826132D02*
X87884576Y-143826132D01*
X87948576Y-143826132D02*
X87948576Y-144976132D01*
X76384576Y-144976132D02*
X78820576Y-144976132D01*
X106223776Y-152799332D02*
X103787776Y-152799332D01*
X103787776Y-152799332D02*
X103787776Y-153949332D01*
X103723776Y-153949332D02*
X94723776Y-153949332D01*
X94659776Y-153949332D02*
X94659776Y-151649332D01*
X94723776Y-151649332D02*
X103723776Y-151649332D01*
X103787776Y-151649332D02*
X103787776Y-152799332D01*
X92223776Y-152799332D02*
X94659776Y-152799332D01*
X312976500Y-154940000D02*
X315412500Y-154940000D01*
X315412500Y-154940000D02*
X315412500Y-153790000D01*
X315476500Y-153790000D02*
X324476500Y-153790000D01*
X324540500Y-153790000D02*
X324540500Y-156090000D01*
X324476500Y-156090000D02*
X315476500Y-156090000D01*
X315412500Y-156090000D02*
X315412500Y-154940000D01*
X326976500Y-154940000D02*
X324540500Y-154940000D01*
X172366400Y-104190800D02*
X174802400Y-104190800D01*
X174866400Y-101990800D02*
X185866400Y-101990800D01*
X185866400Y-101990800D02*
X185866400Y-106390800D01*
X185866400Y-106390800D02*
X174866400Y-106390800D01*
X174866400Y-106390800D02*
X174866400Y-101990800D01*
X188366400Y-104190800D02*
X185930400Y-104190800D01*
X267335000Y-184086500D02*
X267335000Y-187086500D01*
X271735000Y-187086500D02*
X271735000Y-206086500D01*
X271735000Y-206086500D02*
X262935000Y-206086500D01*
X262935000Y-206086500D02*
X262935000Y-187086500D01*
X262935000Y-187086500D02*
X271735000Y-187086500D01*
X267335000Y-206086500D02*
X267335000Y-209086500D01*
X273558000Y-178879500D02*
X273558000Y-178379500D01*
X270558000Y-178379500D02*
X270558000Y-160379500D01*
X270558000Y-160379500D02*
X276558000Y-160379500D01*
X276558000Y-160379500D02*
X276558000Y-178379500D01*
X276558000Y-178379500D02*
X270558000Y-178379500D01*
X273558000Y-160379500D02*
X273558000Y-159879500D01*
X244271800Y-104165400D02*
X243771800Y-104165400D01*
X243771800Y-106765400D02*
X225771800Y-106765400D01*
X225771800Y-106765400D02*
X225771800Y-101565400D01*
X225771800Y-101565400D02*
X243771800Y-101565400D01*
X243771800Y-101565400D02*
X243771800Y-106765400D01*
X225771800Y-104165400D02*
X225271800Y-104165400D01*
D15*
X162897129Y-120193229D02*
X162963652Y-120253705D01*
X163030176Y-120435134D01*
X163030176Y-120556086D01*
X162963652Y-120737514D01*
X162830605Y-120858467D01*
X162697557Y-120918943D01*
X162431462Y-120979419D01*
X162231890Y-120979419D01*
X161965795Y-120918943D01*
X161832748Y-120858467D01*
X161699700Y-120737514D01*
X161633176Y-120556086D01*
X161633176Y-120435134D01*
X161699700Y-120253705D01*
X161766224Y-120193229D01*
X163030176Y-118983705D02*
X163030176Y-119709419D01*
X163030176Y-119346562D02*
X161633176Y-119346562D01*
X161832748Y-119467514D01*
X161965795Y-119588467D01*
X162032319Y-119709419D01*
X161633176Y-118560371D02*
X161633176Y-117713705D01*
X163030176Y-118257990D01*
X165030176Y-119679181D02*
X165030176Y-120404895D01*
X165030176Y-120042038D02*
X163633176Y-120042038D01*
X163832748Y-120162990D01*
X163965795Y-120283943D01*
X164032319Y-120404895D01*
X164098843Y-119134895D02*
X165495843Y-119134895D01*
X164830605Y-118530133D02*
X164963652Y-118469657D01*
X165030176Y-118348705D01*
X164830605Y-119134895D02*
X164963652Y-119074419D01*
X165030176Y-118953466D01*
X165030176Y-118711562D01*
X164963652Y-118590609D01*
X164830605Y-118530133D01*
X164098843Y-118530133D01*
X249221776Y-125189829D02*
X248556538Y-125613162D01*
X249221776Y-125915543D02*
X247824776Y-125915543D01*
X247824776Y-125431734D01*
X247891300Y-125310781D01*
X247957824Y-125250305D01*
X248090871Y-125189829D01*
X248290443Y-125189829D01*
X248423490Y-125250305D01*
X248490014Y-125310781D01*
X248556538Y-125431734D01*
X248556538Y-125915543D01*
X247957824Y-124706019D02*
X247891300Y-124645543D01*
X247824776Y-124524591D01*
X247824776Y-124222210D01*
X247891300Y-124101257D01*
X247957824Y-124040781D01*
X248090871Y-123980305D01*
X248223919Y-123980305D01*
X248423490Y-124040781D01*
X249221776Y-124766495D01*
X249221776Y-123980305D01*
X247824776Y-122891733D02*
X247824776Y-123133638D01*
X247891300Y-123254590D01*
X247957824Y-123315067D01*
X248157395Y-123436019D01*
X248423490Y-123496495D01*
X248955681Y-123496495D01*
X249088729Y-123436019D01*
X249155252Y-123375543D01*
X249221776Y-123254590D01*
X249221776Y-123012686D01*
X249155252Y-122891733D01*
X249088729Y-122831257D01*
X248955681Y-122770781D01*
X248623062Y-122770781D01*
X248490014Y-122831257D01*
X248423490Y-122891733D01*
X248356967Y-123012686D01*
X248356967Y-123254590D01*
X248423490Y-123375543D01*
X248490014Y-123436019D01*
X248623062Y-123496495D01*
X250269224Y-126546914D02*
X250202700Y-126486438D01*
X250136176Y-126365486D01*
X250136176Y-126063105D01*
X250202700Y-125942152D01*
X250269224Y-125881676D01*
X250402271Y-125821200D01*
X250535319Y-125821200D01*
X250734890Y-125881676D01*
X251533176Y-126607390D01*
X251533176Y-125821200D01*
X251400129Y-125276914D02*
X251466652Y-125216438D01*
X251533176Y-125276914D01*
X251466652Y-125337390D01*
X251400129Y-125276914D01*
X251533176Y-125276914D01*
X250269224Y-124732628D02*
X250202700Y-124672152D01*
X250136176Y-124551200D01*
X250136176Y-124248819D01*
X250202700Y-124127866D01*
X250269224Y-124067390D01*
X250402271Y-124006914D01*
X250535319Y-124006914D01*
X250734890Y-124067390D01*
X251533176Y-124793104D01*
X251533176Y-124006914D01*
X251533176Y-123462628D02*
X250136176Y-123462628D01*
X251134033Y-123039295D01*
X250136176Y-122615961D01*
X251533176Y-122615961D01*
X223333733Y-211852329D02*
X223273257Y-211918852D01*
X223091828Y-211985376D01*
X222970876Y-211985376D01*
X222789448Y-211918852D01*
X222668495Y-211785805D01*
X222608019Y-211652757D01*
X222547543Y-211386662D01*
X222547543Y-211187090D01*
X222608019Y-210920995D01*
X222668495Y-210787948D01*
X222789448Y-210654900D01*
X222970876Y-210588376D01*
X223091828Y-210588376D01*
X223273257Y-210654900D01*
X223333733Y-210721424D01*
X224059448Y-211187090D02*
X223938495Y-211120567D01*
X223878019Y-211054043D01*
X223817543Y-210920995D01*
X223817543Y-210854471D01*
X223878019Y-210721424D01*
X223938495Y-210654900D01*
X224059448Y-210588376D01*
X224301352Y-210588376D01*
X224422305Y-210654900D01*
X224482781Y-210721424D01*
X224543257Y-210854471D01*
X224543257Y-210920995D01*
X224482781Y-211054043D01*
X224422305Y-211120567D01*
X224301352Y-211187090D01*
X224059448Y-211187090D01*
X223938495Y-211253614D01*
X223878019Y-211320138D01*
X223817543Y-211453186D01*
X223817543Y-211719281D01*
X223878019Y-211852329D01*
X223938495Y-211918852D01*
X224059448Y-211985376D01*
X224301352Y-211985376D01*
X224422305Y-211918852D01*
X224482781Y-211852329D01*
X224543257Y-211719281D01*
X224543257Y-211453186D01*
X224482781Y-211320138D01*
X224422305Y-211253614D01*
X224301352Y-211187090D01*
X222104857Y-212677224D02*
X222165333Y-212610700D01*
X222286285Y-212544176D01*
X222588666Y-212544176D01*
X222709619Y-212610700D01*
X222770095Y-212677224D01*
X222830571Y-212810271D01*
X222830571Y-212943319D01*
X222770095Y-213142890D01*
X222044381Y-213941176D01*
X222830571Y-213941176D01*
X223314381Y-212677224D02*
X223374857Y-212610700D01*
X223495809Y-212544176D01*
X223798190Y-212544176D01*
X223919143Y-212610700D01*
X223979619Y-212677224D01*
X224040095Y-212810271D01*
X224040095Y-212943319D01*
X223979619Y-213142890D01*
X223253905Y-213941176D01*
X224040095Y-213941176D01*
X224584381Y-213009843D02*
X224584381Y-213941176D01*
X224584381Y-213142890D02*
X224644857Y-213076367D01*
X224765810Y-213009843D01*
X224947238Y-213009843D01*
X225068190Y-213076367D01*
X225128667Y-213209414D01*
X225128667Y-213941176D01*
X294560171Y-209083729D02*
X294499695Y-209150252D01*
X294318266Y-209216776D01*
X294197314Y-209216776D01*
X294015886Y-209150252D01*
X293894933Y-209017205D01*
X293834457Y-208884157D01*
X293773981Y-208618062D01*
X293773981Y-208418490D01*
X293834457Y-208152395D01*
X293894933Y-208019348D01*
X294015886Y-207886300D01*
X294197314Y-207819776D01*
X294318266Y-207819776D01*
X294499695Y-207886300D01*
X294560171Y-207952824D01*
X295769695Y-209216776D02*
X295043981Y-209216776D01*
X295406838Y-209216776D02*
X295406838Y-207819776D01*
X295285886Y-208019348D01*
X295164933Y-208152395D01*
X295043981Y-208218919D01*
X296555886Y-207819776D02*
X296676838Y-207819776D01*
X296797790Y-207886300D01*
X296858267Y-207952824D01*
X296918743Y-208085871D01*
X296979219Y-208351967D01*
X296979219Y-208684586D01*
X296918743Y-208950681D01*
X296858267Y-209083729D01*
X296797790Y-209150252D01*
X296676838Y-209216776D01*
X296555886Y-209216776D01*
X296434933Y-209150252D01*
X296374457Y-209083729D01*
X296313981Y-208950681D01*
X296253505Y-208684586D01*
X296253505Y-208351967D01*
X296313981Y-208085871D01*
X296374457Y-207952824D01*
X296434933Y-207886300D01*
X296555886Y-207819776D01*
X294566219Y-210469843D02*
X294566219Y-211401176D01*
X294263838Y-209937652D02*
X293961457Y-210935510D01*
X294747647Y-210935510D01*
X295110505Y-210004176D02*
X295957171Y-210004176D01*
X295412886Y-211401176D01*
X296440981Y-210469843D02*
X296440981Y-211401176D01*
X296440981Y-210602890D02*
X296501457Y-210536367D01*
X296622410Y-210469843D01*
X296803838Y-210469843D01*
X296924790Y-210536367D01*
X296985267Y-210669414D01*
X296985267Y-211401176D01*
D17*
X332437620Y-218240429D02*
X332776286Y-218240429D01*
X332921429Y-218772619D02*
X332437620Y-218772619D01*
X332437620Y-217756619D01*
X332921429Y-217756619D01*
X333308477Y-218482333D02*
X333792286Y-218482333D01*
X333211715Y-218772619D02*
X333550382Y-217756619D01*
X333889048Y-218772619D01*
X334808286Y-218772619D02*
X334469620Y-218288810D01*
X334227715Y-218772619D02*
X334227715Y-217756619D01*
X334614762Y-217756619D01*
X334711524Y-217805000D01*
X334759905Y-217853381D01*
X334808286Y-217950143D01*
X334808286Y-218095286D01*
X334759905Y-218192048D01*
X334711524Y-218240429D01*
X334614762Y-218288810D01*
X334227715Y-218288810D01*
X335098572Y-217756619D02*
X335679143Y-217756619D01*
X335388858Y-218772619D02*
X335388858Y-217756619D01*
X336017810Y-218772619D02*
X336017810Y-217756619D01*
X336017810Y-218240429D02*
X336598381Y-218240429D01*
X336598381Y-218772619D02*
X336598381Y-217756619D01*
D15*
X198415729Y-164651267D02*
X198482252Y-164711743D01*
X198548776Y-164893172D01*
X198548776Y-165014124D01*
X198482252Y-165195552D01*
X198349205Y-165316505D01*
X198216157Y-165376981D01*
X197950062Y-165437457D01*
X197750490Y-165437457D01*
X197484395Y-165376981D01*
X197351348Y-165316505D01*
X197218300Y-165195552D01*
X197151776Y-165014124D01*
X197151776Y-164893172D01*
X197218300Y-164711743D01*
X197284824Y-164651267D01*
X198548776Y-164046505D02*
X198548776Y-163804600D01*
X198482252Y-163683648D01*
X198415729Y-163623172D01*
X198216157Y-163502219D01*
X197950062Y-163441743D01*
X197417871Y-163441743D01*
X197284824Y-163502219D01*
X197218300Y-163562695D01*
X197151776Y-163683648D01*
X197151776Y-163925552D01*
X197218300Y-164046505D01*
X197284824Y-164106981D01*
X197417871Y-164167457D01*
X197750490Y-164167457D01*
X197883538Y-164106981D01*
X197950062Y-164046505D01*
X198016586Y-163925552D01*
X198016586Y-163683648D01*
X197950062Y-163562695D01*
X197883538Y-163502219D01*
X197750490Y-163441743D01*
X199570824Y-165651543D02*
X199504300Y-165591067D01*
X199437776Y-165470115D01*
X199437776Y-165167734D01*
X199504300Y-165046781D01*
X199570824Y-164986305D01*
X199703871Y-164925829D01*
X199836919Y-164925829D01*
X200036490Y-164986305D01*
X200834776Y-165712019D01*
X200834776Y-164925829D01*
X199570824Y-164442019D02*
X199504300Y-164381543D01*
X199437776Y-164260591D01*
X199437776Y-163958210D01*
X199504300Y-163837257D01*
X199570824Y-163776781D01*
X199703871Y-163716305D01*
X199836919Y-163716305D01*
X200036490Y-163776781D01*
X200834776Y-164502495D01*
X200834776Y-163716305D01*
X199903443Y-163172019D02*
X200834776Y-163172019D01*
X200036490Y-163172019D02*
X199969967Y-163111543D01*
X199903443Y-162990590D01*
X199903443Y-162809162D01*
X199969967Y-162688210D01*
X200103014Y-162627733D01*
X200834776Y-162627733D01*
X181475533Y-147815576D02*
X181052200Y-147150338D01*
X180749819Y-147815576D02*
X180749819Y-146418576D01*
X181233628Y-146418576D01*
X181354581Y-146485100D01*
X181415057Y-146551624D01*
X181475533Y-146684671D01*
X181475533Y-146884243D01*
X181415057Y-147017290D01*
X181354581Y-147083814D01*
X181233628Y-147150338D01*
X180749819Y-147150338D01*
X181898867Y-146418576D02*
X182745533Y-146418576D01*
X182201248Y-147815576D01*
X178935533Y-149815576D02*
X178209819Y-149815576D01*
X178572676Y-149815576D02*
X178572676Y-148418576D01*
X178451724Y-148618148D01*
X178330771Y-148751195D01*
X178209819Y-148817719D01*
X179721724Y-148418576D02*
X179842676Y-148418576D01*
X179963628Y-148485100D01*
X180024105Y-148551624D01*
X180084581Y-148684671D01*
X180145057Y-148950767D01*
X180145057Y-149283386D01*
X180084581Y-149549481D01*
X180024105Y-149682529D01*
X179963628Y-149749052D01*
X179842676Y-149815576D01*
X179721724Y-149815576D01*
X179600771Y-149749052D01*
X179540295Y-149682529D01*
X179479819Y-149549481D01*
X179419343Y-149283386D01*
X179419343Y-148950767D01*
X179479819Y-148684671D01*
X179540295Y-148551624D01*
X179600771Y-148485100D01*
X179721724Y-148418576D01*
X180689343Y-149815576D02*
X180689343Y-148418576D01*
X180810295Y-149283386D02*
X181173152Y-149815576D01*
X181173152Y-148884243D02*
X180689343Y-149416433D01*
X182624581Y-148352052D02*
X181536009Y-150148195D01*
X182987438Y-148551624D02*
X183047914Y-148485100D01*
X183168866Y-148418576D01*
X183471247Y-148418576D01*
X183592200Y-148485100D01*
X183652676Y-148551624D01*
X183713152Y-148684671D01*
X183713152Y-148817719D01*
X183652676Y-149017290D01*
X182926962Y-149815576D01*
X183713152Y-149815576D01*
X184136486Y-148418576D02*
X184438867Y-149815576D01*
X184680771Y-148817719D01*
X184922676Y-149815576D01*
X185225057Y-148418576D01*
X104161771Y-129384576D02*
X103738438Y-128719338D01*
X103436057Y-129384576D02*
X103436057Y-127987576D01*
X103919866Y-127987576D01*
X104040819Y-128054100D01*
X104101295Y-128120624D01*
X104161771Y-128253671D01*
X104161771Y-128453243D01*
X104101295Y-128586290D01*
X104040819Y-128652814D01*
X103919866Y-128719338D01*
X103436057Y-128719338D01*
X104585105Y-127987576D02*
X105371295Y-127987576D01*
X104947962Y-128519767D01*
X105129390Y-128519767D01*
X105250343Y-128586290D01*
X105310819Y-128652814D01*
X105371295Y-128785862D01*
X105371295Y-129118481D01*
X105310819Y-129251529D01*
X105250343Y-129318052D01*
X105129390Y-129384576D01*
X104766533Y-129384576D01*
X104645581Y-129318052D01*
X104585105Y-129251529D01*
X106097010Y-128586290D02*
X105976057Y-128519767D01*
X105915581Y-128453243D01*
X105855105Y-128320195D01*
X105855105Y-128253671D01*
X105915581Y-128120624D01*
X105976057Y-128054100D01*
X106097010Y-127987576D01*
X106338914Y-127987576D01*
X106459867Y-128054100D01*
X106520343Y-128120624D01*
X106580819Y-128253671D01*
X106580819Y-128320195D01*
X106520343Y-128453243D01*
X106459867Y-128519767D01*
X106338914Y-128586290D01*
X106097010Y-128586290D01*
X105976057Y-128652814D01*
X105915581Y-128719338D01*
X105855105Y-128852386D01*
X105855105Y-129118481D01*
X105915581Y-129251529D01*
X105976057Y-129318052D01*
X106097010Y-129384576D01*
X106338914Y-129384576D01*
X106459867Y-129318052D01*
X106520343Y-129251529D01*
X106580819Y-129118481D01*
X106580819Y-128852386D01*
X106520343Y-128719338D01*
X106459867Y-128652814D01*
X106338914Y-128586290D01*
X103481534Y-130866243D02*
X103481534Y-131797576D01*
X103179153Y-130334052D02*
X102876772Y-131331910D01*
X103662962Y-131331910D01*
X104025820Y-130400576D02*
X104872486Y-130400576D01*
X104328201Y-131797576D01*
X105598201Y-130400576D02*
X105719153Y-130400576D01*
X105840105Y-130467100D01*
X105900582Y-130533624D01*
X105961058Y-130666671D01*
X106021534Y-130932767D01*
X106021534Y-131265386D01*
X105961058Y-131531481D01*
X105900582Y-131664529D01*
X105840105Y-131731052D01*
X105719153Y-131797576D01*
X105598201Y-131797576D01*
X105477248Y-131731052D01*
X105416772Y-131664529D01*
X105356296Y-131531481D01*
X105295820Y-131265386D01*
X105295820Y-130932767D01*
X105356296Y-130666671D01*
X105416772Y-130533624D01*
X105477248Y-130467100D01*
X105598201Y-130400576D01*
X106565820Y-131797576D02*
X106565820Y-130400576D01*
X106686772Y-131265386D02*
X107049629Y-131797576D01*
X107049629Y-130866243D02*
X106565820Y-131398433D01*
D14*
X255270000Y-199680286D02*
X255197429Y-199752857D01*
X254979715Y-199825429D01*
X254834572Y-199825429D01*
X254616857Y-199752857D01*
X254471715Y-199607714D01*
X254399143Y-199462571D01*
X254326572Y-199172286D01*
X254326572Y-198954571D01*
X254399143Y-198664286D01*
X254471715Y-198519143D01*
X254616857Y-198374000D01*
X254834572Y-198301429D01*
X254979715Y-198301429D01*
X255197429Y-198374000D01*
X255270000Y-198446571D01*
X256721429Y-199825429D02*
X255850572Y-199825429D01*
X256286000Y-199825429D02*
X256286000Y-198301429D01*
X256140857Y-198519143D01*
X255995715Y-198664286D01*
X255850572Y-198736857D01*
X248602500Y-201050071D02*
X248675071Y-200977500D01*
X248820214Y-200904929D01*
X249183071Y-200904929D01*
X249328214Y-200977500D01*
X249400785Y-201050071D01*
X249473357Y-201195214D01*
X249473357Y-201340357D01*
X249400785Y-201558071D01*
X248529928Y-202428929D01*
X249473357Y-202428929D01*
X250053929Y-201050071D02*
X250126500Y-200977500D01*
X250271643Y-200904929D01*
X250634500Y-200904929D01*
X250779643Y-200977500D01*
X250852214Y-201050071D01*
X250924786Y-201195214D01*
X250924786Y-201340357D01*
X250852214Y-201558071D01*
X249981357Y-202428929D01*
X250924786Y-202428929D01*
X251577929Y-201412929D02*
X251577929Y-202936929D01*
X252303643Y-202211214D02*
X252376215Y-202356357D01*
X252521358Y-202428929D01*
X251577929Y-202211214D02*
X251650501Y-202356357D01*
X251795643Y-202428929D01*
X252085929Y-202428929D01*
X252231072Y-202356357D01*
X252303643Y-202211214D01*
X252303643Y-201412929D01*
X254263072Y-200832357D02*
X252956786Y-202791786D01*
X255424214Y-201412929D02*
X255424214Y-202428929D01*
X255061357Y-200832357D02*
X254698500Y-201920929D01*
X255641928Y-201920929D01*
X256948214Y-200904929D02*
X256222500Y-200904929D01*
X256149929Y-201630643D01*
X256222500Y-201558071D01*
X256367643Y-201485500D01*
X256730500Y-201485500D01*
X256875643Y-201558071D01*
X256948214Y-201630643D01*
X257020786Y-201775786D01*
X257020786Y-202138643D01*
X256948214Y-202283786D01*
X256875643Y-202356357D01*
X256730500Y-202428929D01*
X256367643Y-202428929D01*
X256222500Y-202356357D01*
X256149929Y-202283786D01*
X257964215Y-200904929D02*
X258109358Y-200904929D01*
X258254501Y-200977500D01*
X258327072Y-201050071D01*
X258399643Y-201195214D01*
X258472215Y-201485500D01*
X258472215Y-201848357D01*
X258399643Y-202138643D01*
X258327072Y-202283786D01*
X258254501Y-202356357D01*
X258109358Y-202428929D01*
X257964215Y-202428929D01*
X257819072Y-202356357D01*
X257746501Y-202283786D01*
X257673929Y-202138643D01*
X257601358Y-201848357D01*
X257601358Y-201485500D01*
X257673929Y-201195214D01*
X257746501Y-201050071D01*
X257819072Y-200977500D01*
X257964215Y-200904929D01*
X258907644Y-200904929D02*
X259415644Y-202428929D01*
X259923644Y-200904929D01*
X185928000Y-204252286D02*
X185855429Y-204324857D01*
X185637715Y-204397429D01*
X185492572Y-204397429D01*
X185274857Y-204324857D01*
X185129715Y-204179714D01*
X185057143Y-204034571D01*
X184984572Y-203744286D01*
X184984572Y-203526571D01*
X185057143Y-203236286D01*
X185129715Y-203091143D01*
X185274857Y-202946000D01*
X185492572Y-202873429D01*
X185637715Y-202873429D01*
X185855429Y-202946000D01*
X185928000Y-203018571D01*
X186508572Y-203018571D02*
X186581143Y-202946000D01*
X186726286Y-202873429D01*
X187089143Y-202873429D01*
X187234286Y-202946000D01*
X187306857Y-203018571D01*
X187379429Y-203163714D01*
X187379429Y-203308857D01*
X187306857Y-203526571D01*
X186436000Y-204397429D01*
X187379429Y-204397429D01*
X179048228Y-205413429D02*
X179991657Y-205413429D01*
X179483657Y-205994000D01*
X179701371Y-205994000D01*
X179846514Y-206066571D01*
X179919085Y-206139143D01*
X179991657Y-206284286D01*
X179991657Y-206647143D01*
X179919085Y-206792286D01*
X179846514Y-206864857D01*
X179701371Y-206937429D01*
X179265943Y-206937429D01*
X179120800Y-206864857D01*
X179048228Y-206792286D01*
X180499657Y-205413429D02*
X181443086Y-205413429D01*
X180935086Y-205994000D01*
X181152800Y-205994000D01*
X181297943Y-206066571D01*
X181370514Y-206139143D01*
X181443086Y-206284286D01*
X181443086Y-206647143D01*
X181370514Y-206792286D01*
X181297943Y-206864857D01*
X181152800Y-206937429D01*
X180717372Y-206937429D01*
X180572229Y-206864857D01*
X180499657Y-206792286D01*
X182096229Y-205921429D02*
X182096229Y-207445429D01*
X182821943Y-206719714D02*
X182894515Y-206864857D01*
X183039658Y-206937429D01*
X182096229Y-206719714D02*
X182168801Y-206864857D01*
X182313943Y-206937429D01*
X182604229Y-206937429D01*
X182749372Y-206864857D01*
X182821943Y-206719714D01*
X182821943Y-205921429D01*
X184781372Y-205340857D02*
X183475086Y-207300286D01*
X185942514Y-205921429D02*
X185942514Y-206937429D01*
X185579657Y-205340857D02*
X185216800Y-206429429D01*
X186160228Y-206429429D01*
X187466514Y-205413429D02*
X186740800Y-205413429D01*
X186668229Y-206139143D01*
X186740800Y-206066571D01*
X186885943Y-205994000D01*
X187248800Y-205994000D01*
X187393943Y-206066571D01*
X187466514Y-206139143D01*
X187539086Y-206284286D01*
X187539086Y-206647143D01*
X187466514Y-206792286D01*
X187393943Y-206864857D01*
X187248800Y-206937429D01*
X186885943Y-206937429D01*
X186740800Y-206864857D01*
X186668229Y-206792286D01*
X188482515Y-205413429D02*
X188627658Y-205413429D01*
X188772801Y-205486000D01*
X188845372Y-205558571D01*
X188917943Y-205703714D01*
X188990515Y-205994000D01*
X188990515Y-206356857D01*
X188917943Y-206647143D01*
X188845372Y-206792286D01*
X188772801Y-206864857D01*
X188627658Y-206937429D01*
X188482515Y-206937429D01*
X188337372Y-206864857D01*
X188264801Y-206792286D01*
X188192229Y-206647143D01*
X188119658Y-206356857D01*
X188119658Y-205994000D01*
X188192229Y-205703714D01*
X188264801Y-205558571D01*
X188337372Y-205486000D01*
X188482515Y-205413429D01*
X189425944Y-205413429D02*
X189933944Y-206937429D01*
X190441944Y-205413429D01*
X114681000Y-207046286D02*
X114608429Y-207118857D01*
X114390715Y-207191429D01*
X114245572Y-207191429D01*
X114027857Y-207118857D01*
X113882715Y-206973714D01*
X113810143Y-206828571D01*
X113737572Y-206538286D01*
X113737572Y-206320571D01*
X113810143Y-206030286D01*
X113882715Y-205885143D01*
X114027857Y-205740000D01*
X114245572Y-205667429D01*
X114390715Y-205667429D01*
X114608429Y-205740000D01*
X114681000Y-205812571D01*
X115987286Y-206175429D02*
X115987286Y-207191429D01*
X115624429Y-205594857D02*
X115261572Y-206683429D01*
X116205000Y-206683429D01*
X107253314Y-208690029D02*
X107253314Y-209706029D01*
X106890457Y-208109457D02*
X106527600Y-209198029D01*
X107471028Y-209198029D01*
X107906457Y-208182029D02*
X108922457Y-208182029D01*
X108269314Y-209706029D01*
X109503029Y-208690029D02*
X109503029Y-210214029D01*
X110228743Y-209488314D02*
X110301315Y-209633457D01*
X110446458Y-209706029D01*
X109503029Y-209488314D02*
X109575601Y-209633457D01*
X109720743Y-209706029D01*
X110011029Y-209706029D01*
X110156172Y-209633457D01*
X110228743Y-209488314D01*
X110228743Y-208690029D01*
X112188172Y-208109457D02*
X110881886Y-210068886D01*
X113349314Y-208690029D02*
X113349314Y-209706029D01*
X112986457Y-208109457D02*
X112623600Y-209198029D01*
X113567028Y-209198029D01*
X114873314Y-208182029D02*
X114147600Y-208182029D01*
X114075029Y-208907743D01*
X114147600Y-208835171D01*
X114292743Y-208762600D01*
X114655600Y-208762600D01*
X114800743Y-208835171D01*
X114873314Y-208907743D01*
X114945886Y-209052886D01*
X114945886Y-209415743D01*
X114873314Y-209560886D01*
X114800743Y-209633457D01*
X114655600Y-209706029D01*
X114292743Y-209706029D01*
X114147600Y-209633457D01*
X114075029Y-209560886D01*
X115889315Y-208182029D02*
X116034458Y-208182029D01*
X116179601Y-208254600D01*
X116252172Y-208327171D01*
X116324743Y-208472314D01*
X116397315Y-208762600D01*
X116397315Y-209125457D01*
X116324743Y-209415743D01*
X116252172Y-209560886D01*
X116179601Y-209633457D01*
X116034458Y-209706029D01*
X115889315Y-209706029D01*
X115744172Y-209633457D01*
X115671601Y-209560886D01*
X115599029Y-209415743D01*
X115526458Y-209125457D01*
X115526458Y-208762600D01*
X115599029Y-208472314D01*
X115671601Y-208327171D01*
X115744172Y-208254600D01*
X115889315Y-208182029D01*
X116832744Y-208182029D02*
X117340744Y-209706029D01*
X117848744Y-208182029D01*
D15*
X263219596Y-110251119D02*
X263219596Y-109235119D01*
X263461501Y-109235119D01*
X263606643Y-109283500D01*
X263703405Y-109380262D01*
X263751786Y-109477024D01*
X263800167Y-109670548D01*
X263800167Y-109815690D01*
X263751786Y-110009214D01*
X263703405Y-110105976D01*
X263606643Y-110202738D01*
X263461501Y-110251119D01*
X263219596Y-110251119D01*
X264767786Y-110251119D02*
X264187215Y-110251119D01*
X264477501Y-110251119D02*
X264477501Y-109235119D01*
X264380739Y-109380262D01*
X264283977Y-109477024D01*
X264187215Y-109525405D01*
X261792357Y-115331119D02*
X261211786Y-115331119D01*
X261502072Y-115331119D02*
X261502072Y-114315119D01*
X261405310Y-114460262D01*
X261308548Y-114557024D01*
X261211786Y-114605405D01*
X262227786Y-115331119D02*
X262227786Y-114315119D01*
X262808357Y-115331119D01*
X262808357Y-114315119D01*
X263727595Y-114653786D02*
X263727595Y-115331119D01*
X263485691Y-114266738D02*
X263243786Y-114992452D01*
X263872738Y-114992452D01*
X264453310Y-114315119D02*
X264550071Y-114315119D01*
X264646833Y-114363500D01*
X264695214Y-114411881D01*
X264743595Y-114508643D01*
X264791976Y-114702167D01*
X264791976Y-114944071D01*
X264743595Y-115137595D01*
X264695214Y-115234357D01*
X264646833Y-115282738D01*
X264550071Y-115331119D01*
X264453310Y-115331119D01*
X264356548Y-115282738D01*
X264308167Y-115234357D01*
X264259786Y-115137595D01*
X264211405Y-114944071D01*
X264211405Y-114702167D01*
X264259786Y-114508643D01*
X264308167Y-114411881D01*
X264356548Y-114363500D01*
X264453310Y-114315119D01*
X265420929Y-114315119D02*
X265517690Y-114315119D01*
X265614452Y-114363500D01*
X265662833Y-114411881D01*
X265711214Y-114508643D01*
X265759595Y-114702167D01*
X265759595Y-114944071D01*
X265711214Y-115137595D01*
X265662833Y-115234357D01*
X265614452Y-115282738D01*
X265517690Y-115331119D01*
X265420929Y-115331119D01*
X265324167Y-115282738D01*
X265275786Y-115234357D01*
X265227405Y-115137595D01*
X265179024Y-114944071D01*
X265179024Y-114702167D01*
X265227405Y-114508643D01*
X265275786Y-114411881D01*
X265324167Y-114363500D01*
X265420929Y-114315119D01*
X266098262Y-114315119D02*
X266775595Y-114315119D01*
X266340167Y-115331119D01*
D18*
X264544024Y-131556881D02*
X263274024Y-131556881D01*
X264544024Y-130831167D02*
X263818310Y-131375452D01*
X263274024Y-130831167D02*
X263999738Y-131556881D01*
X264544024Y-129621643D02*
X264544024Y-130347357D01*
X264544024Y-129984500D02*
X263274024Y-129984500D01*
X263455452Y-130105452D01*
X263576405Y-130226405D01*
X263636881Y-130347357D01*
X263461500Y-122896690D02*
X263401024Y-123017642D01*
X263401024Y-123199071D01*
X263461500Y-123380499D01*
X263582452Y-123501452D01*
X263703405Y-123561928D01*
X263945310Y-123622404D01*
X264126738Y-123622404D01*
X264368643Y-123561928D01*
X264489595Y-123501452D01*
X264610548Y-123380499D01*
X264671024Y-123199071D01*
X264671024Y-123078119D01*
X264610548Y-122896690D01*
X264550071Y-122836214D01*
X264126738Y-122836214D01*
X264126738Y-123078119D01*
X263401024Y-121687166D02*
X263401024Y-122291928D01*
X264005786Y-122352404D01*
X263945310Y-122291928D01*
X263884833Y-122170976D01*
X263884833Y-121868595D01*
X263945310Y-121747642D01*
X264005786Y-121687166D01*
X264126738Y-121626690D01*
X264429119Y-121626690D01*
X264550071Y-121687166D01*
X264610548Y-121747642D01*
X264671024Y-121868595D01*
X264671024Y-122170976D01*
X264610548Y-122291928D01*
X264550071Y-122352404D01*
X263401024Y-121263833D02*
X264671024Y-120840499D01*
X263401024Y-120417166D01*
X263521976Y-120054309D02*
X263461500Y-119993833D01*
X263401024Y-119872881D01*
X263401024Y-119570500D01*
X263461500Y-119449547D01*
X263521976Y-119389071D01*
X263642929Y-119328595D01*
X263763881Y-119328595D01*
X263945310Y-119389071D01*
X264671024Y-120114785D01*
X264671024Y-119328595D01*
D17*
X251568857Y-101881819D02*
X251230191Y-101398010D01*
X250988286Y-101881819D02*
X250988286Y-100865819D01*
X251375333Y-100865819D01*
X251472095Y-100914200D01*
X251520476Y-100962581D01*
X251568857Y-101059343D01*
X251568857Y-101204486D01*
X251520476Y-101301248D01*
X251472095Y-101349629D01*
X251375333Y-101398010D01*
X250988286Y-101398010D01*
X252488095Y-101881819D02*
X252004286Y-101881819D01*
X252004286Y-100865819D01*
X253020286Y-101398010D02*
X253020286Y-101881819D01*
X252681619Y-100865819D02*
X253020286Y-101398010D01*
X253358952Y-100865819D01*
X253697619Y-101494771D02*
X254471714Y-101494771D01*
X254084666Y-101881819D02*
X254084666Y-101107724D01*
X261246257Y-101805619D02*
X260907591Y-101321810D01*
X260665686Y-101805619D02*
X260665686Y-100789619D01*
X261052733Y-100789619D01*
X261149495Y-100838000D01*
X261197876Y-100886381D01*
X261246257Y-100983143D01*
X261246257Y-101128286D01*
X261197876Y-101225048D01*
X261149495Y-101273429D01*
X261052733Y-101321810D01*
X260665686Y-101321810D01*
X262165495Y-101805619D02*
X261681686Y-101805619D01*
X261681686Y-100789619D01*
X262697686Y-101321810D02*
X262697686Y-101805619D01*
X262359019Y-100789619D02*
X262697686Y-101321810D01*
X263036352Y-100789619D01*
X263375019Y-101418571D02*
X264149114Y-101418571D01*
X264088638Y-141456229D02*
X263749972Y-141456229D01*
X263749972Y-141988419D02*
X263749972Y-140972419D01*
X264233781Y-140972419D01*
X265201400Y-141988419D02*
X264862734Y-141504610D01*
X264620829Y-141988419D02*
X264620829Y-140972419D01*
X265007876Y-140972419D01*
X265104638Y-141020800D01*
X265153019Y-141069181D01*
X265201400Y-141165943D01*
X265201400Y-141311086D01*
X265153019Y-141407848D01*
X265104638Y-141456229D01*
X265007876Y-141504610D01*
X264620829Y-141504610D01*
X265830353Y-140972419D02*
X266023876Y-140972419D01*
X266120638Y-141020800D01*
X266217400Y-141117562D01*
X266265781Y-141311086D01*
X266265781Y-141649752D01*
X266217400Y-141843276D01*
X266120638Y-141940038D01*
X266023876Y-141988419D01*
X265830353Y-141988419D01*
X265733591Y-141940038D01*
X265636829Y-141843276D01*
X265588448Y-141649752D01*
X265588448Y-141311086D01*
X265636829Y-141117562D01*
X265733591Y-141020800D01*
X265830353Y-140972419D01*
X266701210Y-141988419D02*
X266701210Y-140972419D01*
X267039876Y-141698133D01*
X267378543Y-140972419D01*
X267378543Y-141988419D01*
X269120257Y-141988419D02*
X268636448Y-141988419D01*
X268636448Y-140972419D01*
X269458924Y-141988419D02*
X269458924Y-140972419D01*
X269700829Y-140972419D01*
X269845971Y-141020800D01*
X269942733Y-141117562D01*
X269991114Y-141214324D01*
X270039495Y-141407848D01*
X270039495Y-141552990D01*
X269991114Y-141746514D01*
X269942733Y-141843276D01*
X269845971Y-141940038D01*
X269700829Y-141988419D01*
X269458924Y-141988419D01*
X271249019Y-141456229D02*
X271587685Y-141456229D01*
X271732828Y-141988419D02*
X271249019Y-141988419D01*
X271249019Y-140972419D01*
X271732828Y-140972419D01*
X272845590Y-142085181D02*
X272748828Y-142036800D01*
X272652066Y-141940038D01*
X272506923Y-141794895D01*
X272410162Y-141746514D01*
X272313400Y-141746514D01*
X272361781Y-141988419D02*
X272265019Y-141940038D01*
X272168257Y-141843276D01*
X272119876Y-141649752D01*
X272119876Y-141311086D01*
X272168257Y-141117562D01*
X272265019Y-141020800D01*
X272361781Y-140972419D01*
X272555304Y-140972419D01*
X272652066Y-141020800D01*
X272748828Y-141117562D01*
X272797209Y-141311086D01*
X272797209Y-141649752D01*
X272748828Y-141843276D01*
X272652066Y-141940038D01*
X272555304Y-141988419D01*
X272361781Y-141988419D01*
X151471086Y-108358819D02*
X151471086Y-109181295D01*
X151519467Y-109278057D01*
X151567848Y-109326438D01*
X151664610Y-109374819D01*
X151858133Y-109374819D01*
X151954895Y-109326438D01*
X152003276Y-109278057D01*
X152051657Y-109181295D01*
X152051657Y-108358819D01*
X152970895Y-108697486D02*
X152970895Y-109519962D01*
X152922514Y-109616724D01*
X152874133Y-109665105D01*
X152777372Y-109713486D01*
X152632229Y-109713486D01*
X152535467Y-109665105D01*
X152970895Y-109326438D02*
X152874133Y-109374819D01*
X152680610Y-109374819D01*
X152583848Y-109326438D01*
X152535467Y-109278057D01*
X152487086Y-109181295D01*
X152487086Y-108891010D01*
X152535467Y-108794248D01*
X152583848Y-108745867D01*
X152680610Y-108697486D01*
X152874133Y-108697486D01*
X152970895Y-108745867D01*
X153406324Y-108455581D02*
X153454705Y-108407200D01*
X153551467Y-108358819D01*
X153793371Y-108358819D01*
X153890133Y-108407200D01*
X153938514Y-108455581D01*
X153986895Y-108552343D01*
X153986895Y-108649105D01*
X153938514Y-108794248D01*
X153357943Y-109374819D01*
X153986895Y-109374819D01*
D15*
X213387333Y-161301576D02*
X212964000Y-160636338D01*
X212661619Y-161301576D02*
X212661619Y-159904576D01*
X213145428Y-159904576D01*
X213266381Y-159971100D01*
X213326857Y-160037624D01*
X213387333Y-160170671D01*
X213387333Y-160370243D01*
X213326857Y-160503290D01*
X213266381Y-160569814D01*
X213145428Y-160636338D01*
X212661619Y-160636338D01*
X213871143Y-160037624D02*
X213931619Y-159971100D01*
X214052571Y-159904576D01*
X214354952Y-159904576D01*
X214475905Y-159971100D01*
X214536381Y-160037624D01*
X214596857Y-160170671D01*
X214596857Y-160303719D01*
X214536381Y-160503290D01*
X213810667Y-161301576D01*
X214596857Y-161301576D01*
X212716048Y-163801576D02*
X211990334Y-163801576D01*
X212353191Y-163801576D02*
X212353191Y-162404576D01*
X212232239Y-162604148D01*
X212111286Y-162737195D01*
X211990334Y-162803719D01*
X213502239Y-162404576D02*
X213623191Y-162404576D01*
X213744143Y-162471100D01*
X213804620Y-162537624D01*
X213865096Y-162670671D01*
X213925572Y-162936767D01*
X213925572Y-163269386D01*
X213865096Y-163535481D01*
X213804620Y-163668529D01*
X213744143Y-163735052D01*
X213623191Y-163801576D01*
X213502239Y-163801576D01*
X213381286Y-163735052D01*
X213320810Y-163668529D01*
X213260334Y-163535481D01*
X213199858Y-163269386D01*
X213199858Y-162936767D01*
X213260334Y-162670671D01*
X213320810Y-162537624D01*
X213381286Y-162471100D01*
X213502239Y-162404576D01*
X214469858Y-163801576D02*
X214469858Y-162404576D01*
X214590810Y-163269386D02*
X214953667Y-163801576D01*
X214953667Y-162870243D02*
X214469858Y-163402433D01*
X138609733Y-153920976D02*
X138186400Y-153255738D01*
X137884019Y-153920976D02*
X137884019Y-152523976D01*
X138367828Y-152523976D01*
X138488781Y-152590500D01*
X138549257Y-152657024D01*
X138609733Y-152790071D01*
X138609733Y-152989643D01*
X138549257Y-153122690D01*
X138488781Y-153189214D01*
X138367828Y-153255738D01*
X137884019Y-153255738D01*
X139698305Y-152989643D02*
X139698305Y-153920976D01*
X139395924Y-152457452D02*
X139093543Y-153455310D01*
X139879733Y-153455310D01*
X138065448Y-156079976D02*
X137339734Y-156079976D01*
X137702591Y-156079976D02*
X137702591Y-154682976D01*
X137581639Y-154882548D01*
X137460686Y-155015595D01*
X137339734Y-155082119D01*
X138851639Y-154682976D02*
X138972591Y-154682976D01*
X139093543Y-154749500D01*
X139154020Y-154816024D01*
X139214496Y-154949071D01*
X139274972Y-155215167D01*
X139274972Y-155547786D01*
X139214496Y-155813881D01*
X139154020Y-155946929D01*
X139093543Y-156013452D01*
X138972591Y-156079976D01*
X138851639Y-156079976D01*
X138730686Y-156013452D01*
X138670210Y-155946929D01*
X138609734Y-155813881D01*
X138549258Y-155547786D01*
X138549258Y-155215167D01*
X138609734Y-154949071D01*
X138670210Y-154816024D01*
X138730686Y-154749500D01*
X138851639Y-154682976D01*
X139819258Y-156079976D02*
X139819258Y-154682976D01*
X139940210Y-155547786D02*
X140303067Y-156079976D01*
X140303067Y-155148643D02*
X139819258Y-155680833D01*
X260074833Y-163231976D02*
X259651500Y-162566738D01*
X259349119Y-163231976D02*
X259349119Y-161834976D01*
X259832928Y-161834976D01*
X259953881Y-161901500D01*
X260014357Y-161968024D01*
X260074833Y-162101071D01*
X260074833Y-162300643D01*
X260014357Y-162433690D01*
X259953881Y-162500214D01*
X259832928Y-162566738D01*
X259349119Y-162566738D01*
X261163405Y-161834976D02*
X260921500Y-161834976D01*
X260800548Y-161901500D01*
X260740071Y-161968024D01*
X260619119Y-162167595D01*
X260558643Y-162433690D01*
X260558643Y-162965881D01*
X260619119Y-163098929D01*
X260679595Y-163165452D01*
X260800548Y-163231976D01*
X261042452Y-163231976D01*
X261163405Y-163165452D01*
X261223881Y-163098929D01*
X261284357Y-162965881D01*
X261284357Y-162633262D01*
X261223881Y-162500214D01*
X261163405Y-162433690D01*
X261042452Y-162367167D01*
X260800548Y-162367167D01*
X260679595Y-162433690D01*
X260619119Y-162500214D01*
X260558643Y-162633262D01*
X258339772Y-164518824D02*
X258400248Y-164452300D01*
X258521200Y-164385776D01*
X258823581Y-164385776D01*
X258944534Y-164452300D01*
X259005010Y-164518824D01*
X259065486Y-164651871D01*
X259065486Y-164784919D01*
X259005010Y-164984490D01*
X258279296Y-165782776D01*
X259065486Y-165782776D01*
X259549296Y-164518824D02*
X259609772Y-164452300D01*
X259730724Y-164385776D01*
X260033105Y-164385776D01*
X260154058Y-164452300D01*
X260214534Y-164518824D01*
X260275010Y-164651871D01*
X260275010Y-164784919D01*
X260214534Y-164984490D01*
X259488820Y-165782776D01*
X260275010Y-165782776D01*
X261061201Y-164385776D02*
X261182153Y-164385776D01*
X261303105Y-164452300D01*
X261363582Y-164518824D01*
X261424058Y-164651871D01*
X261484534Y-164917967D01*
X261484534Y-165250586D01*
X261424058Y-165516681D01*
X261363582Y-165649729D01*
X261303105Y-165716252D01*
X261182153Y-165782776D01*
X261061201Y-165782776D01*
X260940248Y-165716252D01*
X260879772Y-165649729D01*
X260819296Y-165516681D01*
X260758820Y-165250586D01*
X260758820Y-164917967D01*
X260819296Y-164651871D01*
X260879772Y-164518824D01*
X260940248Y-164452300D01*
X261061201Y-164385776D01*
X262028820Y-165782776D02*
X262028820Y-164385776D01*
X262149772Y-165250586D02*
X262512629Y-165782776D01*
X262512629Y-164851443D02*
X262028820Y-165383633D01*
X235948376Y-125179667D02*
X235283138Y-125603000D01*
X235948376Y-125905381D02*
X234551376Y-125905381D01*
X234551376Y-125421572D01*
X234617900Y-125300619D01*
X234684424Y-125240143D01*
X234817471Y-125179667D01*
X235017043Y-125179667D01*
X235150090Y-125240143D01*
X235216614Y-125300619D01*
X235283138Y-125421572D01*
X235283138Y-125905381D01*
X235150090Y-124453952D02*
X235083567Y-124574905D01*
X235017043Y-124635381D01*
X234883995Y-124695857D01*
X234817471Y-124695857D01*
X234684424Y-124635381D01*
X234617900Y-124574905D01*
X234551376Y-124453952D01*
X234551376Y-124212048D01*
X234617900Y-124091095D01*
X234684424Y-124030619D01*
X234817471Y-123970143D01*
X234883995Y-123970143D01*
X235017043Y-124030619D01*
X235083567Y-124091095D01*
X235150090Y-124212048D01*
X235150090Y-124453952D01*
X235216614Y-124574905D01*
X235283138Y-124635381D01*
X235416186Y-124695857D01*
X235682281Y-124695857D01*
X235815329Y-124635381D01*
X235881852Y-124574905D01*
X235948376Y-124453952D01*
X235948376Y-124212048D01*
X235881852Y-124091095D01*
X235815329Y-124030619D01*
X235682281Y-123970143D01*
X235416186Y-123970143D01*
X235283138Y-124030619D01*
X235216614Y-124091095D01*
X235150090Y-124212048D01*
X233448376Y-125330857D02*
X233448376Y-126056571D01*
X233448376Y-125693714D02*
X232051376Y-125693714D01*
X232250948Y-125814666D01*
X232383995Y-125935619D01*
X232450519Y-126056571D01*
X233448376Y-124786571D02*
X232051376Y-124786571D01*
X233049233Y-124363238D01*
X232051376Y-123939904D01*
X233448376Y-123939904D01*
X242958776Y-129955829D02*
X242293538Y-130379162D01*
X242958776Y-130681543D02*
X241561776Y-130681543D01*
X241561776Y-130197734D01*
X241628300Y-130076781D01*
X241694824Y-130016305D01*
X241827871Y-129955829D01*
X242027443Y-129955829D01*
X242160490Y-130016305D01*
X242227014Y-130076781D01*
X242293538Y-130197734D01*
X242293538Y-130681543D01*
X242958776Y-128746305D02*
X242958776Y-129472019D01*
X242958776Y-129109162D02*
X241561776Y-129109162D01*
X241761348Y-129230114D01*
X241894395Y-129351067D01*
X241960919Y-129472019D01*
X242958776Y-127536781D02*
X242958776Y-128262495D01*
X242958776Y-127899638D02*
X241561776Y-127899638D01*
X241761348Y-128020590D01*
X241894395Y-128141543D01*
X241960919Y-128262495D01*
X240585776Y-130373114D02*
X240585776Y-130131209D01*
X240519252Y-130010257D01*
X240452729Y-129949781D01*
X240253157Y-129828828D01*
X239987062Y-129768352D01*
X239454871Y-129768352D01*
X239321824Y-129828828D01*
X239255300Y-129889304D01*
X239188776Y-130010257D01*
X239188776Y-130252161D01*
X239255300Y-130373114D01*
X239321824Y-130433590D01*
X239454871Y-130494066D01*
X239787490Y-130494066D01*
X239920538Y-130433590D01*
X239987062Y-130373114D01*
X240053586Y-130252161D01*
X240053586Y-130010257D01*
X239987062Y-129889304D01*
X239920538Y-129828828D01*
X239787490Y-129768352D01*
X240585776Y-128558828D02*
X240585776Y-129284542D01*
X240585776Y-128921685D02*
X239188776Y-128921685D01*
X239388348Y-129042637D01*
X239521395Y-129163590D01*
X239587919Y-129284542D01*
X240585776Y-128014542D02*
X239188776Y-128014542D01*
X240053586Y-127893590D02*
X240585776Y-127530733D01*
X239654443Y-127530733D02*
X240186633Y-128014542D01*
X224100571Y-181708576D02*
X223677238Y-181043338D01*
X223374857Y-181708576D02*
X223374857Y-180311576D01*
X223858666Y-180311576D01*
X223979619Y-180378100D01*
X224040095Y-180444624D01*
X224100571Y-180577671D01*
X224100571Y-180777243D01*
X224040095Y-180910290D01*
X223979619Y-180976814D01*
X223858666Y-181043338D01*
X223374857Y-181043338D01*
X225310095Y-181708576D02*
X224584381Y-181708576D01*
X224947238Y-181708576D02*
X224947238Y-180311576D01*
X224826286Y-180511148D01*
X224705333Y-180644195D01*
X224584381Y-180710719D01*
X225733429Y-180311576D02*
X226519619Y-180311576D01*
X226096286Y-180843767D01*
X226277714Y-180843767D01*
X226398667Y-180910290D01*
X226459143Y-180976814D01*
X226519619Y-181109862D01*
X226519619Y-181442481D01*
X226459143Y-181575529D01*
X226398667Y-181642052D01*
X226277714Y-181708576D01*
X225914857Y-181708576D01*
X225793905Y-181642052D01*
X225733429Y-181575529D01*
X222551776Y-185917114D02*
X222551776Y-186642828D01*
X222551776Y-186279971D02*
X221154776Y-186279971D01*
X221354348Y-186400923D01*
X221487395Y-186521876D01*
X221553919Y-186642828D01*
X221154776Y-185130923D02*
X221154776Y-185009971D01*
X221221300Y-184889019D01*
X221287824Y-184828542D01*
X221420871Y-184768066D01*
X221686967Y-184707590D01*
X222019586Y-184707590D01*
X222285681Y-184768066D01*
X222418729Y-184828542D01*
X222485252Y-184889019D01*
X222551776Y-185009971D01*
X222551776Y-185130923D01*
X222485252Y-185251876D01*
X222418729Y-185312352D01*
X222285681Y-185372828D01*
X222019586Y-185433304D01*
X221686967Y-185433304D01*
X221420871Y-185372828D01*
X221287824Y-185312352D01*
X221221300Y-185251876D01*
X221154776Y-185130923D01*
X221154776Y-183921399D02*
X221154776Y-183800447D01*
X221221300Y-183679495D01*
X221287824Y-183619018D01*
X221420871Y-183558542D01*
X221686967Y-183498066D01*
X222019586Y-183498066D01*
X222285681Y-183558542D01*
X222418729Y-183619018D01*
X222485252Y-183679495D01*
X222551776Y-183800447D01*
X222551776Y-183921399D01*
X222485252Y-184042352D01*
X222418729Y-184102828D01*
X222285681Y-184163304D01*
X222019586Y-184223780D01*
X221686967Y-184223780D01*
X221420871Y-184163304D01*
X221287824Y-184102828D01*
X221221300Y-184042352D01*
X221154776Y-183921399D01*
X222551776Y-182953780D02*
X221154776Y-182953780D01*
X222019586Y-182832828D02*
X222551776Y-182469971D01*
X221620443Y-182469971D02*
X222152633Y-182953780D01*
X208200776Y-199977829D02*
X207535538Y-200401162D01*
X208200776Y-200703543D02*
X206803776Y-200703543D01*
X206803776Y-200219734D01*
X206870300Y-200098781D01*
X206936824Y-200038305D01*
X207069871Y-199977829D01*
X207269443Y-199977829D01*
X207402490Y-200038305D01*
X207469014Y-200098781D01*
X207535538Y-200219734D01*
X207535538Y-200703543D01*
X208200776Y-198768305D02*
X208200776Y-199494019D01*
X208200776Y-199131162D02*
X206803776Y-199131162D01*
X207003348Y-199252114D01*
X207136395Y-199373067D01*
X207202919Y-199494019D01*
X207269443Y-197679733D02*
X208200776Y-197679733D01*
X206737252Y-197982114D02*
X207735110Y-198284495D01*
X207735110Y-197498305D01*
X209377643Y-200442166D02*
X210308976Y-200442166D01*
X208845452Y-200744547D02*
X209843310Y-201046928D01*
X209843310Y-200260738D01*
X208911976Y-199897880D02*
X208911976Y-199051214D01*
X210308976Y-199595499D01*
X208911976Y-198325499D02*
X208911976Y-198204547D01*
X208978500Y-198083595D01*
X209045024Y-198023118D01*
X209178071Y-197962642D01*
X209444167Y-197902166D01*
X209776786Y-197902166D01*
X210042881Y-197962642D01*
X210175929Y-198023118D01*
X210242452Y-198083595D01*
X210308976Y-198204547D01*
X210308976Y-198325499D01*
X210242452Y-198446452D01*
X210175929Y-198506928D01*
X210042881Y-198567404D01*
X209776786Y-198627880D01*
X209444167Y-198627880D01*
X209178071Y-198567404D01*
X209045024Y-198506928D01*
X208978500Y-198446452D01*
X208911976Y-198325499D01*
X210308976Y-197357880D02*
X208911976Y-197357880D01*
X209776786Y-197236928D02*
X210308976Y-196874071D01*
X209377643Y-196874071D02*
X209909833Y-197357880D01*
X226196071Y-202728976D02*
X225772738Y-202063738D01*
X225470357Y-202728976D02*
X225470357Y-201331976D01*
X225954166Y-201331976D01*
X226075119Y-201398500D01*
X226135595Y-201465024D01*
X226196071Y-201598071D01*
X226196071Y-201797643D01*
X226135595Y-201930690D01*
X226075119Y-201997214D01*
X225954166Y-202063738D01*
X225470357Y-202063738D01*
X227405595Y-202728976D02*
X226679881Y-202728976D01*
X227042738Y-202728976D02*
X227042738Y-201331976D01*
X226921786Y-201531548D01*
X226800833Y-201664595D01*
X226679881Y-201731119D01*
X228554643Y-201331976D02*
X227949881Y-201331976D01*
X227889405Y-201997214D01*
X227949881Y-201930690D01*
X228070833Y-201864167D01*
X228373214Y-201864167D01*
X228494167Y-201930690D01*
X228554643Y-201997214D01*
X228615119Y-202130262D01*
X228615119Y-202462881D01*
X228554643Y-202595929D01*
X228494167Y-202662452D01*
X228373214Y-202728976D01*
X228070833Y-202728976D01*
X227949881Y-202662452D01*
X227889405Y-202595929D01*
X226903643Y-205228976D02*
X226177929Y-205228976D01*
X226540786Y-205228976D02*
X226540786Y-203831976D01*
X226419834Y-204031548D01*
X226298881Y-204164595D01*
X226177929Y-204231119D01*
X227447929Y-205228976D02*
X227447929Y-203831976D01*
X227871262Y-204829833D01*
X228294596Y-203831976D01*
X228294596Y-205228976D01*
X196135776Y-200079429D02*
X195470538Y-200502762D01*
X196135776Y-200805143D02*
X194738776Y-200805143D01*
X194738776Y-200321334D01*
X194805300Y-200200381D01*
X194871824Y-200139905D01*
X195004871Y-200079429D01*
X195204443Y-200079429D01*
X195337490Y-200139905D01*
X195404014Y-200200381D01*
X195470538Y-200321334D01*
X195470538Y-200805143D01*
X196135776Y-198869905D02*
X196135776Y-199595619D01*
X196135776Y-199232762D02*
X194738776Y-199232762D01*
X194938348Y-199353714D01*
X195071395Y-199474667D01*
X195137919Y-199595619D01*
X194738776Y-197781333D02*
X194738776Y-198023238D01*
X194805300Y-198144190D01*
X194871824Y-198204667D01*
X195071395Y-198325619D01*
X195337490Y-198386095D01*
X195869681Y-198386095D01*
X196002729Y-198325619D01*
X196069252Y-198265143D01*
X196135776Y-198144190D01*
X196135776Y-197902286D01*
X196069252Y-197781333D01*
X196002729Y-197720857D01*
X195869681Y-197660381D01*
X195537062Y-197660381D01*
X195404014Y-197720857D01*
X195337490Y-197781333D01*
X195270967Y-197902286D01*
X195270967Y-198144190D01*
X195337490Y-198265143D01*
X195404014Y-198325619D01*
X195537062Y-198386095D01*
X196783476Y-200741642D02*
X196783476Y-199955452D01*
X197315667Y-200378785D01*
X197315667Y-200197357D01*
X197382190Y-200076404D01*
X197448714Y-200015928D01*
X197581762Y-199955452D01*
X197914381Y-199955452D01*
X198047429Y-200015928D01*
X198113952Y-200076404D01*
X198180476Y-200197357D01*
X198180476Y-200560214D01*
X198113952Y-200681166D01*
X198047429Y-200741642D01*
X198180476Y-199350690D02*
X198180476Y-199108785D01*
X198113952Y-198987833D01*
X198047429Y-198927357D01*
X197847857Y-198806404D01*
X197581762Y-198745928D01*
X197049571Y-198745928D01*
X196916524Y-198806404D01*
X196850000Y-198866880D01*
X196783476Y-198987833D01*
X196783476Y-199229737D01*
X196850000Y-199350690D01*
X196916524Y-199411166D01*
X197049571Y-199471642D01*
X197382190Y-199471642D01*
X197515238Y-199411166D01*
X197581762Y-199350690D01*
X197648286Y-199229737D01*
X197648286Y-198987833D01*
X197581762Y-198866880D01*
X197515238Y-198806404D01*
X197382190Y-198745928D01*
X198180476Y-198201642D02*
X196783476Y-198201642D01*
X197648286Y-198080690D02*
X198180476Y-197717833D01*
X197249143Y-197717833D02*
X197781333Y-198201642D01*
X287905976Y-192078429D02*
X287240738Y-192501762D01*
X287905976Y-192804143D02*
X286508976Y-192804143D01*
X286508976Y-192320334D01*
X286575500Y-192199381D01*
X286642024Y-192138905D01*
X286775071Y-192078429D01*
X286974643Y-192078429D01*
X287107690Y-192138905D01*
X287174214Y-192199381D01*
X287240738Y-192320334D01*
X287240738Y-192804143D01*
X287905976Y-190868905D02*
X287905976Y-191594619D01*
X287905976Y-191231762D02*
X286508976Y-191231762D01*
X286708548Y-191352714D01*
X286841595Y-191473667D01*
X286908119Y-191594619D01*
X286508976Y-190445571D02*
X286508976Y-189598905D01*
X287905976Y-190143190D01*
X290191976Y-192081452D02*
X290191976Y-192807166D01*
X290191976Y-192444309D02*
X288794976Y-192444309D01*
X288994548Y-192565261D01*
X289127595Y-192686214D01*
X289194119Y-192807166D01*
X288794976Y-191295261D02*
X288794976Y-191174309D01*
X288861500Y-191053357D01*
X288928024Y-190992880D01*
X289061071Y-190932404D01*
X289327167Y-190871928D01*
X289659786Y-190871928D01*
X289925881Y-190932404D01*
X290058929Y-190992880D01*
X290125452Y-191053357D01*
X290191976Y-191174309D01*
X290191976Y-191295261D01*
X290125452Y-191416214D01*
X290058929Y-191476690D01*
X289925881Y-191537166D01*
X289659786Y-191597642D01*
X289327167Y-191597642D01*
X289061071Y-191537166D01*
X288928024Y-191476690D01*
X288861500Y-191416214D01*
X288794976Y-191295261D01*
X290191976Y-190327642D02*
X288794976Y-190327642D01*
X289659786Y-190206690D02*
X290191976Y-189843833D01*
X289260643Y-189843833D02*
X289792833Y-190327642D01*
X174199971Y-155205576D02*
X173776638Y-154540338D01*
X173474257Y-155205576D02*
X173474257Y-153808576D01*
X173958066Y-153808576D01*
X174079019Y-153875100D01*
X174139495Y-153941624D01*
X174199971Y-154074671D01*
X174199971Y-154274243D01*
X174139495Y-154407290D01*
X174079019Y-154473814D01*
X173958066Y-154540338D01*
X173474257Y-154540338D01*
X175409495Y-155205576D02*
X174683781Y-155205576D01*
X175046638Y-155205576D02*
X175046638Y-153808576D01*
X174925686Y-154008148D01*
X174804733Y-154141195D01*
X174683781Y-154207719D01*
X176135210Y-154407290D02*
X176014257Y-154340767D01*
X175953781Y-154274243D01*
X175893305Y-154141195D01*
X175893305Y-154074671D01*
X175953781Y-153941624D01*
X176014257Y-153875100D01*
X176135210Y-153808576D01*
X176377114Y-153808576D01*
X176498067Y-153875100D01*
X176558543Y-153941624D01*
X176619019Y-154074671D01*
X176619019Y-154141195D01*
X176558543Y-154274243D01*
X176498067Y-154340767D01*
X176377114Y-154407290D01*
X176135210Y-154407290D01*
X176014257Y-154473814D01*
X175953781Y-154540338D01*
X175893305Y-154673386D01*
X175893305Y-154939481D01*
X175953781Y-155072529D01*
X176014257Y-155139052D01*
X176135210Y-155205576D01*
X176377114Y-155205576D01*
X176498067Y-155139052D01*
X176558543Y-155072529D01*
X176619019Y-154939481D01*
X176619019Y-154673386D01*
X176558543Y-154540338D01*
X176498067Y-154473814D01*
X176377114Y-154407290D01*
X173401686Y-157705576D02*
X172675972Y-157705576D01*
X173038829Y-157705576D02*
X173038829Y-156308576D01*
X172917877Y-156508148D01*
X172796924Y-156641195D01*
X172675972Y-156707719D01*
X174187877Y-156308576D02*
X174308829Y-156308576D01*
X174429781Y-156375100D01*
X174490258Y-156441624D01*
X174550734Y-156574671D01*
X174611210Y-156840767D01*
X174611210Y-157173386D01*
X174550734Y-157439481D01*
X174490258Y-157572529D01*
X174429781Y-157639052D01*
X174308829Y-157705576D01*
X174187877Y-157705576D01*
X174066924Y-157639052D01*
X174006448Y-157572529D01*
X173945972Y-157439481D01*
X173885496Y-157173386D01*
X173885496Y-156840767D01*
X173945972Y-156574671D01*
X174006448Y-156441624D01*
X174066924Y-156375100D01*
X174187877Y-156308576D01*
X175397401Y-156308576D02*
X175518353Y-156308576D01*
X175639305Y-156375100D01*
X175699782Y-156441624D01*
X175760258Y-156574671D01*
X175820734Y-156840767D01*
X175820734Y-157173386D01*
X175760258Y-157439481D01*
X175699782Y-157572529D01*
X175639305Y-157639052D01*
X175518353Y-157705576D01*
X175397401Y-157705576D01*
X175276448Y-157639052D01*
X175215972Y-157572529D01*
X175155496Y-157439481D01*
X175095020Y-157173386D01*
X175095020Y-156840767D01*
X175155496Y-156574671D01*
X175215972Y-156441624D01*
X175276448Y-156375100D01*
X175397401Y-156308576D01*
X176365020Y-157705576D02*
X176365020Y-156308576D01*
X176485972Y-157173386D02*
X176848829Y-157705576D01*
X176848829Y-156774243D02*
X176365020Y-157306433D01*
X297735776Y-186033229D02*
X297070538Y-186456562D01*
X297735776Y-186758943D02*
X296338776Y-186758943D01*
X296338776Y-186275134D01*
X296405300Y-186154181D01*
X296471824Y-186093705D01*
X296604871Y-186033229D01*
X296804443Y-186033229D01*
X296937490Y-186093705D01*
X297004014Y-186154181D01*
X297070538Y-186275134D01*
X297070538Y-186758943D01*
X297735776Y-184823705D02*
X297735776Y-185549419D01*
X297735776Y-185186562D02*
X296338776Y-185186562D01*
X296538348Y-185307514D01*
X296671395Y-185428467D01*
X296737919Y-185549419D01*
X297735776Y-184218943D02*
X297735776Y-183977038D01*
X297669252Y-183856086D01*
X297602729Y-183795610D01*
X297403157Y-183674657D01*
X297137062Y-183614181D01*
X296604871Y-183614181D01*
X296471824Y-183674657D01*
X296405300Y-183735133D01*
X296338776Y-183856086D01*
X296338776Y-184097990D01*
X296405300Y-184218943D01*
X296471824Y-184279419D01*
X296604871Y-184339895D01*
X296937490Y-184339895D01*
X297070538Y-184279419D01*
X297137062Y-184218943D01*
X297203586Y-184097990D01*
X297203586Y-183856086D01*
X297137062Y-183735133D01*
X297070538Y-183674657D01*
X296937490Y-183614181D01*
X295551376Y-186399714D02*
X295551376Y-187125428D01*
X295551376Y-186762571D02*
X294154376Y-186762571D01*
X294353948Y-186883523D01*
X294486995Y-187004476D01*
X294553519Y-187125428D01*
X294154376Y-185613523D02*
X294154376Y-185492571D01*
X294220900Y-185371619D01*
X294287424Y-185311142D01*
X294420471Y-185250666D01*
X294686567Y-185190190D01*
X295019186Y-185190190D01*
X295285281Y-185250666D01*
X295418329Y-185311142D01*
X295484852Y-185371619D01*
X295551376Y-185492571D01*
X295551376Y-185613523D01*
X295484852Y-185734476D01*
X295418329Y-185794952D01*
X295285281Y-185855428D01*
X295019186Y-185915904D01*
X294686567Y-185915904D01*
X294420471Y-185855428D01*
X294287424Y-185794952D01*
X294220900Y-185734476D01*
X294154376Y-185613523D01*
X294154376Y-184403999D02*
X294154376Y-184283047D01*
X294220900Y-184162095D01*
X294287424Y-184101618D01*
X294420471Y-184041142D01*
X294686567Y-183980666D01*
X295019186Y-183980666D01*
X295285281Y-184041142D01*
X295418329Y-184101618D01*
X295484852Y-184162095D01*
X295551376Y-184283047D01*
X295551376Y-184403999D01*
X295484852Y-184524952D01*
X295418329Y-184585428D01*
X295285281Y-184645904D01*
X295019186Y-184706380D01*
X294686567Y-184706380D01*
X294420471Y-184645904D01*
X294287424Y-184585428D01*
X294220900Y-184524952D01*
X294154376Y-184403999D01*
X295551376Y-183436380D02*
X294154376Y-183436380D01*
X295019186Y-183315428D02*
X295551376Y-182952571D01*
X294620043Y-182952571D02*
X295152233Y-183436380D01*
X304047071Y-201712976D02*
X303623738Y-201047738D01*
X303321357Y-201712976D02*
X303321357Y-200315976D01*
X303805166Y-200315976D01*
X303926119Y-200382500D01*
X303986595Y-200449024D01*
X304047071Y-200582071D01*
X304047071Y-200781643D01*
X303986595Y-200914690D01*
X303926119Y-200981214D01*
X303805166Y-201047738D01*
X303321357Y-201047738D01*
X304530881Y-200449024D02*
X304591357Y-200382500D01*
X304712309Y-200315976D01*
X305014690Y-200315976D01*
X305135643Y-200382500D01*
X305196119Y-200449024D01*
X305256595Y-200582071D01*
X305256595Y-200715119D01*
X305196119Y-200914690D01*
X304470405Y-201712976D01*
X305256595Y-201712976D01*
X306466119Y-201712976D02*
X305740405Y-201712976D01*
X306103262Y-201712976D02*
X306103262Y-200315976D01*
X305982310Y-200515548D01*
X305861357Y-200648595D01*
X305740405Y-200715119D01*
X302867786Y-202949024D02*
X302928262Y-202882500D01*
X303049214Y-202815976D01*
X303351595Y-202815976D01*
X303472548Y-202882500D01*
X303533024Y-202949024D01*
X303593500Y-203082071D01*
X303593500Y-203215119D01*
X303533024Y-203414690D01*
X302807310Y-204212976D01*
X303593500Y-204212976D01*
X304137786Y-204079929D02*
X304198262Y-204146452D01*
X304137786Y-204212976D01*
X304077310Y-204146452D01*
X304137786Y-204079929D01*
X304137786Y-204212976D01*
X304682072Y-202949024D02*
X304742548Y-202882500D01*
X304863500Y-202815976D01*
X305165881Y-202815976D01*
X305286834Y-202882500D01*
X305347310Y-202949024D01*
X305407786Y-203082071D01*
X305407786Y-203215119D01*
X305347310Y-203414690D01*
X304621596Y-204212976D01*
X305407786Y-204212976D01*
X305952072Y-204212976D02*
X305952072Y-202815976D01*
X306375405Y-203813833D01*
X306798739Y-202815976D01*
X306798739Y-204212976D01*
X153489176Y-188903429D02*
X152823938Y-189326762D01*
X153489176Y-189629143D02*
X152092176Y-189629143D01*
X152092176Y-189145334D01*
X152158700Y-189024381D01*
X152225224Y-188963905D01*
X152358271Y-188903429D01*
X152557843Y-188903429D01*
X152690890Y-188963905D01*
X152757414Y-189024381D01*
X152823938Y-189145334D01*
X152823938Y-189629143D01*
X152225224Y-188419619D02*
X152158700Y-188359143D01*
X152092176Y-188238191D01*
X152092176Y-187935810D01*
X152158700Y-187814857D01*
X152225224Y-187754381D01*
X152358271Y-187693905D01*
X152491319Y-187693905D01*
X152690890Y-187754381D01*
X153489176Y-188480095D01*
X153489176Y-187693905D01*
X152557843Y-186605333D02*
X153489176Y-186605333D01*
X152025652Y-186907714D02*
X153023510Y-187210095D01*
X153023510Y-186423905D01*
X149990024Y-187176228D02*
X149923500Y-187115752D01*
X149856976Y-186994800D01*
X149856976Y-186692419D01*
X149923500Y-186571466D01*
X149990024Y-186510990D01*
X150123071Y-186450514D01*
X150256119Y-186450514D01*
X150455690Y-186510990D01*
X151253976Y-187236704D01*
X151253976Y-186450514D01*
X149990024Y-185966704D02*
X149923500Y-185906228D01*
X149856976Y-185785276D01*
X149856976Y-185482895D01*
X149923500Y-185361942D01*
X149990024Y-185301466D01*
X150123071Y-185240990D01*
X150256119Y-185240990D01*
X150455690Y-185301466D01*
X151253976Y-186027180D01*
X151253976Y-185240990D01*
X149856976Y-184454799D02*
X149856976Y-184333847D01*
X149923500Y-184212895D01*
X149990024Y-184152418D01*
X150123071Y-184091942D01*
X150389167Y-184031466D01*
X150721786Y-184031466D01*
X150987881Y-184091942D01*
X151120929Y-184152418D01*
X151187452Y-184212895D01*
X151253976Y-184333847D01*
X151253976Y-184454799D01*
X151187452Y-184575752D01*
X151120929Y-184636228D01*
X150987881Y-184696704D01*
X150721786Y-184757180D01*
X150389167Y-184757180D01*
X150123071Y-184696704D01*
X149990024Y-184636228D01*
X149923500Y-184575752D01*
X149856976Y-184454799D01*
X151253976Y-183487180D02*
X149856976Y-183487180D01*
X150721786Y-183366228D02*
X151253976Y-183003371D01*
X150322643Y-183003371D02*
X150854833Y-183487180D01*
X134428376Y-201019229D02*
X133763138Y-201442562D01*
X134428376Y-201744943D02*
X133031376Y-201744943D01*
X133031376Y-201261134D01*
X133097900Y-201140181D01*
X133164424Y-201079705D01*
X133297471Y-201019229D01*
X133497043Y-201019229D01*
X133630090Y-201079705D01*
X133696614Y-201140181D01*
X133763138Y-201261134D01*
X133763138Y-201744943D01*
X133164424Y-200535419D02*
X133097900Y-200474943D01*
X133031376Y-200353991D01*
X133031376Y-200051610D01*
X133097900Y-199930657D01*
X133164424Y-199870181D01*
X133297471Y-199809705D01*
X133430519Y-199809705D01*
X133630090Y-199870181D01*
X134428376Y-200595895D01*
X134428376Y-199809705D01*
X133031376Y-198660657D02*
X133031376Y-199265419D01*
X133696614Y-199325895D01*
X133630090Y-199265419D01*
X133563567Y-199144467D01*
X133563567Y-198842086D01*
X133630090Y-198721133D01*
X133696614Y-198660657D01*
X133829662Y-198600181D01*
X134162281Y-198600181D01*
X134295329Y-198660657D01*
X134361852Y-198721133D01*
X134428376Y-198842086D01*
X134428376Y-199144467D01*
X134361852Y-199265419D01*
X134295329Y-199325895D01*
X136953776Y-200641857D02*
X136953776Y-201367571D01*
X136953776Y-201004714D02*
X135556776Y-201004714D01*
X135756348Y-201125666D01*
X135889395Y-201246619D01*
X135955919Y-201367571D01*
X136953776Y-200097571D02*
X135556776Y-200097571D01*
X136554633Y-199674238D01*
X135556776Y-199250904D01*
X136953776Y-199250904D01*
X155850771Y-201444376D02*
X155427438Y-200779138D01*
X155125057Y-201444376D02*
X155125057Y-200047376D01*
X155608866Y-200047376D01*
X155729819Y-200113900D01*
X155790295Y-200180424D01*
X155850771Y-200313471D01*
X155850771Y-200513043D01*
X155790295Y-200646090D01*
X155729819Y-200712614D01*
X155608866Y-200779138D01*
X155125057Y-200779138D01*
X156334581Y-200180424D02*
X156395057Y-200113900D01*
X156516009Y-200047376D01*
X156818390Y-200047376D01*
X156939343Y-200113900D01*
X156999819Y-200180424D01*
X157060295Y-200313471D01*
X157060295Y-200446519D01*
X156999819Y-200646090D01*
X156274105Y-201444376D01*
X157060295Y-201444376D01*
X157483629Y-200047376D02*
X158330295Y-200047376D01*
X157786010Y-201444376D01*
X155514286Y-203704976D02*
X154788572Y-203704976D01*
X155151429Y-203704976D02*
X155151429Y-202307976D01*
X155030477Y-202507548D01*
X154909524Y-202640595D01*
X154788572Y-202707119D01*
X156300477Y-202307976D02*
X156421429Y-202307976D01*
X156542381Y-202374500D01*
X156602858Y-202441024D01*
X156663334Y-202574071D01*
X156723810Y-202840167D01*
X156723810Y-203172786D01*
X156663334Y-203438881D01*
X156602858Y-203571929D01*
X156542381Y-203638452D01*
X156421429Y-203704976D01*
X156300477Y-203704976D01*
X156179524Y-203638452D01*
X156119048Y-203571929D01*
X156058572Y-203438881D01*
X155998096Y-203172786D01*
X155998096Y-202840167D01*
X156058572Y-202574071D01*
X156119048Y-202441024D01*
X156179524Y-202374500D01*
X156300477Y-202307976D01*
X157510001Y-202307976D02*
X157630953Y-202307976D01*
X157751905Y-202374500D01*
X157812382Y-202441024D01*
X157872858Y-202574071D01*
X157933334Y-202840167D01*
X157933334Y-203172786D01*
X157872858Y-203438881D01*
X157812382Y-203571929D01*
X157751905Y-203638452D01*
X157630953Y-203704976D01*
X157510001Y-203704976D01*
X157389048Y-203638452D01*
X157328572Y-203571929D01*
X157268096Y-203438881D01*
X157207620Y-203172786D01*
X157207620Y-202840167D01*
X157268096Y-202574071D01*
X157328572Y-202441024D01*
X157389048Y-202374500D01*
X157510001Y-202307976D01*
X158477620Y-203704976D02*
X158477620Y-202307976D01*
X158598572Y-203172786D02*
X158961429Y-203704976D01*
X158961429Y-202773643D02*
X158477620Y-203305833D01*
X180413176Y-120831429D02*
X179747938Y-121254762D01*
X180413176Y-121557143D02*
X179016176Y-121557143D01*
X179016176Y-121073334D01*
X179082700Y-120952381D01*
X179149224Y-120891905D01*
X179282271Y-120831429D01*
X179481843Y-120831429D01*
X179614890Y-120891905D01*
X179681414Y-120952381D01*
X179747938Y-121073334D01*
X179747938Y-121557143D01*
X179149224Y-120347619D02*
X179082700Y-120287143D01*
X179016176Y-120166191D01*
X179016176Y-119863810D01*
X179082700Y-119742857D01*
X179149224Y-119682381D01*
X179282271Y-119621905D01*
X179415319Y-119621905D01*
X179614890Y-119682381D01*
X180413176Y-120408095D01*
X180413176Y-119621905D01*
X179614890Y-118896190D02*
X179548367Y-119017143D01*
X179481843Y-119077619D01*
X179348795Y-119138095D01*
X179282271Y-119138095D01*
X179149224Y-119077619D01*
X179082700Y-119017143D01*
X179016176Y-118896190D01*
X179016176Y-118654286D01*
X179082700Y-118533333D01*
X179149224Y-118472857D01*
X179282271Y-118412381D01*
X179348795Y-118412381D01*
X179481843Y-118472857D01*
X179548367Y-118533333D01*
X179614890Y-118654286D01*
X179614890Y-118896190D01*
X179681414Y-119017143D01*
X179747938Y-119077619D01*
X179880986Y-119138095D01*
X180147081Y-119138095D01*
X180280129Y-119077619D01*
X180346652Y-119017143D01*
X180413176Y-118896190D01*
X180413176Y-118654286D01*
X180346652Y-118533333D01*
X180280129Y-118472857D01*
X180147081Y-118412381D01*
X179880986Y-118412381D01*
X179747938Y-118472857D01*
X179681414Y-118533333D01*
X179614890Y-118654286D01*
X180540176Y-115111590D02*
X180540176Y-115837304D01*
X180540176Y-115474447D02*
X179143176Y-115474447D01*
X179342748Y-115595399D01*
X179475795Y-115716352D01*
X179542319Y-115837304D01*
X180540176Y-114567304D02*
X179143176Y-114567304D01*
X180007986Y-114446352D02*
X180540176Y-114083495D01*
X179608843Y-114083495D02*
X180141033Y-114567304D01*
X174164776Y-125911429D02*
X173499538Y-126334762D01*
X174164776Y-126637143D02*
X172767776Y-126637143D01*
X172767776Y-126153334D01*
X172834300Y-126032381D01*
X172900824Y-125971905D01*
X173033871Y-125911429D01*
X173233443Y-125911429D01*
X173366490Y-125971905D01*
X173433014Y-126032381D01*
X173499538Y-126153334D01*
X173499538Y-126637143D01*
X172900824Y-125427619D02*
X172834300Y-125367143D01*
X172767776Y-125246191D01*
X172767776Y-124943810D01*
X172834300Y-124822857D01*
X172900824Y-124762381D01*
X173033871Y-124701905D01*
X173166919Y-124701905D01*
X173366490Y-124762381D01*
X174164776Y-125488095D01*
X174164776Y-124701905D01*
X174164776Y-124097143D02*
X174164776Y-123855238D01*
X174098252Y-123734286D01*
X174031729Y-123673810D01*
X173832157Y-123552857D01*
X173566062Y-123492381D01*
X173033871Y-123492381D01*
X172900824Y-123552857D01*
X172834300Y-123613333D01*
X172767776Y-123734286D01*
X172767776Y-123976190D01*
X172834300Y-124097143D01*
X172900824Y-124157619D01*
X173033871Y-124218095D01*
X173366490Y-124218095D01*
X173499538Y-124157619D01*
X173566062Y-124097143D01*
X173632586Y-123976190D01*
X173632586Y-123734286D01*
X173566062Y-123613333D01*
X173499538Y-123552857D01*
X173366490Y-123492381D01*
X175240043Y-126672219D02*
X176171376Y-126672219D01*
X174707852Y-126974600D02*
X175705710Y-127276981D01*
X175705710Y-126490791D01*
X174774376Y-126127933D02*
X174774376Y-125281267D01*
X176171376Y-125825552D01*
X174774376Y-124555552D02*
X174774376Y-124434600D01*
X174840900Y-124313648D01*
X174907424Y-124253171D01*
X175040471Y-124192695D01*
X175306567Y-124132219D01*
X175639186Y-124132219D01*
X175905281Y-124192695D01*
X176038329Y-124253171D01*
X176104852Y-124313648D01*
X176171376Y-124434600D01*
X176171376Y-124555552D01*
X176104852Y-124676505D01*
X176038329Y-124736981D01*
X175905281Y-124797457D01*
X175639186Y-124857933D01*
X175306567Y-124857933D01*
X175040471Y-124797457D01*
X174907424Y-124736981D01*
X174840900Y-124676505D01*
X174774376Y-124555552D01*
X176171376Y-122862219D02*
X175506138Y-123285552D01*
X176171376Y-123587933D02*
X174774376Y-123587933D01*
X174774376Y-123104124D01*
X174840900Y-122983171D01*
X174907424Y-122922695D01*
X175040471Y-122862219D01*
X175240043Y-122862219D01*
X175373090Y-122922695D01*
X175439614Y-122983171D01*
X175506138Y-123104124D01*
X175506138Y-123587933D01*
X187677576Y-125759029D02*
X187012338Y-126182362D01*
X187677576Y-126484743D02*
X186280576Y-126484743D01*
X186280576Y-126000934D01*
X186347100Y-125879981D01*
X186413624Y-125819505D01*
X186546671Y-125759029D01*
X186746243Y-125759029D01*
X186879290Y-125819505D01*
X186945814Y-125879981D01*
X187012338Y-126000934D01*
X187012338Y-126484743D01*
X186280576Y-125335695D02*
X186280576Y-124549505D01*
X186812767Y-124972838D01*
X186812767Y-124791410D01*
X186879290Y-124670457D01*
X186945814Y-124609981D01*
X187078862Y-124549505D01*
X187411481Y-124549505D01*
X187544529Y-124609981D01*
X187611052Y-124670457D01*
X187677576Y-124791410D01*
X187677576Y-125154267D01*
X187611052Y-125275219D01*
X187544529Y-125335695D01*
X186280576Y-123763314D02*
X186280576Y-123642362D01*
X186347100Y-123521410D01*
X186413624Y-123460933D01*
X186546671Y-123400457D01*
X186812767Y-123339981D01*
X187145386Y-123339981D01*
X187411481Y-123400457D01*
X187544529Y-123460933D01*
X187611052Y-123521410D01*
X187677576Y-123642362D01*
X187677576Y-123763314D01*
X187611052Y-123884267D01*
X187544529Y-123944743D01*
X187411481Y-124005219D01*
X187145386Y-124065695D01*
X186812767Y-124065695D01*
X186546671Y-124005219D01*
X186413624Y-123944743D01*
X186347100Y-123884267D01*
X186280576Y-123763314D01*
X185264576Y-126379514D02*
X185264576Y-127105228D01*
X185264576Y-126742371D02*
X183867576Y-126742371D01*
X184067148Y-126863323D01*
X184200195Y-126984276D01*
X184266719Y-127105228D01*
X183867576Y-125593323D02*
X183867576Y-125472371D01*
X183934100Y-125351419D01*
X184000624Y-125290942D01*
X184133671Y-125230466D01*
X184399767Y-125169990D01*
X184732386Y-125169990D01*
X184998481Y-125230466D01*
X185131529Y-125290942D01*
X185198052Y-125351419D01*
X185264576Y-125472371D01*
X185264576Y-125593323D01*
X185198052Y-125714276D01*
X185131529Y-125774752D01*
X184998481Y-125835228D01*
X184732386Y-125895704D01*
X184399767Y-125895704D01*
X184133671Y-125835228D01*
X184000624Y-125774752D01*
X183934100Y-125714276D01*
X183867576Y-125593323D01*
X183867576Y-124383799D02*
X183867576Y-124262847D01*
X183934100Y-124141895D01*
X184000624Y-124081418D01*
X184133671Y-124020942D01*
X184399767Y-123960466D01*
X184732386Y-123960466D01*
X184998481Y-124020942D01*
X185131529Y-124081418D01*
X185198052Y-124141895D01*
X185264576Y-124262847D01*
X185264576Y-124383799D01*
X185198052Y-124504752D01*
X185131529Y-124565228D01*
X184998481Y-124625704D01*
X184732386Y-124686180D01*
X184399767Y-124686180D01*
X184133671Y-124625704D01*
X184000624Y-124565228D01*
X183934100Y-124504752D01*
X183867576Y-124383799D01*
X185264576Y-123416180D02*
X183867576Y-123416180D01*
X184732386Y-123295228D02*
X185264576Y-122932371D01*
X184333243Y-122932371D02*
X184865433Y-123416180D01*
X118818176Y-203889429D02*
X118152938Y-204312762D01*
X118818176Y-204615143D02*
X117421176Y-204615143D01*
X117421176Y-204131334D01*
X117487700Y-204010381D01*
X117554224Y-203949905D01*
X117687271Y-203889429D01*
X117886843Y-203889429D01*
X118019890Y-203949905D01*
X118086414Y-204010381D01*
X118152938Y-204131334D01*
X118152938Y-204615143D01*
X117421176Y-203466095D02*
X117421176Y-202679905D01*
X117953367Y-203103238D01*
X117953367Y-202921810D01*
X118019890Y-202800857D01*
X118086414Y-202740381D01*
X118219462Y-202679905D01*
X118552081Y-202679905D01*
X118685129Y-202740381D01*
X118751652Y-202800857D01*
X118818176Y-202921810D01*
X118818176Y-203284667D01*
X118751652Y-203405619D01*
X118685129Y-203466095D01*
X118818176Y-201470381D02*
X118818176Y-202196095D01*
X118818176Y-201833238D02*
X117421176Y-201833238D01*
X117620748Y-201954190D01*
X117753795Y-202075143D01*
X117820319Y-202196095D01*
X119891024Y-204679247D02*
X119824500Y-204618771D01*
X119757976Y-204497819D01*
X119757976Y-204195438D01*
X119824500Y-204074485D01*
X119891024Y-204014009D01*
X120024071Y-203953533D01*
X120157119Y-203953533D01*
X120356690Y-204014009D01*
X121154976Y-204739723D01*
X121154976Y-203953533D01*
X121021929Y-203409247D02*
X121088452Y-203348771D01*
X121154976Y-203409247D01*
X121088452Y-203469723D01*
X121021929Y-203409247D01*
X121154976Y-203409247D01*
X119891024Y-202864961D02*
X119824500Y-202804485D01*
X119757976Y-202683533D01*
X119757976Y-202381152D01*
X119824500Y-202260199D01*
X119891024Y-202199723D01*
X120024071Y-202139247D01*
X120157119Y-202139247D01*
X120356690Y-202199723D01*
X121154976Y-202925437D01*
X121154976Y-202139247D01*
X121154976Y-201594961D02*
X119757976Y-201594961D01*
X120622786Y-201474009D02*
X121154976Y-201111152D01*
X120223643Y-201111152D02*
X120755833Y-201594961D01*
X118842971Y-167255976D02*
X118419638Y-166590738D01*
X118117257Y-167255976D02*
X118117257Y-165858976D01*
X118601066Y-165858976D01*
X118722019Y-165925500D01*
X118782495Y-165992024D01*
X118842971Y-166125071D01*
X118842971Y-166324643D01*
X118782495Y-166457690D01*
X118722019Y-166524214D01*
X118601066Y-166590738D01*
X118117257Y-166590738D01*
X119266305Y-165858976D02*
X120052495Y-165858976D01*
X119629162Y-166391167D01*
X119810590Y-166391167D01*
X119931543Y-166457690D01*
X119992019Y-166524214D01*
X120052495Y-166657262D01*
X120052495Y-166989881D01*
X119992019Y-167122929D01*
X119931543Y-167189452D01*
X119810590Y-167255976D01*
X119447733Y-167255976D01*
X119326781Y-167189452D01*
X119266305Y-167122929D01*
X120536305Y-165992024D02*
X120596781Y-165925500D01*
X120717733Y-165858976D01*
X121020114Y-165858976D01*
X121141067Y-165925500D01*
X121201543Y-165992024D01*
X121262019Y-166125071D01*
X121262019Y-166258119D01*
X121201543Y-166457690D01*
X120475829Y-167255976D01*
X121262019Y-167255976D01*
X117496772Y-163680624D02*
X117557248Y-163614100D01*
X117678200Y-163547576D01*
X117980581Y-163547576D01*
X118101534Y-163614100D01*
X118162010Y-163680624D01*
X118222486Y-163813671D01*
X118222486Y-163946719D01*
X118162010Y-164146290D01*
X117436296Y-164944576D01*
X118222486Y-164944576D01*
X118706296Y-163680624D02*
X118766772Y-163614100D01*
X118887724Y-163547576D01*
X119190105Y-163547576D01*
X119311058Y-163614100D01*
X119371534Y-163680624D01*
X119432010Y-163813671D01*
X119432010Y-163946719D01*
X119371534Y-164146290D01*
X118645820Y-164944576D01*
X119432010Y-164944576D01*
X120218201Y-163547576D02*
X120339153Y-163547576D01*
X120460105Y-163614100D01*
X120520582Y-163680624D01*
X120581058Y-163813671D01*
X120641534Y-164079767D01*
X120641534Y-164412386D01*
X120581058Y-164678481D01*
X120520582Y-164811529D01*
X120460105Y-164878052D01*
X120339153Y-164944576D01*
X120218201Y-164944576D01*
X120097248Y-164878052D01*
X120036772Y-164811529D01*
X119976296Y-164678481D01*
X119915820Y-164412386D01*
X119915820Y-164079767D01*
X119976296Y-163813671D01*
X120036772Y-163680624D01*
X120097248Y-163614100D01*
X120218201Y-163547576D01*
X121185820Y-164944576D02*
X121185820Y-163547576D01*
X121306772Y-164412386D02*
X121669629Y-164944576D01*
X121669629Y-164013243D02*
X121185820Y-164545433D01*
X172640776Y-119739229D02*
X171975538Y-120162562D01*
X172640776Y-120464943D02*
X171243776Y-120464943D01*
X171243776Y-119981134D01*
X171310300Y-119860181D01*
X171376824Y-119799705D01*
X171509871Y-119739229D01*
X171709443Y-119739229D01*
X171842490Y-119799705D01*
X171909014Y-119860181D01*
X171975538Y-119981134D01*
X171975538Y-120464943D01*
X171243776Y-119315895D02*
X171243776Y-118529705D01*
X171775967Y-118953038D01*
X171775967Y-118771610D01*
X171842490Y-118650657D01*
X171909014Y-118590181D01*
X172042062Y-118529705D01*
X172374681Y-118529705D01*
X172507729Y-118590181D01*
X172574252Y-118650657D01*
X172640776Y-118771610D01*
X172640776Y-119134467D01*
X172574252Y-119255419D01*
X172507729Y-119315895D01*
X171243776Y-118106371D02*
X171243776Y-117320181D01*
X171775967Y-117743514D01*
X171775967Y-117562086D01*
X171842490Y-117441133D01*
X171909014Y-117380657D01*
X172042062Y-117320181D01*
X172374681Y-117320181D01*
X172507729Y-117380657D01*
X172574252Y-117441133D01*
X172640776Y-117562086D01*
X172640776Y-117924943D01*
X172574252Y-118045895D01*
X172507729Y-118106371D01*
X170380176Y-119668352D02*
X170380176Y-120394066D01*
X170380176Y-120031209D02*
X168983176Y-120031209D01*
X169182748Y-120152161D01*
X169315795Y-120273114D01*
X169382319Y-120394066D01*
X168983176Y-118882161D02*
X168983176Y-118761209D01*
X169049700Y-118640257D01*
X169116224Y-118579780D01*
X169249271Y-118519304D01*
X169515367Y-118458828D01*
X169847986Y-118458828D01*
X170114081Y-118519304D01*
X170247129Y-118579780D01*
X170313652Y-118640257D01*
X170380176Y-118761209D01*
X170380176Y-118882161D01*
X170313652Y-119003114D01*
X170247129Y-119063590D01*
X170114081Y-119124066D01*
X169847986Y-119184542D01*
X169515367Y-119184542D01*
X169249271Y-119124066D01*
X169116224Y-119063590D01*
X169049700Y-119003114D01*
X168983176Y-118882161D01*
X170380176Y-117914542D02*
X168983176Y-117914542D01*
X169847986Y-117793590D02*
X170380176Y-117430733D01*
X169448843Y-117430733D02*
X169981033Y-117914542D01*
X130694576Y-179312629D02*
X130029338Y-179735962D01*
X130694576Y-180038343D02*
X129297576Y-180038343D01*
X129297576Y-179554534D01*
X129364100Y-179433581D01*
X129430624Y-179373105D01*
X129563671Y-179312629D01*
X129763243Y-179312629D01*
X129896290Y-179373105D01*
X129962814Y-179433581D01*
X130029338Y-179554534D01*
X130029338Y-180038343D01*
X129297576Y-178889295D02*
X129297576Y-178103105D01*
X129829767Y-178526438D01*
X129829767Y-178345010D01*
X129896290Y-178224057D01*
X129962814Y-178163581D01*
X130095862Y-178103105D01*
X130428481Y-178103105D01*
X130561529Y-178163581D01*
X130628052Y-178224057D01*
X130694576Y-178345010D01*
X130694576Y-178707867D01*
X130628052Y-178828819D01*
X130561529Y-178889295D01*
X129763243Y-177014533D02*
X130694576Y-177014533D01*
X129231052Y-177316914D02*
X130228910Y-177619295D01*
X130228910Y-176833105D01*
X133194576Y-178859057D02*
X133194576Y-179584771D01*
X133194576Y-179221914D02*
X131797576Y-179221914D01*
X131997148Y-179342866D01*
X132130195Y-179463819D01*
X132196719Y-179584771D01*
X133194576Y-178314771D02*
X131797576Y-178314771D01*
X132795433Y-177891438D01*
X131797576Y-177468104D01*
X133194576Y-177468104D01*
X75206376Y-195151829D02*
X74541138Y-195575162D01*
X75206376Y-195877543D02*
X73809376Y-195877543D01*
X73809376Y-195393734D01*
X73875900Y-195272781D01*
X73942424Y-195212305D01*
X74075471Y-195151829D01*
X74275043Y-195151829D01*
X74408090Y-195212305D01*
X74474614Y-195272781D01*
X74541138Y-195393734D01*
X74541138Y-195877543D01*
X73809376Y-194728495D02*
X73809376Y-193942305D01*
X74341567Y-194365638D01*
X74341567Y-194184210D01*
X74408090Y-194063257D01*
X74474614Y-194002781D01*
X74607662Y-193942305D01*
X74940281Y-193942305D01*
X75073329Y-194002781D01*
X75139852Y-194063257D01*
X75206376Y-194184210D01*
X75206376Y-194547067D01*
X75139852Y-194668019D01*
X75073329Y-194728495D01*
X73809376Y-193518971D02*
X73809376Y-192672305D01*
X75206376Y-193216590D01*
X76152224Y-196028247D02*
X76085700Y-195967771D01*
X76019176Y-195846819D01*
X76019176Y-195544438D01*
X76085700Y-195423485D01*
X76152224Y-195363009D01*
X76285271Y-195302533D01*
X76418319Y-195302533D01*
X76617890Y-195363009D01*
X77416176Y-196088723D01*
X77416176Y-195302533D01*
X77283129Y-194758247D02*
X77349652Y-194697771D01*
X77416176Y-194758247D01*
X77349652Y-194818723D01*
X77283129Y-194758247D01*
X77416176Y-194758247D01*
X76152224Y-194213961D02*
X76085700Y-194153485D01*
X76019176Y-194032533D01*
X76019176Y-193730152D01*
X76085700Y-193609199D01*
X76152224Y-193548723D01*
X76285271Y-193488247D01*
X76418319Y-193488247D01*
X76617890Y-193548723D01*
X77416176Y-194274437D01*
X77416176Y-193488247D01*
X77416176Y-192943961D02*
X76019176Y-192943961D01*
X76883986Y-192823009D02*
X77416176Y-192460152D01*
X76484843Y-192460152D02*
X77017033Y-192943961D01*
D17*
X277969738Y-196738119D02*
X277485929Y-196738119D01*
X277485929Y-195722119D01*
X278308405Y-196738119D02*
X278308405Y-195722119D01*
X278550310Y-195722119D01*
X278695452Y-195770500D01*
X278792214Y-195867262D01*
X278840595Y-195964024D01*
X278888976Y-196157548D01*
X278888976Y-196302690D01*
X278840595Y-196496214D01*
X278792214Y-196592976D01*
X278695452Y-196689738D01*
X278550310Y-196738119D01*
X278308405Y-196738119D01*
X280630690Y-195770500D02*
X280533928Y-195722119D01*
X280388785Y-195722119D01*
X280243643Y-195770500D01*
X280146881Y-195867262D01*
X280098500Y-195964024D01*
X280050119Y-196157548D01*
X280050119Y-196302690D01*
X280098500Y-196496214D01*
X280146881Y-196592976D01*
X280243643Y-196689738D01*
X280388785Y-196738119D01*
X280485547Y-196738119D01*
X280630690Y-196689738D01*
X280679071Y-196641357D01*
X280679071Y-196302690D01*
X280485547Y-196302690D01*
X281114500Y-196738119D02*
X281114500Y-195722119D01*
X281695071Y-196738119D01*
X281695071Y-195722119D01*
X282178881Y-196738119D02*
X282178881Y-195722119D01*
X282420786Y-195722119D01*
X282565928Y-195770500D01*
X282662690Y-195867262D01*
X282711071Y-195964024D01*
X282759452Y-196157548D01*
X282759452Y-196302690D01*
X282711071Y-196496214D01*
X282662690Y-196592976D01*
X282565928Y-196689738D01*
X282420786Y-196738119D01*
X282178881Y-196738119D01*
D19*
X335652905Y-210216666D02*
X336224333Y-210216666D01*
X336338619Y-210254762D01*
X336414810Y-210330952D01*
X336452905Y-210445238D01*
X336452905Y-210521428D01*
X336452905Y-209835714D02*
X335652905Y-209835714D01*
X335652905Y-209530952D01*
X335691000Y-209454761D01*
X335729095Y-209416666D01*
X335805286Y-209378571D01*
X335919571Y-209378571D01*
X335995762Y-209416666D01*
X336033857Y-209454761D01*
X336071952Y-209530952D01*
X336071952Y-209835714D01*
X336452905Y-208616666D02*
X336452905Y-209073809D01*
X336452905Y-208845238D02*
X335652905Y-208845238D01*
X335767190Y-208921428D01*
X335843381Y-208997619D01*
X335881476Y-209073809D01*
D15*
X279200429Y-179853167D02*
X279266952Y-179913643D01*
X279333476Y-180095072D01*
X279333476Y-180216024D01*
X279266952Y-180397452D01*
X279133905Y-180518405D01*
X279000857Y-180578881D01*
X278734762Y-180639357D01*
X278535190Y-180639357D01*
X278269095Y-180578881D01*
X278136048Y-180518405D01*
X278003000Y-180397452D01*
X277936476Y-180216024D01*
X277936476Y-180095072D01*
X278003000Y-179913643D01*
X278069524Y-179853167D01*
X277936476Y-178764595D02*
X277936476Y-179006500D01*
X278003000Y-179127452D01*
X278069524Y-179187929D01*
X278269095Y-179308881D01*
X278535190Y-179369357D01*
X279067381Y-179369357D01*
X279200429Y-179308881D01*
X279266952Y-179248405D01*
X279333476Y-179127452D01*
X279333476Y-178885548D01*
X279266952Y-178764595D01*
X279200429Y-178704119D01*
X279067381Y-178643643D01*
X278734762Y-178643643D01*
X278601714Y-178704119D01*
X278535190Y-178764595D01*
X278468667Y-178885548D01*
X278468667Y-179127452D01*
X278535190Y-179248405D01*
X278601714Y-179308881D01*
X278734762Y-179369357D01*
X278196524Y-172850024D02*
X278130000Y-172789548D01*
X278063476Y-172668596D01*
X278063476Y-172366215D01*
X278130000Y-172245262D01*
X278196524Y-172184786D01*
X278329571Y-172124310D01*
X278462619Y-172124310D01*
X278662190Y-172184786D01*
X279460476Y-172910500D01*
X279460476Y-172124310D01*
X279327429Y-171580024D02*
X279393952Y-171519548D01*
X279460476Y-171580024D01*
X279393952Y-171640500D01*
X279327429Y-171580024D01*
X279460476Y-171580024D01*
X278196524Y-171035738D02*
X278130000Y-170975262D01*
X278063476Y-170854310D01*
X278063476Y-170551929D01*
X278130000Y-170430976D01*
X278196524Y-170370500D01*
X278329571Y-170310024D01*
X278462619Y-170310024D01*
X278662190Y-170370500D01*
X279460476Y-171096214D01*
X279460476Y-170310024D01*
X278529143Y-169765738D02*
X279460476Y-169765738D01*
X278662190Y-169765738D02*
X278595667Y-169705262D01*
X278529143Y-169584309D01*
X278529143Y-169402881D01*
X278595667Y-169281929D01*
X278728714Y-169221452D01*
X279460476Y-169221452D01*
X215065429Y-188689167D02*
X215131952Y-188749643D01*
X215198476Y-188931072D01*
X215198476Y-189052024D01*
X215131952Y-189233452D01*
X214998905Y-189354405D01*
X214865857Y-189414881D01*
X214599762Y-189475357D01*
X214400190Y-189475357D01*
X214134095Y-189414881D01*
X214001048Y-189354405D01*
X213868000Y-189233452D01*
X213801476Y-189052024D01*
X213801476Y-188931072D01*
X213868000Y-188749643D01*
X213934524Y-188689167D01*
X213801476Y-188265833D02*
X213801476Y-187419167D01*
X215198476Y-187963452D01*
X215007976Y-182683881D02*
X215007976Y-183409595D01*
X215007976Y-183046738D02*
X213610976Y-183046738D01*
X213810548Y-183167690D01*
X213943595Y-183288643D01*
X214010119Y-183409595D01*
X214076643Y-182139595D02*
X215473643Y-182139595D01*
X214808405Y-181534833D02*
X214941452Y-181474357D01*
X215007976Y-181353405D01*
X214808405Y-182139595D02*
X214941452Y-182079119D01*
X215007976Y-181958166D01*
X215007976Y-181716262D01*
X214941452Y-181595309D01*
X214808405Y-181534833D01*
X214076643Y-181534833D01*
X203000429Y-195253429D02*
X203066952Y-195313905D01*
X203133476Y-195495334D01*
X203133476Y-195616286D01*
X203066952Y-195797714D01*
X202933905Y-195918667D01*
X202800857Y-195979143D01*
X202534762Y-196039619D01*
X202335190Y-196039619D01*
X202069095Y-195979143D01*
X201936048Y-195918667D01*
X201803000Y-195797714D01*
X201736476Y-195616286D01*
X201736476Y-195495334D01*
X201803000Y-195313905D01*
X201869524Y-195253429D01*
X203133476Y-194043905D02*
X203133476Y-194769619D01*
X203133476Y-194406762D02*
X201736476Y-194406762D01*
X201936048Y-194527714D01*
X202069095Y-194648667D01*
X202135619Y-194769619D01*
X203133476Y-192834381D02*
X203133476Y-193560095D01*
X203133476Y-193197238D02*
X201736476Y-193197238D01*
X201936048Y-193318190D01*
X202069095Y-193439143D01*
X202135619Y-193560095D01*
X202815976Y-187663667D02*
X202815976Y-188389381D01*
X202815976Y-188026524D02*
X201418976Y-188026524D01*
X201618548Y-188147476D01*
X201751595Y-188268429D01*
X201818119Y-188389381D01*
X201884643Y-187119381D02*
X202815976Y-187119381D01*
X202017690Y-187119381D02*
X201951167Y-187058905D01*
X201884643Y-186937952D01*
X201884643Y-186756524D01*
X201951167Y-186635572D01*
X202084214Y-186575095D01*
X202815976Y-186575095D01*
X143754929Y-189055829D02*
X143821452Y-189116305D01*
X143887976Y-189297734D01*
X143887976Y-189418686D01*
X143821452Y-189600114D01*
X143688405Y-189721067D01*
X143555357Y-189781543D01*
X143289262Y-189842019D01*
X143089690Y-189842019D01*
X142823595Y-189781543D01*
X142690548Y-189721067D01*
X142557500Y-189600114D01*
X142490976Y-189418686D01*
X142490976Y-189297734D01*
X142557500Y-189116305D01*
X142624024Y-189055829D01*
X143887976Y-187846305D02*
X143887976Y-188572019D01*
X143887976Y-188209162D02*
X142490976Y-188209162D01*
X142690548Y-188330114D01*
X142823595Y-188451067D01*
X142890119Y-188572019D01*
X142624024Y-187362495D02*
X142557500Y-187302019D01*
X142490976Y-187181067D01*
X142490976Y-186878686D01*
X142557500Y-186757733D01*
X142624024Y-186697257D01*
X142757071Y-186636781D01*
X142890119Y-186636781D01*
X143089690Y-186697257D01*
X143887976Y-187422971D01*
X143887976Y-186636781D01*
X143684776Y-182598181D02*
X143684776Y-183323895D01*
X143684776Y-182961038D02*
X142287776Y-182961038D01*
X142487348Y-183081990D01*
X142620395Y-183202943D01*
X142686919Y-183323895D01*
X142753443Y-182053895D02*
X144150443Y-182053895D01*
X143485205Y-181449133D02*
X143618252Y-181388657D01*
X143684776Y-181267705D01*
X143485205Y-182053895D02*
X143618252Y-181993419D01*
X143684776Y-181872466D01*
X143684776Y-181630562D01*
X143618252Y-181509609D01*
X143485205Y-181449133D01*
X142753443Y-181449133D01*
D12*
X342491786Y-208243715D02*
X342564357Y-208316286D01*
X342636929Y-208534000D01*
X342636929Y-208679143D01*
X342564357Y-208896858D01*
X342419214Y-209042000D01*
X342274071Y-209114572D01*
X341983786Y-209187143D01*
X341766071Y-209187143D01*
X341475786Y-209114572D01*
X341330643Y-209042000D01*
X341185500Y-208896858D01*
X341112929Y-208679143D01*
X341112929Y-208534000D01*
X341185500Y-208316286D01*
X341258071Y-208243715D01*
X342636929Y-206792286D02*
X342636929Y-207663143D01*
X342636929Y-207227715D02*
X341112929Y-207227715D01*
X341330643Y-207372858D01*
X341475786Y-207518000D01*
X341548357Y-207663143D01*
X341112929Y-206284286D02*
X341112929Y-205340857D01*
X341693500Y-205848857D01*
X341693500Y-205631143D01*
X341766071Y-205486000D01*
X341838643Y-205413429D01*
X341983786Y-205340857D01*
X342346643Y-205340857D01*
X342491786Y-205413429D01*
X342564357Y-205486000D01*
X342636929Y-205631143D01*
X342636929Y-206066571D01*
X342564357Y-206211714D01*
X342491786Y-206284286D01*
X341194571Y-203254428D02*
X341122000Y-203181857D01*
X341049429Y-203036714D01*
X341049429Y-202673857D01*
X341122000Y-202528714D01*
X341194571Y-202456143D01*
X341339714Y-202383571D01*
X341484857Y-202383571D01*
X341702571Y-202456143D01*
X342573429Y-203327000D01*
X342573429Y-202383571D01*
X341194571Y-201802999D02*
X341122000Y-201730428D01*
X341049429Y-201585285D01*
X341049429Y-201222428D01*
X341122000Y-201077285D01*
X341194571Y-201004714D01*
X341339714Y-200932142D01*
X341484857Y-200932142D01*
X341702571Y-201004714D01*
X342573429Y-201875571D01*
X342573429Y-200932142D01*
X341557429Y-200278999D02*
X343081429Y-200278999D01*
X342355714Y-199553285D02*
X342500857Y-199480713D01*
X342573429Y-199335570D01*
X342355714Y-200278999D02*
X342500857Y-200206427D01*
X342573429Y-200061285D01*
X342573429Y-199770999D01*
X342500857Y-199625856D01*
X342355714Y-199553285D01*
X341557429Y-199553285D01*
D14*
X258227285Y-146746686D02*
X258154714Y-146819257D01*
X257937000Y-146891829D01*
X257791857Y-146891829D01*
X257574142Y-146819257D01*
X257429000Y-146674114D01*
X257356428Y-146528971D01*
X257283857Y-146238686D01*
X257283857Y-146020971D01*
X257356428Y-145730686D01*
X257429000Y-145585543D01*
X257574142Y-145440400D01*
X257791857Y-145367829D01*
X257937000Y-145367829D01*
X258154714Y-145440400D01*
X258227285Y-145512971D01*
X259678714Y-146891829D02*
X258807857Y-146891829D01*
X259243285Y-146891829D02*
X259243285Y-145367829D01*
X259098142Y-145585543D01*
X258953000Y-145730686D01*
X258807857Y-145803257D01*
X261057571Y-145367829D02*
X260331857Y-145367829D01*
X260259286Y-146093543D01*
X260331857Y-146020971D01*
X260477000Y-145948400D01*
X260839857Y-145948400D01*
X260985000Y-146020971D01*
X261057571Y-146093543D01*
X261130143Y-146238686D01*
X261130143Y-146601543D01*
X261057571Y-146746686D01*
X260985000Y-146819257D01*
X260839857Y-146891829D01*
X260477000Y-146891829D01*
X260331857Y-146819257D01*
X260259286Y-146746686D01*
X254413657Y-150828829D02*
X253542800Y-150828829D01*
X253978228Y-150828829D02*
X253978228Y-149304829D01*
X253833085Y-149522543D01*
X253687943Y-149667686D01*
X253542800Y-149740257D01*
X255357086Y-149304829D02*
X255502229Y-149304829D01*
X255647372Y-149377400D01*
X255719943Y-149449971D01*
X255792514Y-149595114D01*
X255865086Y-149885400D01*
X255865086Y-150248257D01*
X255792514Y-150538543D01*
X255719943Y-150683686D01*
X255647372Y-150756257D01*
X255502229Y-150828829D01*
X255357086Y-150828829D01*
X255211943Y-150756257D01*
X255139372Y-150683686D01*
X255066800Y-150538543D01*
X254994229Y-150248257D01*
X254994229Y-149885400D01*
X255066800Y-149595114D01*
X255139372Y-149449971D01*
X255211943Y-149377400D01*
X255357086Y-149304829D01*
X256518229Y-149812829D02*
X256518229Y-151336829D01*
X257243943Y-150611114D02*
X257316515Y-150756257D01*
X257461658Y-150828829D01*
X256518229Y-150611114D02*
X256590801Y-150756257D01*
X256735943Y-150828829D01*
X257026229Y-150828829D01*
X257171372Y-150756257D01*
X257243943Y-150611114D01*
X257243943Y-149812829D01*
X259203372Y-149232257D02*
X257897086Y-151191686D01*
X260509657Y-150828829D02*
X259638800Y-150828829D01*
X260074228Y-150828829D02*
X260074228Y-149304829D01*
X259929085Y-149522543D01*
X259783943Y-149667686D01*
X259638800Y-149740257D01*
X261815943Y-149304829D02*
X261525657Y-149304829D01*
X261380514Y-149377400D01*
X261307943Y-149449971D01*
X261162800Y-149667686D01*
X261090229Y-149957971D01*
X261090229Y-150538543D01*
X261162800Y-150683686D01*
X261235372Y-150756257D01*
X261380514Y-150828829D01*
X261670800Y-150828829D01*
X261815943Y-150756257D01*
X261888514Y-150683686D01*
X261961086Y-150538543D01*
X261961086Y-150175686D01*
X261888514Y-150030543D01*
X261815943Y-149957971D01*
X261670800Y-149885400D01*
X261380514Y-149885400D01*
X261235372Y-149957971D01*
X261162800Y-150030543D01*
X261090229Y-150175686D01*
X262904515Y-149304829D02*
X263049658Y-149304829D01*
X263194801Y-149377400D01*
X263267372Y-149449971D01*
X263339943Y-149595114D01*
X263412515Y-149885400D01*
X263412515Y-150248257D01*
X263339943Y-150538543D01*
X263267372Y-150683686D01*
X263194801Y-150756257D01*
X263049658Y-150828829D01*
X262904515Y-150828829D01*
X262759372Y-150756257D01*
X262686801Y-150683686D01*
X262614229Y-150538543D01*
X262541658Y-150248257D01*
X262541658Y-149885400D01*
X262614229Y-149595114D01*
X262686801Y-149449971D01*
X262759372Y-149377400D01*
X262904515Y-149304829D01*
X263847944Y-149304829D02*
X264355944Y-150828829D01*
X264863944Y-149304829D01*
D15*
X151964571Y-210683929D02*
X151904095Y-210750452D01*
X151722666Y-210816976D01*
X151601714Y-210816976D01*
X151420286Y-210750452D01*
X151299333Y-210617405D01*
X151238857Y-210484357D01*
X151178381Y-210218262D01*
X151178381Y-210018690D01*
X151238857Y-209752595D01*
X151299333Y-209619548D01*
X151420286Y-209486500D01*
X151601714Y-209419976D01*
X151722666Y-209419976D01*
X151904095Y-209486500D01*
X151964571Y-209553024D01*
X153174095Y-210816976D02*
X152448381Y-210816976D01*
X152811238Y-210816976D02*
X152811238Y-209419976D01*
X152690286Y-209619548D01*
X152569333Y-209752595D01*
X152448381Y-209819119D01*
X154262667Y-209419976D02*
X154020762Y-209419976D01*
X153899810Y-209486500D01*
X153839333Y-209553024D01*
X153718381Y-209752595D01*
X153657905Y-210018690D01*
X153657905Y-210550881D01*
X153718381Y-210683929D01*
X153778857Y-210750452D01*
X153899810Y-210816976D01*
X154141714Y-210816976D01*
X154262667Y-210750452D01*
X154323143Y-210683929D01*
X154383619Y-210550881D01*
X154383619Y-210218262D01*
X154323143Y-210085214D01*
X154262667Y-210018690D01*
X154141714Y-209952167D01*
X153899810Y-209952167D01*
X153778857Y-210018690D01*
X153718381Y-210085214D01*
X153657905Y-210218262D01*
X151619857Y-211737424D02*
X151680333Y-211670900D01*
X151801285Y-211604376D01*
X152103666Y-211604376D01*
X152224619Y-211670900D01*
X152285095Y-211737424D01*
X152345571Y-211870471D01*
X152345571Y-212003519D01*
X152285095Y-212203090D01*
X151559381Y-213001376D01*
X152345571Y-213001376D01*
X152829381Y-211737424D02*
X152889857Y-211670900D01*
X153010809Y-211604376D01*
X153313190Y-211604376D01*
X153434143Y-211670900D01*
X153494619Y-211737424D01*
X153555095Y-211870471D01*
X153555095Y-212003519D01*
X153494619Y-212203090D01*
X152768905Y-213001376D01*
X153555095Y-213001376D01*
X154099381Y-212070043D02*
X154099381Y-213001376D01*
X154099381Y-212203090D02*
X154159857Y-212136567D01*
X154280810Y-212070043D01*
X154462238Y-212070043D01*
X154583190Y-212136567D01*
X154643667Y-212269614D01*
X154643667Y-213001376D01*
X128393371Y-159315729D02*
X128332895Y-159382252D01*
X128151466Y-159448776D01*
X128030514Y-159448776D01*
X127849086Y-159382252D01*
X127728133Y-159249205D01*
X127667657Y-159116157D01*
X127607181Y-158850062D01*
X127607181Y-158650490D01*
X127667657Y-158384395D01*
X127728133Y-158251348D01*
X127849086Y-158118300D01*
X128030514Y-158051776D01*
X128151466Y-158051776D01*
X128332895Y-158118300D01*
X128393371Y-158184824D01*
X129602895Y-159448776D02*
X128877181Y-159448776D01*
X129240038Y-159448776D02*
X129240038Y-158051776D01*
X129119086Y-158251348D01*
X128998133Y-158384395D01*
X128877181Y-158450919D01*
X130328610Y-158650490D02*
X130207657Y-158583967D01*
X130147181Y-158517443D01*
X130086705Y-158384395D01*
X130086705Y-158317871D01*
X130147181Y-158184824D01*
X130207657Y-158118300D01*
X130328610Y-158051776D01*
X130570514Y-158051776D01*
X130691467Y-158118300D01*
X130751943Y-158184824D01*
X130812419Y-158317871D01*
X130812419Y-158384395D01*
X130751943Y-158517443D01*
X130691467Y-158583967D01*
X130570514Y-158650490D01*
X130328610Y-158650490D01*
X130207657Y-158717014D01*
X130147181Y-158783538D01*
X130086705Y-158916586D01*
X130086705Y-159182681D01*
X130147181Y-159315729D01*
X130207657Y-159382252D01*
X130328610Y-159448776D01*
X130570514Y-159448776D01*
X130691467Y-159382252D01*
X130751943Y-159315729D01*
X130812419Y-159182681D01*
X130812419Y-158916586D01*
X130751943Y-158783538D01*
X130691467Y-158717014D01*
X130570514Y-158650490D01*
X127667657Y-160184824D02*
X127728133Y-160118300D01*
X127849085Y-160051776D01*
X128151466Y-160051776D01*
X128272419Y-160118300D01*
X128332895Y-160184824D01*
X128393371Y-160317871D01*
X128393371Y-160450919D01*
X128332895Y-160650490D01*
X127607181Y-161448776D01*
X128393371Y-161448776D01*
X128877181Y-160184824D02*
X128937657Y-160118300D01*
X129058609Y-160051776D01*
X129360990Y-160051776D01*
X129481943Y-160118300D01*
X129542419Y-160184824D01*
X129602895Y-160317871D01*
X129602895Y-160450919D01*
X129542419Y-160650490D01*
X128816705Y-161448776D01*
X129602895Y-161448776D01*
X130147181Y-160517443D02*
X130147181Y-161448776D01*
X130147181Y-160650490D02*
X130207657Y-160583967D01*
X130328610Y-160517443D01*
X130510038Y-160517443D01*
X130630990Y-160583967D01*
X130691467Y-160717014D01*
X130691467Y-161448776D01*
X149627771Y-143424729D02*
X149567295Y-143491252D01*
X149385866Y-143557776D01*
X149264914Y-143557776D01*
X149083486Y-143491252D01*
X148962533Y-143358205D01*
X148902057Y-143225157D01*
X148841581Y-142959062D01*
X148841581Y-142759490D01*
X148902057Y-142493395D01*
X148962533Y-142360348D01*
X149083486Y-142227300D01*
X149264914Y-142160776D01*
X149385866Y-142160776D01*
X149567295Y-142227300D01*
X149627771Y-142293824D01*
X150111581Y-142293824D02*
X150172057Y-142227300D01*
X150293009Y-142160776D01*
X150595390Y-142160776D01*
X150716343Y-142227300D01*
X150776819Y-142293824D01*
X150837295Y-142426871D01*
X150837295Y-142559919D01*
X150776819Y-142759490D01*
X150051105Y-143557776D01*
X150837295Y-143557776D01*
X151623486Y-142160776D02*
X151744438Y-142160776D01*
X151865390Y-142227300D01*
X151925867Y-142293824D01*
X151986343Y-142426871D01*
X152046819Y-142692967D01*
X152046819Y-143025586D01*
X151986343Y-143291681D01*
X151925867Y-143424729D01*
X151865390Y-143491252D01*
X151744438Y-143557776D01*
X151623486Y-143557776D01*
X151502533Y-143491252D01*
X151442057Y-143424729D01*
X151381581Y-143291681D01*
X151321105Y-143025586D01*
X151321105Y-142692967D01*
X151381581Y-142426871D01*
X151442057Y-142293824D01*
X151502533Y-142227300D01*
X151623486Y-142160776D01*
X149557619Y-145064843D02*
X149557619Y-145996176D01*
X149255238Y-144532652D02*
X148952857Y-145530510D01*
X149739047Y-145530510D01*
X150101905Y-144599176D02*
X150948571Y-144599176D01*
X150404286Y-145996176D01*
X151432381Y-145064843D02*
X151432381Y-145996176D01*
X151432381Y-145197890D02*
X151492857Y-145131367D01*
X151613810Y-145064843D01*
X151795238Y-145064843D01*
X151916190Y-145131367D01*
X151976667Y-145264414D01*
X151976667Y-145996176D01*
X87118371Y-211776129D02*
X87057895Y-211842652D01*
X86876466Y-211909176D01*
X86755514Y-211909176D01*
X86574086Y-211842652D01*
X86453133Y-211709605D01*
X86392657Y-211576557D01*
X86332181Y-211310462D01*
X86332181Y-211110890D01*
X86392657Y-210844795D01*
X86453133Y-210711748D01*
X86574086Y-210578700D01*
X86755514Y-210512176D01*
X86876466Y-210512176D01*
X87057895Y-210578700D01*
X87118371Y-210645224D01*
X87602181Y-210645224D02*
X87662657Y-210578700D01*
X87783609Y-210512176D01*
X88085990Y-210512176D01*
X88206943Y-210578700D01*
X88267419Y-210645224D01*
X88327895Y-210778271D01*
X88327895Y-210911319D01*
X88267419Y-211110890D01*
X87541705Y-211909176D01*
X88327895Y-211909176D01*
X89537419Y-211909176D02*
X88811705Y-211909176D01*
X89174562Y-211909176D02*
X89174562Y-210512176D01*
X89053610Y-210711748D01*
X88932657Y-210844795D01*
X88811705Y-210911319D01*
X86697457Y-212982024D02*
X86757933Y-212915500D01*
X86878885Y-212848976D01*
X87181266Y-212848976D01*
X87302219Y-212915500D01*
X87362695Y-212982024D01*
X87423171Y-213115071D01*
X87423171Y-213248119D01*
X87362695Y-213447690D01*
X86636981Y-214245976D01*
X87423171Y-214245976D01*
X87906981Y-212982024D02*
X87967457Y-212915500D01*
X88088409Y-212848976D01*
X88390790Y-212848976D01*
X88511743Y-212915500D01*
X88572219Y-212982024D01*
X88632695Y-213115071D01*
X88632695Y-213248119D01*
X88572219Y-213447690D01*
X87846505Y-214245976D01*
X88632695Y-214245976D01*
X89176981Y-213314643D02*
X89176981Y-214245976D01*
X89176981Y-213447690D02*
X89237457Y-213381167D01*
X89358410Y-213314643D01*
X89539838Y-213314643D01*
X89660790Y-213381167D01*
X89721267Y-213514214D01*
X89721267Y-214245976D01*
X81911371Y-152060729D02*
X81850895Y-152127252D01*
X81669466Y-152193776D01*
X81548514Y-152193776D01*
X81367086Y-152127252D01*
X81246133Y-151994205D01*
X81185657Y-151861157D01*
X81125181Y-151595062D01*
X81125181Y-151395490D01*
X81185657Y-151129395D01*
X81246133Y-150996348D01*
X81367086Y-150863300D01*
X81548514Y-150796776D01*
X81669466Y-150796776D01*
X81850895Y-150863300D01*
X81911371Y-150929824D01*
X82395181Y-150929824D02*
X82455657Y-150863300D01*
X82576609Y-150796776D01*
X82878990Y-150796776D01*
X82999943Y-150863300D01*
X83060419Y-150929824D01*
X83120895Y-151062871D01*
X83120895Y-151195919D01*
X83060419Y-151395490D01*
X82334705Y-152193776D01*
X83120895Y-152193776D01*
X83544229Y-150796776D02*
X84330419Y-150796776D01*
X83907086Y-151328967D01*
X84088514Y-151328967D01*
X84209467Y-151395490D01*
X84269943Y-151462014D01*
X84330419Y-151595062D01*
X84330419Y-151927681D01*
X84269943Y-152060729D01*
X84209467Y-152127252D01*
X84088514Y-152193776D01*
X83725657Y-152193776D01*
X83604705Y-152127252D01*
X83544229Y-152060729D01*
X81911371Y-154301976D02*
X81185657Y-154301976D01*
X81548514Y-154301976D02*
X81548514Y-152904976D01*
X81427562Y-153104548D01*
X81306609Y-153237595D01*
X81185657Y-153304119D01*
X82697562Y-152904976D02*
X82818514Y-152904976D01*
X82939466Y-152971500D01*
X82999943Y-153038024D01*
X83060419Y-153171071D01*
X83120895Y-153437167D01*
X83120895Y-153769786D01*
X83060419Y-154035881D01*
X82999943Y-154168929D01*
X82939466Y-154235452D01*
X82818514Y-154301976D01*
X82697562Y-154301976D01*
X82576609Y-154235452D01*
X82516133Y-154168929D01*
X82455657Y-154035881D01*
X82395181Y-153769786D01*
X82395181Y-153437167D01*
X82455657Y-153171071D01*
X82516133Y-153038024D01*
X82576609Y-152971500D01*
X82697562Y-152904976D01*
X83665181Y-153370643D02*
X83665181Y-154301976D01*
X83665181Y-153503690D02*
X83725657Y-153437167D01*
X83846610Y-153370643D01*
X84028038Y-153370643D01*
X84148990Y-153437167D01*
X84209467Y-153570214D01*
X84209467Y-154301976D01*
D14*
X329855285Y-199553286D02*
X329782714Y-199625857D01*
X329565000Y-199698429D01*
X329419857Y-199698429D01*
X329202142Y-199625857D01*
X329057000Y-199480714D01*
X328984428Y-199335571D01*
X328911857Y-199045286D01*
X328911857Y-198827571D01*
X328984428Y-198537286D01*
X329057000Y-198392143D01*
X329202142Y-198247000D01*
X329419857Y-198174429D01*
X329565000Y-198174429D01*
X329782714Y-198247000D01*
X329855285Y-198319571D01*
X330435857Y-198319571D02*
X330508428Y-198247000D01*
X330653571Y-198174429D01*
X331016428Y-198174429D01*
X331161571Y-198247000D01*
X331234142Y-198319571D01*
X331306714Y-198464714D01*
X331306714Y-198609857D01*
X331234142Y-198827571D01*
X330363285Y-199698429D01*
X331306714Y-199698429D01*
X332613000Y-198682429D02*
X332613000Y-199698429D01*
X332250143Y-198101857D02*
X331887286Y-199190429D01*
X332830714Y-199190429D01*
X322770500Y-200859571D02*
X322843071Y-200787000D01*
X322988214Y-200714429D01*
X323351071Y-200714429D01*
X323496214Y-200787000D01*
X323568785Y-200859571D01*
X323641357Y-201004714D01*
X323641357Y-201149857D01*
X323568785Y-201367571D01*
X322697928Y-202238429D01*
X323641357Y-202238429D01*
X324221929Y-200859571D02*
X324294500Y-200787000D01*
X324439643Y-200714429D01*
X324802500Y-200714429D01*
X324947643Y-200787000D01*
X325020214Y-200859571D01*
X325092786Y-201004714D01*
X325092786Y-201149857D01*
X325020214Y-201367571D01*
X324149357Y-202238429D01*
X325092786Y-202238429D01*
X325745929Y-201222429D02*
X325745929Y-202746429D01*
X326471643Y-202020714D02*
X326544215Y-202165857D01*
X326689358Y-202238429D01*
X325745929Y-202020714D02*
X325818501Y-202165857D01*
X325963643Y-202238429D01*
X326253929Y-202238429D01*
X326399072Y-202165857D01*
X326471643Y-202020714D01*
X326471643Y-201222429D01*
X328431072Y-200641857D02*
X327124786Y-202601286D01*
X329592214Y-201222429D02*
X329592214Y-202238429D01*
X329229357Y-200641857D02*
X328866500Y-201730429D01*
X329809928Y-201730429D01*
X331116214Y-200714429D02*
X330390500Y-200714429D01*
X330317929Y-201440143D01*
X330390500Y-201367571D01*
X330535643Y-201295000D01*
X330898500Y-201295000D01*
X331043643Y-201367571D01*
X331116214Y-201440143D01*
X331188786Y-201585286D01*
X331188786Y-201948143D01*
X331116214Y-202093286D01*
X331043643Y-202165857D01*
X330898500Y-202238429D01*
X330535643Y-202238429D01*
X330390500Y-202165857D01*
X330317929Y-202093286D01*
X332132215Y-200714429D02*
X332277358Y-200714429D01*
X332422501Y-200787000D01*
X332495072Y-200859571D01*
X332567643Y-201004714D01*
X332640215Y-201295000D01*
X332640215Y-201657857D01*
X332567643Y-201948143D01*
X332495072Y-202093286D01*
X332422501Y-202165857D01*
X332277358Y-202238429D01*
X332132215Y-202238429D01*
X331987072Y-202165857D01*
X331914501Y-202093286D01*
X331841929Y-201948143D01*
X331769358Y-201657857D01*
X331769358Y-201295000D01*
X331841929Y-201004714D01*
X331914501Y-200859571D01*
X331987072Y-200787000D01*
X332132215Y-200714429D01*
X333075644Y-200714429D02*
X333583644Y-202238429D01*
X334091644Y-200714429D01*
X199780086Y-126961915D02*
X199852657Y-127034486D01*
X199925229Y-127252200D01*
X199925229Y-127397343D01*
X199852657Y-127615058D01*
X199707514Y-127760200D01*
X199562371Y-127832772D01*
X199272086Y-127905343D01*
X199054371Y-127905343D01*
X198764086Y-127832772D01*
X198618943Y-127760200D01*
X198473800Y-127615058D01*
X198401229Y-127397343D01*
X198401229Y-127252200D01*
X198473800Y-127034486D01*
X198546371Y-126961915D01*
X198546371Y-126381343D02*
X198473800Y-126308772D01*
X198401229Y-126163629D01*
X198401229Y-125800772D01*
X198473800Y-125655629D01*
X198546371Y-125583058D01*
X198691514Y-125510486D01*
X198836657Y-125510486D01*
X199054371Y-125583058D01*
X199925229Y-126453915D01*
X199925229Y-125510486D01*
X198401229Y-124131629D02*
X198401229Y-124857343D01*
X199126943Y-124929914D01*
X199054371Y-124857343D01*
X198981800Y-124712200D01*
X198981800Y-124349343D01*
X199054371Y-124204200D01*
X199126943Y-124131629D01*
X199272086Y-124059057D01*
X199634943Y-124059057D01*
X199780086Y-124131629D01*
X199852657Y-124204200D01*
X199925229Y-124349343D01*
X199925229Y-124712200D01*
X199852657Y-124857343D01*
X199780086Y-124929914D01*
X220909229Y-130844486D02*
X221925229Y-130844486D01*
X220328657Y-131207343D02*
X221417229Y-131570200D01*
X221417229Y-130626772D01*
X220401229Y-130191343D02*
X220401229Y-129175343D01*
X221925229Y-129828486D01*
X220909229Y-128594771D02*
X222433229Y-128594771D01*
X221707514Y-127869057D02*
X221852657Y-127796485D01*
X221925229Y-127651342D01*
X221707514Y-128594771D02*
X221852657Y-128522199D01*
X221925229Y-128377057D01*
X221925229Y-128086771D01*
X221852657Y-127941628D01*
X221707514Y-127869057D01*
X220909229Y-127869057D01*
X220328657Y-125909628D02*
X222288086Y-127215914D01*
X220909229Y-124748486D02*
X221925229Y-124748486D01*
X220328657Y-125111343D02*
X221417229Y-125474200D01*
X221417229Y-124530772D01*
X220401229Y-123224486D02*
X220401229Y-123950200D01*
X221126943Y-124022771D01*
X221054371Y-123950200D01*
X220981800Y-123805057D01*
X220981800Y-123442200D01*
X221054371Y-123297057D01*
X221126943Y-123224486D01*
X221272086Y-123151914D01*
X221634943Y-123151914D01*
X221780086Y-123224486D01*
X221852657Y-123297057D01*
X221925229Y-123442200D01*
X221925229Y-123805057D01*
X221852657Y-123950200D01*
X221780086Y-124022771D01*
X220401229Y-122208485D02*
X220401229Y-122063342D01*
X220473800Y-121918199D01*
X220546371Y-121845628D01*
X220691514Y-121773057D01*
X220981800Y-121700485D01*
X221344657Y-121700485D01*
X221634943Y-121773057D01*
X221780086Y-121845628D01*
X221852657Y-121918199D01*
X221925229Y-122063342D01*
X221925229Y-122208485D01*
X221852657Y-122353628D01*
X221780086Y-122426199D01*
X221634943Y-122498771D01*
X221344657Y-122571342D01*
X220981800Y-122571342D01*
X220691514Y-122498771D01*
X220546371Y-122426199D01*
X220473800Y-122353628D01*
X220401229Y-122208485D01*
X220401229Y-121265056D02*
X221925229Y-120757056D01*
X220401229Y-120249056D01*
D17*
X341755791Y-178416857D02*
X341707410Y-178465238D01*
X341562267Y-178513619D01*
X341465505Y-178513619D01*
X341320363Y-178465238D01*
X341223601Y-178368476D01*
X341175220Y-178271714D01*
X341126839Y-178078190D01*
X341126839Y-177933048D01*
X341175220Y-177739524D01*
X341223601Y-177642762D01*
X341320363Y-177546000D01*
X341465505Y-177497619D01*
X341562267Y-177497619D01*
X341707410Y-177546000D01*
X341755791Y-177594381D01*
X342675029Y-178513619D02*
X342191220Y-178513619D01*
X342191220Y-177497619D01*
X343013696Y-178513619D02*
X343013696Y-177497619D01*
X343594267Y-178513619D01*
X343594267Y-177497619D01*
X344852172Y-177981429D02*
X345190838Y-177981429D01*
X345335981Y-178513619D02*
X344852172Y-178513619D01*
X344852172Y-177497619D01*
X345335981Y-177497619D01*
X346448743Y-178610381D02*
X346351981Y-178562000D01*
X346255219Y-178465238D01*
X346110076Y-178320095D01*
X346013315Y-178271714D01*
X345916553Y-178271714D01*
X345964934Y-178513619D02*
X345868172Y-178465238D01*
X345771410Y-178368476D01*
X345723029Y-178174952D01*
X345723029Y-177836286D01*
X345771410Y-177642762D01*
X345868172Y-177546000D01*
X345964934Y-177497619D01*
X346158457Y-177497619D01*
X346255219Y-177546000D01*
X346351981Y-177642762D01*
X346400362Y-177836286D01*
X346400362Y-178174952D01*
X346351981Y-178368476D01*
X346255219Y-178465238D01*
X346158457Y-178513619D01*
X345964934Y-178513619D01*
X340163453Y-186925857D02*
X340115072Y-186974238D01*
X339969929Y-187022619D01*
X339873167Y-187022619D01*
X339728025Y-186974238D01*
X339631263Y-186877476D01*
X339582882Y-186780714D01*
X339534501Y-186587190D01*
X339534501Y-186442048D01*
X339582882Y-186248524D01*
X339631263Y-186151762D01*
X339728025Y-186055000D01*
X339873167Y-186006619D01*
X339969929Y-186006619D01*
X340115072Y-186055000D01*
X340163453Y-186103381D01*
X341082691Y-187022619D02*
X340598882Y-187022619D01*
X340598882Y-186006619D01*
X341421358Y-187022619D02*
X341421358Y-186006619D01*
X342001929Y-187022619D01*
X342001929Y-186006619D01*
X343259834Y-186490429D02*
X343598500Y-186490429D01*
X343743643Y-187022619D02*
X343259834Y-187022619D01*
X343259834Y-186006619D01*
X343743643Y-186006619D01*
X344856405Y-187119381D02*
X344759643Y-187071000D01*
X344662881Y-186974238D01*
X344517738Y-186829095D01*
X344420977Y-186780714D01*
X344324215Y-186780714D01*
X344372596Y-187022619D02*
X344275834Y-186974238D01*
X344179072Y-186877476D01*
X344130691Y-186683952D01*
X344130691Y-186345286D01*
X344179072Y-186151762D01*
X344275834Y-186055000D01*
X344372596Y-186006619D01*
X344566119Y-186006619D01*
X344662881Y-186055000D01*
X344759643Y-186151762D01*
X344808024Y-186345286D01*
X344808024Y-186683952D01*
X344759643Y-186877476D01*
X344662881Y-186974238D01*
X344566119Y-187022619D01*
X344372596Y-187022619D01*
X346549738Y-186055000D02*
X346452976Y-186006619D01*
X346307833Y-186006619D01*
X346162691Y-186055000D01*
X346065929Y-186151762D01*
X346017548Y-186248524D01*
X345969167Y-186442048D01*
X345969167Y-186587190D01*
X346017548Y-186780714D01*
X346065929Y-186877476D01*
X346162691Y-186974238D01*
X346307833Y-187022619D01*
X346404595Y-187022619D01*
X346549738Y-186974238D01*
X346598119Y-186925857D01*
X346598119Y-186587190D01*
X346404595Y-186587190D01*
X347033548Y-187022619D02*
X347033548Y-186006619D01*
X347614119Y-187022619D01*
X347614119Y-186006619D01*
X348097929Y-187022619D02*
X348097929Y-186006619D01*
X348339834Y-186006619D01*
X348484976Y-186055000D01*
X348581738Y-186151762D01*
X348630119Y-186248524D01*
X348678500Y-186442048D01*
X348678500Y-186587190D01*
X348630119Y-186780714D01*
X348581738Y-186877476D01*
X348484976Y-186974238D01*
X348339834Y-187022619D01*
X348097929Y-187022619D01*
X74805419Y-131447419D02*
X74321610Y-131447419D01*
X74321610Y-130431419D01*
X75144086Y-131447419D02*
X75144086Y-130431419D01*
X75385991Y-130431419D01*
X75531133Y-130479800D01*
X75627895Y-130576562D01*
X75676276Y-130673324D01*
X75724657Y-130866848D01*
X75724657Y-131011990D01*
X75676276Y-131205514D01*
X75627895Y-131302276D01*
X75531133Y-131399038D01*
X75385991Y-131447419D01*
X75144086Y-131447419D01*
X76934181Y-130915229D02*
X77272847Y-130915229D01*
X77417990Y-131447419D02*
X76934181Y-131447419D01*
X76934181Y-130431419D01*
X77417990Y-130431419D01*
X78530752Y-131544181D02*
X78433990Y-131495800D01*
X78337228Y-131399038D01*
X78192085Y-131253895D01*
X78095324Y-131205514D01*
X77998562Y-131205514D01*
X78046943Y-131447419D02*
X77950181Y-131399038D01*
X77853419Y-131302276D01*
X77805038Y-131108752D01*
X77805038Y-130770086D01*
X77853419Y-130576562D01*
X77950181Y-130479800D01*
X78046943Y-130431419D01*
X78240466Y-130431419D01*
X78337228Y-130479800D01*
X78433990Y-130576562D01*
X78482371Y-130770086D01*
X78482371Y-131108752D01*
X78433990Y-131302276D01*
X78337228Y-131399038D01*
X78240466Y-131447419D01*
X78046943Y-131447419D01*
D15*
X336782833Y-163953976D02*
X336359500Y-163288738D01*
X336057119Y-163953976D02*
X336057119Y-162556976D01*
X336540928Y-162556976D01*
X336661881Y-162623500D01*
X336722357Y-162690024D01*
X336782833Y-162823071D01*
X336782833Y-163022643D01*
X336722357Y-163155690D01*
X336661881Y-163222214D01*
X336540928Y-163288738D01*
X336057119Y-163288738D01*
X337206167Y-162556976D02*
X337992357Y-162556976D01*
X337569024Y-163089167D01*
X337750452Y-163089167D01*
X337871405Y-163155690D01*
X337931881Y-163222214D01*
X337992357Y-163355262D01*
X337992357Y-163687881D01*
X337931881Y-163820929D01*
X337871405Y-163887452D01*
X337750452Y-163953976D01*
X337387595Y-163953976D01*
X337266643Y-163887452D01*
X337206167Y-163820929D01*
X335697286Y-166366976D02*
X334971572Y-166366976D01*
X335334429Y-166366976D02*
X335334429Y-164969976D01*
X335213477Y-165169548D01*
X335092524Y-165302595D01*
X334971572Y-165369119D01*
X336483477Y-164969976D02*
X336604429Y-164969976D01*
X336725381Y-165036500D01*
X336785858Y-165103024D01*
X336846334Y-165236071D01*
X336906810Y-165502167D01*
X336906810Y-165834786D01*
X336846334Y-166100881D01*
X336785858Y-166233929D01*
X336725381Y-166300452D01*
X336604429Y-166366976D01*
X336483477Y-166366976D01*
X336362524Y-166300452D01*
X336302048Y-166233929D01*
X336241572Y-166100881D01*
X336181096Y-165834786D01*
X336181096Y-165502167D01*
X336241572Y-165236071D01*
X336302048Y-165103024D01*
X336362524Y-165036500D01*
X336483477Y-164969976D01*
X337693001Y-164969976D02*
X337813953Y-164969976D01*
X337934905Y-165036500D01*
X337995382Y-165103024D01*
X338055858Y-165236071D01*
X338116334Y-165502167D01*
X338116334Y-165834786D01*
X338055858Y-166100881D01*
X337995382Y-166233929D01*
X337934905Y-166300452D01*
X337813953Y-166366976D01*
X337693001Y-166366976D01*
X337572048Y-166300452D01*
X337511572Y-166233929D01*
X337451096Y-166100881D01*
X337390620Y-165834786D01*
X337390620Y-165502167D01*
X337451096Y-165236071D01*
X337511572Y-165103024D01*
X337572048Y-165036500D01*
X337693001Y-164969976D01*
X338660620Y-166366976D02*
X338660620Y-164969976D01*
X338781572Y-165834786D02*
X339144429Y-166366976D01*
X339144429Y-165435643D02*
X338660620Y-165967833D01*
X227148571Y-141362576D02*
X226725238Y-140697338D01*
X226422857Y-141362576D02*
X226422857Y-139965576D01*
X226906666Y-139965576D01*
X227027619Y-140032100D01*
X227088095Y-140098624D01*
X227148571Y-140231671D01*
X227148571Y-140431243D01*
X227088095Y-140564290D01*
X227027619Y-140630814D01*
X226906666Y-140697338D01*
X226422857Y-140697338D01*
X228358095Y-141362576D02*
X227632381Y-141362576D01*
X227995238Y-141362576D02*
X227995238Y-139965576D01*
X227874286Y-140165148D01*
X227753333Y-140298195D01*
X227632381Y-140364719D01*
X229144286Y-139965576D02*
X229265238Y-139965576D01*
X229386190Y-140032100D01*
X229446667Y-140098624D01*
X229507143Y-140231671D01*
X229567619Y-140497767D01*
X229567619Y-140830386D01*
X229507143Y-141096481D01*
X229446667Y-141229529D01*
X229386190Y-141296052D01*
X229265238Y-141362576D01*
X229144286Y-141362576D01*
X229023333Y-141296052D01*
X228962857Y-141229529D01*
X228902381Y-141096481D01*
X228841905Y-140830386D01*
X228841905Y-140497767D01*
X228902381Y-140231671D01*
X228962857Y-140098624D01*
X229023333Y-140032100D01*
X229144286Y-139965576D01*
X227008267Y-143887976D02*
X226282553Y-143887976D01*
X226645410Y-143887976D02*
X226645410Y-142490976D01*
X226524458Y-142690548D01*
X226403505Y-142823595D01*
X226282553Y-142890119D01*
X227552553Y-143754929D02*
X227613029Y-143821452D01*
X227552553Y-143887976D01*
X227492077Y-143821452D01*
X227552553Y-143754929D01*
X227552553Y-143887976D01*
X228762077Y-142490976D02*
X228157315Y-142490976D01*
X228096839Y-143156214D01*
X228157315Y-143089690D01*
X228278267Y-143023167D01*
X228580648Y-143023167D01*
X228701601Y-143089690D01*
X228762077Y-143156214D01*
X228822553Y-143289262D01*
X228822553Y-143621881D01*
X228762077Y-143754929D01*
X228701601Y-143821452D01*
X228580648Y-143887976D01*
X228278267Y-143887976D01*
X228157315Y-143821452D01*
X228096839Y-143754929D01*
X229366839Y-143887976D02*
X229366839Y-142490976D01*
X229487791Y-143355786D02*
X229850648Y-143887976D01*
X229850648Y-142956643D02*
X229366839Y-143488833D01*
X242958776Y-143955829D02*
X242293538Y-144379162D01*
X242958776Y-144681543D02*
X241561776Y-144681543D01*
X241561776Y-144197734D01*
X241628300Y-144076781D01*
X241694824Y-144016305D01*
X241827871Y-143955829D01*
X242027443Y-143955829D01*
X242160490Y-144016305D01*
X242227014Y-144076781D01*
X242293538Y-144197734D01*
X242293538Y-144681543D01*
X241694824Y-143472019D02*
X241628300Y-143411543D01*
X241561776Y-143290591D01*
X241561776Y-142988210D01*
X241628300Y-142867257D01*
X241694824Y-142806781D01*
X241827871Y-142746305D01*
X241960919Y-142746305D01*
X242160490Y-142806781D01*
X242958776Y-143532495D01*
X242958776Y-142746305D01*
X241694824Y-142262495D02*
X241628300Y-142202019D01*
X241561776Y-142081067D01*
X241561776Y-141778686D01*
X241628300Y-141657733D01*
X241694824Y-141597257D01*
X241827871Y-141536781D01*
X241960919Y-141536781D01*
X242160490Y-141597257D01*
X242958776Y-142322971D01*
X242958776Y-141536781D01*
X240433376Y-143834152D02*
X240433376Y-144559866D01*
X240433376Y-144197009D02*
X239036376Y-144197009D01*
X239235948Y-144317961D01*
X239368995Y-144438914D01*
X239435519Y-144559866D01*
X239036376Y-143047961D02*
X239036376Y-142927009D01*
X239102900Y-142806057D01*
X239169424Y-142745580D01*
X239302471Y-142685104D01*
X239568567Y-142624628D01*
X239901186Y-142624628D01*
X240167281Y-142685104D01*
X240300329Y-142745580D01*
X240366852Y-142806057D01*
X240433376Y-142927009D01*
X240433376Y-143047961D01*
X240366852Y-143168914D01*
X240300329Y-143229390D01*
X240167281Y-143289866D01*
X239901186Y-143350342D01*
X239568567Y-143350342D01*
X239302471Y-143289866D01*
X239169424Y-143229390D01*
X239102900Y-143168914D01*
X239036376Y-143047961D01*
X240433376Y-142080342D02*
X239036376Y-142080342D01*
X239901186Y-141959390D02*
X240433376Y-141596533D01*
X239502043Y-141596533D02*
X240034233Y-142080342D01*
X84274176Y-201933629D02*
X83608938Y-202356962D01*
X84274176Y-202659343D02*
X82877176Y-202659343D01*
X82877176Y-202175534D01*
X82943700Y-202054581D01*
X83010224Y-201994105D01*
X83143271Y-201933629D01*
X83342843Y-201933629D01*
X83475890Y-201994105D01*
X83542414Y-202054581D01*
X83608938Y-202175534D01*
X83608938Y-202659343D01*
X82877176Y-201510295D02*
X82877176Y-200724105D01*
X83409367Y-201147438D01*
X83409367Y-200966010D01*
X83475890Y-200845057D01*
X83542414Y-200784581D01*
X83675462Y-200724105D01*
X84008081Y-200724105D01*
X84141129Y-200784581D01*
X84207652Y-200845057D01*
X84274176Y-200966010D01*
X84274176Y-201328867D01*
X84207652Y-201449819D01*
X84141129Y-201510295D01*
X82877176Y-199575057D02*
X82877176Y-200179819D01*
X83542414Y-200240295D01*
X83475890Y-200179819D01*
X83409367Y-200058867D01*
X83409367Y-199756486D01*
X83475890Y-199635533D01*
X83542414Y-199575057D01*
X83675462Y-199514581D01*
X84008081Y-199514581D01*
X84141129Y-199575057D01*
X84207652Y-199635533D01*
X84274176Y-199756486D01*
X84274176Y-200058867D01*
X84207652Y-200179819D01*
X84141129Y-200240295D01*
X81937376Y-201556257D02*
X81937376Y-202281971D01*
X81937376Y-201919114D02*
X80540376Y-201919114D01*
X80739948Y-202040066D01*
X80872995Y-202161019D01*
X80939519Y-202281971D01*
X81937376Y-201011971D02*
X80540376Y-201011971D01*
X81538233Y-200588638D01*
X80540376Y-200165304D01*
X81937376Y-200165304D01*
X126285776Y-200054029D02*
X125620538Y-200477362D01*
X126285776Y-200779743D02*
X124888776Y-200779743D01*
X124888776Y-200295934D01*
X124955300Y-200174981D01*
X125021824Y-200114505D01*
X125154871Y-200054029D01*
X125354443Y-200054029D01*
X125487490Y-200114505D01*
X125554014Y-200174981D01*
X125620538Y-200295934D01*
X125620538Y-200779743D01*
X124888776Y-199630695D02*
X124888776Y-198844505D01*
X125420967Y-199267838D01*
X125420967Y-199086410D01*
X125487490Y-198965457D01*
X125554014Y-198904981D01*
X125687062Y-198844505D01*
X126019681Y-198844505D01*
X126152729Y-198904981D01*
X126219252Y-198965457D01*
X126285776Y-199086410D01*
X126285776Y-199449267D01*
X126219252Y-199570219D01*
X126152729Y-199630695D01*
X124888776Y-197755933D02*
X124888776Y-197997838D01*
X124955300Y-198118790D01*
X125021824Y-198179267D01*
X125221395Y-198300219D01*
X125487490Y-198360695D01*
X126019681Y-198360695D01*
X126152729Y-198300219D01*
X126219252Y-198239743D01*
X126285776Y-198118790D01*
X126285776Y-197876886D01*
X126219252Y-197755933D01*
X126152729Y-197695457D01*
X126019681Y-197634981D01*
X125687062Y-197634981D01*
X125554014Y-197695457D01*
X125487490Y-197755933D01*
X125420967Y-197876886D01*
X125420967Y-198118790D01*
X125487490Y-198239743D01*
X125554014Y-198300219D01*
X125687062Y-198360695D01*
X128673376Y-199676657D02*
X128673376Y-200402371D01*
X128673376Y-200039514D02*
X127276376Y-200039514D01*
X127475948Y-200160466D01*
X127608995Y-200281419D01*
X127675519Y-200402371D01*
X128673376Y-199132371D02*
X127276376Y-199132371D01*
X128274233Y-198709038D01*
X127276376Y-198285704D01*
X128673376Y-198285704D01*
X77009776Y-173841229D02*
X76344538Y-174264562D01*
X77009776Y-174566943D02*
X75612776Y-174566943D01*
X75612776Y-174083134D01*
X75679300Y-173962181D01*
X75745824Y-173901705D01*
X75878871Y-173841229D01*
X76078443Y-173841229D01*
X76211490Y-173901705D01*
X76278014Y-173962181D01*
X76344538Y-174083134D01*
X76344538Y-174566943D01*
X75612776Y-173417895D02*
X75612776Y-172631705D01*
X76144967Y-173055038D01*
X76144967Y-172873610D01*
X76211490Y-172752657D01*
X76278014Y-172692181D01*
X76411062Y-172631705D01*
X76743681Y-172631705D01*
X76876729Y-172692181D01*
X76943252Y-172752657D01*
X77009776Y-172873610D01*
X77009776Y-173236467D01*
X76943252Y-173357419D01*
X76876729Y-173417895D01*
X77009776Y-172026943D02*
X77009776Y-171785038D01*
X76943252Y-171664086D01*
X76876729Y-171603610D01*
X76677157Y-171482657D01*
X76411062Y-171422181D01*
X75878871Y-171422181D01*
X75745824Y-171482657D01*
X75679300Y-171543133D01*
X75612776Y-171664086D01*
X75612776Y-171905990D01*
X75679300Y-172026943D01*
X75745824Y-172087419D01*
X75878871Y-172147895D01*
X76211490Y-172147895D01*
X76344538Y-172087419D01*
X76411062Y-172026943D01*
X76477586Y-171905990D01*
X76477586Y-171664086D01*
X76411062Y-171543133D01*
X76344538Y-171482657D01*
X76211490Y-171422181D01*
X79270376Y-174309314D02*
X79270376Y-175035028D01*
X79270376Y-174672171D02*
X77873376Y-174672171D01*
X78072948Y-174793123D01*
X78205995Y-174914076D01*
X78272519Y-175035028D01*
X77873376Y-173523123D02*
X77873376Y-173402171D01*
X77939900Y-173281219D01*
X78006424Y-173220742D01*
X78139471Y-173160266D01*
X78405567Y-173099790D01*
X78738186Y-173099790D01*
X79004281Y-173160266D01*
X79137329Y-173220742D01*
X79203852Y-173281219D01*
X79270376Y-173402171D01*
X79270376Y-173523123D01*
X79203852Y-173644076D01*
X79137329Y-173704552D01*
X79004281Y-173765028D01*
X78738186Y-173825504D01*
X78405567Y-173825504D01*
X78139471Y-173765028D01*
X78006424Y-173704552D01*
X77939900Y-173644076D01*
X77873376Y-173523123D01*
X77873376Y-172313599D02*
X77873376Y-172192647D01*
X77939900Y-172071695D01*
X78006424Y-172011218D01*
X78139471Y-171950742D01*
X78405567Y-171890266D01*
X78738186Y-171890266D01*
X79004281Y-171950742D01*
X79137329Y-172011218D01*
X79203852Y-172071695D01*
X79270376Y-172192647D01*
X79270376Y-172313599D01*
X79203852Y-172434552D01*
X79137329Y-172495028D01*
X79004281Y-172555504D01*
X78738186Y-172615980D01*
X78405567Y-172615980D01*
X78139471Y-172555504D01*
X78006424Y-172495028D01*
X77939900Y-172434552D01*
X77873376Y-172313599D01*
X79270376Y-171345980D02*
X77873376Y-171345980D01*
X78738186Y-171225028D02*
X79270376Y-170862171D01*
X78339043Y-170862171D02*
X78871233Y-171345980D01*
X105050771Y-145538976D02*
X104627438Y-144873738D01*
X104325057Y-145538976D02*
X104325057Y-144141976D01*
X104808866Y-144141976D01*
X104929819Y-144208500D01*
X104990295Y-144275024D01*
X105050771Y-144408071D01*
X105050771Y-144607643D01*
X104990295Y-144740690D01*
X104929819Y-144807214D01*
X104808866Y-144873738D01*
X104325057Y-144873738D01*
X106139343Y-144607643D02*
X106139343Y-145538976D01*
X105836962Y-144075452D02*
X105534581Y-145073310D01*
X106320771Y-145073310D01*
X107469819Y-145538976D02*
X106744105Y-145538976D01*
X107106962Y-145538976D02*
X107106962Y-144141976D01*
X106986010Y-144341548D01*
X106865057Y-144474595D01*
X106744105Y-144541119D01*
X104551239Y-147026690D02*
X104430286Y-146960167D01*
X104369810Y-146893643D01*
X104309334Y-146760595D01*
X104309334Y-146694071D01*
X104369810Y-146561024D01*
X104430286Y-146494500D01*
X104551239Y-146427976D01*
X104793143Y-146427976D01*
X104914096Y-146494500D01*
X104974572Y-146561024D01*
X105035048Y-146694071D01*
X105035048Y-146760595D01*
X104974572Y-146893643D01*
X104914096Y-146960167D01*
X104793143Y-147026690D01*
X104551239Y-147026690D01*
X104430286Y-147093214D01*
X104369810Y-147159738D01*
X104309334Y-147292786D01*
X104309334Y-147558881D01*
X104369810Y-147691929D01*
X104430286Y-147758452D01*
X104551239Y-147824976D01*
X104793143Y-147824976D01*
X104914096Y-147758452D01*
X104974572Y-147691929D01*
X105035048Y-147558881D01*
X105035048Y-147292786D01*
X104974572Y-147159738D01*
X104914096Y-147093214D01*
X104793143Y-147026690D01*
X105518858Y-146561024D02*
X105579334Y-146494500D01*
X105700286Y-146427976D01*
X106002667Y-146427976D01*
X106123620Y-146494500D01*
X106184096Y-146561024D01*
X106244572Y-146694071D01*
X106244572Y-146827119D01*
X106184096Y-147026690D01*
X105458382Y-147824976D01*
X106244572Y-147824976D01*
X106788858Y-147824976D02*
X106788858Y-146427976D01*
X106909810Y-147292786D02*
X107272667Y-147824976D01*
X107272667Y-146893643D02*
X106788858Y-147425833D01*
X82622571Y-143176776D02*
X82199238Y-142511538D01*
X81896857Y-143176776D02*
X81896857Y-141779776D01*
X82380666Y-141779776D01*
X82501619Y-141846300D01*
X82562095Y-141912824D01*
X82622571Y-142045871D01*
X82622571Y-142245443D01*
X82562095Y-142378490D01*
X82501619Y-142445014D01*
X82380666Y-142511538D01*
X81896857Y-142511538D01*
X83711143Y-142245443D02*
X83711143Y-143176776D01*
X83408762Y-141713252D02*
X83106381Y-142711110D01*
X83892571Y-142711110D01*
X84315905Y-141912824D02*
X84376381Y-141846300D01*
X84497333Y-141779776D01*
X84799714Y-141779776D01*
X84920667Y-141846300D01*
X84981143Y-141912824D01*
X85041619Y-142045871D01*
X85041619Y-142178919D01*
X84981143Y-142378490D01*
X84255429Y-143176776D01*
X85041619Y-143176776D01*
X82435096Y-144658443D02*
X82435096Y-145589776D01*
X82132715Y-144126252D02*
X81830334Y-145124110D01*
X82616524Y-145124110D01*
X82979382Y-144192776D02*
X83826048Y-144192776D01*
X83281763Y-145589776D01*
X84309858Y-145589776D02*
X84309858Y-144192776D01*
X84430810Y-145057586D02*
X84793667Y-145589776D01*
X84793667Y-144658443D02*
X84309858Y-145190633D01*
X98407347Y-155931308D02*
X97984014Y-155266070D01*
X97681633Y-155931308D02*
X97681633Y-154534308D01*
X98165442Y-154534308D01*
X98286395Y-154600832D01*
X98346871Y-154667356D01*
X98407347Y-154800403D01*
X98407347Y-154999975D01*
X98346871Y-155133022D01*
X98286395Y-155199546D01*
X98165442Y-155266070D01*
X97681633Y-155266070D01*
X99495919Y-154999975D02*
X99495919Y-155931308D01*
X99193538Y-154467784D02*
X98891157Y-155465642D01*
X99677347Y-155465642D01*
X100040205Y-154534308D02*
X100826395Y-154534308D01*
X100403062Y-155066499D01*
X100584490Y-155066499D01*
X100705443Y-155133022D01*
X100765919Y-155199546D01*
X100826395Y-155332594D01*
X100826395Y-155665213D01*
X100765919Y-155798261D01*
X100705443Y-155864784D01*
X100584490Y-155931308D01*
X100221633Y-155931308D01*
X100100681Y-155864784D01*
X100040205Y-155798261D01*
X97721058Y-152117576D02*
X98507248Y-152117576D01*
X98083915Y-152649767D01*
X98265343Y-152649767D01*
X98386296Y-152716290D01*
X98446772Y-152782814D01*
X98507248Y-152915862D01*
X98507248Y-153248481D01*
X98446772Y-153381529D01*
X98386296Y-153448052D01*
X98265343Y-153514576D01*
X97902486Y-153514576D01*
X97781534Y-153448052D01*
X97721058Y-153381529D01*
X98930582Y-152117576D02*
X99716772Y-152117576D01*
X99293439Y-152649767D01*
X99474867Y-152649767D01*
X99595820Y-152716290D01*
X99656296Y-152782814D01*
X99716772Y-152915862D01*
X99716772Y-153248481D01*
X99656296Y-153381529D01*
X99595820Y-153448052D01*
X99474867Y-153514576D01*
X99112010Y-153514576D01*
X98991058Y-153448052D01*
X98930582Y-153381529D01*
X100261058Y-153514576D02*
X100261058Y-152117576D01*
X100382010Y-152982386D02*
X100744867Y-153514576D01*
X100744867Y-152583243D02*
X100261058Y-153115433D01*
X319160071Y-153071976D02*
X318736738Y-152406738D01*
X318434357Y-153071976D02*
X318434357Y-151674976D01*
X318918166Y-151674976D01*
X319039119Y-151741500D01*
X319099595Y-151808024D01*
X319160071Y-151941071D01*
X319160071Y-152140643D01*
X319099595Y-152273690D01*
X319039119Y-152340214D01*
X318918166Y-152406738D01*
X318434357Y-152406738D01*
X320248643Y-152140643D02*
X320248643Y-153071976D01*
X319946262Y-151608452D02*
X319643881Y-152606310D01*
X320430071Y-152606310D01*
X321458167Y-152140643D02*
X321458167Y-153071976D01*
X321155786Y-151608452D02*
X320853405Y-152606310D01*
X321639595Y-152606310D01*
X319182448Y-155622776D02*
X318456734Y-155622776D01*
X318819591Y-155622776D02*
X318819591Y-154225776D01*
X318698639Y-154425348D01*
X318577686Y-154558395D01*
X318456734Y-154624919D01*
X319968639Y-154225776D02*
X320089591Y-154225776D01*
X320210543Y-154292300D01*
X320271020Y-154358824D01*
X320331496Y-154491871D01*
X320391972Y-154757967D01*
X320391972Y-155090586D01*
X320331496Y-155356681D01*
X320271020Y-155489729D01*
X320210543Y-155556252D01*
X320089591Y-155622776D01*
X319968639Y-155622776D01*
X319847686Y-155556252D01*
X319787210Y-155489729D01*
X319726734Y-155356681D01*
X319666258Y-155090586D01*
X319666258Y-154757967D01*
X319726734Y-154491871D01*
X319787210Y-154358824D01*
X319847686Y-154292300D01*
X319968639Y-154225776D01*
X320936258Y-155622776D02*
X320936258Y-154225776D01*
X321057210Y-155090586D02*
X321420067Y-155622776D01*
X321420067Y-154691443D02*
X320936258Y-155223633D01*
X179549971Y-103822776D02*
X179126638Y-103157538D01*
X178824257Y-103822776D02*
X178824257Y-102425776D01*
X179308066Y-102425776D01*
X179429019Y-102492300D01*
X179489495Y-102558824D01*
X179549971Y-102691871D01*
X179549971Y-102891443D01*
X179489495Y-103024490D01*
X179429019Y-103091014D01*
X179308066Y-103157538D01*
X178824257Y-103157538D01*
X180638543Y-102891443D02*
X180638543Y-103822776D01*
X180336162Y-102359252D02*
X180033781Y-103357110D01*
X180819971Y-103357110D01*
X181908543Y-102425776D02*
X181303781Y-102425776D01*
X181243305Y-103091014D01*
X181303781Y-103024490D01*
X181424733Y-102957967D01*
X181727114Y-102957967D01*
X181848067Y-103024490D01*
X181908543Y-103091014D01*
X181969019Y-103224062D01*
X181969019Y-103556681D01*
X181908543Y-103689729D01*
X181848067Y-103756252D01*
X181727114Y-103822776D01*
X181424733Y-103822776D01*
X181303781Y-103756252D01*
X181243305Y-103689729D01*
X177614733Y-105822776D02*
X176889019Y-105822776D01*
X177251876Y-105822776D02*
X177251876Y-104425776D01*
X177130924Y-104625348D01*
X177009971Y-104758395D01*
X176889019Y-104824919D01*
X178400924Y-104425776D02*
X178521876Y-104425776D01*
X178642828Y-104492300D01*
X178703305Y-104558824D01*
X178763781Y-104691871D01*
X178824257Y-104957967D01*
X178824257Y-105290586D01*
X178763781Y-105556681D01*
X178703305Y-105689729D01*
X178642828Y-105756252D01*
X178521876Y-105822776D01*
X178400924Y-105822776D01*
X178279971Y-105756252D01*
X178219495Y-105689729D01*
X178159019Y-105556681D01*
X178098543Y-105290586D01*
X178098543Y-104957967D01*
X178159019Y-104691871D01*
X178219495Y-104558824D01*
X178279971Y-104492300D01*
X178400924Y-104425776D01*
X179368543Y-105822776D02*
X179368543Y-104425776D01*
X179489495Y-105290586D02*
X179852352Y-105822776D01*
X179852352Y-104891443D02*
X179368543Y-105423633D01*
X181303781Y-104359252D02*
X180215209Y-106155395D01*
X181666638Y-104558824D02*
X181727114Y-104492300D01*
X181848066Y-104425776D01*
X182150447Y-104425776D01*
X182271400Y-104492300D01*
X182331876Y-104558824D01*
X182392352Y-104691871D01*
X182392352Y-104824919D01*
X182331876Y-105024490D01*
X181606162Y-105822776D01*
X182392352Y-105822776D01*
X182815686Y-104425776D02*
X183118067Y-105822776D01*
X183359971Y-104824919D01*
X183601876Y-105822776D01*
X183904257Y-104425776D01*
X265611429Y-201252667D02*
X265677952Y-201313143D01*
X265744476Y-201494572D01*
X265744476Y-201615524D01*
X265677952Y-201796952D01*
X265544905Y-201917905D01*
X265411857Y-201978381D01*
X265145762Y-202038857D01*
X264946190Y-202038857D01*
X264680095Y-201978381D01*
X264547048Y-201917905D01*
X264414000Y-201796952D01*
X264347476Y-201615524D01*
X264347476Y-201494572D01*
X264414000Y-201313143D01*
X264480524Y-201252667D01*
X264347476Y-200829333D02*
X264347476Y-200043143D01*
X264879667Y-200466476D01*
X264879667Y-200285048D01*
X264946190Y-200164095D01*
X265012714Y-200103619D01*
X265145762Y-200043143D01*
X265478381Y-200043143D01*
X265611429Y-200103619D01*
X265677952Y-200164095D01*
X265744476Y-200285048D01*
X265744476Y-200647905D01*
X265677952Y-200768857D01*
X265611429Y-200829333D01*
X265490476Y-192834381D02*
X265490476Y-193560095D01*
X265490476Y-193197238D02*
X264093476Y-193197238D01*
X264293048Y-193318190D01*
X264426095Y-193439143D01*
X264492619Y-193560095D01*
X264559143Y-192290095D02*
X265956143Y-192290095D01*
X265290905Y-191685333D02*
X265423952Y-191624857D01*
X265490476Y-191503905D01*
X265290905Y-192290095D02*
X265423952Y-192229619D01*
X265490476Y-192108666D01*
X265490476Y-191866762D01*
X265423952Y-191745809D01*
X265290905Y-191685333D01*
X264559143Y-191685333D01*
X273056929Y-169591167D02*
X273123452Y-169651643D01*
X273189976Y-169833072D01*
X273189976Y-169954024D01*
X273123452Y-170135452D01*
X272990405Y-170256405D01*
X272857357Y-170316881D01*
X272591262Y-170377357D01*
X272391690Y-170377357D01*
X272125595Y-170316881D01*
X271992548Y-170256405D01*
X271859500Y-170135452D01*
X271792976Y-169954024D01*
X271792976Y-169833072D01*
X271859500Y-169651643D01*
X271926024Y-169591167D01*
X271792976Y-168442119D02*
X271792976Y-169046881D01*
X272458214Y-169107357D01*
X272391690Y-169046881D01*
X272325167Y-168925929D01*
X272325167Y-168623548D01*
X272391690Y-168502595D01*
X272458214Y-168442119D01*
X272591262Y-168381643D01*
X272923881Y-168381643D01*
X273056929Y-168442119D01*
X273123452Y-168502595D01*
X273189976Y-168623548D01*
X273189976Y-168925929D01*
X273123452Y-169046881D01*
X273056929Y-169107357D01*
X273926024Y-170921643D02*
X273859500Y-170861167D01*
X273792976Y-170740215D01*
X273792976Y-170437834D01*
X273859500Y-170316881D01*
X273926024Y-170256405D01*
X274059071Y-170195929D01*
X274192119Y-170195929D01*
X274391690Y-170256405D01*
X275189976Y-170982119D01*
X275189976Y-170195929D01*
X273926024Y-169712119D02*
X273859500Y-169651643D01*
X273792976Y-169530691D01*
X273792976Y-169228310D01*
X273859500Y-169107357D01*
X273926024Y-169046881D01*
X274059071Y-168986405D01*
X274192119Y-168986405D01*
X274391690Y-169046881D01*
X275189976Y-169772595D01*
X275189976Y-168986405D01*
X274258643Y-168442119D02*
X275189976Y-168442119D01*
X274391690Y-168442119D02*
X274325167Y-168381643D01*
X274258643Y-168260690D01*
X274258643Y-168079262D01*
X274325167Y-167958310D01*
X274458214Y-167897833D01*
X275189976Y-167897833D01*
X234031971Y-103495929D02*
X233971495Y-103562452D01*
X233790066Y-103628976D01*
X233669114Y-103628976D01*
X233487686Y-103562452D01*
X233366733Y-103429405D01*
X233306257Y-103296357D01*
X233245781Y-103030262D01*
X233245781Y-102830690D01*
X233306257Y-102564595D01*
X233366733Y-102431548D01*
X233487686Y-102298500D01*
X233669114Y-102231976D01*
X233790066Y-102231976D01*
X233971495Y-102298500D01*
X234031971Y-102365024D01*
X235241495Y-103628976D02*
X234515781Y-103628976D01*
X234878638Y-103628976D02*
X234878638Y-102231976D01*
X234757686Y-102431548D01*
X234636733Y-102564595D01*
X234515781Y-102631119D01*
X236330067Y-102697643D02*
X236330067Y-103628976D01*
X236027686Y-102165452D02*
X235725305Y-103163310D01*
X236511495Y-103163310D01*
X234133571Y-105914976D02*
X233407857Y-105914976D01*
X233770714Y-105914976D02*
X233770714Y-104517976D01*
X233649762Y-104717548D01*
X233528809Y-104850595D01*
X233407857Y-104917119D01*
X234919762Y-104517976D02*
X235040714Y-104517976D01*
X235161666Y-104584500D01*
X235222143Y-104651024D01*
X235282619Y-104784071D01*
X235343095Y-105050167D01*
X235343095Y-105382786D01*
X235282619Y-105648881D01*
X235222143Y-105781929D01*
X235161666Y-105848452D01*
X235040714Y-105914976D01*
X234919762Y-105914976D01*
X234798809Y-105848452D01*
X234738333Y-105781929D01*
X234677857Y-105648881D01*
X234617381Y-105382786D01*
X234617381Y-105050167D01*
X234677857Y-104784071D01*
X234738333Y-104651024D01*
X234798809Y-104584500D01*
X234919762Y-104517976D01*
X235887381Y-104983643D02*
X235887381Y-105914976D01*
X235887381Y-105116690D02*
X235947857Y-105050167D01*
X236068810Y-104983643D01*
X236250238Y-104983643D01*
X236371190Y-105050167D01*
X236431667Y-105183214D01*
X236431667Y-105914976D01*
M02*
