G04 #@! TF.FileFunction,Soldermask,Top*
%FSLAX46Y46*%
G04 Gerber Fmt 4.6, Leading zero omitted, Abs format (unit mm)*
G04 Created by KiCad (PCBNEW 4.0.7+dfsg1-1) date Sat Dec  2 13:30:58 2017*
%MOMM*%
%LPD*%
G01*
G04 APERTURE LIST*
%ADD10C,0.100000*%
%ADD11C,3.500000*%
%ADD12C,1.000000*%
%ADD13C,5.500000*%
%ADD14C,30.000000*%
%ADD15R,2.000000X2.000000*%
%ADD16C,2.000000*%
%ADD17O,4.000000X2.500000*%
%ADD18R,1.600200X1.168400*%
G04 APERTURE END LIST*
D10*
D11*
X292500000Y-162500000D03*
X247500000Y-215000000D03*
X157607000Y-156514800D03*
X82500000Y-216000000D03*
X75000000Y-105000000D03*
X270000000Y-105000000D03*
D12*
X92430600Y-169214800D03*
X337616800Y-185242200D03*
X337464400Y-159156400D03*
X234746800Y-170078400D03*
X122834400Y-148132800D03*
X92913200Y-112191800D03*
X239141000Y-111785400D03*
X161671000Y-115138200D03*
X137693400Y-178282600D03*
X175387000Y-216230200D03*
X256743200Y-208457800D03*
D13*
X194500000Y-114000000D03*
X225500000Y-136000000D03*
D14*
X210000000Y-125000000D03*
D13*
X194500000Y-136000000D03*
X225500000Y-114000000D03*
X229000000Y-125000000D03*
X162128200Y-109877200D03*
X162128200Y-134877200D03*
X229500000Y-174000000D03*
X226000000Y-185000000D03*
X260500000Y-196000000D03*
D14*
X245000000Y-185000000D03*
D13*
X229500000Y-196000000D03*
X260500000Y-174000000D03*
X304500000Y-174000000D03*
X301000000Y-185000000D03*
X335500000Y-196000000D03*
D14*
X320000000Y-185000000D03*
D13*
X304500000Y-196000000D03*
X335500000Y-174000000D03*
X250875800Y-117373400D03*
X250875800Y-131373400D03*
X233147000Y-212534500D03*
X214147000Y-212534500D03*
X304800000Y-209423000D03*
X285800000Y-209423000D03*
X334391000Y-214249000D03*
X199034400Y-154888800D03*
X199034400Y-173888800D03*
X173687200Y-148183600D03*
X189687200Y-148183600D03*
X112090200Y-131165600D03*
X98090200Y-131165600D03*
X245046500Y-166306500D03*
X245046500Y-203506500D03*
X175006000Y-161775200D03*
X175006000Y-207975200D03*
X104203500Y-164380500D03*
X104203500Y-210580500D03*
D15*
X260159500Y-112331500D03*
D16*
X267779500Y-112331500D03*
D17*
X267779500Y-135699500D03*
X267779500Y-130619500D03*
X267779500Y-117919500D03*
X260159500Y-117919500D03*
X260159500Y-130619500D03*
X260159500Y-135699500D03*
X260159500Y-125539500D03*
X267779500Y-125539500D03*
D13*
X252476000Y-105206800D03*
X262407400Y-105156000D03*
X260096000Y-141478000D03*
X152679400Y-105181400D03*
X206599000Y-163169600D03*
X220599000Y-163169600D03*
X131821400Y-155448000D03*
X145821400Y-155448000D03*
X253286500Y-165100000D03*
X267286500Y-165100000D03*
X232816400Y-117968000D03*
X232816400Y-131968000D03*
X239826800Y-122139400D03*
X239826800Y-136139400D03*
X221805500Y-177990500D03*
X221805500Y-191990500D03*
X209677000Y-205960500D03*
X209677000Y-191960500D03*
X220012500Y-204597000D03*
X234012500Y-204597000D03*
X197675500Y-192199500D03*
X197675500Y-206199500D03*
X289560000Y-184277000D03*
X289560000Y-198277000D03*
X168016400Y-157073600D03*
X182016400Y-157073600D03*
X294830500Y-177990500D03*
X294830500Y-191990500D03*
X297863500Y-203581000D03*
X311863500Y-203581000D03*
X150622000Y-178074800D03*
X150622000Y-192074800D03*
X136296400Y-207202800D03*
X136296400Y-193202800D03*
X149972000Y-203200000D03*
X163972000Y-203200000D03*
X179806600Y-110906800D03*
X179806600Y-124906800D03*
X175539400Y-118069600D03*
X175539400Y-132069600D03*
X184632600Y-118018800D03*
X184632600Y-132018800D03*
X120548400Y-196047600D03*
X120548400Y-210047600D03*
X112583200Y-164312600D03*
X126583200Y-164312600D03*
X132562600Y-185496200D03*
X132562600Y-171496200D03*
X76784200Y-187244200D03*
X76784200Y-201244200D03*
X140000000Y-106000000D03*
X126500000Y-138500000D03*
X153500000Y-138500000D03*
D14*
X140000000Y-125000000D03*
D13*
X280098500Y-192595500D03*
D18*
X334391000Y-208788000D03*
X334391000Y-210312000D03*
D13*
X280035000Y-165315500D03*
X280035000Y-184315500D03*
X215455500Y-172612000D03*
X215455500Y-197612000D03*
X203581000Y-180936500D03*
X203581000Y-199936500D03*
X144221200Y-172513600D03*
X144221200Y-197513600D03*
X343916000Y-193449000D03*
X343916000Y-214249000D03*
X269036800Y-147980400D03*
X248236800Y-147980400D03*
X162509600Y-211226400D03*
X143509600Y-211226400D03*
X119709800Y-159816800D03*
X138709800Y-159816800D03*
X160020000Y-144068800D03*
X141020000Y-144068800D03*
X93599000Y-212852000D03*
X74599000Y-212852000D03*
X92325776Y-152748532D03*
X73325776Y-152748532D03*
X320167000Y-166381000D03*
X320167000Y-203581000D03*
X210235800Y-103482200D03*
X210235800Y-149682200D03*
X343916000Y-174117000D03*
X343916000Y-182816500D03*
X76301600Y-135407400D03*
X329931000Y-165735000D03*
X343931000Y-165735000D03*
X220965000Y-143230600D03*
X234965000Y-143230600D03*
X239826800Y-136139400D03*
X239826800Y-150139400D03*
X81254600Y-208168000D03*
X81254600Y-194168000D03*
X127990600Y-192252600D03*
X127990600Y-206252600D03*
X78587600Y-166075600D03*
X78587600Y-180075600D03*
X112827776Y-147109732D03*
X98827776Y-147109732D03*
X90384576Y-144976132D03*
X76384576Y-144976132D03*
X106223776Y-152799332D03*
X92223776Y-152799332D03*
X312976500Y-154940000D03*
X326976500Y-154940000D03*
X172366400Y-104190800D03*
X188366400Y-104190800D03*
X159500000Y-174000000D03*
X156000000Y-185000000D03*
X190500000Y-196000000D03*
D14*
X175000000Y-185000000D03*
D13*
X159500000Y-196000000D03*
X190500000Y-174000000D03*
X194000000Y-185000000D03*
X89500000Y-174000000D03*
X86000000Y-185000000D03*
X120500000Y-196000000D03*
D14*
X105000000Y-185000000D03*
D13*
X89500000Y-196000000D03*
X120500000Y-174000000D03*
X124000000Y-185000000D03*
X267335000Y-184086500D03*
X267335000Y-209086500D03*
X273558000Y-178879500D03*
X273558000Y-159879500D03*
X244271800Y-104165400D03*
X225271800Y-104165400D03*
D11*
X345000000Y-152500000D03*
D13*
X168960800Y-125095000D03*
M02*
