G04 #@! TF.FileFunction,Copper,L2,Bot,Signal*
%FSLAX46Y46*%
G04 Gerber Fmt 4.6, Leading zero omitted, Abs format (unit mm)*
G04 Created by KiCad (PCBNEW 4.0.7-e2-6376~58~ubuntu17.04.1) date Wed Oct 25 13:58:48 2017*
%MOMM*%
%LPD*%
G01*
G04 APERTURE LIST*
%ADD10C,0.100000*%
%ADD11C,1.000000*%
%ADD12C,5.500000*%
%ADD13R,2.000000X2.000000*%
%ADD14C,2.000000*%
%ADD15O,4.000000X2.500000*%
%ADD16C,0.800000*%
%ADD17C,0.800000*%
%ADD18C,0.500000*%
G04 APERTURE END LIST*
D10*
D11*
X92430600Y-169214800D03*
X337616800Y-185242200D03*
X337464400Y-159156400D03*
X234746800Y-170078400D03*
X122834400Y-148132800D03*
X92913200Y-112191800D03*
X239141000Y-111785400D03*
X161671000Y-115138200D03*
X137693400Y-178282600D03*
X175387000Y-216230200D03*
X256743200Y-208457800D03*
D12*
X194500000Y-114000000D03*
X225500000Y-136000000D03*
X194500000Y-136000000D03*
X225500000Y-114000000D03*
X229000000Y-125000000D03*
X163398200Y-131876800D03*
X163398200Y-106876800D03*
X229500000Y-174000000D03*
X226000000Y-185000000D03*
X260500000Y-196000000D03*
X229500000Y-196000000D03*
X260500000Y-174000000D03*
X304500000Y-174000000D03*
X301000000Y-185000000D03*
X335500000Y-196000000D03*
X304500000Y-196000000D03*
X335500000Y-174000000D03*
X250875800Y-117373400D03*
X250875800Y-131373400D03*
X233147000Y-212534500D03*
X214147000Y-212534500D03*
X304800000Y-209423000D03*
X285800000Y-209423000D03*
X334391000Y-214249000D03*
X199034400Y-154888800D03*
X199034400Y-173888800D03*
X173687200Y-148183600D03*
X189687200Y-148183600D03*
X112090200Y-131165600D03*
X98090200Y-131165600D03*
X245046500Y-166306500D03*
X245046500Y-203506500D03*
X175006000Y-161775200D03*
X175006000Y-207975200D03*
X104203500Y-164380500D03*
X104203500Y-210580500D03*
D13*
X260159500Y-112331500D03*
D14*
X267779500Y-112331500D03*
D15*
X267779500Y-135699500D03*
X267779500Y-130619500D03*
X267779500Y-117919500D03*
X260159500Y-117919500D03*
X260159500Y-130619500D03*
X260159500Y-135699500D03*
X260159500Y-125539500D03*
X267779500Y-125539500D03*
D12*
X252476000Y-105206800D03*
X262407400Y-105156000D03*
X260096000Y-141478000D03*
X152679400Y-105181400D03*
X206599000Y-163169600D03*
X220599000Y-163169600D03*
X131821400Y-155448000D03*
X145821400Y-155448000D03*
X253286500Y-165100000D03*
X267286500Y-165100000D03*
X232816400Y-117968000D03*
X232816400Y-131968000D03*
X239826800Y-122139400D03*
X239826800Y-136139400D03*
X221805500Y-177990500D03*
X221805500Y-191990500D03*
X209677000Y-205960500D03*
X209677000Y-191960500D03*
X220012500Y-204597000D03*
X234012500Y-204597000D03*
X197675500Y-192199500D03*
X197675500Y-206199500D03*
X289560000Y-184277000D03*
X289560000Y-198277000D03*
X168016400Y-157073600D03*
X182016400Y-157073600D03*
X294830500Y-177990500D03*
X294830500Y-191990500D03*
X297863500Y-203581000D03*
X311863500Y-203581000D03*
X150622000Y-178074800D03*
X150622000Y-192074800D03*
X136296400Y-207202800D03*
X136296400Y-193202800D03*
X149972000Y-203200000D03*
X163972000Y-203200000D03*
X179806600Y-110906800D03*
X179806600Y-124906800D03*
X175539400Y-118069600D03*
X175539400Y-132069600D03*
X184632600Y-118018800D03*
X184632600Y-132018800D03*
X120548400Y-196047600D03*
X120548400Y-210047600D03*
X112583200Y-164312600D03*
X126583200Y-164312600D03*
X169748200Y-112151400D03*
X169748200Y-126151400D03*
X132562600Y-185496200D03*
X132562600Y-171496200D03*
X76784200Y-187244200D03*
X76784200Y-201244200D03*
X140000000Y-106000000D03*
X126500000Y-138500000D03*
X153500000Y-138500000D03*
X280098500Y-192595500D03*
X280035000Y-165315500D03*
X280035000Y-184315500D03*
X215455500Y-172612000D03*
X215455500Y-197612000D03*
X203581000Y-180936500D03*
X203581000Y-199936500D03*
X144221200Y-172513600D03*
X144221200Y-197513600D03*
X343916000Y-193449000D03*
X343916000Y-214249000D03*
X269036800Y-147980400D03*
X248236800Y-147980400D03*
X162509600Y-211226400D03*
X143509600Y-211226400D03*
X119709800Y-159816800D03*
X138709800Y-159816800D03*
X160020000Y-144068800D03*
X141020000Y-144068800D03*
X93599000Y-212852000D03*
X74599000Y-212852000D03*
X92325776Y-152748532D03*
X73325776Y-152748532D03*
X320167000Y-166381000D03*
X320167000Y-203581000D03*
X210235800Y-103482200D03*
X210235800Y-149682200D03*
X343916000Y-174117000D03*
X343916000Y-182816500D03*
X76301600Y-135407400D03*
X329931000Y-165735000D03*
X343931000Y-165735000D03*
X220965000Y-143230600D03*
X234965000Y-143230600D03*
X239826800Y-136139400D03*
X239826800Y-150139400D03*
X81254600Y-208168000D03*
X81254600Y-194168000D03*
X127990600Y-192252600D03*
X127990600Y-206252600D03*
X78587600Y-166075600D03*
X78587600Y-180075600D03*
X112827776Y-147109732D03*
X98827776Y-147109732D03*
X90384576Y-144976132D03*
X76384576Y-144976132D03*
X106223776Y-152799332D03*
X92223776Y-152799332D03*
X312976500Y-154940000D03*
X326976500Y-154940000D03*
X172366400Y-104190800D03*
X188366400Y-104190800D03*
X159500000Y-174000000D03*
X156000000Y-185000000D03*
X190500000Y-196000000D03*
X159500000Y-196000000D03*
X190500000Y-174000000D03*
X194000000Y-185000000D03*
X89500000Y-174000000D03*
X86000000Y-185000000D03*
X120500000Y-196000000D03*
X89500000Y-196000000D03*
X120500000Y-174000000D03*
X124000000Y-185000000D03*
X267335000Y-184086500D03*
X267335000Y-209086500D03*
X273558000Y-178879500D03*
X273558000Y-159879500D03*
X244271800Y-104165400D03*
X225271800Y-104165400D03*
D16*
X273050000Y-143256000D03*
X189001400Y-136398000D03*
X152603200Y-172516800D03*
X190500000Y-166624000D03*
X299720000Y-170180000D03*
X93446600Y-204038200D03*
X85242400Y-204038200D03*
D17*
X231000000Y-184376000D02*
X231000000Y-185000000D01*
X343916000Y-174117000D02*
X335617000Y-174117000D01*
X335617000Y-174117000D02*
X335500000Y-174000000D01*
X339725000Y-165735000D02*
X343931000Y-165735000D01*
X335500000Y-169960000D02*
X339725000Y-165735000D01*
X335500000Y-174000000D02*
X335500000Y-169960000D01*
X273558000Y-159879500D02*
X278994000Y-165315500D01*
X278994000Y-165315500D02*
X280035000Y-165315500D01*
X273558000Y-178879500D02*
X265379500Y-178879500D01*
X265379500Y-178879500D02*
X260500000Y-174000000D01*
X260500000Y-174000000D02*
X267286500Y-167213500D01*
X267286500Y-167213500D02*
X267286500Y-165100000D01*
X214147000Y-212534500D02*
X209677000Y-208064500D01*
X209677000Y-208064500D02*
X209677000Y-205960500D01*
X233147000Y-212534500D02*
X229500000Y-208887500D01*
X229500000Y-208887500D02*
X229500000Y-196000000D01*
X229500000Y-196000000D02*
X225490500Y-191990500D01*
X225490500Y-191990500D02*
X221805500Y-191990500D01*
X229337000Y-196163000D02*
X229500000Y-196000000D01*
X155549999Y-180187999D02*
X155549999Y-172103999D01*
X203581000Y-180936500D02*
X199034400Y-176389900D01*
X199034400Y-176389900D02*
X199034400Y-173888800D01*
X155549999Y-180187999D02*
X156000000Y-180638000D01*
X156000000Y-180638000D02*
X156000000Y-185000000D01*
X199034400Y-173888800D02*
X193945599Y-168799999D01*
X193945599Y-168799999D02*
X158853999Y-168799999D01*
X158853999Y-168799999D02*
X155549999Y-172103999D01*
X304500000Y-196000000D02*
X304500000Y-209123000D01*
X304500000Y-209123000D02*
X304800000Y-209423000D01*
X294830500Y-191990500D02*
X298840000Y-196000000D01*
X298840000Y-196000000D02*
X304500000Y-196000000D01*
X274129500Y-139700000D02*
X267565163Y-139700000D01*
X267565163Y-139700000D02*
X263359510Y-135494347D01*
X263359510Y-135494347D02*
X263359510Y-133069510D01*
X263359510Y-133069510D02*
X260909500Y-130619500D01*
X260909500Y-130619500D02*
X260159500Y-130619500D01*
X285623000Y-151193500D02*
X274129500Y-139700000D01*
X285623000Y-172466000D02*
X285623000Y-151193500D01*
X285609999Y-172479001D02*
X285623000Y-172466000D01*
X285800000Y-209423000D02*
X285800000Y-205533913D01*
X285800000Y-205533913D02*
X285609999Y-205343912D01*
X285609999Y-205343912D02*
X285609999Y-172479001D01*
X285800000Y-209423000D02*
X292021500Y-209423000D01*
X292021500Y-209423000D02*
X297863500Y-203581000D01*
X244271800Y-104165400D02*
X244271800Y-110769400D01*
X244271800Y-110769400D02*
X250875800Y-117373400D01*
X260159500Y-125539500D02*
X259409500Y-125539500D01*
X259409500Y-125539500D02*
X251243400Y-117373400D01*
X251243400Y-117373400D02*
X250875800Y-117373400D01*
X225271800Y-104165400D02*
X232816400Y-111710000D01*
X232816400Y-111710000D02*
X232816400Y-117968000D01*
X229000000Y-125000000D02*
X232816400Y-121183600D01*
X232816400Y-121183600D02*
X232816400Y-117968000D01*
X78587600Y-180075600D02*
X81734201Y-183222201D01*
X81734201Y-183222201D02*
X81734201Y-187779201D01*
X83630601Y-189217999D02*
X86750001Y-192337399D01*
X86750001Y-193250001D02*
X89500000Y-196000000D01*
X81734201Y-187779201D02*
X83172999Y-189217999D01*
X83172999Y-189217999D02*
X83630601Y-189217999D01*
X86750001Y-192337399D02*
X86750001Y-193250001D01*
X89500000Y-196000000D02*
X89500000Y-208753000D01*
X89500000Y-208753000D02*
X93599000Y-212852000D01*
X143509600Y-211226400D02*
X139486000Y-207202800D01*
X139486000Y-207202800D02*
X136296400Y-207202800D01*
X163398200Y-131876800D02*
X169123600Y-126151400D01*
X169123600Y-126151400D02*
X169748200Y-126151400D01*
X175539400Y-118069600D02*
X171650313Y-118069600D01*
X171650313Y-118069600D02*
X169748200Y-119971713D01*
X169748200Y-119971713D02*
X169748200Y-122262313D01*
X169748200Y-122262313D02*
X169748200Y-126151400D01*
X175539400Y-118069600D02*
X179806600Y-122336800D01*
X179806600Y-122336800D02*
X179806600Y-124906800D01*
X126583200Y-164312600D02*
X126583200Y-171587400D01*
X126583200Y-171587400D02*
X124180600Y-173990000D01*
X124180600Y-173990000D02*
X120510000Y-173990000D01*
X120510000Y-173990000D02*
X120500000Y-174000000D01*
X120500000Y-174000000D02*
X120500000Y-160607000D01*
X120500000Y-160607000D02*
X119709800Y-159816800D01*
X132562600Y-171496200D02*
X132562600Y-165964000D01*
X132562600Y-165964000D02*
X138709800Y-159816800D01*
X126500000Y-138500000D02*
X132068800Y-144068800D01*
X132068800Y-144068800D02*
X141020000Y-144068800D01*
X112090200Y-131165600D02*
X119424600Y-138500000D01*
X119424600Y-138500000D02*
X126500000Y-138500000D01*
X275082000Y-150876000D02*
X275082000Y-145288000D01*
X275082000Y-145288000D02*
X273050000Y-143256000D01*
X268224000Y-157734000D02*
X275082000Y-150876000D01*
X218708598Y-157734000D02*
X268224000Y-157734000D01*
X213868000Y-165100000D02*
X213868000Y-162574598D01*
X213868000Y-162574598D02*
X218708598Y-157734000D01*
X207772000Y-171196000D02*
X213868000Y-165100000D01*
X207772000Y-175514000D02*
X207772000Y-171196000D01*
X217258000Y-185000000D02*
X207772000Y-175514000D01*
X226000000Y-185000000D02*
X217258000Y-185000000D01*
X260096000Y-141478000D02*
X260096000Y-135763000D01*
X260096000Y-135763000D02*
X260159500Y-135699500D01*
X179965799Y-145433601D02*
X189001400Y-136398000D01*
X173687200Y-148183600D02*
X176437199Y-145433601D01*
X176437199Y-145433601D02*
X179965799Y-145433601D01*
X260500000Y-196000000D02*
X267335000Y-189165000D01*
X267335000Y-189165000D02*
X267335000Y-184086500D01*
X229500000Y-174000000D02*
X228093000Y-172593000D01*
X228093000Y-172593000D02*
X214449000Y-172593000D01*
X214449000Y-172593000D02*
X214122000Y-172920000D01*
X203561501Y-189210501D02*
X199351000Y-185000000D01*
X199351000Y-185000000D02*
X194000000Y-185000000D01*
X209677000Y-191960500D02*
X206927001Y-189210501D01*
X206927001Y-189210501D02*
X203561501Y-189210501D01*
X212261001Y-201847001D02*
X209677000Y-199263000D01*
X209677000Y-199263000D02*
X209677000Y-191960500D01*
X220012500Y-204597000D02*
X217262501Y-201847001D01*
X217262501Y-201847001D02*
X212261001Y-201847001D01*
X190500000Y-196000000D02*
X194300500Y-192199500D01*
X194300500Y-192199500D02*
X197675500Y-192199500D01*
X289560000Y-184277000D02*
X289560000Y-175934998D01*
X289560000Y-175934998D02*
X293028998Y-172466000D01*
X293028998Y-172466000D02*
X302966000Y-172466000D01*
X302966000Y-172466000D02*
X304500000Y-174000000D01*
X152603200Y-172516800D02*
X144224400Y-172516800D01*
X144224400Y-172516800D02*
X144221200Y-172513600D01*
X182016400Y-157073600D02*
X196849600Y-157073600D01*
X196849600Y-157073600D02*
X199034400Y-154888800D01*
X182016400Y-157073600D02*
X185905487Y-157073600D01*
X185905487Y-157073600D02*
X190500000Y-161668113D01*
X190500000Y-166058315D02*
X190500000Y-166624000D01*
X190500000Y-161668113D02*
X190500000Y-166058315D01*
X150622000Y-192074800D02*
X155574800Y-192074800D01*
X155574800Y-192074800D02*
X159500000Y-196000000D01*
X162509600Y-211226400D02*
X159500000Y-208216800D01*
X159500000Y-208216800D02*
X159500000Y-196000000D01*
X335500000Y-196000000D02*
X341365000Y-196000000D01*
X341365000Y-196000000D02*
X343916000Y-193449000D01*
X335500000Y-195218000D02*
X335500000Y-196000000D01*
X249099999Y-138889399D02*
X258191000Y-147980400D01*
X258191000Y-147980400D02*
X269036800Y-147980400D01*
X239826800Y-136139400D02*
X242576799Y-138889399D01*
X242576799Y-138889399D02*
X249099999Y-138889399D01*
X167261887Y-140716000D02*
X175935400Y-140716000D01*
X175935400Y-140716000D02*
X184632600Y-132018800D01*
X160020000Y-144068800D02*
X163909087Y-144068800D01*
X163909087Y-144068800D02*
X167261887Y-140716000D01*
X184632600Y-132018800D02*
X190518800Y-132018800D01*
X190518800Y-132018800D02*
X194500000Y-136000000D01*
X74599000Y-212852000D02*
X74599000Y-208962913D01*
X74599000Y-208962913D02*
X72161400Y-206525313D01*
X72161400Y-165175798D02*
X78917800Y-158419398D01*
X98827776Y-147109732D02*
X98827776Y-152092534D01*
X98827776Y-152092534D02*
X92500912Y-158419398D01*
X92500912Y-158419398D02*
X78917800Y-158419398D01*
X72161400Y-206525313D02*
X72161400Y-165175798D01*
X74599000Y-212852000D02*
X79283000Y-208168000D01*
X79283000Y-208168000D02*
X81254600Y-208168000D01*
X299720000Y-160782000D02*
X274637500Y-135699500D01*
X274637500Y-135699500D02*
X267779500Y-135699500D01*
X299720000Y-170180000D02*
X299720000Y-160782000D01*
X112827776Y-147109732D02*
X107138176Y-152799332D01*
X107138176Y-152799332D02*
X106223776Y-152799332D01*
X112827776Y-147109732D02*
X107944177Y-142226133D01*
X107944177Y-142226133D02*
X93134575Y-142226133D01*
X93134575Y-142226133D02*
X90384576Y-144976132D01*
X76301600Y-135407400D02*
X80815844Y-135407400D01*
X80815844Y-135407400D02*
X90384576Y-144976132D01*
X239826800Y-122139400D02*
X232816400Y-129149800D01*
X232816400Y-129149800D02*
X232816400Y-131968000D01*
X232816400Y-131968000D02*
X232816400Y-141082000D01*
X232816400Y-141082000D02*
X234965000Y-143230600D01*
X225500000Y-136000000D02*
X220965000Y-140535000D01*
X220965000Y-140535000D02*
X220965000Y-143230600D01*
X136296400Y-193202800D02*
X136296400Y-189313713D01*
X136296400Y-189313713D02*
X137718800Y-187891313D01*
X137718800Y-187891313D02*
X137718800Y-182702200D01*
X137718800Y-182702200D02*
X134315200Y-179298600D01*
X134315200Y-179298600D02*
X129701400Y-179298600D01*
X129701400Y-179298600D02*
X124000000Y-185000000D01*
X149972000Y-203200000D02*
X141020800Y-203200000D01*
X141020800Y-203200000D02*
X136296400Y-198475600D01*
X136296400Y-198475600D02*
X136296400Y-197091887D01*
X136296400Y-197091887D02*
X136296400Y-193202800D01*
X179806600Y-110906800D02*
X191406800Y-110906800D01*
X191406800Y-110906800D02*
X194500000Y-114000000D01*
X85242400Y-204038200D02*
X85242400Y-199771000D01*
X85242400Y-199771000D02*
X81254600Y-195783200D01*
X81254600Y-195783200D02*
X81254600Y-194168000D01*
X127990600Y-192252600D02*
X127990600Y-198399400D01*
X127990600Y-198399400D02*
X125120400Y-201269600D01*
X125120400Y-201269600D02*
X97739200Y-201269600D01*
X97739200Y-201269600D02*
X94970600Y-204038200D01*
X94970600Y-204038200D02*
X93446600Y-204038200D01*
X127990600Y-192252600D02*
X132562600Y-187680600D01*
X132562600Y-187680600D02*
X132562600Y-185496200D01*
X76784200Y-187244200D02*
X74034201Y-184494201D01*
X74034201Y-184494201D02*
X74034201Y-176917799D01*
X74034201Y-176917799D02*
X76952000Y-174000000D01*
X76952000Y-174000000D02*
X89500000Y-174000000D01*
D18*
G36*
X149963970Y-101109785D02*
X148612530Y-102458868D01*
X147880235Y-104222432D01*
X147878568Y-106131990D01*
X148607785Y-107896830D01*
X149956868Y-109248270D01*
X151720432Y-109980565D01*
X153629990Y-109982232D01*
X155394830Y-109253015D01*
X156746270Y-107903932D01*
X156860285Y-107629351D01*
X159597542Y-107629351D01*
X160174839Y-109026515D01*
X161242863Y-110096404D01*
X162639017Y-110676139D01*
X164150751Y-110677458D01*
X165547915Y-110100161D01*
X166617804Y-109032137D01*
X167197539Y-107635983D01*
X167198858Y-106124249D01*
X166621561Y-104727085D01*
X165553537Y-103657196D01*
X164157383Y-103077461D01*
X162645649Y-103076142D01*
X161248485Y-103653439D01*
X160178596Y-104721463D01*
X159598861Y-106117617D01*
X159597542Y-107629351D01*
X156860285Y-107629351D01*
X157478565Y-106140368D01*
X157480232Y-104230810D01*
X156751015Y-102465970D01*
X155401932Y-101114530D01*
X155366940Y-101100000D01*
X170083893Y-101100000D01*
X169146796Y-102035463D01*
X168567061Y-103431617D01*
X168565742Y-104943351D01*
X169143039Y-106340515D01*
X170211063Y-107410404D01*
X171607217Y-107990139D01*
X173118951Y-107991458D01*
X174516115Y-107414161D01*
X175586004Y-106346137D01*
X176165739Y-104949983D01*
X176167058Y-103438249D01*
X175589761Y-102041085D01*
X174650316Y-101100000D01*
X186083893Y-101100000D01*
X185146796Y-102035463D01*
X184567061Y-103431617D01*
X184565742Y-104943351D01*
X185143039Y-106340515D01*
X186211063Y-107410404D01*
X187607217Y-107990139D01*
X189118951Y-107991458D01*
X190516115Y-107414161D01*
X191586004Y-106346137D01*
X192165739Y-104949983D01*
X192167058Y-103438249D01*
X191589761Y-102041085D01*
X190650316Y-101100000D01*
X207243455Y-101100000D01*
X207016196Y-101326863D01*
X206436461Y-102723017D01*
X206435142Y-104234751D01*
X207012439Y-105631915D01*
X208080463Y-106701804D01*
X209476617Y-107281539D01*
X210988351Y-107282858D01*
X212385515Y-106705561D01*
X213455404Y-105637537D01*
X214035139Y-104241383D01*
X214036458Y-102729649D01*
X213459161Y-101332485D01*
X213227081Y-101100000D01*
X222963848Y-101100000D01*
X222052196Y-102010063D01*
X221472461Y-103406217D01*
X221471142Y-104917951D01*
X222048439Y-106315115D01*
X223116463Y-107385004D01*
X224512617Y-107964739D01*
X226024351Y-107966058D01*
X226730198Y-107674408D01*
X231366400Y-112310610D01*
X231366400Y-114455522D01*
X230666685Y-114744639D01*
X230190974Y-115219520D01*
X230299165Y-114958968D01*
X230300832Y-113049410D01*
X229571615Y-111284570D01*
X228222532Y-109933130D01*
X226458968Y-109200835D01*
X224549410Y-109199168D01*
X222784570Y-109928385D01*
X221433130Y-111277468D01*
X220712408Y-113013160D01*
X219103465Y-111401406D01*
X213206549Y-108952792D01*
X206821464Y-108947220D01*
X200920283Y-111385538D01*
X198300000Y-114001251D01*
X198300658Y-113247449D01*
X197723361Y-111850285D01*
X196655337Y-110780396D01*
X195259183Y-110200661D01*
X193747449Y-110199342D01*
X193041602Y-110490992D01*
X192432105Y-109881495D01*
X191961691Y-109567175D01*
X191406800Y-109456800D01*
X183319078Y-109456800D01*
X183029961Y-108757085D01*
X181961937Y-107687196D01*
X180565783Y-107107461D01*
X179054049Y-107106142D01*
X177656885Y-107683439D01*
X176586996Y-108751463D01*
X176007261Y-110147617D01*
X176005942Y-111659351D01*
X176583239Y-113056515D01*
X177651263Y-114126404D01*
X179047417Y-114706139D01*
X180559151Y-114707458D01*
X181576779Y-114286982D01*
X180565730Y-115296268D01*
X179833435Y-117059832D01*
X179831768Y-118969390D01*
X180560985Y-120734230D01*
X181193947Y-121368298D01*
X180671959Y-121151549D01*
X179048402Y-119527992D01*
X179338739Y-118828783D01*
X179340058Y-117317049D01*
X178762761Y-115919885D01*
X177694737Y-114849996D01*
X176298583Y-114270261D01*
X174786849Y-114268942D01*
X173389685Y-114846239D01*
X172319796Y-115914263D01*
X172026914Y-116619600D01*
X171650313Y-116619600D01*
X171095422Y-116729975D01*
X170625008Y-117044295D01*
X168722895Y-118946408D01*
X168408575Y-119416822D01*
X168298200Y-119971713D01*
X168298200Y-122638922D01*
X167598485Y-122928039D01*
X166528596Y-123996063D01*
X165948861Y-125392217D01*
X165947542Y-126903951D01*
X166056570Y-127167820D01*
X164856592Y-128367798D01*
X164157383Y-128077461D01*
X162645649Y-128076142D01*
X161248485Y-128653439D01*
X160178596Y-129721463D01*
X159598861Y-131117617D01*
X159597542Y-132629351D01*
X160174839Y-134026515D01*
X161242863Y-135096404D01*
X162639017Y-135676139D01*
X164150751Y-135677458D01*
X165547915Y-135100161D01*
X166617804Y-134032137D01*
X167120235Y-132822151D01*
X171738742Y-132822151D01*
X172316039Y-134219315D01*
X173384063Y-135289204D01*
X174780217Y-135868939D01*
X176291951Y-135870258D01*
X177689115Y-135292961D01*
X178759004Y-134224937D01*
X179338739Y-132828783D01*
X179340058Y-131317049D01*
X178762761Y-129919885D01*
X177694737Y-128849996D01*
X176298583Y-128270261D01*
X174786849Y-128268942D01*
X173389685Y-128846239D01*
X172319796Y-129914263D01*
X171740061Y-131310417D01*
X171738742Y-132822151D01*
X167120235Y-132822151D01*
X167197539Y-132635983D01*
X167198858Y-131124249D01*
X166907208Y-130418402D01*
X167848469Y-129477141D01*
X168989017Y-129950739D01*
X170500751Y-129952058D01*
X171897915Y-129374761D01*
X172967804Y-128306737D01*
X173547539Y-126910583D01*
X173548858Y-125398849D01*
X172971561Y-124001685D01*
X171903537Y-122931796D01*
X171198200Y-122638914D01*
X171198200Y-120572323D01*
X172092416Y-119678107D01*
X172316039Y-120219315D01*
X173384063Y-121289204D01*
X174780217Y-121868939D01*
X176291951Y-121870258D01*
X176997798Y-121578608D01*
X177379515Y-121960325D01*
X176586996Y-122751463D01*
X176007261Y-124147617D01*
X176005942Y-125659351D01*
X176583239Y-127056515D01*
X177651263Y-128126404D01*
X179047417Y-128706139D01*
X180559151Y-128707458D01*
X181576779Y-128286982D01*
X180565730Y-129296268D01*
X179833435Y-131059832D01*
X179831768Y-132969390D01*
X179944457Y-133242119D01*
X174920576Y-138266000D01*
X167261887Y-138266000D01*
X166324312Y-138452495D01*
X166105660Y-138598594D01*
X165529475Y-138983588D01*
X165529473Y-138983591D01*
X162918953Y-141594110D01*
X162175337Y-140849196D01*
X160779183Y-140269461D01*
X159267449Y-140268142D01*
X157870285Y-140845439D01*
X157619499Y-141095788D01*
X158299165Y-139458968D01*
X158300832Y-137549410D01*
X157571615Y-135784570D01*
X156222532Y-134433130D01*
X154458968Y-133700835D01*
X153766032Y-133700230D01*
X156047208Y-128206549D01*
X156052780Y-121821464D01*
X153614462Y-115920283D01*
X150603390Y-112903951D01*
X165947542Y-112903951D01*
X166524839Y-114301115D01*
X167592863Y-115371004D01*
X168989017Y-115950739D01*
X170500751Y-115952058D01*
X171897915Y-115374761D01*
X172967804Y-114306737D01*
X173547539Y-112910583D01*
X173548858Y-111398849D01*
X172971561Y-110001685D01*
X171903537Y-108931796D01*
X170507383Y-108352061D01*
X168995649Y-108350742D01*
X167598485Y-108928039D01*
X166528596Y-109996063D01*
X165948861Y-111392217D01*
X165947542Y-112903951D01*
X150603390Y-112903951D01*
X149103465Y-111401406D01*
X143206549Y-108952792D01*
X142421443Y-108952107D01*
X143219604Y-108155337D01*
X143799339Y-106759183D01*
X143800658Y-105247449D01*
X143223361Y-103850285D01*
X142155337Y-102780396D01*
X140759183Y-102200661D01*
X139247449Y-102199342D01*
X137850285Y-102776639D01*
X136780396Y-103844663D01*
X136200661Y-105240817D01*
X136199342Y-106752551D01*
X136776639Y-108149715D01*
X137573409Y-108947876D01*
X136821464Y-108947220D01*
X130920283Y-111385538D01*
X126401406Y-115896535D01*
X123952792Y-121793451D01*
X123947220Y-128178536D01*
X126385538Y-134079717D01*
X127005178Y-134700439D01*
X125747449Y-134699342D01*
X124350285Y-135276639D01*
X123280396Y-136344663D01*
X122987514Y-137050000D01*
X120025210Y-137050000D01*
X115599202Y-132623992D01*
X115889539Y-131924783D01*
X115890858Y-130413049D01*
X115313561Y-129015885D01*
X114245537Y-127945996D01*
X112849383Y-127366261D01*
X111337649Y-127364942D01*
X109940485Y-127942239D01*
X108870596Y-129010263D01*
X108290861Y-130406417D01*
X108289542Y-131918151D01*
X108866839Y-133315315D01*
X109934863Y-134385204D01*
X111331017Y-134964939D01*
X112842751Y-134966258D01*
X113548598Y-134674608D01*
X118399295Y-139525305D01*
X118869709Y-139839625D01*
X119424600Y-139950000D01*
X122987522Y-139950000D01*
X123276639Y-140649715D01*
X124344663Y-141719604D01*
X125740817Y-142299339D01*
X127252551Y-142300658D01*
X127958398Y-142009008D01*
X131043493Y-145094102D01*
X131043495Y-145094105D01*
X131317725Y-145277339D01*
X131513909Y-145408425D01*
X132068800Y-145518800D01*
X137507522Y-145518800D01*
X137796639Y-146218515D01*
X138864663Y-147288404D01*
X140260817Y-147868139D01*
X141772551Y-147869458D01*
X143169715Y-147292161D01*
X144239604Y-146224137D01*
X144819339Y-144827983D01*
X144820658Y-143316249D01*
X144243361Y-141919085D01*
X143320153Y-140994265D01*
X148699761Y-138771457D01*
X148699168Y-139450590D01*
X149428385Y-141215430D01*
X150777468Y-142566870D01*
X152541032Y-143299165D01*
X154450590Y-143300832D01*
X156215430Y-142571615D01*
X156747768Y-142040206D01*
X156220661Y-143309617D01*
X156219342Y-144821351D01*
X156796639Y-146218515D01*
X157864663Y-147288404D01*
X159260817Y-147868139D01*
X160772551Y-147869458D01*
X162169715Y-147292161D01*
X162944426Y-146518800D01*
X163909082Y-146518800D01*
X163909087Y-146518801D01*
X164846662Y-146332305D01*
X165641499Y-145801212D01*
X168276710Y-143166000D01*
X175520216Y-143166000D01*
X175499624Y-143170096D01*
X174974687Y-143520848D01*
X174646168Y-143384435D01*
X172736610Y-143382768D01*
X170971770Y-144111985D01*
X169620330Y-145461068D01*
X168888035Y-147224632D01*
X168886368Y-149134190D01*
X169615585Y-150899030D01*
X170964668Y-152250470D01*
X172728232Y-152982765D01*
X174637790Y-152984432D01*
X176402630Y-152255215D01*
X177754070Y-150906132D01*
X178486365Y-149142568D01*
X178486372Y-149134190D01*
X184886368Y-149134190D01*
X185615585Y-150899030D01*
X186964668Y-152250470D01*
X188728232Y-152982765D01*
X190637790Y-152984432D01*
X192402630Y-152255215D01*
X193754070Y-150906132D01*
X193949804Y-150434751D01*
X206435142Y-150434751D01*
X207012439Y-151831915D01*
X208080463Y-152901804D01*
X209476617Y-153481539D01*
X210988351Y-153482858D01*
X212385515Y-152905561D01*
X213455404Y-151837537D01*
X213848046Y-150891951D01*
X236026142Y-150891951D01*
X236603439Y-152289115D01*
X237671463Y-153359004D01*
X239067617Y-153938739D01*
X240579351Y-153940058D01*
X241976515Y-153362761D01*
X243046404Y-152294737D01*
X243626139Y-150898583D01*
X243627458Y-149386849D01*
X243357273Y-148732951D01*
X244436142Y-148732951D01*
X245013439Y-150130115D01*
X246081463Y-151200004D01*
X247477617Y-151779739D01*
X248989351Y-151781058D01*
X250386515Y-151203761D01*
X251456404Y-150135737D01*
X252036139Y-148739583D01*
X252037458Y-147227849D01*
X251460161Y-145830685D01*
X250392137Y-144760796D01*
X248995983Y-144181061D01*
X247484249Y-144179742D01*
X246087085Y-144757039D01*
X245017196Y-145825063D01*
X244437461Y-147221217D01*
X244436142Y-148732951D01*
X243357273Y-148732951D01*
X243050161Y-147989685D01*
X241982137Y-146919796D01*
X240585983Y-146340061D01*
X239074249Y-146338742D01*
X237677085Y-146916039D01*
X236607196Y-147984063D01*
X236027461Y-149380217D01*
X236026142Y-150891951D01*
X213848046Y-150891951D01*
X214035139Y-150441383D01*
X214036458Y-148929649D01*
X213459161Y-147532485D01*
X212391137Y-146462596D01*
X210994983Y-145882861D01*
X209483249Y-145881542D01*
X208086085Y-146458839D01*
X207016196Y-147526863D01*
X206436461Y-148923017D01*
X206435142Y-150434751D01*
X193949804Y-150434751D01*
X194486365Y-149142568D01*
X194488032Y-147233010D01*
X193758815Y-145468170D01*
X192409732Y-144116730D01*
X190646168Y-143384435D01*
X188736610Y-143382768D01*
X186971770Y-144111985D01*
X185620330Y-145461068D01*
X184888035Y-147224632D01*
X184886368Y-149134190D01*
X178486372Y-149134190D01*
X178487464Y-147883601D01*
X179965794Y-147883601D01*
X179965799Y-147883602D01*
X180903374Y-147697106D01*
X181698211Y-147166013D01*
X190346637Y-138517586D01*
X190428385Y-138715430D01*
X191777468Y-140066870D01*
X193541032Y-140799165D01*
X195450590Y-140800832D01*
X197215430Y-140071615D01*
X198566870Y-138722532D01*
X199287592Y-136986840D01*
X200896535Y-138598594D01*
X206793451Y-141047208D01*
X213178536Y-141052780D01*
X219079717Y-138614462D01*
X221700000Y-135998749D01*
X221699342Y-136752551D01*
X221990992Y-137458398D01*
X219939695Y-139509695D01*
X219909285Y-139555207D01*
X218815285Y-140007239D01*
X217745396Y-141075263D01*
X217165661Y-142471417D01*
X217164342Y-143983151D01*
X217741639Y-145380315D01*
X218809663Y-146450204D01*
X220205817Y-147029939D01*
X221717551Y-147031258D01*
X223114715Y-146453961D01*
X224184604Y-145385937D01*
X224764339Y-143989783D01*
X224765658Y-142478049D01*
X224188361Y-141080885D01*
X223329792Y-140220817D01*
X224041608Y-139509001D01*
X224740817Y-139799339D01*
X226252551Y-139800658D01*
X227649715Y-139223361D01*
X228719604Y-138155337D01*
X229299339Y-136759183D01*
X229300658Y-135247449D01*
X228723361Y-133850285D01*
X227655337Y-132780396D01*
X227511215Y-132720551D01*
X229015742Y-132720551D01*
X229593039Y-134117715D01*
X230661063Y-135187604D01*
X231366400Y-135480486D01*
X231366400Y-141082000D01*
X231476775Y-141636891D01*
X231498615Y-141669577D01*
X231165661Y-142471417D01*
X231164342Y-143983151D01*
X231741639Y-145380315D01*
X232809663Y-146450204D01*
X234205817Y-147029939D01*
X235717551Y-147031258D01*
X237114715Y-146453961D01*
X238184604Y-145385937D01*
X238764339Y-143989783D01*
X238765658Y-142478049D01*
X238188361Y-141080885D01*
X237120337Y-140010996D01*
X235724183Y-139431261D01*
X234266400Y-139429989D01*
X234266400Y-136891951D01*
X236026142Y-136891951D01*
X236603439Y-138289115D01*
X237671463Y-139359004D01*
X239067617Y-139938739D01*
X240579351Y-139940058D01*
X241285198Y-139648408D01*
X241551494Y-139914704D01*
X242021908Y-140229024D01*
X242576799Y-140339399D01*
X248499389Y-140339399D01*
X257165695Y-149005705D01*
X257636109Y-149320025D01*
X258191000Y-149430400D01*
X265524322Y-149430400D01*
X265813439Y-150130115D01*
X266881463Y-151200004D01*
X268277617Y-151779739D01*
X269789351Y-151781058D01*
X271186515Y-151203761D01*
X272256404Y-150135737D01*
X272836139Y-148739583D01*
X272837458Y-147227849D01*
X272260161Y-145830685D01*
X271192137Y-144760796D01*
X269795983Y-144181061D01*
X268284249Y-144179742D01*
X266887085Y-144757039D01*
X265817196Y-145825063D01*
X265524314Y-146530400D01*
X258791610Y-146530400D01*
X254491761Y-142230551D01*
X256295342Y-142230551D01*
X256872639Y-143627715D01*
X257940663Y-144697604D01*
X259336817Y-145277339D01*
X260848551Y-145278658D01*
X262245715Y-144701361D01*
X263315604Y-143633337D01*
X263895339Y-142237183D01*
X263896658Y-140725449D01*
X263319361Y-139328285D01*
X262251337Y-138258396D01*
X261546000Y-137965514D01*
X261546000Y-137884778D01*
X261849425Y-137824423D01*
X262595599Y-137325846D01*
X262813815Y-136999262D01*
X266539856Y-140725302D01*
X266539858Y-140725305D01*
X267010272Y-141039625D01*
X267102335Y-141057938D01*
X267565163Y-141150001D01*
X267565168Y-141150000D01*
X273528890Y-141150000D01*
X284173000Y-151794110D01*
X284173000Y-172413641D01*
X284159999Y-172479001D01*
X284159999Y-205343912D01*
X284270374Y-205898803D01*
X284293738Y-205933769D01*
X283650285Y-206199639D01*
X282580396Y-207267663D01*
X282000661Y-208663817D01*
X281999342Y-210175551D01*
X282576639Y-211572715D01*
X283644663Y-212642604D01*
X285040817Y-213222339D01*
X286552551Y-213223658D01*
X287949715Y-212646361D01*
X289019604Y-211578337D01*
X289312486Y-210873000D01*
X292021500Y-210873000D01*
X292576391Y-210762625D01*
X293046805Y-210448305D01*
X296405108Y-207090002D01*
X297104317Y-207380339D01*
X298616051Y-207381658D01*
X300013215Y-206804361D01*
X301083104Y-205736337D01*
X301662839Y-204340183D01*
X301664158Y-202828449D01*
X301086861Y-201431285D01*
X300018837Y-200361396D01*
X298622683Y-199781661D01*
X297110949Y-199780342D01*
X295713785Y-200357639D01*
X294643896Y-201425663D01*
X294064161Y-202821817D01*
X294062842Y-204333551D01*
X294354492Y-205039398D01*
X291420890Y-207973000D01*
X289312478Y-207973000D01*
X289023361Y-207273285D01*
X287955337Y-206203396D01*
X287250000Y-205910514D01*
X287250000Y-205533913D01*
X287139625Y-204979022D01*
X287059999Y-204859853D01*
X287059999Y-201151338D01*
X287404663Y-201496604D01*
X288800817Y-202076339D01*
X290312551Y-202077658D01*
X291709715Y-201500361D01*
X292779604Y-200432337D01*
X293359339Y-199036183D01*
X293360658Y-197524449D01*
X292888367Y-196381420D01*
X293871532Y-196789665D01*
X295781090Y-196791332D01*
X296053819Y-196678643D01*
X297107586Y-197732409D01*
X297107588Y-197732412D01*
X297902426Y-198263505D01*
X298840000Y-198450000D01*
X300318712Y-198450000D01*
X300428385Y-198715430D01*
X301777468Y-200066870D01*
X302050000Y-200180035D01*
X302050000Y-205385895D01*
X300733130Y-206700468D01*
X300000835Y-208464032D01*
X299999168Y-210373590D01*
X300728385Y-212138430D01*
X302077468Y-213489870D01*
X303841032Y-214222165D01*
X305750590Y-214223832D01*
X307515430Y-213494615D01*
X308866870Y-212145532D01*
X309599165Y-210381968D01*
X309600832Y-208472410D01*
X308871615Y-206707570D01*
X307522532Y-205356130D01*
X306950000Y-205118394D01*
X306950000Y-204333551D01*
X308062842Y-204333551D01*
X308640139Y-205730715D01*
X309708163Y-206800604D01*
X311104317Y-207380339D01*
X312616051Y-207381658D01*
X314013215Y-206804361D01*
X315083104Y-205736337D01*
X315662839Y-204340183D01*
X315664158Y-202828449D01*
X315086861Y-201431285D01*
X314018837Y-200361396D01*
X312622683Y-199781661D01*
X311110949Y-199780342D01*
X309713785Y-200357639D01*
X308643896Y-201425663D01*
X308064161Y-202821817D01*
X308062842Y-204333551D01*
X306950000Y-204333551D01*
X306950000Y-200181288D01*
X307215430Y-200071615D01*
X308566870Y-198722532D01*
X309287592Y-196986840D01*
X310896535Y-198598594D01*
X316793451Y-201047208D01*
X317326046Y-201047673D01*
X316947396Y-201425663D01*
X316367661Y-202821817D01*
X316366342Y-204333551D01*
X316943639Y-205730715D01*
X318011663Y-206800604D01*
X319407817Y-207380339D01*
X320919551Y-207381658D01*
X322316715Y-206804361D01*
X323386604Y-205736337D01*
X323966339Y-204340183D01*
X323967658Y-202828449D01*
X323390361Y-201431285D01*
X323012371Y-201052635D01*
X323178536Y-201052780D01*
X329079717Y-198614462D01*
X331700000Y-195998749D01*
X331699342Y-196752551D01*
X332276639Y-198149715D01*
X333344663Y-199219604D01*
X334740817Y-199799339D01*
X336252551Y-199800658D01*
X337649715Y-199223361D01*
X338719604Y-198155337D01*
X339012486Y-197450000D01*
X341365000Y-197450000D01*
X341919891Y-197339625D01*
X342390305Y-197025305D01*
X342457608Y-196958002D01*
X343156817Y-197248339D01*
X344668551Y-197249658D01*
X346065715Y-196672361D01*
X347135604Y-195604337D01*
X347715339Y-194208183D01*
X347716658Y-192696449D01*
X347139361Y-191299285D01*
X346071337Y-190229396D01*
X344675183Y-189649661D01*
X343163449Y-189648342D01*
X341766285Y-190225639D01*
X340696396Y-191293663D01*
X340116661Y-192689817D01*
X340115342Y-194201551D01*
X340259318Y-194550000D01*
X339012478Y-194550000D01*
X338723361Y-193850285D01*
X337655337Y-192780396D01*
X336259183Y-192200661D01*
X334747449Y-192199342D01*
X334315071Y-192377997D01*
X336047208Y-188206549D01*
X336051254Y-183569051D01*
X340115342Y-183569051D01*
X340692639Y-184966215D01*
X341760663Y-186036104D01*
X343156817Y-186615839D01*
X344668551Y-186617158D01*
X346065715Y-186039861D01*
X347135604Y-184971837D01*
X347715339Y-183575683D01*
X347716658Y-182063949D01*
X347139361Y-180666785D01*
X346071337Y-179596896D01*
X344675183Y-179017161D01*
X343163449Y-179015842D01*
X341766285Y-179593139D01*
X340696396Y-180661163D01*
X340116661Y-182057317D01*
X340115342Y-183569051D01*
X336051254Y-183569051D01*
X336052780Y-181821464D01*
X334804087Y-178799395D01*
X336450590Y-178800832D01*
X338215430Y-178071615D01*
X339566870Y-176722532D01*
X339631452Y-176567000D01*
X340992401Y-176567000D01*
X341760663Y-177336604D01*
X343156817Y-177916339D01*
X344668551Y-177917658D01*
X346065715Y-177340361D01*
X347135604Y-176272337D01*
X347715339Y-174876183D01*
X347716658Y-173364449D01*
X347139361Y-171967285D01*
X346071337Y-170897396D01*
X345041487Y-170469764D01*
X346646430Y-169806615D01*
X347997870Y-168457532D01*
X348730165Y-166693968D01*
X348731832Y-164784410D01*
X348002615Y-163019570D01*
X346653532Y-161668130D01*
X344889968Y-160935835D01*
X342980410Y-160934168D01*
X341215570Y-161663385D01*
X339864130Y-163012468D01*
X339750965Y-163285000D01*
X339725000Y-163285000D01*
X338787426Y-163471495D01*
X337992588Y-164002588D01*
X337992586Y-164002591D01*
X334324672Y-167670504D01*
X334730165Y-166693968D01*
X334731832Y-164784410D01*
X334002615Y-163019570D01*
X332653532Y-161668130D01*
X330889968Y-160935835D01*
X328980410Y-160934168D01*
X327215570Y-161663385D01*
X325864130Y-163012468D01*
X325131835Y-164776032D01*
X325130168Y-166685590D01*
X325859385Y-168450430D01*
X327208468Y-169801870D01*
X328972032Y-170534165D01*
X330881590Y-170535832D01*
X332646430Y-169806615D01*
X333188058Y-169265931D01*
X333080620Y-169806060D01*
X332784570Y-169928385D01*
X331433130Y-171277468D01*
X330712408Y-173013160D01*
X329103465Y-171401406D01*
X323206549Y-168952792D01*
X322969629Y-168952585D01*
X323386604Y-168536337D01*
X323966339Y-167140183D01*
X323967658Y-165628449D01*
X323390361Y-164231285D01*
X322322337Y-163161396D01*
X320926183Y-162581661D01*
X319414449Y-162580342D01*
X318017285Y-163157639D01*
X316947396Y-164225663D01*
X316367661Y-165621817D01*
X316366342Y-167133551D01*
X316943639Y-168530715D01*
X317359887Y-168947690D01*
X316821464Y-168947220D01*
X310920283Y-171385538D01*
X308300000Y-174001251D01*
X308300658Y-173247449D01*
X307723361Y-171850285D01*
X306655337Y-170780396D01*
X305259183Y-170200661D01*
X303747449Y-170199342D01*
X302350285Y-170776639D01*
X302110506Y-171016000D01*
X300934940Y-171016000D01*
X300948533Y-171002431D01*
X301169748Y-170469688D01*
X301170251Y-169892843D01*
X301170000Y-169892236D01*
X301170000Y-160782000D01*
X301059625Y-160227109D01*
X300745305Y-159756695D01*
X296879200Y-155890590D01*
X308175668Y-155890590D01*
X308904885Y-157655430D01*
X310253968Y-159006870D01*
X312017532Y-159739165D01*
X313927090Y-159740832D01*
X315691930Y-159011615D01*
X317043370Y-157662532D01*
X317775665Y-155898968D01*
X317775672Y-155890590D01*
X322175668Y-155890590D01*
X322904885Y-157655430D01*
X324253968Y-159006870D01*
X326017532Y-159739165D01*
X327927090Y-159740832D01*
X329691930Y-159011615D01*
X331043370Y-157662532D01*
X331775665Y-155898968D01*
X331777332Y-153989410D01*
X331048115Y-152224570D01*
X329699032Y-150873130D01*
X327935468Y-150140835D01*
X326025910Y-150139168D01*
X324261070Y-150868385D01*
X322909630Y-152217468D01*
X322177335Y-153981032D01*
X322175668Y-155890590D01*
X317775672Y-155890590D01*
X317777332Y-153989410D01*
X317048115Y-152224570D01*
X315699032Y-150873130D01*
X313935468Y-150140835D01*
X312025910Y-150139168D01*
X310261070Y-150868385D01*
X308909630Y-152217468D01*
X308177335Y-153981032D01*
X308175668Y-155890590D01*
X296879200Y-155890590D01*
X275662805Y-134674195D01*
X275192391Y-134359875D01*
X274637500Y-134249500D01*
X270333430Y-134249500D01*
X270215599Y-134073154D01*
X269469425Y-133574577D01*
X268589253Y-133399500D01*
X266969747Y-133399500D01*
X266089575Y-133574577D01*
X265343401Y-134073154D01*
X264844824Y-134819328D01*
X264826620Y-134910847D01*
X264809510Y-134893737D01*
X264809510Y-133069510D01*
X264699135Y-132514619D01*
X264384815Y-132044205D01*
X263217963Y-130877353D01*
X263269253Y-130619500D01*
X264669747Y-130619500D01*
X264844824Y-131499672D01*
X265343401Y-132245846D01*
X266089575Y-132744423D01*
X266969747Y-132919500D01*
X268589253Y-132919500D01*
X269469425Y-132744423D01*
X270215599Y-132245846D01*
X270714176Y-131499672D01*
X270889253Y-130619500D01*
X270714176Y-129739328D01*
X270215599Y-128993154D01*
X269469425Y-128494577D01*
X268589253Y-128319500D01*
X266969747Y-128319500D01*
X266089575Y-128494577D01*
X265343401Y-128993154D01*
X264844824Y-129739328D01*
X264669747Y-130619500D01*
X263269253Y-130619500D01*
X263094176Y-129739328D01*
X262595599Y-128993154D01*
X261849425Y-128494577D01*
X260969253Y-128319500D01*
X259349747Y-128319500D01*
X258469575Y-128494577D01*
X257723401Y-128993154D01*
X257224824Y-129739328D01*
X257049747Y-130619500D01*
X257224824Y-131499672D01*
X257723401Y-132245846D01*
X258469575Y-132744423D01*
X259349747Y-132919500D01*
X260969253Y-132919500D01*
X261127427Y-132888037D01*
X261805163Y-133565773D01*
X260969253Y-133399500D01*
X259349747Y-133399500D01*
X258469575Y-133574577D01*
X257723401Y-134073154D01*
X257224824Y-134819328D01*
X257049747Y-135699500D01*
X257224824Y-136579672D01*
X257723401Y-137325846D01*
X258469575Y-137824423D01*
X258646000Y-137859516D01*
X258646000Y-137965522D01*
X257946285Y-138254639D01*
X256876396Y-139322663D01*
X256296661Y-140718817D01*
X256295342Y-142230551D01*
X254491761Y-142230551D01*
X250125304Y-137864094D01*
X249654890Y-137549774D01*
X249099999Y-137439399D01*
X243401572Y-137439399D01*
X243626139Y-136898583D01*
X243627458Y-135386849D01*
X243050161Y-133989685D01*
X241982137Y-132919796D01*
X240585983Y-132340061D01*
X239074249Y-132338742D01*
X237677085Y-132916039D01*
X236607196Y-133984063D01*
X236027461Y-135380217D01*
X236026142Y-136891951D01*
X234266400Y-136891951D01*
X234266400Y-135480478D01*
X234966115Y-135191361D01*
X236036004Y-134123337D01*
X236615739Y-132727183D01*
X236616263Y-132125951D01*
X247075142Y-132125951D01*
X247652439Y-133523115D01*
X248720463Y-134593004D01*
X250116617Y-135172739D01*
X251628351Y-135174058D01*
X253025515Y-134596761D01*
X254095404Y-133528737D01*
X254675139Y-132132583D01*
X254676458Y-130620849D01*
X254099161Y-129223685D01*
X253031137Y-128153796D01*
X251634983Y-127574061D01*
X250123249Y-127572742D01*
X248726085Y-128150039D01*
X247656196Y-129218063D01*
X247076461Y-130614217D01*
X247075142Y-132125951D01*
X236616263Y-132125951D01*
X236617058Y-131215449D01*
X236039761Y-129818285D01*
X235119946Y-128896864D01*
X238368408Y-125648402D01*
X239067617Y-125938739D01*
X240579351Y-125940058D01*
X241976515Y-125362761D01*
X243046404Y-124294737D01*
X243626139Y-122898583D01*
X243627458Y-121386849D01*
X243050161Y-119989685D01*
X241982137Y-118919796D01*
X240585983Y-118340061D01*
X239074249Y-118338742D01*
X237677085Y-118916039D01*
X236607196Y-119984063D01*
X236027461Y-121380217D01*
X236026142Y-122891951D01*
X236317792Y-123597798D01*
X231791095Y-128124495D01*
X231647524Y-128339364D01*
X230666685Y-128744639D01*
X229596796Y-129812663D01*
X229017061Y-131208817D01*
X229015742Y-132720551D01*
X227511215Y-132720551D01*
X226259183Y-132200661D01*
X224747449Y-132199342D01*
X224315071Y-132377997D01*
X226047208Y-128206549D01*
X226047893Y-127421443D01*
X226844663Y-128219604D01*
X228240817Y-128799339D01*
X229752551Y-128800658D01*
X231149715Y-128223361D01*
X232219604Y-127155337D01*
X232799339Y-125759183D01*
X232800658Y-124247449D01*
X232509008Y-123541602D01*
X233841705Y-122208905D01*
X234067981Y-121870258D01*
X234156025Y-121738491D01*
X234202059Y-121507063D01*
X234966115Y-121191361D01*
X236036004Y-120123337D01*
X236615739Y-118727183D01*
X236617058Y-117215449D01*
X236039761Y-115818285D01*
X234971737Y-114748396D01*
X234266400Y-114455514D01*
X234266400Y-111710000D01*
X234156025Y-111155109D01*
X233841705Y-110684695D01*
X228780802Y-105623792D01*
X229071139Y-104924583D01*
X229072458Y-103412849D01*
X228495161Y-102015685D01*
X227581072Y-101100000D01*
X241963848Y-101100000D01*
X241052196Y-102010063D01*
X240472461Y-103406217D01*
X240471142Y-104917951D01*
X241048439Y-106315115D01*
X242116463Y-107385004D01*
X242821800Y-107677886D01*
X242821800Y-110769400D01*
X242932175Y-111324291D01*
X243246495Y-111794705D01*
X247366798Y-115915008D01*
X247076461Y-116614217D01*
X247075142Y-118125951D01*
X247652439Y-119523115D01*
X248720463Y-120593004D01*
X250116617Y-121172739D01*
X251628351Y-121174058D01*
X252594318Y-120774928D01*
X257101037Y-125281647D01*
X257049747Y-125539500D01*
X257224824Y-126419672D01*
X257723401Y-127165846D01*
X258469575Y-127664423D01*
X259349747Y-127839500D01*
X260969253Y-127839500D01*
X261849425Y-127664423D01*
X262595599Y-127165846D01*
X263094176Y-126419672D01*
X263269253Y-125539500D01*
X264669747Y-125539500D01*
X264844824Y-126419672D01*
X265343401Y-127165846D01*
X266089575Y-127664423D01*
X266969747Y-127839500D01*
X268589253Y-127839500D01*
X269469425Y-127664423D01*
X270215599Y-127165846D01*
X270714176Y-126419672D01*
X270889253Y-125539500D01*
X270714176Y-124659328D01*
X270215599Y-123913154D01*
X269469425Y-123414577D01*
X268589253Y-123239500D01*
X266969747Y-123239500D01*
X266089575Y-123414577D01*
X265343401Y-123913154D01*
X264844824Y-124659328D01*
X264669747Y-125539500D01*
X263269253Y-125539500D01*
X263094176Y-124659328D01*
X262595599Y-123913154D01*
X261849425Y-123414577D01*
X260969253Y-123239500D01*
X259349747Y-123239500D01*
X259191573Y-123270963D01*
X254492657Y-118572047D01*
X254675139Y-118132583D01*
X254675324Y-117919500D01*
X257049747Y-117919500D01*
X257224824Y-118799672D01*
X257723401Y-119545846D01*
X258469575Y-120044423D01*
X259349747Y-120219500D01*
X260969253Y-120219500D01*
X261849425Y-120044423D01*
X262595599Y-119545846D01*
X263094176Y-118799672D01*
X263269253Y-117919500D01*
X264669747Y-117919500D01*
X264844824Y-118799672D01*
X265343401Y-119545846D01*
X266089575Y-120044423D01*
X266969747Y-120219500D01*
X268589253Y-120219500D01*
X269469425Y-120044423D01*
X270215599Y-119545846D01*
X270714176Y-118799672D01*
X270889253Y-117919500D01*
X270714176Y-117039328D01*
X270215599Y-116293154D01*
X269469425Y-115794577D01*
X268589253Y-115619500D01*
X266969747Y-115619500D01*
X266089575Y-115794577D01*
X265343401Y-116293154D01*
X264844824Y-117039328D01*
X264669747Y-117919500D01*
X263269253Y-117919500D01*
X263094176Y-117039328D01*
X262595599Y-116293154D01*
X261849425Y-115794577D01*
X260969253Y-115619500D01*
X259349747Y-115619500D01*
X258469575Y-115794577D01*
X257723401Y-116293154D01*
X257224824Y-117039328D01*
X257049747Y-117919500D01*
X254675324Y-117919500D01*
X254676458Y-116620849D01*
X254099161Y-115223685D01*
X253031137Y-114153796D01*
X251634983Y-113574061D01*
X250123249Y-113572742D01*
X249417402Y-113864392D01*
X246884510Y-111331500D01*
X258088930Y-111331500D01*
X258088930Y-113331500D01*
X258162145Y-113720607D01*
X258392107Y-114077977D01*
X258742988Y-114317724D01*
X259159500Y-114402070D01*
X261159500Y-114402070D01*
X261548607Y-114328855D01*
X261905977Y-114098893D01*
X262145724Y-113748012D01*
X262230070Y-113331500D01*
X262230070Y-112737481D01*
X265729145Y-112737481D01*
X266040581Y-113491215D01*
X266616752Y-114068392D01*
X267369941Y-114381143D01*
X268185481Y-114381855D01*
X268939215Y-114070419D01*
X269516392Y-113494248D01*
X269829143Y-112741059D01*
X269829855Y-111925519D01*
X269518419Y-111171785D01*
X268942248Y-110594608D01*
X268189059Y-110281857D01*
X267373519Y-110281145D01*
X266619785Y-110592581D01*
X266042608Y-111168752D01*
X265729857Y-111921941D01*
X265729145Y-112737481D01*
X262230070Y-112737481D01*
X262230070Y-111331500D01*
X262156855Y-110942393D01*
X261926893Y-110585023D01*
X261576012Y-110345276D01*
X261159500Y-110260930D01*
X259159500Y-110260930D01*
X258770393Y-110334145D01*
X258413023Y-110564107D01*
X258173276Y-110914988D01*
X258088930Y-111331500D01*
X246884510Y-111331500D01*
X245721800Y-110168790D01*
X245721800Y-107677878D01*
X246421515Y-107388761D01*
X247491404Y-106320737D01*
X247641464Y-105959351D01*
X248675342Y-105959351D01*
X249252639Y-107356515D01*
X250320663Y-108426404D01*
X251716817Y-109006139D01*
X253228551Y-109007458D01*
X254625715Y-108430161D01*
X255695604Y-107362137D01*
X256275339Y-105965983D01*
X256276658Y-104454249D01*
X255699361Y-103057085D01*
X254631337Y-101987196D01*
X253235183Y-101407461D01*
X251723449Y-101406142D01*
X250326285Y-101983439D01*
X249256396Y-103051463D01*
X248676661Y-104447617D01*
X248675342Y-105959351D01*
X247641464Y-105959351D01*
X248071139Y-104924583D01*
X248072458Y-103412849D01*
X247495161Y-102015685D01*
X246581072Y-101100000D01*
X268964145Y-101100000D01*
X267737142Y-101606987D01*
X266610942Y-102731223D01*
X266062675Y-104051596D01*
X265630761Y-103006285D01*
X264562737Y-101936396D01*
X263166583Y-101356661D01*
X261654849Y-101355342D01*
X260257685Y-101932639D01*
X259187796Y-103000663D01*
X258608061Y-104396817D01*
X258606742Y-105908551D01*
X259184039Y-107305715D01*
X260252063Y-108375604D01*
X261648217Y-108955339D01*
X263159951Y-108956658D01*
X264557115Y-108379361D01*
X265627004Y-107311337D01*
X266128246Y-106104215D01*
X266606987Y-107262858D01*
X267731223Y-108389058D01*
X269200860Y-108999305D01*
X270792159Y-109000693D01*
X272262858Y-108393013D01*
X273389058Y-107268777D01*
X273900000Y-106038293D01*
X273900000Y-130000000D01*
X273983733Y-130420952D01*
X274048579Y-130518000D01*
X274222183Y-130777817D01*
X284222183Y-140777818D01*
X284579049Y-141016268D01*
X285000000Y-141100000D01*
X294544366Y-141100000D01*
X301222183Y-147777818D01*
X301380501Y-147883602D01*
X301579048Y-148016267D01*
X302000000Y-148100000D01*
X346544366Y-148100000D01*
X348900000Y-150455635D01*
X348900000Y-151464145D01*
X348393013Y-150237142D01*
X347268777Y-149110942D01*
X345799140Y-148500695D01*
X344207841Y-148499307D01*
X342737142Y-149106987D01*
X341610942Y-150231223D01*
X341000695Y-151700860D01*
X340999307Y-153292159D01*
X341606987Y-154762858D01*
X342731223Y-155889058D01*
X344200860Y-156499305D01*
X345792159Y-156500693D01*
X347262858Y-155893013D01*
X348389058Y-154768777D01*
X348900000Y-153538293D01*
X348900000Y-216544365D01*
X346544366Y-218900000D01*
X248535855Y-218900000D01*
X249762858Y-218393013D01*
X250889058Y-217268777D01*
X251499305Y-215799140D01*
X251500000Y-215001551D01*
X340115342Y-215001551D01*
X340692639Y-216398715D01*
X341760663Y-217468604D01*
X343156817Y-218048339D01*
X344668551Y-218049658D01*
X346065715Y-217472361D01*
X347135604Y-216404337D01*
X347715339Y-215008183D01*
X347716658Y-213496449D01*
X347139361Y-212099285D01*
X346071337Y-211029396D01*
X344675183Y-210449661D01*
X343163449Y-210448342D01*
X341766285Y-211025639D01*
X340696396Y-212093663D01*
X340116661Y-213489817D01*
X340115342Y-215001551D01*
X251500000Y-215001551D01*
X251500693Y-214207841D01*
X250893013Y-212737142D01*
X249768777Y-211610942D01*
X248299140Y-211000695D01*
X246707841Y-210999307D01*
X245237142Y-211606987D01*
X244110942Y-212731223D01*
X243500695Y-214200860D01*
X243499307Y-215792159D01*
X244106987Y-217262858D01*
X245231223Y-218389058D01*
X246461707Y-218900000D01*
X85256732Y-218900000D01*
X85889058Y-218268777D01*
X86499305Y-216799140D01*
X86500693Y-215207841D01*
X85893013Y-213737142D01*
X84768777Y-212610942D01*
X83299140Y-212000695D01*
X81707841Y-211999307D01*
X80237142Y-212606987D01*
X79110942Y-213731223D01*
X78500695Y-215200860D01*
X78499307Y-216792159D01*
X79106987Y-218262858D01*
X79743018Y-218900000D01*
X73455635Y-218900000D01*
X71100000Y-216544366D01*
X71100000Y-214334618D01*
X71375639Y-215001715D01*
X72443663Y-216071604D01*
X73839817Y-216651339D01*
X75351551Y-216652658D01*
X76748715Y-216075361D01*
X77818604Y-215007337D01*
X78398339Y-213611183D01*
X78399658Y-212099449D01*
X78108008Y-211393602D01*
X78607064Y-210894546D01*
X79099263Y-211387604D01*
X80495417Y-211967339D01*
X82007151Y-211968658D01*
X83404315Y-211391361D01*
X84474204Y-210323337D01*
X85053939Y-208927183D01*
X85055258Y-207415449D01*
X84477961Y-206018285D01*
X83409937Y-204948396D01*
X82013783Y-204368661D01*
X80502049Y-204367342D01*
X79104885Y-204944639D01*
X78034996Y-206012663D01*
X77455261Y-207408817D01*
X77454793Y-207945597D01*
X76057392Y-209342998D01*
X76049000Y-209339514D01*
X76049000Y-208962913D01*
X75938625Y-208408022D01*
X75624305Y-207937608D01*
X73611400Y-205924703D01*
X73611400Y-203444564D01*
X74628863Y-204463804D01*
X76025017Y-205043539D01*
X77536751Y-205044858D01*
X78933915Y-204467561D01*
X80003804Y-203399537D01*
X80583539Y-202003383D01*
X80584858Y-200491649D01*
X80007561Y-199094485D01*
X78939537Y-198024596D01*
X77543383Y-197444861D01*
X76031649Y-197443542D01*
X74634485Y-198020839D01*
X73611400Y-199042141D01*
X73611400Y-189444564D01*
X74628863Y-190463804D01*
X76025017Y-191043539D01*
X77536751Y-191044858D01*
X78933915Y-190467561D01*
X79957673Y-189445588D01*
X80001789Y-189511613D01*
X80857829Y-190367652D01*
X80502049Y-190367342D01*
X79104885Y-190944639D01*
X78034996Y-192012663D01*
X77455261Y-193408817D01*
X77453942Y-194920551D01*
X78031239Y-196317715D01*
X79099263Y-197387604D01*
X80495417Y-197967339D01*
X81388909Y-197968119D01*
X83792400Y-200371610D01*
X83792400Y-204037508D01*
X83792149Y-204325357D01*
X84012433Y-204858486D01*
X84419969Y-205266733D01*
X84952712Y-205487948D01*
X85529557Y-205488451D01*
X86062686Y-205268167D01*
X86470933Y-204860631D01*
X86692148Y-204327888D01*
X86692651Y-203751043D01*
X86692400Y-203750436D01*
X86692400Y-199981653D01*
X86777468Y-200066870D01*
X87050000Y-200180035D01*
X87050000Y-208752995D01*
X87049999Y-208753000D01*
X87236495Y-209690575D01*
X87767588Y-210485412D01*
X89799291Y-212517114D01*
X89798342Y-213604551D01*
X90375639Y-215001715D01*
X91443663Y-216071604D01*
X92839817Y-216651339D01*
X94351551Y-216652658D01*
X95748715Y-216075361D01*
X96818604Y-215007337D01*
X97398339Y-213611183D01*
X97399658Y-212099449D01*
X97082989Y-211333051D01*
X100402842Y-211333051D01*
X100980139Y-212730215D01*
X102048163Y-213800104D01*
X103444317Y-214379839D01*
X104956051Y-214381158D01*
X106353215Y-213803861D01*
X107423104Y-212735837D01*
X108002839Y-211339683D01*
X108003309Y-210800151D01*
X116747742Y-210800151D01*
X117325039Y-212197315D01*
X118393063Y-213267204D01*
X119789217Y-213846939D01*
X121300951Y-213848258D01*
X122698115Y-213270961D01*
X123768004Y-212202937D01*
X124347739Y-210806783D01*
X124349058Y-209295049D01*
X123771761Y-207897885D01*
X122880584Y-207005151D01*
X124189942Y-207005151D01*
X124767239Y-208402315D01*
X125835263Y-209472204D01*
X127231417Y-210051939D01*
X128743151Y-210053258D01*
X130140315Y-209475961D01*
X131210204Y-208407937D01*
X131398134Y-207955351D01*
X132495742Y-207955351D01*
X133073039Y-209352515D01*
X134141063Y-210422404D01*
X135537217Y-211002139D01*
X137048951Y-211003458D01*
X138446115Y-210426161D01*
X139516004Y-209358137D01*
X139537928Y-209305338D01*
X140000598Y-209768008D01*
X139710261Y-210467217D01*
X139708942Y-211978951D01*
X140286239Y-213376115D01*
X141354263Y-214446004D01*
X142750417Y-215025739D01*
X144262151Y-215027058D01*
X145659315Y-214449761D01*
X146729204Y-213381737D01*
X147308939Y-211985583D01*
X147310258Y-210473849D01*
X146732961Y-209076685D01*
X145664937Y-208006796D01*
X144268783Y-207427061D01*
X142757049Y-207425742D01*
X142051202Y-207717392D01*
X140511305Y-206177495D01*
X140040891Y-205863175D01*
X139837791Y-205822776D01*
X139519761Y-205053085D01*
X138451737Y-203983196D01*
X137055583Y-203403461D01*
X135543849Y-203402142D01*
X134146685Y-203979439D01*
X133076796Y-205047463D01*
X132497061Y-206443617D01*
X132495742Y-207955351D01*
X131398134Y-207955351D01*
X131789939Y-207011783D01*
X131791258Y-205500049D01*
X131213961Y-204102885D01*
X130145937Y-203032996D01*
X128749783Y-202453261D01*
X127238049Y-202451942D01*
X125840885Y-203029239D01*
X124770996Y-204097263D01*
X124191261Y-205493417D01*
X124189942Y-207005151D01*
X122880584Y-207005151D01*
X122703737Y-206827996D01*
X121307583Y-206248261D01*
X119795849Y-206246942D01*
X118398685Y-206824239D01*
X117328796Y-207892263D01*
X116749061Y-209288417D01*
X116747742Y-210800151D01*
X108003309Y-210800151D01*
X108004158Y-209827949D01*
X107426861Y-208430785D01*
X106358837Y-207360896D01*
X104962683Y-206781161D01*
X103450949Y-206779842D01*
X102053785Y-207357139D01*
X100983896Y-208425163D01*
X100404161Y-209821317D01*
X100402842Y-211333051D01*
X97082989Y-211333051D01*
X96822361Y-210702285D01*
X95754337Y-209632396D01*
X94358183Y-209052661D01*
X93263529Y-209051706D01*
X91950000Y-207738176D01*
X91950000Y-200181288D01*
X92215430Y-200071615D01*
X93566870Y-198722532D01*
X94287592Y-196986840D01*
X95896535Y-198598594D01*
X98837043Y-199819600D01*
X97739200Y-199819600D01*
X97184309Y-199929975D01*
X96713895Y-200244295D01*
X94369990Y-202588200D01*
X93447292Y-202588200D01*
X93159443Y-202587949D01*
X92626314Y-202808233D01*
X92218067Y-203215769D01*
X91996852Y-203748512D01*
X91996349Y-204325357D01*
X92216633Y-204858486D01*
X92624169Y-205266733D01*
X93156912Y-205487948D01*
X93733757Y-205488451D01*
X93734364Y-205488200D01*
X94970600Y-205488200D01*
X95525491Y-205377825D01*
X95995905Y-205063505D01*
X98339810Y-202719600D01*
X125120400Y-202719600D01*
X125675291Y-202609225D01*
X126145705Y-202294905D01*
X129015905Y-199424705D01*
X129330225Y-198954291D01*
X129440600Y-198399400D01*
X129440600Y-195765078D01*
X130140315Y-195475961D01*
X131210204Y-194407937D01*
X131789939Y-193011783D01*
X131791258Y-191500049D01*
X131499608Y-190794202D01*
X132997229Y-189296581D01*
X133315151Y-189296858D01*
X134712315Y-188719561D01*
X135782204Y-187651537D01*
X136268800Y-186479686D01*
X136268800Y-187290703D01*
X135271095Y-188288408D01*
X134956775Y-188758822D01*
X134846400Y-189313713D01*
X134846400Y-189690322D01*
X134146685Y-189979439D01*
X133076796Y-191047463D01*
X132497061Y-192443617D01*
X132495742Y-193955351D01*
X133073039Y-195352515D01*
X134141063Y-196422404D01*
X134846400Y-196715286D01*
X134846400Y-198475600D01*
X134956775Y-199030491D01*
X135271095Y-199500905D01*
X139995495Y-204225305D01*
X140465909Y-204539625D01*
X140557972Y-204557938D01*
X141020800Y-204650001D01*
X141020805Y-204650000D01*
X146459522Y-204650000D01*
X146748639Y-205349715D01*
X147816663Y-206419604D01*
X149212817Y-206999339D01*
X150724551Y-207000658D01*
X152121715Y-206423361D01*
X153191604Y-205355337D01*
X153771339Y-203959183D01*
X153772658Y-202447449D01*
X153195361Y-201050285D01*
X152127337Y-199980396D01*
X150731183Y-199400661D01*
X149219449Y-199399342D01*
X147822285Y-199976639D01*
X146752396Y-201044663D01*
X146459514Y-201750000D01*
X141621410Y-201750000D01*
X137746400Y-197874990D01*
X137746400Y-196715278D01*
X138446115Y-196426161D01*
X139516004Y-195358137D01*
X140095739Y-193961983D01*
X140097058Y-192450249D01*
X139519761Y-191053085D01*
X138451737Y-189983196D01*
X137904684Y-189756039D01*
X138744105Y-188916618D01*
X139058425Y-188446204D01*
X139168800Y-187891313D01*
X139168800Y-182702200D01*
X139058425Y-182147309D01*
X138744105Y-181676895D01*
X135340505Y-178273295D01*
X134870091Y-177958975D01*
X134315200Y-177848600D01*
X129701400Y-177848600D01*
X129146509Y-177958975D01*
X128676095Y-178273295D01*
X125458392Y-181490998D01*
X124759183Y-181200661D01*
X123247449Y-181199342D01*
X121850285Y-181776639D01*
X121052124Y-182573409D01*
X121052780Y-181821464D01*
X119804087Y-178799395D01*
X121450590Y-178800832D01*
X123215430Y-178071615D01*
X124566870Y-176722532D01*
X124729526Y-176330812D01*
X125118175Y-176253505D01*
X125913012Y-175722412D01*
X128315609Y-173319814D01*
X128315612Y-173319812D01*
X128846705Y-172524974D01*
X128856249Y-172476992D01*
X129339239Y-173645915D01*
X130407263Y-174715804D01*
X131803417Y-175295539D01*
X133315151Y-175296858D01*
X134712315Y-174719561D01*
X135782204Y-173651537D01*
X135942230Y-173266151D01*
X140420542Y-173266151D01*
X140997839Y-174663315D01*
X142065863Y-175733204D01*
X143462017Y-176312939D01*
X144973751Y-176314258D01*
X146370915Y-175736961D01*
X146412721Y-175695228D01*
X145822835Y-177115832D01*
X145821168Y-179025390D01*
X146550385Y-180790230D01*
X147899468Y-182141670D01*
X149663032Y-182873965D01*
X151572590Y-182875632D01*
X153337430Y-182146415D01*
X154423654Y-181062086D01*
X154524694Y-181213304D01*
X154550000Y-181238610D01*
X154550000Y-181487522D01*
X153850285Y-181776639D01*
X152780396Y-182844663D01*
X152200661Y-184240817D01*
X152199342Y-185752551D01*
X152776639Y-187149715D01*
X153844663Y-188219604D01*
X155240817Y-188799339D01*
X156752551Y-188800658D01*
X158149715Y-188223361D01*
X158947876Y-187426591D01*
X158947220Y-188178536D01*
X160195913Y-191200605D01*
X158549410Y-191199168D01*
X158276681Y-191311857D01*
X157307212Y-190342388D01*
X156512375Y-189811295D01*
X155574800Y-189624799D01*
X155574795Y-189624800D01*
X154803288Y-189624800D01*
X154693615Y-189359370D01*
X153344532Y-188007930D01*
X151580968Y-187275635D01*
X149671410Y-187273968D01*
X147906570Y-188003185D01*
X146555130Y-189352268D01*
X145822835Y-191115832D01*
X145821168Y-193025390D01*
X146338885Y-194278362D01*
X144980383Y-193714261D01*
X143468649Y-193712942D01*
X142071485Y-194290239D01*
X141001596Y-195358263D01*
X140421861Y-196754417D01*
X140420542Y-198266151D01*
X140997839Y-199663315D01*
X142065863Y-200733204D01*
X143462017Y-201312939D01*
X144973751Y-201314258D01*
X146370915Y-200736961D01*
X147440804Y-199668937D01*
X148020539Y-198272783D01*
X148021858Y-196761049D01*
X147671630Y-195913434D01*
X147899468Y-196141670D01*
X149663032Y-196873965D01*
X151572590Y-196875632D01*
X153337430Y-196146415D01*
X154688870Y-194797332D01*
X154731014Y-194695838D01*
X154810971Y-194775795D01*
X154700835Y-195041032D01*
X154699168Y-196950590D01*
X155428385Y-198715430D01*
X156777468Y-200066870D01*
X157050000Y-200180035D01*
X157050000Y-208216795D01*
X157049999Y-208216800D01*
X157236495Y-209154375D01*
X157767588Y-209949212D01*
X158709891Y-210891515D01*
X158708942Y-211978951D01*
X159286239Y-213376115D01*
X160354263Y-214446004D01*
X161750417Y-215025739D01*
X163262151Y-215027058D01*
X164659315Y-214449761D01*
X165729204Y-213381737D01*
X166308939Y-211985583D01*
X166310258Y-210473849D01*
X165732961Y-209076685D01*
X165384636Y-208727751D01*
X171205342Y-208727751D01*
X171782639Y-210124915D01*
X172850663Y-211194804D01*
X174246817Y-211774539D01*
X175758551Y-211775858D01*
X177155715Y-211198561D01*
X178225604Y-210130537D01*
X178805339Y-208734383D01*
X178806658Y-207222649D01*
X178694850Y-206952051D01*
X193874842Y-206952051D01*
X194452139Y-208349215D01*
X195520163Y-209419104D01*
X196916317Y-209998839D01*
X198428051Y-210000158D01*
X199825215Y-209422861D01*
X200895104Y-208354837D01*
X201474839Y-206958683D01*
X201476158Y-205446949D01*
X200898861Y-204049785D01*
X199830837Y-202979896D01*
X198434683Y-202400161D01*
X196922949Y-202398842D01*
X195525785Y-202976139D01*
X194455896Y-204044163D01*
X193876161Y-205440317D01*
X193874842Y-206952051D01*
X178694850Y-206952051D01*
X178229361Y-205825485D01*
X177161337Y-204755596D01*
X175765183Y-204175861D01*
X174253449Y-204174542D01*
X172856285Y-204751839D01*
X171786396Y-205819863D01*
X171206661Y-207216017D01*
X171205342Y-208727751D01*
X165384636Y-208727751D01*
X164664937Y-208006796D01*
X163268783Y-207427061D01*
X162174130Y-207426106D01*
X161950000Y-207201976D01*
X161950000Y-206474970D01*
X163212817Y-206999339D01*
X164724551Y-207000658D01*
X166121715Y-206423361D01*
X167191604Y-205355337D01*
X167771339Y-203959183D01*
X167772658Y-202447449D01*
X167195361Y-201050285D01*
X166127337Y-199980396D01*
X164731183Y-199400661D01*
X163219449Y-199399342D01*
X162655417Y-199632396D01*
X163566870Y-198722532D01*
X164287592Y-196986840D01*
X165896535Y-198598594D01*
X171793451Y-201047208D01*
X178178536Y-201052780D01*
X179058827Y-200689051D01*
X199780342Y-200689051D01*
X200357639Y-202086215D01*
X201425663Y-203156104D01*
X202821817Y-203735839D01*
X204333551Y-203737158D01*
X205730715Y-203159861D01*
X206800604Y-202091837D01*
X207380339Y-200695683D01*
X207381658Y-199183949D01*
X206804361Y-197786785D01*
X205736337Y-196716896D01*
X204340183Y-196137161D01*
X202828449Y-196135842D01*
X201431285Y-196713139D01*
X200361396Y-197781163D01*
X199781661Y-199177317D01*
X199780342Y-200689051D01*
X179058827Y-200689051D01*
X184079717Y-198614462D01*
X186700000Y-195998749D01*
X186699342Y-196752551D01*
X187276639Y-198149715D01*
X188344663Y-199219604D01*
X189740817Y-199799339D01*
X191252551Y-199800658D01*
X192649715Y-199223361D01*
X193719604Y-198155337D01*
X194299339Y-196759183D01*
X194300658Y-195247449D01*
X194009008Y-194541602D01*
X194378826Y-194171784D01*
X194452139Y-194349215D01*
X195520163Y-195419104D01*
X196916317Y-195998839D01*
X198428051Y-196000158D01*
X199825215Y-195422861D01*
X200895104Y-194354837D01*
X201474839Y-192958683D01*
X201476158Y-191446949D01*
X200898861Y-190049785D01*
X199830837Y-188979896D01*
X198434683Y-188400161D01*
X196922949Y-188398842D01*
X195525785Y-188976139D01*
X194455896Y-190044163D01*
X194150636Y-190779310D01*
X193745609Y-190859875D01*
X193362542Y-191115832D01*
X193275195Y-191174195D01*
X191958392Y-192490998D01*
X191259183Y-192200661D01*
X189747449Y-192199342D01*
X189315071Y-192377997D01*
X191047208Y-188206549D01*
X191047893Y-187421443D01*
X191844663Y-188219604D01*
X193240817Y-188799339D01*
X194752551Y-188800658D01*
X196149715Y-188223361D01*
X197219604Y-187155337D01*
X197512486Y-186450000D01*
X198750390Y-186450000D01*
X202536196Y-190235806D01*
X203006610Y-190550126D01*
X203098673Y-190568439D01*
X203561501Y-190660502D01*
X203561506Y-190660501D01*
X206102228Y-190660501D01*
X205877661Y-191201317D01*
X205876342Y-192713051D01*
X206453639Y-194110215D01*
X207521663Y-195180104D01*
X208227000Y-195472986D01*
X208227000Y-199263000D01*
X208337375Y-199817891D01*
X208651695Y-200288305D01*
X210587301Y-202223911D01*
X210436183Y-202161161D01*
X208924449Y-202159842D01*
X207527285Y-202737139D01*
X206457396Y-203805163D01*
X205877661Y-205201317D01*
X205876342Y-206713051D01*
X206453639Y-208110215D01*
X207521663Y-209180104D01*
X208917817Y-209759839D01*
X209322082Y-209760192D01*
X210637998Y-211076108D01*
X210347661Y-211775317D01*
X210346342Y-213287051D01*
X210923639Y-214684215D01*
X211991663Y-215754104D01*
X213387817Y-216333839D01*
X214899551Y-216335158D01*
X216296715Y-215757861D01*
X217366604Y-214689837D01*
X217946339Y-213293683D01*
X217947658Y-211781949D01*
X217370361Y-210384785D01*
X216302337Y-209314896D01*
X214906183Y-208735161D01*
X213394449Y-208733842D01*
X212688602Y-209025492D01*
X212337288Y-208674178D01*
X212896604Y-208115837D01*
X213476339Y-206719683D01*
X213477658Y-205207949D01*
X212900361Y-203810785D01*
X212387473Y-203297001D01*
X216437728Y-203297001D01*
X216213161Y-203837817D01*
X216211842Y-205349551D01*
X216789139Y-206746715D01*
X217857163Y-207816604D01*
X219253317Y-208396339D01*
X220765051Y-208397658D01*
X222162215Y-207820361D01*
X223232104Y-206752337D01*
X223811839Y-205356183D01*
X223813158Y-203844449D01*
X223235861Y-202447285D01*
X222167837Y-201377396D01*
X220771683Y-200797661D01*
X219259949Y-200796342D01*
X218554102Y-201087992D01*
X218287806Y-200821696D01*
X217887108Y-200553959D01*
X218675104Y-199767337D01*
X219254839Y-198371183D01*
X219256158Y-196859449D01*
X218813003Y-195786934D01*
X219082968Y-196057370D01*
X220846532Y-196789665D01*
X222756090Y-196791332D01*
X224520930Y-196062115D01*
X224700100Y-195883258D01*
X224699168Y-196950590D01*
X225428385Y-198715430D01*
X226777468Y-200066870D01*
X227050000Y-200180035D01*
X227050000Y-208887495D01*
X227049999Y-208887500D01*
X227236495Y-209825075D01*
X227767588Y-210619912D01*
X228457971Y-211310295D01*
X228347835Y-211575532D01*
X228346168Y-213485090D01*
X229075385Y-215249930D01*
X230424468Y-216601370D01*
X232188032Y-217333665D01*
X234097590Y-217335332D01*
X235862430Y-216606115D01*
X237213870Y-215257032D01*
X237946165Y-213493468D01*
X237947832Y-211583910D01*
X237226871Y-209839051D01*
X263534342Y-209839051D01*
X264111639Y-211236215D01*
X265179663Y-212306104D01*
X266575817Y-212885839D01*
X268087551Y-212887158D01*
X269484715Y-212309861D01*
X270554604Y-211241837D01*
X271134339Y-209845683D01*
X271135658Y-208333949D01*
X270558361Y-206936785D01*
X269490337Y-205866896D01*
X268094183Y-205287161D01*
X266582449Y-205285842D01*
X265185285Y-205863139D01*
X264115396Y-206931163D01*
X263535661Y-208327317D01*
X263534342Y-209839051D01*
X237226871Y-209839051D01*
X237218615Y-209819070D01*
X235869532Y-208467630D01*
X235234190Y-208203813D01*
X236162215Y-207820361D01*
X237232104Y-206752337D01*
X237811839Y-205356183D01*
X237813158Y-203844449D01*
X237235861Y-202447285D01*
X236167837Y-201377396D01*
X234771683Y-200797661D01*
X233259949Y-200796342D01*
X231950000Y-201337602D01*
X231950000Y-200181288D01*
X232215430Y-200071615D01*
X233566870Y-198722532D01*
X234287592Y-196986840D01*
X235896535Y-198598594D01*
X241793451Y-201047208D01*
X242131087Y-201047503D01*
X241826896Y-201351163D01*
X241247161Y-202747317D01*
X241245842Y-204259051D01*
X241823139Y-205656215D01*
X242891163Y-206726104D01*
X244287317Y-207305839D01*
X245799051Y-207307158D01*
X247196215Y-206729861D01*
X248266104Y-205661837D01*
X248845839Y-204265683D01*
X248847158Y-202753949D01*
X248269861Y-201356785D01*
X247966201Y-201052595D01*
X248178536Y-201052780D01*
X254079717Y-198614462D01*
X256700000Y-195998749D01*
X256699342Y-196752551D01*
X257276639Y-198149715D01*
X258344663Y-199219604D01*
X259740817Y-199799339D01*
X261252551Y-199800658D01*
X262649715Y-199223361D01*
X263719604Y-198155337D01*
X264299339Y-196759183D01*
X264300658Y-195247449D01*
X264009008Y-194541602D01*
X265202559Y-193348051D01*
X276297842Y-193348051D01*
X276875139Y-194745215D01*
X277943163Y-195815104D01*
X279339317Y-196394839D01*
X280851051Y-196396158D01*
X282248215Y-195818861D01*
X283318104Y-194750837D01*
X283897839Y-193354683D01*
X283899158Y-191842949D01*
X283321861Y-190445785D01*
X282253837Y-189375896D01*
X280857683Y-188796161D01*
X279345949Y-188794842D01*
X277948785Y-189372139D01*
X276878896Y-190440163D01*
X276299161Y-191836317D01*
X276297842Y-193348051D01*
X265202559Y-193348051D01*
X268360305Y-190190305D01*
X268674625Y-189719891D01*
X268785000Y-189165000D01*
X268785000Y-187598978D01*
X269484715Y-187309861D01*
X270554604Y-186241837D01*
X271042003Y-185068051D01*
X276234342Y-185068051D01*
X276811639Y-186465215D01*
X277879663Y-187535104D01*
X279275817Y-188114839D01*
X280787551Y-188116158D01*
X282184715Y-187538861D01*
X283254604Y-186470837D01*
X283834339Y-185074683D01*
X283835658Y-183562949D01*
X283258361Y-182165785D01*
X282190337Y-181095896D01*
X280794183Y-180516161D01*
X279282449Y-180514842D01*
X277885285Y-181092139D01*
X276815396Y-182160163D01*
X276235661Y-183556317D01*
X276234342Y-185068051D01*
X271042003Y-185068051D01*
X271134339Y-184845683D01*
X271135658Y-183333949D01*
X270558361Y-181936785D01*
X269952135Y-181329500D01*
X270634401Y-181329500D01*
X271402663Y-182099104D01*
X272798817Y-182678839D01*
X274310551Y-182680158D01*
X275707715Y-182102861D01*
X276777604Y-181034837D01*
X277357339Y-179638683D01*
X277358658Y-178126949D01*
X276781361Y-176729785D01*
X275713337Y-175659896D01*
X274317183Y-175080161D01*
X272805449Y-175078842D01*
X271408285Y-175656139D01*
X270633574Y-176429500D01*
X266394324Y-176429500D01*
X265189029Y-175224205D01*
X265299165Y-174958968D01*
X265300832Y-173049410D01*
X265188143Y-172776681D01*
X268064142Y-169900681D01*
X268237090Y-169900832D01*
X270001930Y-169171615D01*
X271353370Y-167822532D01*
X272085665Y-166058968D01*
X272087332Y-164149410D01*
X271705274Y-163224759D01*
X272798817Y-163678839D01*
X274310551Y-163680158D01*
X275016398Y-163388508D01*
X276235616Y-164607726D01*
X276234342Y-166068051D01*
X276811639Y-167465215D01*
X277879663Y-168535104D01*
X279275817Y-169114839D01*
X280787551Y-169116158D01*
X282184715Y-168538861D01*
X283254604Y-167470837D01*
X283834339Y-166074683D01*
X283835658Y-164562949D01*
X283258361Y-163165785D01*
X282190337Y-162095896D01*
X280794183Y-161516161D01*
X279282449Y-161514842D01*
X277885285Y-162092139D01*
X277853239Y-162124129D01*
X277067002Y-161337892D01*
X277357339Y-160638683D01*
X277358658Y-159126949D01*
X276781361Y-157729785D01*
X275713337Y-156659896D01*
X274317183Y-156080161D01*
X272805449Y-156078842D01*
X271408285Y-156656139D01*
X270338396Y-157724163D01*
X269758661Y-159120317D01*
X269757342Y-160632051D01*
X269905260Y-160990040D01*
X268245468Y-160300835D01*
X266335910Y-160299168D01*
X264571070Y-161028385D01*
X263219630Y-162377468D01*
X262487335Y-164141032D01*
X262485668Y-166050590D01*
X263214885Y-167815430D01*
X263217314Y-167817863D01*
X261724205Y-169310971D01*
X261458968Y-169200835D01*
X259549410Y-169199168D01*
X257784570Y-169928385D01*
X256433130Y-171277468D01*
X255712408Y-173013160D01*
X254103465Y-171401406D01*
X248900914Y-169241118D01*
X249113370Y-169029032D01*
X249499085Y-168100126D01*
X250563968Y-169166870D01*
X252327532Y-169899165D01*
X254237090Y-169900832D01*
X256001930Y-169171615D01*
X257353370Y-167822532D01*
X258085665Y-166058968D01*
X258087332Y-164149410D01*
X257358115Y-162384570D01*
X256009032Y-161033130D01*
X254245468Y-160300835D01*
X252335910Y-160299168D01*
X250571070Y-161028385D01*
X249219630Y-162377468D01*
X248833915Y-163306374D01*
X247769032Y-162239630D01*
X246005468Y-161507335D01*
X244095910Y-161505668D01*
X242331070Y-162234885D01*
X240979630Y-163583968D01*
X240247335Y-165347532D01*
X240245668Y-167257090D01*
X240974885Y-169021930D01*
X241169303Y-169216687D01*
X235920283Y-171385538D01*
X233300000Y-174001251D01*
X233300658Y-173247449D01*
X232723361Y-171850285D01*
X231655337Y-170780396D01*
X230259183Y-170200661D01*
X228747449Y-170199342D01*
X227350285Y-170776639D01*
X226983284Y-171143000D01*
X218960127Y-171143000D01*
X218678861Y-170462285D01*
X217610837Y-169392396D01*
X216214683Y-168812661D01*
X214702949Y-168811342D01*
X213305785Y-169388639D01*
X212235896Y-170456663D01*
X211656161Y-171852817D01*
X211654842Y-173364551D01*
X212232139Y-174761715D01*
X213300163Y-175831604D01*
X214696317Y-176411339D01*
X216208051Y-176412658D01*
X217481865Y-175886328D01*
X217006335Y-177031532D01*
X217004668Y-178941090D01*
X217733885Y-180705930D01*
X219082968Y-182057370D01*
X220846532Y-182789665D01*
X222756090Y-182791332D01*
X222888716Y-182736532D01*
X222780396Y-182844663D01*
X222487514Y-183550000D01*
X217858610Y-183550000D01*
X209222000Y-174913390D01*
X209222000Y-171796610D01*
X214893305Y-166125305D01*
X215207625Y-165654891D01*
X215318000Y-165100000D01*
X215318000Y-163175208D01*
X215799413Y-162693795D01*
X215798168Y-164120190D01*
X216527385Y-165885030D01*
X217876468Y-167236470D01*
X219640032Y-167968765D01*
X221549590Y-167970432D01*
X223314430Y-167241215D01*
X224665870Y-165892132D01*
X225398165Y-164128568D01*
X225399832Y-162219010D01*
X224670615Y-160454170D01*
X223402660Y-159184000D01*
X268224000Y-159184000D01*
X268778891Y-159073625D01*
X269249305Y-158759305D01*
X276107305Y-151901305D01*
X276187651Y-151781058D01*
X276421625Y-151430891D01*
X276466804Y-151203761D01*
X276532001Y-150876000D01*
X276532000Y-150875995D01*
X276532000Y-145288000D01*
X276421625Y-144733109D01*
X276107305Y-144262695D01*
X274075305Y-142230695D01*
X273872431Y-142027467D01*
X273339688Y-141806252D01*
X272762843Y-141805749D01*
X272229714Y-142026033D01*
X271821467Y-142433569D01*
X271600252Y-142966312D01*
X271599749Y-143543157D01*
X271820033Y-144076286D01*
X272227569Y-144484533D01*
X272228174Y-144484784D01*
X273632000Y-145888610D01*
X273632000Y-150275390D01*
X267623390Y-156284000D01*
X218708598Y-156284000D01*
X218153707Y-156394375D01*
X217683293Y-156708695D01*
X212842695Y-161549293D01*
X212528375Y-162019707D01*
X212418000Y-162574598D01*
X212418000Y-164499390D01*
X206746695Y-170170695D01*
X206432375Y-170641109D01*
X206322000Y-171196000D01*
X206322000Y-175514000D01*
X206432375Y-176068891D01*
X206746695Y-176539305D01*
X216232695Y-186025305D01*
X216703109Y-186339625D01*
X217258000Y-186450000D01*
X222487522Y-186450000D01*
X222776639Y-187149715D01*
X222856218Y-187229433D01*
X222764468Y-187191335D01*
X220854910Y-187189668D01*
X219090070Y-187918885D01*
X217738630Y-189267968D01*
X217006335Y-191031532D01*
X217004668Y-192941090D01*
X217602989Y-194389137D01*
X216214683Y-193812661D01*
X214702949Y-193811342D01*
X213305785Y-194388639D01*
X212235896Y-195456663D01*
X211656161Y-196852817D01*
X211654842Y-198364551D01*
X212232139Y-199761715D01*
X212866318Y-200397001D01*
X212861611Y-200397001D01*
X211127000Y-198662390D01*
X211127000Y-195472978D01*
X211826715Y-195183861D01*
X212896604Y-194115837D01*
X213476339Y-192719683D01*
X213477658Y-191207949D01*
X212900361Y-189810785D01*
X211832337Y-188740896D01*
X210436183Y-188161161D01*
X208924449Y-188159842D01*
X208218602Y-188451492D01*
X207952306Y-188185196D01*
X207481892Y-187870876D01*
X206927001Y-187760501D01*
X204162111Y-187760501D01*
X200376305Y-183974695D01*
X199905891Y-183660375D01*
X199351000Y-183550000D01*
X197512478Y-183550000D01*
X197223361Y-182850285D01*
X196155337Y-181780396D01*
X194759183Y-181200661D01*
X193247449Y-181199342D01*
X191850285Y-181776639D01*
X191052124Y-182573409D01*
X191052780Y-181821464D01*
X189804087Y-178799395D01*
X191450590Y-178800832D01*
X193215430Y-178071615D01*
X194566870Y-176722532D01*
X195299165Y-174958968D01*
X195299304Y-174800022D01*
X195811039Y-176038515D01*
X196879063Y-177108404D01*
X198275217Y-177688139D01*
X198282035Y-177688145D01*
X200071998Y-179478108D01*
X199781661Y-180177317D01*
X199780342Y-181689051D01*
X200357639Y-183086215D01*
X201425663Y-184156104D01*
X202821817Y-184735839D01*
X204333551Y-184737158D01*
X205730715Y-184159861D01*
X206800604Y-183091837D01*
X207380339Y-181695683D01*
X207381658Y-180183949D01*
X206804361Y-178786785D01*
X205736337Y-177716896D01*
X204340183Y-177137161D01*
X202828449Y-177135842D01*
X202122602Y-177427492D01*
X201495965Y-176800855D01*
X202254004Y-176044137D01*
X202833739Y-174647983D01*
X202835058Y-173136249D01*
X202257761Y-171739085D01*
X201189737Y-170669196D01*
X199793583Y-170089461D01*
X198281849Y-170088142D01*
X197576002Y-170379792D01*
X194970904Y-167774694D01*
X194500490Y-167460374D01*
X193945599Y-167349999D01*
X192851359Y-167349999D01*
X192949573Y-167113473D01*
X192950424Y-166138803D01*
X192950000Y-166137777D01*
X192950000Y-164120190D01*
X201798168Y-164120190D01*
X202527385Y-165885030D01*
X203876468Y-167236470D01*
X205640032Y-167968765D01*
X207549590Y-167970432D01*
X209314430Y-167241215D01*
X210665870Y-165892132D01*
X211398165Y-164128568D01*
X211399832Y-162219010D01*
X210670615Y-160454170D01*
X209321532Y-159102730D01*
X207557968Y-158370435D01*
X205648410Y-158368768D01*
X203883570Y-159097985D01*
X202532130Y-160447068D01*
X201799835Y-162210632D01*
X201798168Y-164120190D01*
X192950000Y-164120190D01*
X192950000Y-161668118D01*
X192950001Y-161668113D01*
X192763505Y-160730538D01*
X192476386Y-160300835D01*
X192232412Y-159935701D01*
X192232409Y-159935699D01*
X191820310Y-159523600D01*
X196849595Y-159523600D01*
X196849600Y-159523601D01*
X197787175Y-159337105D01*
X198582012Y-158806012D01*
X198699515Y-158688509D01*
X199786951Y-158689458D01*
X201184115Y-158112161D01*
X202254004Y-157044137D01*
X202833739Y-155647983D01*
X202835058Y-154136249D01*
X202257761Y-152739085D01*
X201189737Y-151669196D01*
X199793583Y-151089461D01*
X198281849Y-151088142D01*
X196884685Y-151665439D01*
X195814796Y-152733463D01*
X195235061Y-154129617D01*
X195234630Y-154623600D01*
X186197688Y-154623600D01*
X186088015Y-154358170D01*
X184738932Y-153006730D01*
X182975368Y-152274435D01*
X181065810Y-152272768D01*
X179300970Y-153001985D01*
X177949530Y-154351068D01*
X177217235Y-156114632D01*
X177216030Y-157495521D01*
X175964968Y-156976035D01*
X174055410Y-156974368D01*
X172816042Y-157486465D01*
X172817232Y-156123010D01*
X172088015Y-154358170D01*
X170738932Y-153006730D01*
X168975368Y-152274435D01*
X167065810Y-152272768D01*
X165300970Y-153001985D01*
X163949530Y-154351068D01*
X163217235Y-156114632D01*
X163215568Y-158024190D01*
X163944785Y-159789030D01*
X165293868Y-161140470D01*
X167057432Y-161872765D01*
X168966990Y-161874432D01*
X170206358Y-161362335D01*
X170205168Y-162725790D01*
X170934385Y-164490630D01*
X172283468Y-165842070D01*
X174047032Y-166574365D01*
X175956590Y-166576032D01*
X177721430Y-165846815D01*
X179072870Y-164497732D01*
X179805165Y-162734168D01*
X179806370Y-161353279D01*
X181057432Y-161872765D01*
X182966990Y-161874432D01*
X184731830Y-161145215D01*
X185622831Y-160255768D01*
X188050000Y-162682936D01*
X188050000Y-166623580D01*
X188049576Y-167109197D01*
X188149073Y-167349999D01*
X158854004Y-167349999D01*
X158853999Y-167349998D01*
X158391171Y-167442061D01*
X158299108Y-167460374D01*
X157945180Y-167696861D01*
X157828694Y-167774694D01*
X154524694Y-171078694D01*
X154210374Y-171549108D01*
X154099999Y-172103999D01*
X154099999Y-174764717D01*
X153344532Y-174007930D01*
X153068660Y-173893378D01*
X153423486Y-173746767D01*
X153831733Y-173339231D01*
X154052948Y-172806488D01*
X154053451Y-172229643D01*
X153833167Y-171696514D01*
X153425631Y-171288267D01*
X152892888Y-171067052D01*
X152316043Y-171066549D01*
X152315436Y-171066800D01*
X147735000Y-171066800D01*
X147444561Y-170363885D01*
X146376537Y-169293996D01*
X144980383Y-168714261D01*
X143468649Y-168712942D01*
X142071485Y-169290239D01*
X141001596Y-170358263D01*
X140421861Y-171754417D01*
X140420542Y-173266151D01*
X135942230Y-173266151D01*
X136361939Y-172255383D01*
X136363258Y-170743649D01*
X135785961Y-169346485D01*
X134717937Y-168276596D01*
X134012600Y-167983714D01*
X134012600Y-166564610D01*
X137251408Y-163325802D01*
X137950617Y-163616139D01*
X139462351Y-163617458D01*
X140859515Y-163040161D01*
X141929404Y-161972137D01*
X142509139Y-160575983D01*
X142510458Y-159064249D01*
X142412592Y-158827395D01*
X143098868Y-159514870D01*
X144862432Y-160247165D01*
X146771990Y-160248832D01*
X148536830Y-159519615D01*
X149888270Y-158170532D01*
X150246856Y-157306959D01*
X153606307Y-157306959D01*
X154213987Y-158777658D01*
X155338223Y-159903858D01*
X156807860Y-160514105D01*
X158399159Y-160515493D01*
X159869858Y-159907813D01*
X160996058Y-158783577D01*
X161606305Y-157313940D01*
X161607693Y-155722641D01*
X161000013Y-154251942D01*
X159875777Y-153125742D01*
X158406140Y-152515495D01*
X156814841Y-152514107D01*
X155344142Y-153121787D01*
X154217942Y-154246023D01*
X153607695Y-155715660D01*
X153606307Y-157306959D01*
X150246856Y-157306959D01*
X150620565Y-156406968D01*
X150622232Y-154497410D01*
X149893015Y-152732570D01*
X148543932Y-151381130D01*
X146780368Y-150648835D01*
X144870810Y-150647168D01*
X143105970Y-151376385D01*
X141754530Y-152725468D01*
X141022235Y-154489032D01*
X141020568Y-156398590D01*
X141270356Y-157003122D01*
X140865137Y-156597196D01*
X139468983Y-156017461D01*
X137957249Y-156016142D01*
X136560085Y-156593439D01*
X136531136Y-156622338D01*
X136620565Y-156406968D01*
X136622232Y-154497410D01*
X135893015Y-152732570D01*
X134543932Y-151381130D01*
X132780368Y-150648835D01*
X130870810Y-150647168D01*
X129105970Y-151376385D01*
X127754530Y-152725468D01*
X127022235Y-154489032D01*
X127020568Y-156398590D01*
X127749785Y-158163430D01*
X129098868Y-159514870D01*
X130862432Y-160247165D01*
X132771990Y-160248832D01*
X134536830Y-159519615D01*
X134910383Y-159146713D01*
X134909142Y-160569351D01*
X135200792Y-161275198D01*
X131537295Y-164938695D01*
X131382453Y-165170432D01*
X131384032Y-163362010D01*
X130654815Y-161597170D01*
X129305732Y-160245730D01*
X127542168Y-159513435D01*
X125632610Y-159511768D01*
X123867770Y-160240985D01*
X123492822Y-160615279D01*
X123509139Y-160575983D01*
X123510458Y-159064249D01*
X122933161Y-157667085D01*
X121865137Y-156597196D01*
X120468983Y-156017461D01*
X118957249Y-156016142D01*
X117560085Y-156593439D01*
X116490196Y-157661463D01*
X115910461Y-159057617D01*
X115909142Y-160569351D01*
X116107137Y-161048535D01*
X115305732Y-160245730D01*
X113542168Y-159513435D01*
X111632610Y-159511768D01*
X109867770Y-160240985D01*
X108516330Y-161590068D01*
X108379892Y-161918649D01*
X108275115Y-161665070D01*
X106926032Y-160313630D01*
X105162468Y-159581335D01*
X103252910Y-159579668D01*
X101488070Y-160308885D01*
X100136630Y-161657968D01*
X99404335Y-163421532D01*
X99402668Y-165331090D01*
X100131885Y-167095930D01*
X101480968Y-168447370D01*
X102686560Y-168947975D01*
X101821464Y-168947220D01*
X95920283Y-171385538D01*
X93300000Y-174001251D01*
X93300658Y-173247449D01*
X92723361Y-171850285D01*
X91655337Y-170780396D01*
X90259183Y-170200661D01*
X88747449Y-170199342D01*
X87350285Y-170776639D01*
X86280396Y-171844663D01*
X85987514Y-172550000D01*
X76952000Y-172550000D01*
X76397109Y-172660375D01*
X75926695Y-172974695D01*
X73611400Y-175289990D01*
X73611400Y-165776408D01*
X73788013Y-165599795D01*
X73786768Y-167026190D01*
X74515985Y-168791030D01*
X75865068Y-170142470D01*
X77628632Y-170874765D01*
X79538190Y-170876432D01*
X81303030Y-170147215D01*
X82654470Y-168798132D01*
X83386765Y-167034568D01*
X83388432Y-165125010D01*
X82659215Y-163360170D01*
X81310132Y-162008730D01*
X79546568Y-161276435D01*
X78112624Y-161275183D01*
X79518409Y-159869398D01*
X92500912Y-159869398D01*
X93055803Y-159759023D01*
X93526217Y-159444703D01*
X99853081Y-153117839D01*
X100167401Y-152647425D01*
X100277776Y-152092534D01*
X100277776Y-150622210D01*
X100977491Y-150333093D01*
X102047380Y-149265069D01*
X102627115Y-147868915D01*
X102628434Y-146357181D01*
X102051137Y-144960017D01*
X100983113Y-143890128D01*
X100467757Y-143676133D01*
X107343567Y-143676133D01*
X109318774Y-145651340D01*
X109028437Y-146350549D01*
X109027118Y-147862283D01*
X109318768Y-148568130D01*
X108328279Y-149558620D01*
X106982959Y-148999993D01*
X105471225Y-148998674D01*
X104074061Y-149575971D01*
X103004172Y-150643995D01*
X102424437Y-152040149D01*
X102423118Y-153551883D01*
X103000415Y-154949047D01*
X104068439Y-156018936D01*
X105464593Y-156598671D01*
X106976327Y-156599990D01*
X108373491Y-156022693D01*
X109443380Y-154954669D01*
X110023115Y-153558515D01*
X110024434Y-152046781D01*
X110000138Y-151987980D01*
X111369384Y-150618733D01*
X112068593Y-150909071D01*
X113580327Y-150910390D01*
X114977491Y-150333093D01*
X116047380Y-149265069D01*
X116627115Y-147868915D01*
X116628434Y-146357181D01*
X116051137Y-144960017D01*
X114983113Y-143890128D01*
X113586959Y-143310393D01*
X112075225Y-143309074D01*
X111369378Y-143600724D01*
X108969482Y-141200828D01*
X108499068Y-140886508D01*
X107944177Y-140776133D01*
X93134575Y-140776133D01*
X92579684Y-140886508D01*
X92109270Y-141200828D01*
X91842968Y-141467130D01*
X91143759Y-141176793D01*
X89632025Y-141175474D01*
X88926178Y-141467124D01*
X81841149Y-134382095D01*
X81370735Y-134067775D01*
X80815844Y-133957400D01*
X79814078Y-133957400D01*
X79524961Y-133257685D01*
X78456937Y-132187796D01*
X77807562Y-131918151D01*
X94289542Y-131918151D01*
X94866839Y-133315315D01*
X95934863Y-134385204D01*
X97331017Y-134964939D01*
X98842751Y-134966258D01*
X100239915Y-134388961D01*
X101309804Y-133320937D01*
X101889539Y-131924783D01*
X101890858Y-130413049D01*
X101313561Y-129015885D01*
X100245537Y-127945996D01*
X98849383Y-127366261D01*
X97337649Y-127364942D01*
X95940485Y-127942239D01*
X94870596Y-129010263D01*
X94290861Y-130406417D01*
X94289542Y-131918151D01*
X77807562Y-131918151D01*
X77060783Y-131608061D01*
X75549049Y-131606742D01*
X74151885Y-132184039D01*
X73081996Y-133252063D01*
X72502261Y-134648217D01*
X72500942Y-136159951D01*
X73078239Y-137557115D01*
X74146263Y-138627004D01*
X75542417Y-139206739D01*
X77054151Y-139208058D01*
X78451315Y-138630761D01*
X79521204Y-137562737D01*
X79814086Y-136857400D01*
X80215234Y-136857400D01*
X86875574Y-143517740D01*
X86585237Y-144216949D01*
X86583918Y-145728683D01*
X87161215Y-147125847D01*
X88229239Y-148195736D01*
X89625393Y-148775471D01*
X91137127Y-148776790D01*
X92534291Y-148199493D01*
X93604180Y-147131469D01*
X94183915Y-145735315D01*
X94185234Y-144223581D01*
X93959033Y-143676133D01*
X97186875Y-143676133D01*
X96678061Y-143886371D01*
X95608172Y-144954395D01*
X95028437Y-146350549D01*
X95027118Y-147862283D01*
X95604415Y-149259447D01*
X96672439Y-150329336D01*
X97377776Y-150622218D01*
X97377776Y-151491924D01*
X96125781Y-152743919D01*
X96126434Y-151995981D01*
X95549137Y-150598817D01*
X94481113Y-149528928D01*
X93084959Y-148949193D01*
X91573225Y-148947874D01*
X90176061Y-149525171D01*
X90161269Y-149539937D01*
X90074061Y-149575971D01*
X89004172Y-150643995D01*
X88424437Y-152040149D01*
X88423118Y-153551883D01*
X89000415Y-154949047D01*
X90068439Y-156018936D01*
X91464593Y-156598671D01*
X92270326Y-156599374D01*
X91900302Y-156969398D01*
X78917805Y-156969398D01*
X78917800Y-156969397D01*
X78454972Y-157061460D01*
X78362909Y-157079773D01*
X77892495Y-157394093D01*
X77892493Y-157394096D01*
X71136095Y-164150493D01*
X71100000Y-164204513D01*
X71100000Y-155897574D01*
X71170439Y-155968136D01*
X72566593Y-156547871D01*
X74078327Y-156549190D01*
X75475491Y-155971893D01*
X76545380Y-154903869D01*
X77125115Y-153507715D01*
X77126434Y-151995981D01*
X76549137Y-150598817D01*
X75481113Y-149528928D01*
X74084959Y-148949193D01*
X72573225Y-148947874D01*
X71176061Y-149525171D01*
X71100000Y-149601099D01*
X71100000Y-145728683D01*
X72583918Y-145728683D01*
X73161215Y-147125847D01*
X74229239Y-148195736D01*
X75625393Y-148775471D01*
X77137127Y-148776790D01*
X78534291Y-148199493D01*
X79604180Y-147131469D01*
X80183915Y-145735315D01*
X80185234Y-144223581D01*
X79607937Y-142826417D01*
X78539913Y-141756528D01*
X77143759Y-141176793D01*
X75632025Y-141175474D01*
X74234861Y-141752771D01*
X73164972Y-142820795D01*
X72585237Y-144216949D01*
X72583918Y-145728683D01*
X71100000Y-145728683D01*
X71100000Y-106035855D01*
X71606987Y-107262858D01*
X72731223Y-108389058D01*
X74200860Y-108999305D01*
X75792159Y-109000693D01*
X77262858Y-108393013D01*
X78389058Y-107268777D01*
X78999305Y-105799140D01*
X79000693Y-104207841D01*
X78393013Y-102737142D01*
X77268777Y-101610942D01*
X76038293Y-101100000D01*
X149987652Y-101100000D01*
X149963970Y-101109785D01*
X149963970Y-101109785D01*
G37*
X149963970Y-101109785D02*
X148612530Y-102458868D01*
X147880235Y-104222432D01*
X147878568Y-106131990D01*
X148607785Y-107896830D01*
X149956868Y-109248270D01*
X151720432Y-109980565D01*
X153629990Y-109982232D01*
X155394830Y-109253015D01*
X156746270Y-107903932D01*
X156860285Y-107629351D01*
X159597542Y-107629351D01*
X160174839Y-109026515D01*
X161242863Y-110096404D01*
X162639017Y-110676139D01*
X164150751Y-110677458D01*
X165547915Y-110100161D01*
X166617804Y-109032137D01*
X167197539Y-107635983D01*
X167198858Y-106124249D01*
X166621561Y-104727085D01*
X165553537Y-103657196D01*
X164157383Y-103077461D01*
X162645649Y-103076142D01*
X161248485Y-103653439D01*
X160178596Y-104721463D01*
X159598861Y-106117617D01*
X159597542Y-107629351D01*
X156860285Y-107629351D01*
X157478565Y-106140368D01*
X157480232Y-104230810D01*
X156751015Y-102465970D01*
X155401932Y-101114530D01*
X155366940Y-101100000D01*
X170083893Y-101100000D01*
X169146796Y-102035463D01*
X168567061Y-103431617D01*
X168565742Y-104943351D01*
X169143039Y-106340515D01*
X170211063Y-107410404D01*
X171607217Y-107990139D01*
X173118951Y-107991458D01*
X174516115Y-107414161D01*
X175586004Y-106346137D01*
X176165739Y-104949983D01*
X176167058Y-103438249D01*
X175589761Y-102041085D01*
X174650316Y-101100000D01*
X186083893Y-101100000D01*
X185146796Y-102035463D01*
X184567061Y-103431617D01*
X184565742Y-104943351D01*
X185143039Y-106340515D01*
X186211063Y-107410404D01*
X187607217Y-107990139D01*
X189118951Y-107991458D01*
X190516115Y-107414161D01*
X191586004Y-106346137D01*
X192165739Y-104949983D01*
X192167058Y-103438249D01*
X191589761Y-102041085D01*
X190650316Y-101100000D01*
X207243455Y-101100000D01*
X207016196Y-101326863D01*
X206436461Y-102723017D01*
X206435142Y-104234751D01*
X207012439Y-105631915D01*
X208080463Y-106701804D01*
X209476617Y-107281539D01*
X210988351Y-107282858D01*
X212385515Y-106705561D01*
X213455404Y-105637537D01*
X214035139Y-104241383D01*
X214036458Y-102729649D01*
X213459161Y-101332485D01*
X213227081Y-101100000D01*
X222963848Y-101100000D01*
X222052196Y-102010063D01*
X221472461Y-103406217D01*
X221471142Y-104917951D01*
X222048439Y-106315115D01*
X223116463Y-107385004D01*
X224512617Y-107964739D01*
X226024351Y-107966058D01*
X226730198Y-107674408D01*
X231366400Y-112310610D01*
X231366400Y-114455522D01*
X230666685Y-114744639D01*
X230190974Y-115219520D01*
X230299165Y-114958968D01*
X230300832Y-113049410D01*
X229571615Y-111284570D01*
X228222532Y-109933130D01*
X226458968Y-109200835D01*
X224549410Y-109199168D01*
X222784570Y-109928385D01*
X221433130Y-111277468D01*
X220712408Y-113013160D01*
X219103465Y-111401406D01*
X213206549Y-108952792D01*
X206821464Y-108947220D01*
X200920283Y-111385538D01*
X198300000Y-114001251D01*
X198300658Y-113247449D01*
X197723361Y-111850285D01*
X196655337Y-110780396D01*
X195259183Y-110200661D01*
X193747449Y-110199342D01*
X193041602Y-110490992D01*
X192432105Y-109881495D01*
X191961691Y-109567175D01*
X191406800Y-109456800D01*
X183319078Y-109456800D01*
X183029961Y-108757085D01*
X181961937Y-107687196D01*
X180565783Y-107107461D01*
X179054049Y-107106142D01*
X177656885Y-107683439D01*
X176586996Y-108751463D01*
X176007261Y-110147617D01*
X176005942Y-111659351D01*
X176583239Y-113056515D01*
X177651263Y-114126404D01*
X179047417Y-114706139D01*
X180559151Y-114707458D01*
X181576779Y-114286982D01*
X180565730Y-115296268D01*
X179833435Y-117059832D01*
X179831768Y-118969390D01*
X180560985Y-120734230D01*
X181193947Y-121368298D01*
X180671959Y-121151549D01*
X179048402Y-119527992D01*
X179338739Y-118828783D01*
X179340058Y-117317049D01*
X178762761Y-115919885D01*
X177694737Y-114849996D01*
X176298583Y-114270261D01*
X174786849Y-114268942D01*
X173389685Y-114846239D01*
X172319796Y-115914263D01*
X172026914Y-116619600D01*
X171650313Y-116619600D01*
X171095422Y-116729975D01*
X170625008Y-117044295D01*
X168722895Y-118946408D01*
X168408575Y-119416822D01*
X168298200Y-119971713D01*
X168298200Y-122638922D01*
X167598485Y-122928039D01*
X166528596Y-123996063D01*
X165948861Y-125392217D01*
X165947542Y-126903951D01*
X166056570Y-127167820D01*
X164856592Y-128367798D01*
X164157383Y-128077461D01*
X162645649Y-128076142D01*
X161248485Y-128653439D01*
X160178596Y-129721463D01*
X159598861Y-131117617D01*
X159597542Y-132629351D01*
X160174839Y-134026515D01*
X161242863Y-135096404D01*
X162639017Y-135676139D01*
X164150751Y-135677458D01*
X165547915Y-135100161D01*
X166617804Y-134032137D01*
X167120235Y-132822151D01*
X171738742Y-132822151D01*
X172316039Y-134219315D01*
X173384063Y-135289204D01*
X174780217Y-135868939D01*
X176291951Y-135870258D01*
X177689115Y-135292961D01*
X178759004Y-134224937D01*
X179338739Y-132828783D01*
X179340058Y-131317049D01*
X178762761Y-129919885D01*
X177694737Y-128849996D01*
X176298583Y-128270261D01*
X174786849Y-128268942D01*
X173389685Y-128846239D01*
X172319796Y-129914263D01*
X171740061Y-131310417D01*
X171738742Y-132822151D01*
X167120235Y-132822151D01*
X167197539Y-132635983D01*
X167198858Y-131124249D01*
X166907208Y-130418402D01*
X167848469Y-129477141D01*
X168989017Y-129950739D01*
X170500751Y-129952058D01*
X171897915Y-129374761D01*
X172967804Y-128306737D01*
X173547539Y-126910583D01*
X173548858Y-125398849D01*
X172971561Y-124001685D01*
X171903537Y-122931796D01*
X171198200Y-122638914D01*
X171198200Y-120572323D01*
X172092416Y-119678107D01*
X172316039Y-120219315D01*
X173384063Y-121289204D01*
X174780217Y-121868939D01*
X176291951Y-121870258D01*
X176997798Y-121578608D01*
X177379515Y-121960325D01*
X176586996Y-122751463D01*
X176007261Y-124147617D01*
X176005942Y-125659351D01*
X176583239Y-127056515D01*
X177651263Y-128126404D01*
X179047417Y-128706139D01*
X180559151Y-128707458D01*
X181576779Y-128286982D01*
X180565730Y-129296268D01*
X179833435Y-131059832D01*
X179831768Y-132969390D01*
X179944457Y-133242119D01*
X174920576Y-138266000D01*
X167261887Y-138266000D01*
X166324312Y-138452495D01*
X166105660Y-138598594D01*
X165529475Y-138983588D01*
X165529473Y-138983591D01*
X162918953Y-141594110D01*
X162175337Y-140849196D01*
X160779183Y-140269461D01*
X159267449Y-140268142D01*
X157870285Y-140845439D01*
X157619499Y-141095788D01*
X158299165Y-139458968D01*
X158300832Y-137549410D01*
X157571615Y-135784570D01*
X156222532Y-134433130D01*
X154458968Y-133700835D01*
X153766032Y-133700230D01*
X156047208Y-128206549D01*
X156052780Y-121821464D01*
X153614462Y-115920283D01*
X150603390Y-112903951D01*
X165947542Y-112903951D01*
X166524839Y-114301115D01*
X167592863Y-115371004D01*
X168989017Y-115950739D01*
X170500751Y-115952058D01*
X171897915Y-115374761D01*
X172967804Y-114306737D01*
X173547539Y-112910583D01*
X173548858Y-111398849D01*
X172971561Y-110001685D01*
X171903537Y-108931796D01*
X170507383Y-108352061D01*
X168995649Y-108350742D01*
X167598485Y-108928039D01*
X166528596Y-109996063D01*
X165948861Y-111392217D01*
X165947542Y-112903951D01*
X150603390Y-112903951D01*
X149103465Y-111401406D01*
X143206549Y-108952792D01*
X142421443Y-108952107D01*
X143219604Y-108155337D01*
X143799339Y-106759183D01*
X143800658Y-105247449D01*
X143223361Y-103850285D01*
X142155337Y-102780396D01*
X140759183Y-102200661D01*
X139247449Y-102199342D01*
X137850285Y-102776639D01*
X136780396Y-103844663D01*
X136200661Y-105240817D01*
X136199342Y-106752551D01*
X136776639Y-108149715D01*
X137573409Y-108947876D01*
X136821464Y-108947220D01*
X130920283Y-111385538D01*
X126401406Y-115896535D01*
X123952792Y-121793451D01*
X123947220Y-128178536D01*
X126385538Y-134079717D01*
X127005178Y-134700439D01*
X125747449Y-134699342D01*
X124350285Y-135276639D01*
X123280396Y-136344663D01*
X122987514Y-137050000D01*
X120025210Y-137050000D01*
X115599202Y-132623992D01*
X115889539Y-131924783D01*
X115890858Y-130413049D01*
X115313561Y-129015885D01*
X114245537Y-127945996D01*
X112849383Y-127366261D01*
X111337649Y-127364942D01*
X109940485Y-127942239D01*
X108870596Y-129010263D01*
X108290861Y-130406417D01*
X108289542Y-131918151D01*
X108866839Y-133315315D01*
X109934863Y-134385204D01*
X111331017Y-134964939D01*
X112842751Y-134966258D01*
X113548598Y-134674608D01*
X118399295Y-139525305D01*
X118869709Y-139839625D01*
X119424600Y-139950000D01*
X122987522Y-139950000D01*
X123276639Y-140649715D01*
X124344663Y-141719604D01*
X125740817Y-142299339D01*
X127252551Y-142300658D01*
X127958398Y-142009008D01*
X131043493Y-145094102D01*
X131043495Y-145094105D01*
X131317725Y-145277339D01*
X131513909Y-145408425D01*
X132068800Y-145518800D01*
X137507522Y-145518800D01*
X137796639Y-146218515D01*
X138864663Y-147288404D01*
X140260817Y-147868139D01*
X141772551Y-147869458D01*
X143169715Y-147292161D01*
X144239604Y-146224137D01*
X144819339Y-144827983D01*
X144820658Y-143316249D01*
X144243361Y-141919085D01*
X143320153Y-140994265D01*
X148699761Y-138771457D01*
X148699168Y-139450590D01*
X149428385Y-141215430D01*
X150777468Y-142566870D01*
X152541032Y-143299165D01*
X154450590Y-143300832D01*
X156215430Y-142571615D01*
X156747768Y-142040206D01*
X156220661Y-143309617D01*
X156219342Y-144821351D01*
X156796639Y-146218515D01*
X157864663Y-147288404D01*
X159260817Y-147868139D01*
X160772551Y-147869458D01*
X162169715Y-147292161D01*
X162944426Y-146518800D01*
X163909082Y-146518800D01*
X163909087Y-146518801D01*
X164846662Y-146332305D01*
X165641499Y-145801212D01*
X168276710Y-143166000D01*
X175520216Y-143166000D01*
X175499624Y-143170096D01*
X174974687Y-143520848D01*
X174646168Y-143384435D01*
X172736610Y-143382768D01*
X170971770Y-144111985D01*
X169620330Y-145461068D01*
X168888035Y-147224632D01*
X168886368Y-149134190D01*
X169615585Y-150899030D01*
X170964668Y-152250470D01*
X172728232Y-152982765D01*
X174637790Y-152984432D01*
X176402630Y-152255215D01*
X177754070Y-150906132D01*
X178486365Y-149142568D01*
X178486372Y-149134190D01*
X184886368Y-149134190D01*
X185615585Y-150899030D01*
X186964668Y-152250470D01*
X188728232Y-152982765D01*
X190637790Y-152984432D01*
X192402630Y-152255215D01*
X193754070Y-150906132D01*
X193949804Y-150434751D01*
X206435142Y-150434751D01*
X207012439Y-151831915D01*
X208080463Y-152901804D01*
X209476617Y-153481539D01*
X210988351Y-153482858D01*
X212385515Y-152905561D01*
X213455404Y-151837537D01*
X213848046Y-150891951D01*
X236026142Y-150891951D01*
X236603439Y-152289115D01*
X237671463Y-153359004D01*
X239067617Y-153938739D01*
X240579351Y-153940058D01*
X241976515Y-153362761D01*
X243046404Y-152294737D01*
X243626139Y-150898583D01*
X243627458Y-149386849D01*
X243357273Y-148732951D01*
X244436142Y-148732951D01*
X245013439Y-150130115D01*
X246081463Y-151200004D01*
X247477617Y-151779739D01*
X248989351Y-151781058D01*
X250386515Y-151203761D01*
X251456404Y-150135737D01*
X252036139Y-148739583D01*
X252037458Y-147227849D01*
X251460161Y-145830685D01*
X250392137Y-144760796D01*
X248995983Y-144181061D01*
X247484249Y-144179742D01*
X246087085Y-144757039D01*
X245017196Y-145825063D01*
X244437461Y-147221217D01*
X244436142Y-148732951D01*
X243357273Y-148732951D01*
X243050161Y-147989685D01*
X241982137Y-146919796D01*
X240585983Y-146340061D01*
X239074249Y-146338742D01*
X237677085Y-146916039D01*
X236607196Y-147984063D01*
X236027461Y-149380217D01*
X236026142Y-150891951D01*
X213848046Y-150891951D01*
X214035139Y-150441383D01*
X214036458Y-148929649D01*
X213459161Y-147532485D01*
X212391137Y-146462596D01*
X210994983Y-145882861D01*
X209483249Y-145881542D01*
X208086085Y-146458839D01*
X207016196Y-147526863D01*
X206436461Y-148923017D01*
X206435142Y-150434751D01*
X193949804Y-150434751D01*
X194486365Y-149142568D01*
X194488032Y-147233010D01*
X193758815Y-145468170D01*
X192409732Y-144116730D01*
X190646168Y-143384435D01*
X188736610Y-143382768D01*
X186971770Y-144111985D01*
X185620330Y-145461068D01*
X184888035Y-147224632D01*
X184886368Y-149134190D01*
X178486372Y-149134190D01*
X178487464Y-147883601D01*
X179965794Y-147883601D01*
X179965799Y-147883602D01*
X180903374Y-147697106D01*
X181698211Y-147166013D01*
X190346637Y-138517586D01*
X190428385Y-138715430D01*
X191777468Y-140066870D01*
X193541032Y-140799165D01*
X195450590Y-140800832D01*
X197215430Y-140071615D01*
X198566870Y-138722532D01*
X199287592Y-136986840D01*
X200896535Y-138598594D01*
X206793451Y-141047208D01*
X213178536Y-141052780D01*
X219079717Y-138614462D01*
X221700000Y-135998749D01*
X221699342Y-136752551D01*
X221990992Y-137458398D01*
X219939695Y-139509695D01*
X219909285Y-139555207D01*
X218815285Y-140007239D01*
X217745396Y-141075263D01*
X217165661Y-142471417D01*
X217164342Y-143983151D01*
X217741639Y-145380315D01*
X218809663Y-146450204D01*
X220205817Y-147029939D01*
X221717551Y-147031258D01*
X223114715Y-146453961D01*
X224184604Y-145385937D01*
X224764339Y-143989783D01*
X224765658Y-142478049D01*
X224188361Y-141080885D01*
X223329792Y-140220817D01*
X224041608Y-139509001D01*
X224740817Y-139799339D01*
X226252551Y-139800658D01*
X227649715Y-139223361D01*
X228719604Y-138155337D01*
X229299339Y-136759183D01*
X229300658Y-135247449D01*
X228723361Y-133850285D01*
X227655337Y-132780396D01*
X227511215Y-132720551D01*
X229015742Y-132720551D01*
X229593039Y-134117715D01*
X230661063Y-135187604D01*
X231366400Y-135480486D01*
X231366400Y-141082000D01*
X231476775Y-141636891D01*
X231498615Y-141669577D01*
X231165661Y-142471417D01*
X231164342Y-143983151D01*
X231741639Y-145380315D01*
X232809663Y-146450204D01*
X234205817Y-147029939D01*
X235717551Y-147031258D01*
X237114715Y-146453961D01*
X238184604Y-145385937D01*
X238764339Y-143989783D01*
X238765658Y-142478049D01*
X238188361Y-141080885D01*
X237120337Y-140010996D01*
X235724183Y-139431261D01*
X234266400Y-139429989D01*
X234266400Y-136891951D01*
X236026142Y-136891951D01*
X236603439Y-138289115D01*
X237671463Y-139359004D01*
X239067617Y-139938739D01*
X240579351Y-139940058D01*
X241285198Y-139648408D01*
X241551494Y-139914704D01*
X242021908Y-140229024D01*
X242576799Y-140339399D01*
X248499389Y-140339399D01*
X257165695Y-149005705D01*
X257636109Y-149320025D01*
X258191000Y-149430400D01*
X265524322Y-149430400D01*
X265813439Y-150130115D01*
X266881463Y-151200004D01*
X268277617Y-151779739D01*
X269789351Y-151781058D01*
X271186515Y-151203761D01*
X272256404Y-150135737D01*
X272836139Y-148739583D01*
X272837458Y-147227849D01*
X272260161Y-145830685D01*
X271192137Y-144760796D01*
X269795983Y-144181061D01*
X268284249Y-144179742D01*
X266887085Y-144757039D01*
X265817196Y-145825063D01*
X265524314Y-146530400D01*
X258791610Y-146530400D01*
X254491761Y-142230551D01*
X256295342Y-142230551D01*
X256872639Y-143627715D01*
X257940663Y-144697604D01*
X259336817Y-145277339D01*
X260848551Y-145278658D01*
X262245715Y-144701361D01*
X263315604Y-143633337D01*
X263895339Y-142237183D01*
X263896658Y-140725449D01*
X263319361Y-139328285D01*
X262251337Y-138258396D01*
X261546000Y-137965514D01*
X261546000Y-137884778D01*
X261849425Y-137824423D01*
X262595599Y-137325846D01*
X262813815Y-136999262D01*
X266539856Y-140725302D01*
X266539858Y-140725305D01*
X267010272Y-141039625D01*
X267102335Y-141057938D01*
X267565163Y-141150001D01*
X267565168Y-141150000D01*
X273528890Y-141150000D01*
X284173000Y-151794110D01*
X284173000Y-172413641D01*
X284159999Y-172479001D01*
X284159999Y-205343912D01*
X284270374Y-205898803D01*
X284293738Y-205933769D01*
X283650285Y-206199639D01*
X282580396Y-207267663D01*
X282000661Y-208663817D01*
X281999342Y-210175551D01*
X282576639Y-211572715D01*
X283644663Y-212642604D01*
X285040817Y-213222339D01*
X286552551Y-213223658D01*
X287949715Y-212646361D01*
X289019604Y-211578337D01*
X289312486Y-210873000D01*
X292021500Y-210873000D01*
X292576391Y-210762625D01*
X293046805Y-210448305D01*
X296405108Y-207090002D01*
X297104317Y-207380339D01*
X298616051Y-207381658D01*
X300013215Y-206804361D01*
X301083104Y-205736337D01*
X301662839Y-204340183D01*
X301664158Y-202828449D01*
X301086861Y-201431285D01*
X300018837Y-200361396D01*
X298622683Y-199781661D01*
X297110949Y-199780342D01*
X295713785Y-200357639D01*
X294643896Y-201425663D01*
X294064161Y-202821817D01*
X294062842Y-204333551D01*
X294354492Y-205039398D01*
X291420890Y-207973000D01*
X289312478Y-207973000D01*
X289023361Y-207273285D01*
X287955337Y-206203396D01*
X287250000Y-205910514D01*
X287250000Y-205533913D01*
X287139625Y-204979022D01*
X287059999Y-204859853D01*
X287059999Y-201151338D01*
X287404663Y-201496604D01*
X288800817Y-202076339D01*
X290312551Y-202077658D01*
X291709715Y-201500361D01*
X292779604Y-200432337D01*
X293359339Y-199036183D01*
X293360658Y-197524449D01*
X292888367Y-196381420D01*
X293871532Y-196789665D01*
X295781090Y-196791332D01*
X296053819Y-196678643D01*
X297107586Y-197732409D01*
X297107588Y-197732412D01*
X297902426Y-198263505D01*
X298840000Y-198450000D01*
X300318712Y-198450000D01*
X300428385Y-198715430D01*
X301777468Y-200066870D01*
X302050000Y-200180035D01*
X302050000Y-205385895D01*
X300733130Y-206700468D01*
X300000835Y-208464032D01*
X299999168Y-210373590D01*
X300728385Y-212138430D01*
X302077468Y-213489870D01*
X303841032Y-214222165D01*
X305750590Y-214223832D01*
X307515430Y-213494615D01*
X308866870Y-212145532D01*
X309599165Y-210381968D01*
X309600832Y-208472410D01*
X308871615Y-206707570D01*
X307522532Y-205356130D01*
X306950000Y-205118394D01*
X306950000Y-204333551D01*
X308062842Y-204333551D01*
X308640139Y-205730715D01*
X309708163Y-206800604D01*
X311104317Y-207380339D01*
X312616051Y-207381658D01*
X314013215Y-206804361D01*
X315083104Y-205736337D01*
X315662839Y-204340183D01*
X315664158Y-202828449D01*
X315086861Y-201431285D01*
X314018837Y-200361396D01*
X312622683Y-199781661D01*
X311110949Y-199780342D01*
X309713785Y-200357639D01*
X308643896Y-201425663D01*
X308064161Y-202821817D01*
X308062842Y-204333551D01*
X306950000Y-204333551D01*
X306950000Y-200181288D01*
X307215430Y-200071615D01*
X308566870Y-198722532D01*
X309287592Y-196986840D01*
X310896535Y-198598594D01*
X316793451Y-201047208D01*
X317326046Y-201047673D01*
X316947396Y-201425663D01*
X316367661Y-202821817D01*
X316366342Y-204333551D01*
X316943639Y-205730715D01*
X318011663Y-206800604D01*
X319407817Y-207380339D01*
X320919551Y-207381658D01*
X322316715Y-206804361D01*
X323386604Y-205736337D01*
X323966339Y-204340183D01*
X323967658Y-202828449D01*
X323390361Y-201431285D01*
X323012371Y-201052635D01*
X323178536Y-201052780D01*
X329079717Y-198614462D01*
X331700000Y-195998749D01*
X331699342Y-196752551D01*
X332276639Y-198149715D01*
X333344663Y-199219604D01*
X334740817Y-199799339D01*
X336252551Y-199800658D01*
X337649715Y-199223361D01*
X338719604Y-198155337D01*
X339012486Y-197450000D01*
X341365000Y-197450000D01*
X341919891Y-197339625D01*
X342390305Y-197025305D01*
X342457608Y-196958002D01*
X343156817Y-197248339D01*
X344668551Y-197249658D01*
X346065715Y-196672361D01*
X347135604Y-195604337D01*
X347715339Y-194208183D01*
X347716658Y-192696449D01*
X347139361Y-191299285D01*
X346071337Y-190229396D01*
X344675183Y-189649661D01*
X343163449Y-189648342D01*
X341766285Y-190225639D01*
X340696396Y-191293663D01*
X340116661Y-192689817D01*
X340115342Y-194201551D01*
X340259318Y-194550000D01*
X339012478Y-194550000D01*
X338723361Y-193850285D01*
X337655337Y-192780396D01*
X336259183Y-192200661D01*
X334747449Y-192199342D01*
X334315071Y-192377997D01*
X336047208Y-188206549D01*
X336051254Y-183569051D01*
X340115342Y-183569051D01*
X340692639Y-184966215D01*
X341760663Y-186036104D01*
X343156817Y-186615839D01*
X344668551Y-186617158D01*
X346065715Y-186039861D01*
X347135604Y-184971837D01*
X347715339Y-183575683D01*
X347716658Y-182063949D01*
X347139361Y-180666785D01*
X346071337Y-179596896D01*
X344675183Y-179017161D01*
X343163449Y-179015842D01*
X341766285Y-179593139D01*
X340696396Y-180661163D01*
X340116661Y-182057317D01*
X340115342Y-183569051D01*
X336051254Y-183569051D01*
X336052780Y-181821464D01*
X334804087Y-178799395D01*
X336450590Y-178800832D01*
X338215430Y-178071615D01*
X339566870Y-176722532D01*
X339631452Y-176567000D01*
X340992401Y-176567000D01*
X341760663Y-177336604D01*
X343156817Y-177916339D01*
X344668551Y-177917658D01*
X346065715Y-177340361D01*
X347135604Y-176272337D01*
X347715339Y-174876183D01*
X347716658Y-173364449D01*
X347139361Y-171967285D01*
X346071337Y-170897396D01*
X345041487Y-170469764D01*
X346646430Y-169806615D01*
X347997870Y-168457532D01*
X348730165Y-166693968D01*
X348731832Y-164784410D01*
X348002615Y-163019570D01*
X346653532Y-161668130D01*
X344889968Y-160935835D01*
X342980410Y-160934168D01*
X341215570Y-161663385D01*
X339864130Y-163012468D01*
X339750965Y-163285000D01*
X339725000Y-163285000D01*
X338787426Y-163471495D01*
X337992588Y-164002588D01*
X337992586Y-164002591D01*
X334324672Y-167670504D01*
X334730165Y-166693968D01*
X334731832Y-164784410D01*
X334002615Y-163019570D01*
X332653532Y-161668130D01*
X330889968Y-160935835D01*
X328980410Y-160934168D01*
X327215570Y-161663385D01*
X325864130Y-163012468D01*
X325131835Y-164776032D01*
X325130168Y-166685590D01*
X325859385Y-168450430D01*
X327208468Y-169801870D01*
X328972032Y-170534165D01*
X330881590Y-170535832D01*
X332646430Y-169806615D01*
X333188058Y-169265931D01*
X333080620Y-169806060D01*
X332784570Y-169928385D01*
X331433130Y-171277468D01*
X330712408Y-173013160D01*
X329103465Y-171401406D01*
X323206549Y-168952792D01*
X322969629Y-168952585D01*
X323386604Y-168536337D01*
X323966339Y-167140183D01*
X323967658Y-165628449D01*
X323390361Y-164231285D01*
X322322337Y-163161396D01*
X320926183Y-162581661D01*
X319414449Y-162580342D01*
X318017285Y-163157639D01*
X316947396Y-164225663D01*
X316367661Y-165621817D01*
X316366342Y-167133551D01*
X316943639Y-168530715D01*
X317359887Y-168947690D01*
X316821464Y-168947220D01*
X310920283Y-171385538D01*
X308300000Y-174001251D01*
X308300658Y-173247449D01*
X307723361Y-171850285D01*
X306655337Y-170780396D01*
X305259183Y-170200661D01*
X303747449Y-170199342D01*
X302350285Y-170776639D01*
X302110506Y-171016000D01*
X300934940Y-171016000D01*
X300948533Y-171002431D01*
X301169748Y-170469688D01*
X301170251Y-169892843D01*
X301170000Y-169892236D01*
X301170000Y-160782000D01*
X301059625Y-160227109D01*
X300745305Y-159756695D01*
X296879200Y-155890590D01*
X308175668Y-155890590D01*
X308904885Y-157655430D01*
X310253968Y-159006870D01*
X312017532Y-159739165D01*
X313927090Y-159740832D01*
X315691930Y-159011615D01*
X317043370Y-157662532D01*
X317775665Y-155898968D01*
X317775672Y-155890590D01*
X322175668Y-155890590D01*
X322904885Y-157655430D01*
X324253968Y-159006870D01*
X326017532Y-159739165D01*
X327927090Y-159740832D01*
X329691930Y-159011615D01*
X331043370Y-157662532D01*
X331775665Y-155898968D01*
X331777332Y-153989410D01*
X331048115Y-152224570D01*
X329699032Y-150873130D01*
X327935468Y-150140835D01*
X326025910Y-150139168D01*
X324261070Y-150868385D01*
X322909630Y-152217468D01*
X322177335Y-153981032D01*
X322175668Y-155890590D01*
X317775672Y-155890590D01*
X317777332Y-153989410D01*
X317048115Y-152224570D01*
X315699032Y-150873130D01*
X313935468Y-150140835D01*
X312025910Y-150139168D01*
X310261070Y-150868385D01*
X308909630Y-152217468D01*
X308177335Y-153981032D01*
X308175668Y-155890590D01*
X296879200Y-155890590D01*
X275662805Y-134674195D01*
X275192391Y-134359875D01*
X274637500Y-134249500D01*
X270333430Y-134249500D01*
X270215599Y-134073154D01*
X269469425Y-133574577D01*
X268589253Y-133399500D01*
X266969747Y-133399500D01*
X266089575Y-133574577D01*
X265343401Y-134073154D01*
X264844824Y-134819328D01*
X264826620Y-134910847D01*
X264809510Y-134893737D01*
X264809510Y-133069510D01*
X264699135Y-132514619D01*
X264384815Y-132044205D01*
X263217963Y-130877353D01*
X263269253Y-130619500D01*
X264669747Y-130619500D01*
X264844824Y-131499672D01*
X265343401Y-132245846D01*
X266089575Y-132744423D01*
X266969747Y-132919500D01*
X268589253Y-132919500D01*
X269469425Y-132744423D01*
X270215599Y-132245846D01*
X270714176Y-131499672D01*
X270889253Y-130619500D01*
X270714176Y-129739328D01*
X270215599Y-128993154D01*
X269469425Y-128494577D01*
X268589253Y-128319500D01*
X266969747Y-128319500D01*
X266089575Y-128494577D01*
X265343401Y-128993154D01*
X264844824Y-129739328D01*
X264669747Y-130619500D01*
X263269253Y-130619500D01*
X263094176Y-129739328D01*
X262595599Y-128993154D01*
X261849425Y-128494577D01*
X260969253Y-128319500D01*
X259349747Y-128319500D01*
X258469575Y-128494577D01*
X257723401Y-128993154D01*
X257224824Y-129739328D01*
X257049747Y-130619500D01*
X257224824Y-131499672D01*
X257723401Y-132245846D01*
X258469575Y-132744423D01*
X259349747Y-132919500D01*
X260969253Y-132919500D01*
X261127427Y-132888037D01*
X261805163Y-133565773D01*
X260969253Y-133399500D01*
X259349747Y-133399500D01*
X258469575Y-133574577D01*
X257723401Y-134073154D01*
X257224824Y-134819328D01*
X257049747Y-135699500D01*
X257224824Y-136579672D01*
X257723401Y-137325846D01*
X258469575Y-137824423D01*
X258646000Y-137859516D01*
X258646000Y-137965522D01*
X257946285Y-138254639D01*
X256876396Y-139322663D01*
X256296661Y-140718817D01*
X256295342Y-142230551D01*
X254491761Y-142230551D01*
X250125304Y-137864094D01*
X249654890Y-137549774D01*
X249099999Y-137439399D01*
X243401572Y-137439399D01*
X243626139Y-136898583D01*
X243627458Y-135386849D01*
X243050161Y-133989685D01*
X241982137Y-132919796D01*
X240585983Y-132340061D01*
X239074249Y-132338742D01*
X237677085Y-132916039D01*
X236607196Y-133984063D01*
X236027461Y-135380217D01*
X236026142Y-136891951D01*
X234266400Y-136891951D01*
X234266400Y-135480478D01*
X234966115Y-135191361D01*
X236036004Y-134123337D01*
X236615739Y-132727183D01*
X236616263Y-132125951D01*
X247075142Y-132125951D01*
X247652439Y-133523115D01*
X248720463Y-134593004D01*
X250116617Y-135172739D01*
X251628351Y-135174058D01*
X253025515Y-134596761D01*
X254095404Y-133528737D01*
X254675139Y-132132583D01*
X254676458Y-130620849D01*
X254099161Y-129223685D01*
X253031137Y-128153796D01*
X251634983Y-127574061D01*
X250123249Y-127572742D01*
X248726085Y-128150039D01*
X247656196Y-129218063D01*
X247076461Y-130614217D01*
X247075142Y-132125951D01*
X236616263Y-132125951D01*
X236617058Y-131215449D01*
X236039761Y-129818285D01*
X235119946Y-128896864D01*
X238368408Y-125648402D01*
X239067617Y-125938739D01*
X240579351Y-125940058D01*
X241976515Y-125362761D01*
X243046404Y-124294737D01*
X243626139Y-122898583D01*
X243627458Y-121386849D01*
X243050161Y-119989685D01*
X241982137Y-118919796D01*
X240585983Y-118340061D01*
X239074249Y-118338742D01*
X237677085Y-118916039D01*
X236607196Y-119984063D01*
X236027461Y-121380217D01*
X236026142Y-122891951D01*
X236317792Y-123597798D01*
X231791095Y-128124495D01*
X231647524Y-128339364D01*
X230666685Y-128744639D01*
X229596796Y-129812663D01*
X229017061Y-131208817D01*
X229015742Y-132720551D01*
X227511215Y-132720551D01*
X226259183Y-132200661D01*
X224747449Y-132199342D01*
X224315071Y-132377997D01*
X226047208Y-128206549D01*
X226047893Y-127421443D01*
X226844663Y-128219604D01*
X228240817Y-128799339D01*
X229752551Y-128800658D01*
X231149715Y-128223361D01*
X232219604Y-127155337D01*
X232799339Y-125759183D01*
X232800658Y-124247449D01*
X232509008Y-123541602D01*
X233841705Y-122208905D01*
X234067981Y-121870258D01*
X234156025Y-121738491D01*
X234202059Y-121507063D01*
X234966115Y-121191361D01*
X236036004Y-120123337D01*
X236615739Y-118727183D01*
X236617058Y-117215449D01*
X236039761Y-115818285D01*
X234971737Y-114748396D01*
X234266400Y-114455514D01*
X234266400Y-111710000D01*
X234156025Y-111155109D01*
X233841705Y-110684695D01*
X228780802Y-105623792D01*
X229071139Y-104924583D01*
X229072458Y-103412849D01*
X228495161Y-102015685D01*
X227581072Y-101100000D01*
X241963848Y-101100000D01*
X241052196Y-102010063D01*
X240472461Y-103406217D01*
X240471142Y-104917951D01*
X241048439Y-106315115D01*
X242116463Y-107385004D01*
X242821800Y-107677886D01*
X242821800Y-110769400D01*
X242932175Y-111324291D01*
X243246495Y-111794705D01*
X247366798Y-115915008D01*
X247076461Y-116614217D01*
X247075142Y-118125951D01*
X247652439Y-119523115D01*
X248720463Y-120593004D01*
X250116617Y-121172739D01*
X251628351Y-121174058D01*
X252594318Y-120774928D01*
X257101037Y-125281647D01*
X257049747Y-125539500D01*
X257224824Y-126419672D01*
X257723401Y-127165846D01*
X258469575Y-127664423D01*
X259349747Y-127839500D01*
X260969253Y-127839500D01*
X261849425Y-127664423D01*
X262595599Y-127165846D01*
X263094176Y-126419672D01*
X263269253Y-125539500D01*
X264669747Y-125539500D01*
X264844824Y-126419672D01*
X265343401Y-127165846D01*
X266089575Y-127664423D01*
X266969747Y-127839500D01*
X268589253Y-127839500D01*
X269469425Y-127664423D01*
X270215599Y-127165846D01*
X270714176Y-126419672D01*
X270889253Y-125539500D01*
X270714176Y-124659328D01*
X270215599Y-123913154D01*
X269469425Y-123414577D01*
X268589253Y-123239500D01*
X266969747Y-123239500D01*
X266089575Y-123414577D01*
X265343401Y-123913154D01*
X264844824Y-124659328D01*
X264669747Y-125539500D01*
X263269253Y-125539500D01*
X263094176Y-124659328D01*
X262595599Y-123913154D01*
X261849425Y-123414577D01*
X260969253Y-123239500D01*
X259349747Y-123239500D01*
X259191573Y-123270963D01*
X254492657Y-118572047D01*
X254675139Y-118132583D01*
X254675324Y-117919500D01*
X257049747Y-117919500D01*
X257224824Y-118799672D01*
X257723401Y-119545846D01*
X258469575Y-120044423D01*
X259349747Y-120219500D01*
X260969253Y-120219500D01*
X261849425Y-120044423D01*
X262595599Y-119545846D01*
X263094176Y-118799672D01*
X263269253Y-117919500D01*
X264669747Y-117919500D01*
X264844824Y-118799672D01*
X265343401Y-119545846D01*
X266089575Y-120044423D01*
X266969747Y-120219500D01*
X268589253Y-120219500D01*
X269469425Y-120044423D01*
X270215599Y-119545846D01*
X270714176Y-118799672D01*
X270889253Y-117919500D01*
X270714176Y-117039328D01*
X270215599Y-116293154D01*
X269469425Y-115794577D01*
X268589253Y-115619500D01*
X266969747Y-115619500D01*
X266089575Y-115794577D01*
X265343401Y-116293154D01*
X264844824Y-117039328D01*
X264669747Y-117919500D01*
X263269253Y-117919500D01*
X263094176Y-117039328D01*
X262595599Y-116293154D01*
X261849425Y-115794577D01*
X260969253Y-115619500D01*
X259349747Y-115619500D01*
X258469575Y-115794577D01*
X257723401Y-116293154D01*
X257224824Y-117039328D01*
X257049747Y-117919500D01*
X254675324Y-117919500D01*
X254676458Y-116620849D01*
X254099161Y-115223685D01*
X253031137Y-114153796D01*
X251634983Y-113574061D01*
X250123249Y-113572742D01*
X249417402Y-113864392D01*
X246884510Y-111331500D01*
X258088930Y-111331500D01*
X258088930Y-113331500D01*
X258162145Y-113720607D01*
X258392107Y-114077977D01*
X258742988Y-114317724D01*
X259159500Y-114402070D01*
X261159500Y-114402070D01*
X261548607Y-114328855D01*
X261905977Y-114098893D01*
X262145724Y-113748012D01*
X262230070Y-113331500D01*
X262230070Y-112737481D01*
X265729145Y-112737481D01*
X266040581Y-113491215D01*
X266616752Y-114068392D01*
X267369941Y-114381143D01*
X268185481Y-114381855D01*
X268939215Y-114070419D01*
X269516392Y-113494248D01*
X269829143Y-112741059D01*
X269829855Y-111925519D01*
X269518419Y-111171785D01*
X268942248Y-110594608D01*
X268189059Y-110281857D01*
X267373519Y-110281145D01*
X266619785Y-110592581D01*
X266042608Y-111168752D01*
X265729857Y-111921941D01*
X265729145Y-112737481D01*
X262230070Y-112737481D01*
X262230070Y-111331500D01*
X262156855Y-110942393D01*
X261926893Y-110585023D01*
X261576012Y-110345276D01*
X261159500Y-110260930D01*
X259159500Y-110260930D01*
X258770393Y-110334145D01*
X258413023Y-110564107D01*
X258173276Y-110914988D01*
X258088930Y-111331500D01*
X246884510Y-111331500D01*
X245721800Y-110168790D01*
X245721800Y-107677878D01*
X246421515Y-107388761D01*
X247491404Y-106320737D01*
X247641464Y-105959351D01*
X248675342Y-105959351D01*
X249252639Y-107356515D01*
X250320663Y-108426404D01*
X251716817Y-109006139D01*
X253228551Y-109007458D01*
X254625715Y-108430161D01*
X255695604Y-107362137D01*
X256275339Y-105965983D01*
X256276658Y-104454249D01*
X255699361Y-103057085D01*
X254631337Y-101987196D01*
X253235183Y-101407461D01*
X251723449Y-101406142D01*
X250326285Y-101983439D01*
X249256396Y-103051463D01*
X248676661Y-104447617D01*
X248675342Y-105959351D01*
X247641464Y-105959351D01*
X248071139Y-104924583D01*
X248072458Y-103412849D01*
X247495161Y-102015685D01*
X246581072Y-101100000D01*
X268964145Y-101100000D01*
X267737142Y-101606987D01*
X266610942Y-102731223D01*
X266062675Y-104051596D01*
X265630761Y-103006285D01*
X264562737Y-101936396D01*
X263166583Y-101356661D01*
X261654849Y-101355342D01*
X260257685Y-101932639D01*
X259187796Y-103000663D01*
X258608061Y-104396817D01*
X258606742Y-105908551D01*
X259184039Y-107305715D01*
X260252063Y-108375604D01*
X261648217Y-108955339D01*
X263159951Y-108956658D01*
X264557115Y-108379361D01*
X265627004Y-107311337D01*
X266128246Y-106104215D01*
X266606987Y-107262858D01*
X267731223Y-108389058D01*
X269200860Y-108999305D01*
X270792159Y-109000693D01*
X272262858Y-108393013D01*
X273389058Y-107268777D01*
X273900000Y-106038293D01*
X273900000Y-130000000D01*
X273983733Y-130420952D01*
X274048579Y-130518000D01*
X274222183Y-130777817D01*
X284222183Y-140777818D01*
X284579049Y-141016268D01*
X285000000Y-141100000D01*
X294544366Y-141100000D01*
X301222183Y-147777818D01*
X301380501Y-147883602D01*
X301579048Y-148016267D01*
X302000000Y-148100000D01*
X346544366Y-148100000D01*
X348900000Y-150455635D01*
X348900000Y-151464145D01*
X348393013Y-150237142D01*
X347268777Y-149110942D01*
X345799140Y-148500695D01*
X344207841Y-148499307D01*
X342737142Y-149106987D01*
X341610942Y-150231223D01*
X341000695Y-151700860D01*
X340999307Y-153292159D01*
X341606987Y-154762858D01*
X342731223Y-155889058D01*
X344200860Y-156499305D01*
X345792159Y-156500693D01*
X347262858Y-155893013D01*
X348389058Y-154768777D01*
X348900000Y-153538293D01*
X348900000Y-216544365D01*
X346544366Y-218900000D01*
X248535855Y-218900000D01*
X249762858Y-218393013D01*
X250889058Y-217268777D01*
X251499305Y-215799140D01*
X251500000Y-215001551D01*
X340115342Y-215001551D01*
X340692639Y-216398715D01*
X341760663Y-217468604D01*
X343156817Y-218048339D01*
X344668551Y-218049658D01*
X346065715Y-217472361D01*
X347135604Y-216404337D01*
X347715339Y-215008183D01*
X347716658Y-213496449D01*
X347139361Y-212099285D01*
X346071337Y-211029396D01*
X344675183Y-210449661D01*
X343163449Y-210448342D01*
X341766285Y-211025639D01*
X340696396Y-212093663D01*
X340116661Y-213489817D01*
X340115342Y-215001551D01*
X251500000Y-215001551D01*
X251500693Y-214207841D01*
X250893013Y-212737142D01*
X249768777Y-211610942D01*
X248299140Y-211000695D01*
X246707841Y-210999307D01*
X245237142Y-211606987D01*
X244110942Y-212731223D01*
X243500695Y-214200860D01*
X243499307Y-215792159D01*
X244106987Y-217262858D01*
X245231223Y-218389058D01*
X246461707Y-218900000D01*
X85256732Y-218900000D01*
X85889058Y-218268777D01*
X86499305Y-216799140D01*
X86500693Y-215207841D01*
X85893013Y-213737142D01*
X84768777Y-212610942D01*
X83299140Y-212000695D01*
X81707841Y-211999307D01*
X80237142Y-212606987D01*
X79110942Y-213731223D01*
X78500695Y-215200860D01*
X78499307Y-216792159D01*
X79106987Y-218262858D01*
X79743018Y-218900000D01*
X73455635Y-218900000D01*
X71100000Y-216544366D01*
X71100000Y-214334618D01*
X71375639Y-215001715D01*
X72443663Y-216071604D01*
X73839817Y-216651339D01*
X75351551Y-216652658D01*
X76748715Y-216075361D01*
X77818604Y-215007337D01*
X78398339Y-213611183D01*
X78399658Y-212099449D01*
X78108008Y-211393602D01*
X78607064Y-210894546D01*
X79099263Y-211387604D01*
X80495417Y-211967339D01*
X82007151Y-211968658D01*
X83404315Y-211391361D01*
X84474204Y-210323337D01*
X85053939Y-208927183D01*
X85055258Y-207415449D01*
X84477961Y-206018285D01*
X83409937Y-204948396D01*
X82013783Y-204368661D01*
X80502049Y-204367342D01*
X79104885Y-204944639D01*
X78034996Y-206012663D01*
X77455261Y-207408817D01*
X77454793Y-207945597D01*
X76057392Y-209342998D01*
X76049000Y-209339514D01*
X76049000Y-208962913D01*
X75938625Y-208408022D01*
X75624305Y-207937608D01*
X73611400Y-205924703D01*
X73611400Y-203444564D01*
X74628863Y-204463804D01*
X76025017Y-205043539D01*
X77536751Y-205044858D01*
X78933915Y-204467561D01*
X80003804Y-203399537D01*
X80583539Y-202003383D01*
X80584858Y-200491649D01*
X80007561Y-199094485D01*
X78939537Y-198024596D01*
X77543383Y-197444861D01*
X76031649Y-197443542D01*
X74634485Y-198020839D01*
X73611400Y-199042141D01*
X73611400Y-189444564D01*
X74628863Y-190463804D01*
X76025017Y-191043539D01*
X77536751Y-191044858D01*
X78933915Y-190467561D01*
X79957673Y-189445588D01*
X80001789Y-189511613D01*
X80857829Y-190367652D01*
X80502049Y-190367342D01*
X79104885Y-190944639D01*
X78034996Y-192012663D01*
X77455261Y-193408817D01*
X77453942Y-194920551D01*
X78031239Y-196317715D01*
X79099263Y-197387604D01*
X80495417Y-197967339D01*
X81388909Y-197968119D01*
X83792400Y-200371610D01*
X83792400Y-204037508D01*
X83792149Y-204325357D01*
X84012433Y-204858486D01*
X84419969Y-205266733D01*
X84952712Y-205487948D01*
X85529557Y-205488451D01*
X86062686Y-205268167D01*
X86470933Y-204860631D01*
X86692148Y-204327888D01*
X86692651Y-203751043D01*
X86692400Y-203750436D01*
X86692400Y-199981653D01*
X86777468Y-200066870D01*
X87050000Y-200180035D01*
X87050000Y-208752995D01*
X87049999Y-208753000D01*
X87236495Y-209690575D01*
X87767588Y-210485412D01*
X89799291Y-212517114D01*
X89798342Y-213604551D01*
X90375639Y-215001715D01*
X91443663Y-216071604D01*
X92839817Y-216651339D01*
X94351551Y-216652658D01*
X95748715Y-216075361D01*
X96818604Y-215007337D01*
X97398339Y-213611183D01*
X97399658Y-212099449D01*
X97082989Y-211333051D01*
X100402842Y-211333051D01*
X100980139Y-212730215D01*
X102048163Y-213800104D01*
X103444317Y-214379839D01*
X104956051Y-214381158D01*
X106353215Y-213803861D01*
X107423104Y-212735837D01*
X108002839Y-211339683D01*
X108003309Y-210800151D01*
X116747742Y-210800151D01*
X117325039Y-212197315D01*
X118393063Y-213267204D01*
X119789217Y-213846939D01*
X121300951Y-213848258D01*
X122698115Y-213270961D01*
X123768004Y-212202937D01*
X124347739Y-210806783D01*
X124349058Y-209295049D01*
X123771761Y-207897885D01*
X122880584Y-207005151D01*
X124189942Y-207005151D01*
X124767239Y-208402315D01*
X125835263Y-209472204D01*
X127231417Y-210051939D01*
X128743151Y-210053258D01*
X130140315Y-209475961D01*
X131210204Y-208407937D01*
X131398134Y-207955351D01*
X132495742Y-207955351D01*
X133073039Y-209352515D01*
X134141063Y-210422404D01*
X135537217Y-211002139D01*
X137048951Y-211003458D01*
X138446115Y-210426161D01*
X139516004Y-209358137D01*
X139537928Y-209305338D01*
X140000598Y-209768008D01*
X139710261Y-210467217D01*
X139708942Y-211978951D01*
X140286239Y-213376115D01*
X141354263Y-214446004D01*
X142750417Y-215025739D01*
X144262151Y-215027058D01*
X145659315Y-214449761D01*
X146729204Y-213381737D01*
X147308939Y-211985583D01*
X147310258Y-210473849D01*
X146732961Y-209076685D01*
X145664937Y-208006796D01*
X144268783Y-207427061D01*
X142757049Y-207425742D01*
X142051202Y-207717392D01*
X140511305Y-206177495D01*
X140040891Y-205863175D01*
X139837791Y-205822776D01*
X139519761Y-205053085D01*
X138451737Y-203983196D01*
X137055583Y-203403461D01*
X135543849Y-203402142D01*
X134146685Y-203979439D01*
X133076796Y-205047463D01*
X132497061Y-206443617D01*
X132495742Y-207955351D01*
X131398134Y-207955351D01*
X131789939Y-207011783D01*
X131791258Y-205500049D01*
X131213961Y-204102885D01*
X130145937Y-203032996D01*
X128749783Y-202453261D01*
X127238049Y-202451942D01*
X125840885Y-203029239D01*
X124770996Y-204097263D01*
X124191261Y-205493417D01*
X124189942Y-207005151D01*
X122880584Y-207005151D01*
X122703737Y-206827996D01*
X121307583Y-206248261D01*
X119795849Y-206246942D01*
X118398685Y-206824239D01*
X117328796Y-207892263D01*
X116749061Y-209288417D01*
X116747742Y-210800151D01*
X108003309Y-210800151D01*
X108004158Y-209827949D01*
X107426861Y-208430785D01*
X106358837Y-207360896D01*
X104962683Y-206781161D01*
X103450949Y-206779842D01*
X102053785Y-207357139D01*
X100983896Y-208425163D01*
X100404161Y-209821317D01*
X100402842Y-211333051D01*
X97082989Y-211333051D01*
X96822361Y-210702285D01*
X95754337Y-209632396D01*
X94358183Y-209052661D01*
X93263529Y-209051706D01*
X91950000Y-207738176D01*
X91950000Y-200181288D01*
X92215430Y-200071615D01*
X93566870Y-198722532D01*
X94287592Y-196986840D01*
X95896535Y-198598594D01*
X98837043Y-199819600D01*
X97739200Y-199819600D01*
X97184309Y-199929975D01*
X96713895Y-200244295D01*
X94369990Y-202588200D01*
X93447292Y-202588200D01*
X93159443Y-202587949D01*
X92626314Y-202808233D01*
X92218067Y-203215769D01*
X91996852Y-203748512D01*
X91996349Y-204325357D01*
X92216633Y-204858486D01*
X92624169Y-205266733D01*
X93156912Y-205487948D01*
X93733757Y-205488451D01*
X93734364Y-205488200D01*
X94970600Y-205488200D01*
X95525491Y-205377825D01*
X95995905Y-205063505D01*
X98339810Y-202719600D01*
X125120400Y-202719600D01*
X125675291Y-202609225D01*
X126145705Y-202294905D01*
X129015905Y-199424705D01*
X129330225Y-198954291D01*
X129440600Y-198399400D01*
X129440600Y-195765078D01*
X130140315Y-195475961D01*
X131210204Y-194407937D01*
X131789939Y-193011783D01*
X131791258Y-191500049D01*
X131499608Y-190794202D01*
X132997229Y-189296581D01*
X133315151Y-189296858D01*
X134712315Y-188719561D01*
X135782204Y-187651537D01*
X136268800Y-186479686D01*
X136268800Y-187290703D01*
X135271095Y-188288408D01*
X134956775Y-188758822D01*
X134846400Y-189313713D01*
X134846400Y-189690322D01*
X134146685Y-189979439D01*
X133076796Y-191047463D01*
X132497061Y-192443617D01*
X132495742Y-193955351D01*
X133073039Y-195352515D01*
X134141063Y-196422404D01*
X134846400Y-196715286D01*
X134846400Y-198475600D01*
X134956775Y-199030491D01*
X135271095Y-199500905D01*
X139995495Y-204225305D01*
X140465909Y-204539625D01*
X140557972Y-204557938D01*
X141020800Y-204650001D01*
X141020805Y-204650000D01*
X146459522Y-204650000D01*
X146748639Y-205349715D01*
X147816663Y-206419604D01*
X149212817Y-206999339D01*
X150724551Y-207000658D01*
X152121715Y-206423361D01*
X153191604Y-205355337D01*
X153771339Y-203959183D01*
X153772658Y-202447449D01*
X153195361Y-201050285D01*
X152127337Y-199980396D01*
X150731183Y-199400661D01*
X149219449Y-199399342D01*
X147822285Y-199976639D01*
X146752396Y-201044663D01*
X146459514Y-201750000D01*
X141621410Y-201750000D01*
X137746400Y-197874990D01*
X137746400Y-196715278D01*
X138446115Y-196426161D01*
X139516004Y-195358137D01*
X140095739Y-193961983D01*
X140097058Y-192450249D01*
X139519761Y-191053085D01*
X138451737Y-189983196D01*
X137904684Y-189756039D01*
X138744105Y-188916618D01*
X139058425Y-188446204D01*
X139168800Y-187891313D01*
X139168800Y-182702200D01*
X139058425Y-182147309D01*
X138744105Y-181676895D01*
X135340505Y-178273295D01*
X134870091Y-177958975D01*
X134315200Y-177848600D01*
X129701400Y-177848600D01*
X129146509Y-177958975D01*
X128676095Y-178273295D01*
X125458392Y-181490998D01*
X124759183Y-181200661D01*
X123247449Y-181199342D01*
X121850285Y-181776639D01*
X121052124Y-182573409D01*
X121052780Y-181821464D01*
X119804087Y-178799395D01*
X121450590Y-178800832D01*
X123215430Y-178071615D01*
X124566870Y-176722532D01*
X124729526Y-176330812D01*
X125118175Y-176253505D01*
X125913012Y-175722412D01*
X128315609Y-173319814D01*
X128315612Y-173319812D01*
X128846705Y-172524974D01*
X128856249Y-172476992D01*
X129339239Y-173645915D01*
X130407263Y-174715804D01*
X131803417Y-175295539D01*
X133315151Y-175296858D01*
X134712315Y-174719561D01*
X135782204Y-173651537D01*
X135942230Y-173266151D01*
X140420542Y-173266151D01*
X140997839Y-174663315D01*
X142065863Y-175733204D01*
X143462017Y-176312939D01*
X144973751Y-176314258D01*
X146370915Y-175736961D01*
X146412721Y-175695228D01*
X145822835Y-177115832D01*
X145821168Y-179025390D01*
X146550385Y-180790230D01*
X147899468Y-182141670D01*
X149663032Y-182873965D01*
X151572590Y-182875632D01*
X153337430Y-182146415D01*
X154423654Y-181062086D01*
X154524694Y-181213304D01*
X154550000Y-181238610D01*
X154550000Y-181487522D01*
X153850285Y-181776639D01*
X152780396Y-182844663D01*
X152200661Y-184240817D01*
X152199342Y-185752551D01*
X152776639Y-187149715D01*
X153844663Y-188219604D01*
X155240817Y-188799339D01*
X156752551Y-188800658D01*
X158149715Y-188223361D01*
X158947876Y-187426591D01*
X158947220Y-188178536D01*
X160195913Y-191200605D01*
X158549410Y-191199168D01*
X158276681Y-191311857D01*
X157307212Y-190342388D01*
X156512375Y-189811295D01*
X155574800Y-189624799D01*
X155574795Y-189624800D01*
X154803288Y-189624800D01*
X154693615Y-189359370D01*
X153344532Y-188007930D01*
X151580968Y-187275635D01*
X149671410Y-187273968D01*
X147906570Y-188003185D01*
X146555130Y-189352268D01*
X145822835Y-191115832D01*
X145821168Y-193025390D01*
X146338885Y-194278362D01*
X144980383Y-193714261D01*
X143468649Y-193712942D01*
X142071485Y-194290239D01*
X141001596Y-195358263D01*
X140421861Y-196754417D01*
X140420542Y-198266151D01*
X140997839Y-199663315D01*
X142065863Y-200733204D01*
X143462017Y-201312939D01*
X144973751Y-201314258D01*
X146370915Y-200736961D01*
X147440804Y-199668937D01*
X148020539Y-198272783D01*
X148021858Y-196761049D01*
X147671630Y-195913434D01*
X147899468Y-196141670D01*
X149663032Y-196873965D01*
X151572590Y-196875632D01*
X153337430Y-196146415D01*
X154688870Y-194797332D01*
X154731014Y-194695838D01*
X154810971Y-194775795D01*
X154700835Y-195041032D01*
X154699168Y-196950590D01*
X155428385Y-198715430D01*
X156777468Y-200066870D01*
X157050000Y-200180035D01*
X157050000Y-208216795D01*
X157049999Y-208216800D01*
X157236495Y-209154375D01*
X157767588Y-209949212D01*
X158709891Y-210891515D01*
X158708942Y-211978951D01*
X159286239Y-213376115D01*
X160354263Y-214446004D01*
X161750417Y-215025739D01*
X163262151Y-215027058D01*
X164659315Y-214449761D01*
X165729204Y-213381737D01*
X166308939Y-211985583D01*
X166310258Y-210473849D01*
X165732961Y-209076685D01*
X165384636Y-208727751D01*
X171205342Y-208727751D01*
X171782639Y-210124915D01*
X172850663Y-211194804D01*
X174246817Y-211774539D01*
X175758551Y-211775858D01*
X177155715Y-211198561D01*
X178225604Y-210130537D01*
X178805339Y-208734383D01*
X178806658Y-207222649D01*
X178694850Y-206952051D01*
X193874842Y-206952051D01*
X194452139Y-208349215D01*
X195520163Y-209419104D01*
X196916317Y-209998839D01*
X198428051Y-210000158D01*
X199825215Y-209422861D01*
X200895104Y-208354837D01*
X201474839Y-206958683D01*
X201476158Y-205446949D01*
X200898861Y-204049785D01*
X199830837Y-202979896D01*
X198434683Y-202400161D01*
X196922949Y-202398842D01*
X195525785Y-202976139D01*
X194455896Y-204044163D01*
X193876161Y-205440317D01*
X193874842Y-206952051D01*
X178694850Y-206952051D01*
X178229361Y-205825485D01*
X177161337Y-204755596D01*
X175765183Y-204175861D01*
X174253449Y-204174542D01*
X172856285Y-204751839D01*
X171786396Y-205819863D01*
X171206661Y-207216017D01*
X171205342Y-208727751D01*
X165384636Y-208727751D01*
X164664937Y-208006796D01*
X163268783Y-207427061D01*
X162174130Y-207426106D01*
X161950000Y-207201976D01*
X161950000Y-206474970D01*
X163212817Y-206999339D01*
X164724551Y-207000658D01*
X166121715Y-206423361D01*
X167191604Y-205355337D01*
X167771339Y-203959183D01*
X167772658Y-202447449D01*
X167195361Y-201050285D01*
X166127337Y-199980396D01*
X164731183Y-199400661D01*
X163219449Y-199399342D01*
X162655417Y-199632396D01*
X163566870Y-198722532D01*
X164287592Y-196986840D01*
X165896535Y-198598594D01*
X171793451Y-201047208D01*
X178178536Y-201052780D01*
X179058827Y-200689051D01*
X199780342Y-200689051D01*
X200357639Y-202086215D01*
X201425663Y-203156104D01*
X202821817Y-203735839D01*
X204333551Y-203737158D01*
X205730715Y-203159861D01*
X206800604Y-202091837D01*
X207380339Y-200695683D01*
X207381658Y-199183949D01*
X206804361Y-197786785D01*
X205736337Y-196716896D01*
X204340183Y-196137161D01*
X202828449Y-196135842D01*
X201431285Y-196713139D01*
X200361396Y-197781163D01*
X199781661Y-199177317D01*
X199780342Y-200689051D01*
X179058827Y-200689051D01*
X184079717Y-198614462D01*
X186700000Y-195998749D01*
X186699342Y-196752551D01*
X187276639Y-198149715D01*
X188344663Y-199219604D01*
X189740817Y-199799339D01*
X191252551Y-199800658D01*
X192649715Y-199223361D01*
X193719604Y-198155337D01*
X194299339Y-196759183D01*
X194300658Y-195247449D01*
X194009008Y-194541602D01*
X194378826Y-194171784D01*
X194452139Y-194349215D01*
X195520163Y-195419104D01*
X196916317Y-195998839D01*
X198428051Y-196000158D01*
X199825215Y-195422861D01*
X200895104Y-194354837D01*
X201474839Y-192958683D01*
X201476158Y-191446949D01*
X200898861Y-190049785D01*
X199830837Y-188979896D01*
X198434683Y-188400161D01*
X196922949Y-188398842D01*
X195525785Y-188976139D01*
X194455896Y-190044163D01*
X194150636Y-190779310D01*
X193745609Y-190859875D01*
X193362542Y-191115832D01*
X193275195Y-191174195D01*
X191958392Y-192490998D01*
X191259183Y-192200661D01*
X189747449Y-192199342D01*
X189315071Y-192377997D01*
X191047208Y-188206549D01*
X191047893Y-187421443D01*
X191844663Y-188219604D01*
X193240817Y-188799339D01*
X194752551Y-188800658D01*
X196149715Y-188223361D01*
X197219604Y-187155337D01*
X197512486Y-186450000D01*
X198750390Y-186450000D01*
X202536196Y-190235806D01*
X203006610Y-190550126D01*
X203098673Y-190568439D01*
X203561501Y-190660502D01*
X203561506Y-190660501D01*
X206102228Y-190660501D01*
X205877661Y-191201317D01*
X205876342Y-192713051D01*
X206453639Y-194110215D01*
X207521663Y-195180104D01*
X208227000Y-195472986D01*
X208227000Y-199263000D01*
X208337375Y-199817891D01*
X208651695Y-200288305D01*
X210587301Y-202223911D01*
X210436183Y-202161161D01*
X208924449Y-202159842D01*
X207527285Y-202737139D01*
X206457396Y-203805163D01*
X205877661Y-205201317D01*
X205876342Y-206713051D01*
X206453639Y-208110215D01*
X207521663Y-209180104D01*
X208917817Y-209759839D01*
X209322082Y-209760192D01*
X210637998Y-211076108D01*
X210347661Y-211775317D01*
X210346342Y-213287051D01*
X210923639Y-214684215D01*
X211991663Y-215754104D01*
X213387817Y-216333839D01*
X214899551Y-216335158D01*
X216296715Y-215757861D01*
X217366604Y-214689837D01*
X217946339Y-213293683D01*
X217947658Y-211781949D01*
X217370361Y-210384785D01*
X216302337Y-209314896D01*
X214906183Y-208735161D01*
X213394449Y-208733842D01*
X212688602Y-209025492D01*
X212337288Y-208674178D01*
X212896604Y-208115837D01*
X213476339Y-206719683D01*
X213477658Y-205207949D01*
X212900361Y-203810785D01*
X212387473Y-203297001D01*
X216437728Y-203297001D01*
X216213161Y-203837817D01*
X216211842Y-205349551D01*
X216789139Y-206746715D01*
X217857163Y-207816604D01*
X219253317Y-208396339D01*
X220765051Y-208397658D01*
X222162215Y-207820361D01*
X223232104Y-206752337D01*
X223811839Y-205356183D01*
X223813158Y-203844449D01*
X223235861Y-202447285D01*
X222167837Y-201377396D01*
X220771683Y-200797661D01*
X219259949Y-200796342D01*
X218554102Y-201087992D01*
X218287806Y-200821696D01*
X217887108Y-200553959D01*
X218675104Y-199767337D01*
X219254839Y-198371183D01*
X219256158Y-196859449D01*
X218813003Y-195786934D01*
X219082968Y-196057370D01*
X220846532Y-196789665D01*
X222756090Y-196791332D01*
X224520930Y-196062115D01*
X224700100Y-195883258D01*
X224699168Y-196950590D01*
X225428385Y-198715430D01*
X226777468Y-200066870D01*
X227050000Y-200180035D01*
X227050000Y-208887495D01*
X227049999Y-208887500D01*
X227236495Y-209825075D01*
X227767588Y-210619912D01*
X228457971Y-211310295D01*
X228347835Y-211575532D01*
X228346168Y-213485090D01*
X229075385Y-215249930D01*
X230424468Y-216601370D01*
X232188032Y-217333665D01*
X234097590Y-217335332D01*
X235862430Y-216606115D01*
X237213870Y-215257032D01*
X237946165Y-213493468D01*
X237947832Y-211583910D01*
X237226871Y-209839051D01*
X263534342Y-209839051D01*
X264111639Y-211236215D01*
X265179663Y-212306104D01*
X266575817Y-212885839D01*
X268087551Y-212887158D01*
X269484715Y-212309861D01*
X270554604Y-211241837D01*
X271134339Y-209845683D01*
X271135658Y-208333949D01*
X270558361Y-206936785D01*
X269490337Y-205866896D01*
X268094183Y-205287161D01*
X266582449Y-205285842D01*
X265185285Y-205863139D01*
X264115396Y-206931163D01*
X263535661Y-208327317D01*
X263534342Y-209839051D01*
X237226871Y-209839051D01*
X237218615Y-209819070D01*
X235869532Y-208467630D01*
X235234190Y-208203813D01*
X236162215Y-207820361D01*
X237232104Y-206752337D01*
X237811839Y-205356183D01*
X237813158Y-203844449D01*
X237235861Y-202447285D01*
X236167837Y-201377396D01*
X234771683Y-200797661D01*
X233259949Y-200796342D01*
X231950000Y-201337602D01*
X231950000Y-200181288D01*
X232215430Y-200071615D01*
X233566870Y-198722532D01*
X234287592Y-196986840D01*
X235896535Y-198598594D01*
X241793451Y-201047208D01*
X242131087Y-201047503D01*
X241826896Y-201351163D01*
X241247161Y-202747317D01*
X241245842Y-204259051D01*
X241823139Y-205656215D01*
X242891163Y-206726104D01*
X244287317Y-207305839D01*
X245799051Y-207307158D01*
X247196215Y-206729861D01*
X248266104Y-205661837D01*
X248845839Y-204265683D01*
X248847158Y-202753949D01*
X248269861Y-201356785D01*
X247966201Y-201052595D01*
X248178536Y-201052780D01*
X254079717Y-198614462D01*
X256700000Y-195998749D01*
X256699342Y-196752551D01*
X257276639Y-198149715D01*
X258344663Y-199219604D01*
X259740817Y-199799339D01*
X261252551Y-199800658D01*
X262649715Y-199223361D01*
X263719604Y-198155337D01*
X264299339Y-196759183D01*
X264300658Y-195247449D01*
X264009008Y-194541602D01*
X265202559Y-193348051D01*
X276297842Y-193348051D01*
X276875139Y-194745215D01*
X277943163Y-195815104D01*
X279339317Y-196394839D01*
X280851051Y-196396158D01*
X282248215Y-195818861D01*
X283318104Y-194750837D01*
X283897839Y-193354683D01*
X283899158Y-191842949D01*
X283321861Y-190445785D01*
X282253837Y-189375896D01*
X280857683Y-188796161D01*
X279345949Y-188794842D01*
X277948785Y-189372139D01*
X276878896Y-190440163D01*
X276299161Y-191836317D01*
X276297842Y-193348051D01*
X265202559Y-193348051D01*
X268360305Y-190190305D01*
X268674625Y-189719891D01*
X268785000Y-189165000D01*
X268785000Y-187598978D01*
X269484715Y-187309861D01*
X270554604Y-186241837D01*
X271042003Y-185068051D01*
X276234342Y-185068051D01*
X276811639Y-186465215D01*
X277879663Y-187535104D01*
X279275817Y-188114839D01*
X280787551Y-188116158D01*
X282184715Y-187538861D01*
X283254604Y-186470837D01*
X283834339Y-185074683D01*
X283835658Y-183562949D01*
X283258361Y-182165785D01*
X282190337Y-181095896D01*
X280794183Y-180516161D01*
X279282449Y-180514842D01*
X277885285Y-181092139D01*
X276815396Y-182160163D01*
X276235661Y-183556317D01*
X276234342Y-185068051D01*
X271042003Y-185068051D01*
X271134339Y-184845683D01*
X271135658Y-183333949D01*
X270558361Y-181936785D01*
X269952135Y-181329500D01*
X270634401Y-181329500D01*
X271402663Y-182099104D01*
X272798817Y-182678839D01*
X274310551Y-182680158D01*
X275707715Y-182102861D01*
X276777604Y-181034837D01*
X277357339Y-179638683D01*
X277358658Y-178126949D01*
X276781361Y-176729785D01*
X275713337Y-175659896D01*
X274317183Y-175080161D01*
X272805449Y-175078842D01*
X271408285Y-175656139D01*
X270633574Y-176429500D01*
X266394324Y-176429500D01*
X265189029Y-175224205D01*
X265299165Y-174958968D01*
X265300832Y-173049410D01*
X265188143Y-172776681D01*
X268064142Y-169900681D01*
X268237090Y-169900832D01*
X270001930Y-169171615D01*
X271353370Y-167822532D01*
X272085665Y-166058968D01*
X272087332Y-164149410D01*
X271705274Y-163224759D01*
X272798817Y-163678839D01*
X274310551Y-163680158D01*
X275016398Y-163388508D01*
X276235616Y-164607726D01*
X276234342Y-166068051D01*
X276811639Y-167465215D01*
X277879663Y-168535104D01*
X279275817Y-169114839D01*
X280787551Y-169116158D01*
X282184715Y-168538861D01*
X283254604Y-167470837D01*
X283834339Y-166074683D01*
X283835658Y-164562949D01*
X283258361Y-163165785D01*
X282190337Y-162095896D01*
X280794183Y-161516161D01*
X279282449Y-161514842D01*
X277885285Y-162092139D01*
X277853239Y-162124129D01*
X277067002Y-161337892D01*
X277357339Y-160638683D01*
X277358658Y-159126949D01*
X276781361Y-157729785D01*
X275713337Y-156659896D01*
X274317183Y-156080161D01*
X272805449Y-156078842D01*
X271408285Y-156656139D01*
X270338396Y-157724163D01*
X269758661Y-159120317D01*
X269757342Y-160632051D01*
X269905260Y-160990040D01*
X268245468Y-160300835D01*
X266335910Y-160299168D01*
X264571070Y-161028385D01*
X263219630Y-162377468D01*
X262487335Y-164141032D01*
X262485668Y-166050590D01*
X263214885Y-167815430D01*
X263217314Y-167817863D01*
X261724205Y-169310971D01*
X261458968Y-169200835D01*
X259549410Y-169199168D01*
X257784570Y-169928385D01*
X256433130Y-171277468D01*
X255712408Y-173013160D01*
X254103465Y-171401406D01*
X248900914Y-169241118D01*
X249113370Y-169029032D01*
X249499085Y-168100126D01*
X250563968Y-169166870D01*
X252327532Y-169899165D01*
X254237090Y-169900832D01*
X256001930Y-169171615D01*
X257353370Y-167822532D01*
X258085665Y-166058968D01*
X258087332Y-164149410D01*
X257358115Y-162384570D01*
X256009032Y-161033130D01*
X254245468Y-160300835D01*
X252335910Y-160299168D01*
X250571070Y-161028385D01*
X249219630Y-162377468D01*
X248833915Y-163306374D01*
X247769032Y-162239630D01*
X246005468Y-161507335D01*
X244095910Y-161505668D01*
X242331070Y-162234885D01*
X240979630Y-163583968D01*
X240247335Y-165347532D01*
X240245668Y-167257090D01*
X240974885Y-169021930D01*
X241169303Y-169216687D01*
X235920283Y-171385538D01*
X233300000Y-174001251D01*
X233300658Y-173247449D01*
X232723361Y-171850285D01*
X231655337Y-170780396D01*
X230259183Y-170200661D01*
X228747449Y-170199342D01*
X227350285Y-170776639D01*
X226983284Y-171143000D01*
X218960127Y-171143000D01*
X218678861Y-170462285D01*
X217610837Y-169392396D01*
X216214683Y-168812661D01*
X214702949Y-168811342D01*
X213305785Y-169388639D01*
X212235896Y-170456663D01*
X211656161Y-171852817D01*
X211654842Y-173364551D01*
X212232139Y-174761715D01*
X213300163Y-175831604D01*
X214696317Y-176411339D01*
X216208051Y-176412658D01*
X217481865Y-175886328D01*
X217006335Y-177031532D01*
X217004668Y-178941090D01*
X217733885Y-180705930D01*
X219082968Y-182057370D01*
X220846532Y-182789665D01*
X222756090Y-182791332D01*
X222888716Y-182736532D01*
X222780396Y-182844663D01*
X222487514Y-183550000D01*
X217858610Y-183550000D01*
X209222000Y-174913390D01*
X209222000Y-171796610D01*
X214893305Y-166125305D01*
X215207625Y-165654891D01*
X215318000Y-165100000D01*
X215318000Y-163175208D01*
X215799413Y-162693795D01*
X215798168Y-164120190D01*
X216527385Y-165885030D01*
X217876468Y-167236470D01*
X219640032Y-167968765D01*
X221549590Y-167970432D01*
X223314430Y-167241215D01*
X224665870Y-165892132D01*
X225398165Y-164128568D01*
X225399832Y-162219010D01*
X224670615Y-160454170D01*
X223402660Y-159184000D01*
X268224000Y-159184000D01*
X268778891Y-159073625D01*
X269249305Y-158759305D01*
X276107305Y-151901305D01*
X276187651Y-151781058D01*
X276421625Y-151430891D01*
X276466804Y-151203761D01*
X276532001Y-150876000D01*
X276532000Y-150875995D01*
X276532000Y-145288000D01*
X276421625Y-144733109D01*
X276107305Y-144262695D01*
X274075305Y-142230695D01*
X273872431Y-142027467D01*
X273339688Y-141806252D01*
X272762843Y-141805749D01*
X272229714Y-142026033D01*
X271821467Y-142433569D01*
X271600252Y-142966312D01*
X271599749Y-143543157D01*
X271820033Y-144076286D01*
X272227569Y-144484533D01*
X272228174Y-144484784D01*
X273632000Y-145888610D01*
X273632000Y-150275390D01*
X267623390Y-156284000D01*
X218708598Y-156284000D01*
X218153707Y-156394375D01*
X217683293Y-156708695D01*
X212842695Y-161549293D01*
X212528375Y-162019707D01*
X212418000Y-162574598D01*
X212418000Y-164499390D01*
X206746695Y-170170695D01*
X206432375Y-170641109D01*
X206322000Y-171196000D01*
X206322000Y-175514000D01*
X206432375Y-176068891D01*
X206746695Y-176539305D01*
X216232695Y-186025305D01*
X216703109Y-186339625D01*
X217258000Y-186450000D01*
X222487522Y-186450000D01*
X222776639Y-187149715D01*
X222856218Y-187229433D01*
X222764468Y-187191335D01*
X220854910Y-187189668D01*
X219090070Y-187918885D01*
X217738630Y-189267968D01*
X217006335Y-191031532D01*
X217004668Y-192941090D01*
X217602989Y-194389137D01*
X216214683Y-193812661D01*
X214702949Y-193811342D01*
X213305785Y-194388639D01*
X212235896Y-195456663D01*
X211656161Y-196852817D01*
X211654842Y-198364551D01*
X212232139Y-199761715D01*
X212866318Y-200397001D01*
X212861611Y-200397001D01*
X211127000Y-198662390D01*
X211127000Y-195472978D01*
X211826715Y-195183861D01*
X212896604Y-194115837D01*
X213476339Y-192719683D01*
X213477658Y-191207949D01*
X212900361Y-189810785D01*
X211832337Y-188740896D01*
X210436183Y-188161161D01*
X208924449Y-188159842D01*
X208218602Y-188451492D01*
X207952306Y-188185196D01*
X207481892Y-187870876D01*
X206927001Y-187760501D01*
X204162111Y-187760501D01*
X200376305Y-183974695D01*
X199905891Y-183660375D01*
X199351000Y-183550000D01*
X197512478Y-183550000D01*
X197223361Y-182850285D01*
X196155337Y-181780396D01*
X194759183Y-181200661D01*
X193247449Y-181199342D01*
X191850285Y-181776639D01*
X191052124Y-182573409D01*
X191052780Y-181821464D01*
X189804087Y-178799395D01*
X191450590Y-178800832D01*
X193215430Y-178071615D01*
X194566870Y-176722532D01*
X195299165Y-174958968D01*
X195299304Y-174800022D01*
X195811039Y-176038515D01*
X196879063Y-177108404D01*
X198275217Y-177688139D01*
X198282035Y-177688145D01*
X200071998Y-179478108D01*
X199781661Y-180177317D01*
X199780342Y-181689051D01*
X200357639Y-183086215D01*
X201425663Y-184156104D01*
X202821817Y-184735839D01*
X204333551Y-184737158D01*
X205730715Y-184159861D01*
X206800604Y-183091837D01*
X207380339Y-181695683D01*
X207381658Y-180183949D01*
X206804361Y-178786785D01*
X205736337Y-177716896D01*
X204340183Y-177137161D01*
X202828449Y-177135842D01*
X202122602Y-177427492D01*
X201495965Y-176800855D01*
X202254004Y-176044137D01*
X202833739Y-174647983D01*
X202835058Y-173136249D01*
X202257761Y-171739085D01*
X201189737Y-170669196D01*
X199793583Y-170089461D01*
X198281849Y-170088142D01*
X197576002Y-170379792D01*
X194970904Y-167774694D01*
X194500490Y-167460374D01*
X193945599Y-167349999D01*
X192851359Y-167349999D01*
X192949573Y-167113473D01*
X192950424Y-166138803D01*
X192950000Y-166137777D01*
X192950000Y-164120190D01*
X201798168Y-164120190D01*
X202527385Y-165885030D01*
X203876468Y-167236470D01*
X205640032Y-167968765D01*
X207549590Y-167970432D01*
X209314430Y-167241215D01*
X210665870Y-165892132D01*
X211398165Y-164128568D01*
X211399832Y-162219010D01*
X210670615Y-160454170D01*
X209321532Y-159102730D01*
X207557968Y-158370435D01*
X205648410Y-158368768D01*
X203883570Y-159097985D01*
X202532130Y-160447068D01*
X201799835Y-162210632D01*
X201798168Y-164120190D01*
X192950000Y-164120190D01*
X192950000Y-161668118D01*
X192950001Y-161668113D01*
X192763505Y-160730538D01*
X192476386Y-160300835D01*
X192232412Y-159935701D01*
X192232409Y-159935699D01*
X191820310Y-159523600D01*
X196849595Y-159523600D01*
X196849600Y-159523601D01*
X197787175Y-159337105D01*
X198582012Y-158806012D01*
X198699515Y-158688509D01*
X199786951Y-158689458D01*
X201184115Y-158112161D01*
X202254004Y-157044137D01*
X202833739Y-155647983D01*
X202835058Y-154136249D01*
X202257761Y-152739085D01*
X201189737Y-151669196D01*
X199793583Y-151089461D01*
X198281849Y-151088142D01*
X196884685Y-151665439D01*
X195814796Y-152733463D01*
X195235061Y-154129617D01*
X195234630Y-154623600D01*
X186197688Y-154623600D01*
X186088015Y-154358170D01*
X184738932Y-153006730D01*
X182975368Y-152274435D01*
X181065810Y-152272768D01*
X179300970Y-153001985D01*
X177949530Y-154351068D01*
X177217235Y-156114632D01*
X177216030Y-157495521D01*
X175964968Y-156976035D01*
X174055410Y-156974368D01*
X172816042Y-157486465D01*
X172817232Y-156123010D01*
X172088015Y-154358170D01*
X170738932Y-153006730D01*
X168975368Y-152274435D01*
X167065810Y-152272768D01*
X165300970Y-153001985D01*
X163949530Y-154351068D01*
X163217235Y-156114632D01*
X163215568Y-158024190D01*
X163944785Y-159789030D01*
X165293868Y-161140470D01*
X167057432Y-161872765D01*
X168966990Y-161874432D01*
X170206358Y-161362335D01*
X170205168Y-162725790D01*
X170934385Y-164490630D01*
X172283468Y-165842070D01*
X174047032Y-166574365D01*
X175956590Y-166576032D01*
X177721430Y-165846815D01*
X179072870Y-164497732D01*
X179805165Y-162734168D01*
X179806370Y-161353279D01*
X181057432Y-161872765D01*
X182966990Y-161874432D01*
X184731830Y-161145215D01*
X185622831Y-160255768D01*
X188050000Y-162682936D01*
X188050000Y-166623580D01*
X188049576Y-167109197D01*
X188149073Y-167349999D01*
X158854004Y-167349999D01*
X158853999Y-167349998D01*
X158391171Y-167442061D01*
X158299108Y-167460374D01*
X157945180Y-167696861D01*
X157828694Y-167774694D01*
X154524694Y-171078694D01*
X154210374Y-171549108D01*
X154099999Y-172103999D01*
X154099999Y-174764717D01*
X153344532Y-174007930D01*
X153068660Y-173893378D01*
X153423486Y-173746767D01*
X153831733Y-173339231D01*
X154052948Y-172806488D01*
X154053451Y-172229643D01*
X153833167Y-171696514D01*
X153425631Y-171288267D01*
X152892888Y-171067052D01*
X152316043Y-171066549D01*
X152315436Y-171066800D01*
X147735000Y-171066800D01*
X147444561Y-170363885D01*
X146376537Y-169293996D01*
X144980383Y-168714261D01*
X143468649Y-168712942D01*
X142071485Y-169290239D01*
X141001596Y-170358263D01*
X140421861Y-171754417D01*
X140420542Y-173266151D01*
X135942230Y-173266151D01*
X136361939Y-172255383D01*
X136363258Y-170743649D01*
X135785961Y-169346485D01*
X134717937Y-168276596D01*
X134012600Y-167983714D01*
X134012600Y-166564610D01*
X137251408Y-163325802D01*
X137950617Y-163616139D01*
X139462351Y-163617458D01*
X140859515Y-163040161D01*
X141929404Y-161972137D01*
X142509139Y-160575983D01*
X142510458Y-159064249D01*
X142412592Y-158827395D01*
X143098868Y-159514870D01*
X144862432Y-160247165D01*
X146771990Y-160248832D01*
X148536830Y-159519615D01*
X149888270Y-158170532D01*
X150246856Y-157306959D01*
X153606307Y-157306959D01*
X154213987Y-158777658D01*
X155338223Y-159903858D01*
X156807860Y-160514105D01*
X158399159Y-160515493D01*
X159869858Y-159907813D01*
X160996058Y-158783577D01*
X161606305Y-157313940D01*
X161607693Y-155722641D01*
X161000013Y-154251942D01*
X159875777Y-153125742D01*
X158406140Y-152515495D01*
X156814841Y-152514107D01*
X155344142Y-153121787D01*
X154217942Y-154246023D01*
X153607695Y-155715660D01*
X153606307Y-157306959D01*
X150246856Y-157306959D01*
X150620565Y-156406968D01*
X150622232Y-154497410D01*
X149893015Y-152732570D01*
X148543932Y-151381130D01*
X146780368Y-150648835D01*
X144870810Y-150647168D01*
X143105970Y-151376385D01*
X141754530Y-152725468D01*
X141022235Y-154489032D01*
X141020568Y-156398590D01*
X141270356Y-157003122D01*
X140865137Y-156597196D01*
X139468983Y-156017461D01*
X137957249Y-156016142D01*
X136560085Y-156593439D01*
X136531136Y-156622338D01*
X136620565Y-156406968D01*
X136622232Y-154497410D01*
X135893015Y-152732570D01*
X134543932Y-151381130D01*
X132780368Y-150648835D01*
X130870810Y-150647168D01*
X129105970Y-151376385D01*
X127754530Y-152725468D01*
X127022235Y-154489032D01*
X127020568Y-156398590D01*
X127749785Y-158163430D01*
X129098868Y-159514870D01*
X130862432Y-160247165D01*
X132771990Y-160248832D01*
X134536830Y-159519615D01*
X134910383Y-159146713D01*
X134909142Y-160569351D01*
X135200792Y-161275198D01*
X131537295Y-164938695D01*
X131382453Y-165170432D01*
X131384032Y-163362010D01*
X130654815Y-161597170D01*
X129305732Y-160245730D01*
X127542168Y-159513435D01*
X125632610Y-159511768D01*
X123867770Y-160240985D01*
X123492822Y-160615279D01*
X123509139Y-160575983D01*
X123510458Y-159064249D01*
X122933161Y-157667085D01*
X121865137Y-156597196D01*
X120468983Y-156017461D01*
X118957249Y-156016142D01*
X117560085Y-156593439D01*
X116490196Y-157661463D01*
X115910461Y-159057617D01*
X115909142Y-160569351D01*
X116107137Y-161048535D01*
X115305732Y-160245730D01*
X113542168Y-159513435D01*
X111632610Y-159511768D01*
X109867770Y-160240985D01*
X108516330Y-161590068D01*
X108379892Y-161918649D01*
X108275115Y-161665070D01*
X106926032Y-160313630D01*
X105162468Y-159581335D01*
X103252910Y-159579668D01*
X101488070Y-160308885D01*
X100136630Y-161657968D01*
X99404335Y-163421532D01*
X99402668Y-165331090D01*
X100131885Y-167095930D01*
X101480968Y-168447370D01*
X102686560Y-168947975D01*
X101821464Y-168947220D01*
X95920283Y-171385538D01*
X93300000Y-174001251D01*
X93300658Y-173247449D01*
X92723361Y-171850285D01*
X91655337Y-170780396D01*
X90259183Y-170200661D01*
X88747449Y-170199342D01*
X87350285Y-170776639D01*
X86280396Y-171844663D01*
X85987514Y-172550000D01*
X76952000Y-172550000D01*
X76397109Y-172660375D01*
X75926695Y-172974695D01*
X73611400Y-175289990D01*
X73611400Y-165776408D01*
X73788013Y-165599795D01*
X73786768Y-167026190D01*
X74515985Y-168791030D01*
X75865068Y-170142470D01*
X77628632Y-170874765D01*
X79538190Y-170876432D01*
X81303030Y-170147215D01*
X82654470Y-168798132D01*
X83386765Y-167034568D01*
X83388432Y-165125010D01*
X82659215Y-163360170D01*
X81310132Y-162008730D01*
X79546568Y-161276435D01*
X78112624Y-161275183D01*
X79518409Y-159869398D01*
X92500912Y-159869398D01*
X93055803Y-159759023D01*
X93526217Y-159444703D01*
X99853081Y-153117839D01*
X100167401Y-152647425D01*
X100277776Y-152092534D01*
X100277776Y-150622210D01*
X100977491Y-150333093D01*
X102047380Y-149265069D01*
X102627115Y-147868915D01*
X102628434Y-146357181D01*
X102051137Y-144960017D01*
X100983113Y-143890128D01*
X100467757Y-143676133D01*
X107343567Y-143676133D01*
X109318774Y-145651340D01*
X109028437Y-146350549D01*
X109027118Y-147862283D01*
X109318768Y-148568130D01*
X108328279Y-149558620D01*
X106982959Y-148999993D01*
X105471225Y-148998674D01*
X104074061Y-149575971D01*
X103004172Y-150643995D01*
X102424437Y-152040149D01*
X102423118Y-153551883D01*
X103000415Y-154949047D01*
X104068439Y-156018936D01*
X105464593Y-156598671D01*
X106976327Y-156599990D01*
X108373491Y-156022693D01*
X109443380Y-154954669D01*
X110023115Y-153558515D01*
X110024434Y-152046781D01*
X110000138Y-151987980D01*
X111369384Y-150618733D01*
X112068593Y-150909071D01*
X113580327Y-150910390D01*
X114977491Y-150333093D01*
X116047380Y-149265069D01*
X116627115Y-147868915D01*
X116628434Y-146357181D01*
X116051137Y-144960017D01*
X114983113Y-143890128D01*
X113586959Y-143310393D01*
X112075225Y-143309074D01*
X111369378Y-143600724D01*
X108969482Y-141200828D01*
X108499068Y-140886508D01*
X107944177Y-140776133D01*
X93134575Y-140776133D01*
X92579684Y-140886508D01*
X92109270Y-141200828D01*
X91842968Y-141467130D01*
X91143759Y-141176793D01*
X89632025Y-141175474D01*
X88926178Y-141467124D01*
X81841149Y-134382095D01*
X81370735Y-134067775D01*
X80815844Y-133957400D01*
X79814078Y-133957400D01*
X79524961Y-133257685D01*
X78456937Y-132187796D01*
X77807562Y-131918151D01*
X94289542Y-131918151D01*
X94866839Y-133315315D01*
X95934863Y-134385204D01*
X97331017Y-134964939D01*
X98842751Y-134966258D01*
X100239915Y-134388961D01*
X101309804Y-133320937D01*
X101889539Y-131924783D01*
X101890858Y-130413049D01*
X101313561Y-129015885D01*
X100245537Y-127945996D01*
X98849383Y-127366261D01*
X97337649Y-127364942D01*
X95940485Y-127942239D01*
X94870596Y-129010263D01*
X94290861Y-130406417D01*
X94289542Y-131918151D01*
X77807562Y-131918151D01*
X77060783Y-131608061D01*
X75549049Y-131606742D01*
X74151885Y-132184039D01*
X73081996Y-133252063D01*
X72502261Y-134648217D01*
X72500942Y-136159951D01*
X73078239Y-137557115D01*
X74146263Y-138627004D01*
X75542417Y-139206739D01*
X77054151Y-139208058D01*
X78451315Y-138630761D01*
X79521204Y-137562737D01*
X79814086Y-136857400D01*
X80215234Y-136857400D01*
X86875574Y-143517740D01*
X86585237Y-144216949D01*
X86583918Y-145728683D01*
X87161215Y-147125847D01*
X88229239Y-148195736D01*
X89625393Y-148775471D01*
X91137127Y-148776790D01*
X92534291Y-148199493D01*
X93604180Y-147131469D01*
X94183915Y-145735315D01*
X94185234Y-144223581D01*
X93959033Y-143676133D01*
X97186875Y-143676133D01*
X96678061Y-143886371D01*
X95608172Y-144954395D01*
X95028437Y-146350549D01*
X95027118Y-147862283D01*
X95604415Y-149259447D01*
X96672439Y-150329336D01*
X97377776Y-150622218D01*
X97377776Y-151491924D01*
X96125781Y-152743919D01*
X96126434Y-151995981D01*
X95549137Y-150598817D01*
X94481113Y-149528928D01*
X93084959Y-148949193D01*
X91573225Y-148947874D01*
X90176061Y-149525171D01*
X90161269Y-149539937D01*
X90074061Y-149575971D01*
X89004172Y-150643995D01*
X88424437Y-152040149D01*
X88423118Y-153551883D01*
X89000415Y-154949047D01*
X90068439Y-156018936D01*
X91464593Y-156598671D01*
X92270326Y-156599374D01*
X91900302Y-156969398D01*
X78917805Y-156969398D01*
X78917800Y-156969397D01*
X78454972Y-157061460D01*
X78362909Y-157079773D01*
X77892495Y-157394093D01*
X77892493Y-157394096D01*
X71136095Y-164150493D01*
X71100000Y-164204513D01*
X71100000Y-155897574D01*
X71170439Y-155968136D01*
X72566593Y-156547871D01*
X74078327Y-156549190D01*
X75475491Y-155971893D01*
X76545380Y-154903869D01*
X77125115Y-153507715D01*
X77126434Y-151995981D01*
X76549137Y-150598817D01*
X75481113Y-149528928D01*
X74084959Y-148949193D01*
X72573225Y-148947874D01*
X71176061Y-149525171D01*
X71100000Y-149601099D01*
X71100000Y-145728683D01*
X72583918Y-145728683D01*
X73161215Y-147125847D01*
X74229239Y-148195736D01*
X75625393Y-148775471D01*
X77137127Y-148776790D01*
X78534291Y-148199493D01*
X79604180Y-147131469D01*
X80183915Y-145735315D01*
X80185234Y-144223581D01*
X79607937Y-142826417D01*
X78539913Y-141756528D01*
X77143759Y-141176793D01*
X75632025Y-141175474D01*
X74234861Y-141752771D01*
X73164972Y-142820795D01*
X72585237Y-144216949D01*
X72583918Y-145728683D01*
X71100000Y-145728683D01*
X71100000Y-106035855D01*
X71606987Y-107262858D01*
X72731223Y-108389058D01*
X74200860Y-108999305D01*
X75792159Y-109000693D01*
X77262858Y-108393013D01*
X78389058Y-107268777D01*
X78999305Y-105799140D01*
X79000693Y-104207841D01*
X78393013Y-102737142D01*
X77268777Y-101610942D01*
X76038293Y-101100000D01*
X149987652Y-101100000D01*
X149963970Y-101109785D01*
M02*
