M48
;DRILL file {KiCad 4.0.7-e2-6376~58~ubuntu17.04.1} date Wed Oct 25 13:58:55 2017
;FORMAT={-:-/ absolute / metric / decimal}
FMAT,2
METRIC,TZ
T1C0.600
T2C0.800
T3C1.200
T4C2.800
T5C3.200
%
G90
G05
M71
T1
X85.242Y-204.038
X93.447Y-204.038
X152.603Y-172.517
X189.001Y-136.398
X190.5Y-166.624
X273.05Y-143.256
X299.72Y-170.18
T2
X92.431Y-169.215
X92.913Y-112.192
X122.834Y-148.133
X137.693Y-178.283
X161.671Y-115.138
X175.387Y-216.23
X234.747Y-170.078
X239.141Y-111.785
X256.743Y-208.458
X260.159Y-112.331
X267.779Y-112.331
X337.464Y-159.156
X337.617Y-185.242
T3
X260.159Y-117.919
X260.159Y-125.539
X260.159Y-130.619
X260.159Y-135.7
X267.779Y-117.919
X267.779Y-125.539
X267.779Y-130.619
X267.779Y-135.7
T4
X73.326Y-152.749
X74.599Y-212.852
X76.302Y-135.407
X76.385Y-144.976
X76.784Y-187.244
X76.784Y-201.244
X78.588Y-166.076
X78.588Y-180.076
X81.255Y-194.168
X81.255Y-208.168
X86.Y-185.
X89.5Y-174.
X89.5Y-196.
X90.385Y-144.976
X92.224Y-152.799
X92.326Y-152.749
X93.599Y-212.852
X98.09Y-131.166
X98.828Y-147.11
X104.203Y-164.38
X104.203Y-210.581
X106.224Y-152.799
X112.09Y-131.166
X112.583Y-164.313
X112.828Y-147.11
X119.71Y-159.817
X120.5Y-174.
X120.5Y-196.
X120.548Y-196.048
X120.548Y-210.048
X124.Y-185.
X126.5Y-138.5
X126.583Y-164.313
X127.991Y-192.253
X127.991Y-206.253
X131.821Y-155.448
X132.563Y-171.496
X132.563Y-185.496
X136.296Y-193.203
X136.296Y-207.203
X138.71Y-159.817
X140.Y-106.
X141.02Y-144.069
X143.51Y-211.226
X144.221Y-172.514
X144.221Y-197.514
X145.821Y-155.448
X149.972Y-203.2
X150.622Y-178.075
X150.622Y-192.075
X152.679Y-105.181
X153.5Y-138.5
X156.Y-185.
X159.5Y-174.
X159.5Y-196.
X160.02Y-144.069
X162.51Y-211.226
X163.398Y-106.877
X163.398Y-131.877
X163.972Y-203.2
X168.016Y-157.074
X169.748Y-112.151
X169.748Y-126.151
X172.366Y-104.191
X173.687Y-148.184
X175.006Y-161.775
X175.006Y-207.975
X175.539Y-118.07
X175.539Y-132.07
X179.807Y-110.907
X179.807Y-124.907
X182.016Y-157.074
X184.633Y-118.019
X184.633Y-132.019
X188.366Y-104.191
X189.687Y-148.184
X190.5Y-174.
X190.5Y-196.
X194.Y-185.
X194.5Y-114.
X194.5Y-136.
X197.675Y-192.2
X197.675Y-206.2
X199.034Y-154.889
X199.034Y-173.889
X203.581Y-180.936
X203.581Y-199.936
X206.599Y-163.17
X209.677Y-191.96
X209.677Y-205.96
X210.236Y-103.482
X210.236Y-149.682
X214.147Y-212.534
X215.456Y-172.612
X215.456Y-197.612
X220.012Y-204.597
X220.599Y-163.17
X220.965Y-143.231
X221.805Y-177.99
X221.805Y-191.99
X225.272Y-104.165
X225.5Y-114.
X225.5Y-136.
X226.Y-185.
X229.Y-125.
X229.5Y-174.
X229.5Y-196.
X232.816Y-117.968
X232.816Y-131.968
X233.147Y-212.534
X234.012Y-204.597
X234.965Y-143.231
X239.827Y-122.139
X239.827Y-136.139
X239.827Y-136.139
X239.827Y-150.139
X244.272Y-104.165
X245.046Y-166.306
X245.046Y-203.506
X248.237Y-147.98
X250.876Y-117.373
X250.876Y-131.373
X252.476Y-105.207
X253.286Y-165.1
X260.096Y-141.478
X260.5Y-174.
X260.5Y-196.
X262.407Y-105.156
X267.286Y-165.1
X267.335Y-184.087
X267.335Y-209.087
X269.037Y-147.98
X273.558Y-159.879
X273.558Y-178.879
X280.035Y-165.315
X280.035Y-184.315
X280.099Y-192.595
X285.8Y-209.423
X289.56Y-184.277
X289.56Y-198.277
X294.83Y-177.99
X294.83Y-191.99
X297.863Y-203.581
X301.Y-185.
X304.5Y-174.
X304.5Y-196.
X304.8Y-209.423
X311.863Y-203.581
X312.976Y-154.94
X320.167Y-166.381
X320.167Y-203.581
X326.976Y-154.94
X329.931Y-165.735
X335.5Y-174.
X335.5Y-196.
X343.916Y-174.117
X343.916Y-182.816
X343.916Y-193.449
X343.916Y-214.249
X343.931Y-165.735
T5
X334.391Y-214.249
T0
M30
